G04 #@! TF.GenerationSoftware,KiCad,Pcbnew,(6.0.5)*
G04 #@! TF.CreationDate,2022-06-20T16:53:07+02:00*
G04 #@! TF.ProjectId,MicroMatrix_Panel,4d696372-6f4d-4617-9472-69785f50616e,1.2*
G04 #@! TF.SameCoordinates,Original*
G04 #@! TF.FileFunction,Soldermask,Top*
G04 #@! TF.FilePolarity,Negative*
%FSLAX46Y46*%
G04 Gerber Fmt 4.6, Leading zero omitted, Abs format (unit mm)*
G04 Created by KiCad (PCBNEW (6.0.5)) date 2022-06-20 16:53:07*
%MOMM*%
%LPD*%
G01*
G04 APERTURE LIST*
%ADD10R,0.500000X0.500000*%
%ADD11C,1.152000*%
%ADD12C,0.600000*%
%ADD13C,1.000000*%
G04 APERTURE END LIST*
D10*
G04 #@! TO.C,D45*
X45550000Y-36950000D03*
X46450000Y-36950000D03*
X46450000Y-36050000D03*
X45550000Y-36050000D03*
G04 #@! TD*
G04 #@! TO.C,D15*
X62550000Y-26950000D03*
X63450000Y-26950000D03*
X63450000Y-26050000D03*
X62550000Y-26050000D03*
G04 #@! TD*
G04 #@! TO.C,D30*
X87050000Y-31950000D03*
X87950000Y-31950000D03*
X87950000Y-31050000D03*
X87050000Y-31050000D03*
G04 #@! TD*
G04 #@! TO.C,D41*
X77550000Y-36950000D03*
X78450000Y-36950000D03*
X78450000Y-36050000D03*
X77550000Y-36050000D03*
G04 #@! TD*
D11*
G04 #@! TO.C,REF\u002A\u002A*
X17500000Y-17500000D03*
G04 #@! TD*
D12*
G04 #@! TO.C,REF\u002A\u002A*
X26500000Y-22700000D03*
G04 #@! TD*
D10*
G04 #@! TO.C,D26*
X97050000Y-31950000D03*
X97950000Y-31950000D03*
X97950000Y-31050000D03*
X97050000Y-31050000D03*
G04 #@! TD*
G04 #@! TO.C,D55*
X53950000Y-39450000D03*
X53950000Y-38550000D03*
X53050000Y-38550000D03*
X53050000Y-39450000D03*
G04 #@! TD*
G04 #@! TO.C,D32*
X60050000Y-31950000D03*
X60950000Y-31950000D03*
X60950000Y-31050000D03*
X60050000Y-31050000D03*
G04 #@! TD*
G04 #@! TO.C,D27*
X28550000Y-31950000D03*
X29450000Y-31950000D03*
X29450000Y-31050000D03*
X28550000Y-31050000D03*
G04 #@! TD*
G04 #@! TO.C,D23*
X31950000Y-29450000D03*
X31950000Y-28550000D03*
X31050000Y-28550000D03*
X31050000Y-29450000D03*
G04 #@! TD*
G04 #@! TO.C,D21*
X70950000Y-29450000D03*
X70950000Y-28550000D03*
X70050000Y-28550000D03*
X70050000Y-29450000D03*
G04 #@! TD*
D12*
G04 #@! TO.C,REF\u002A\u002A*
X48500000Y-22700000D03*
G04 #@! TD*
D10*
G04 #@! TO.C,D13*
X45550000Y-26950000D03*
X46450000Y-26950000D03*
X46450000Y-26050000D03*
X45550000Y-26050000D03*
G04 #@! TD*
G04 #@! TO.C,D1*
X60950000Y-24450000D03*
X60950000Y-23550000D03*
X60050000Y-23550000D03*
X60050000Y-24450000D03*
G04 #@! TD*
D12*
G04 #@! TO.C,REF\u002A\u002A*
X89500000Y-43300000D03*
G04 #@! TD*
G04 #@! TO.C,REF\u002A\u002A*
X92500000Y-43300000D03*
G04 #@! TD*
G04 #@! TO.C,REF\u002A\u002A*
X90500000Y-22700000D03*
G04 #@! TD*
D10*
G04 #@! TO.C,D54*
X73450000Y-39450000D03*
X73450000Y-38550000D03*
X72550000Y-38550000D03*
X72550000Y-39450000D03*
G04 #@! TD*
G04 #@! TO.C,D14*
X87050000Y-26950000D03*
X87950000Y-26950000D03*
X87950000Y-26050000D03*
X87050000Y-26050000D03*
G04 #@! TD*
G04 #@! TO.C,D11*
X28550000Y-26950000D03*
X29450000Y-26950000D03*
X29450000Y-26050000D03*
X28550000Y-26050000D03*
G04 #@! TD*
G04 #@! TO.C,D60*
X92050000Y-41950000D03*
X92950000Y-41950000D03*
X92950000Y-41050000D03*
X92050000Y-41050000D03*
G04 #@! TD*
G04 #@! TO.C,D16*
X60050000Y-26950000D03*
X60950000Y-26950000D03*
X60950000Y-26050000D03*
X60050000Y-26050000D03*
G04 #@! TD*
G04 #@! TO.C,D54*
X95450000Y-39450000D03*
X95450000Y-38550000D03*
X94550000Y-38550000D03*
X94550000Y-39450000D03*
G04 #@! TD*
D12*
G04 #@! TO.C,REF\u002A\u002A*
X92500000Y-22700000D03*
G04 #@! TD*
D10*
G04 #@! TO.C,D40*
X78450000Y-34450000D03*
X78450000Y-33550000D03*
X77550000Y-33550000D03*
X77550000Y-34450000D03*
G04 #@! TD*
G04 #@! TO.C,D54*
X51450000Y-39450000D03*
X51450000Y-38550000D03*
X50550000Y-38550000D03*
X50550000Y-39450000D03*
G04 #@! TD*
D12*
G04 #@! TO.C,REF\u002A\u002A*
X69500000Y-22700000D03*
G04 #@! TD*
D10*
G04 #@! TO.C,D39*
X75950000Y-34450000D03*
X75950000Y-33550000D03*
X75050000Y-33550000D03*
X75050000Y-34450000D03*
G04 #@! TD*
G04 #@! TO.C,D49*
X38950000Y-39450000D03*
X38950000Y-38550000D03*
X38050000Y-38550000D03*
X38050000Y-39450000D03*
G04 #@! TD*
G04 #@! TO.C,D42*
X75050000Y-36950000D03*
X75950000Y-36950000D03*
X75950000Y-36050000D03*
X75050000Y-36050000D03*
G04 #@! TD*
G04 #@! TO.C,D15*
X18550000Y-26950000D03*
X19450000Y-26950000D03*
X19450000Y-26050000D03*
X18550000Y-26050000D03*
G04 #@! TD*
D12*
G04 #@! TO.C,REF\u002A\u002A*
X46500000Y-43300000D03*
G04 #@! TD*
D10*
G04 #@! TO.C,D23*
X53950000Y-29450000D03*
X53950000Y-28550000D03*
X53050000Y-28550000D03*
X53050000Y-29450000D03*
G04 #@! TD*
G04 #@! TO.C,D63*
X40550000Y-41950000D03*
X41450000Y-41950000D03*
X41450000Y-41050000D03*
X40550000Y-41050000D03*
G04 #@! TD*
G04 #@! TO.C,D33*
X38950000Y-34450000D03*
X38950000Y-33550000D03*
X38050000Y-33550000D03*
X38050000Y-34450000D03*
G04 #@! TD*
G04 #@! TO.C,D32*
X38050000Y-31950000D03*
X38950000Y-31950000D03*
X38950000Y-31050000D03*
X38050000Y-31050000D03*
G04 #@! TD*
G04 #@! TO.C,D19*
X87950000Y-29450000D03*
X87950000Y-28550000D03*
X87050000Y-28550000D03*
X87050000Y-29450000D03*
G04 #@! TD*
G04 #@! TO.C,D60*
X70050000Y-41950000D03*
X70950000Y-41950000D03*
X70950000Y-41050000D03*
X70050000Y-41050000D03*
G04 #@! TD*
G04 #@! TO.C,D36*
X68450000Y-34450000D03*
X68450000Y-33550000D03*
X67550000Y-33550000D03*
X67550000Y-34450000D03*
G04 #@! TD*
G04 #@! TO.C,D64*
X16050000Y-41950000D03*
X16950000Y-41950000D03*
X16950000Y-41050000D03*
X16050000Y-41050000D03*
G04 #@! TD*
D12*
G04 #@! TO.C,REF\u002A\u002A*
X67500000Y-22700000D03*
G04 #@! TD*
D10*
G04 #@! TO.C,D50*
X63450000Y-39450000D03*
X63450000Y-38550000D03*
X62550000Y-38550000D03*
X62550000Y-39450000D03*
G04 #@! TD*
G04 #@! TO.C,D18*
X41450000Y-29400000D03*
X41450000Y-28500000D03*
X40550000Y-28500000D03*
X40550000Y-29400000D03*
G04 #@! TD*
G04 #@! TO.C,D12*
X70050000Y-26950000D03*
X70950000Y-26950000D03*
X70950000Y-26050000D03*
X70050000Y-26050000D03*
G04 #@! TD*
G04 #@! TO.C,D38*
X73450000Y-34450000D03*
X73450000Y-33550000D03*
X72550000Y-33550000D03*
X72550000Y-34450000D03*
G04 #@! TD*
G04 #@! TO.C,D3*
X87950000Y-24450000D03*
X87950000Y-23550000D03*
X87050000Y-23550000D03*
X87050000Y-24450000D03*
G04 #@! TD*
D12*
G04 #@! TO.C,REF\u002A\u002A*
X67500000Y-43300000D03*
G04 #@! TD*
D10*
G04 #@! TO.C,D24*
X34450000Y-29450000D03*
X34450000Y-28550000D03*
X33550000Y-28550000D03*
X33550000Y-29450000D03*
G04 #@! TD*
G04 #@! TO.C,D28*
X92050000Y-31950000D03*
X92950000Y-31950000D03*
X92950000Y-31050000D03*
X92050000Y-31050000D03*
G04 #@! TD*
G04 #@! TO.C,D15*
X84550000Y-26950000D03*
X85450000Y-26950000D03*
X85450000Y-26050000D03*
X84550000Y-26050000D03*
G04 #@! TD*
G04 #@! TO.C,D16*
X82050000Y-26950000D03*
X82950000Y-26950000D03*
X82950000Y-26050000D03*
X82050000Y-26050000D03*
G04 #@! TD*
G04 #@! TO.C,D51*
X21950000Y-39450000D03*
X21950000Y-38550000D03*
X21050000Y-38550000D03*
X21050000Y-39450000D03*
G04 #@! TD*
G04 #@! TO.C,D62*
X43050000Y-41950000D03*
X43950000Y-41950000D03*
X43950000Y-41050000D03*
X43050000Y-41050000D03*
G04 #@! TD*
D12*
G04 #@! TO.C,REF\u002A\u002A*
X47500000Y-22700000D03*
G04 #@! TD*
D10*
G04 #@! TO.C,D48*
X16050000Y-36950000D03*
X16950000Y-36950000D03*
X16950000Y-36050000D03*
X16050000Y-36050000D03*
G04 #@! TD*
G04 #@! TO.C,D1*
X16950000Y-24450000D03*
X16950000Y-23550000D03*
X16050000Y-23550000D03*
X16050000Y-24450000D03*
G04 #@! TD*
G04 #@! TO.C,D22*
X95450000Y-29450000D03*
X95450000Y-28550000D03*
X94550000Y-28550000D03*
X94550000Y-29450000D03*
G04 #@! TD*
G04 #@! TO.C,D41*
X99550000Y-36950000D03*
X100450000Y-36950000D03*
X100450000Y-36050000D03*
X99550000Y-36050000D03*
G04 #@! TD*
G04 #@! TO.C,D40*
X34450000Y-34450000D03*
X34450000Y-33550000D03*
X33550000Y-33550000D03*
X33550000Y-34450000D03*
G04 #@! TD*
G04 #@! TO.C,D30*
X65050000Y-31950000D03*
X65950000Y-31950000D03*
X65950000Y-31050000D03*
X65050000Y-31050000D03*
G04 #@! TD*
G04 #@! TO.C,D21*
X48950000Y-29450000D03*
X48950000Y-28550000D03*
X48050000Y-28550000D03*
X48050000Y-29450000D03*
G04 #@! TD*
G04 #@! TO.C,D44*
X26050000Y-36950000D03*
X26950000Y-36950000D03*
X26950000Y-36050000D03*
X26050000Y-36050000D03*
G04 #@! TD*
G04 #@! TO.C,D43*
X72550000Y-36950000D03*
X73450000Y-36950000D03*
X73450000Y-36050000D03*
X72550000Y-36050000D03*
G04 #@! TD*
G04 #@! TO.C,D53*
X48950000Y-39450000D03*
X48950000Y-38550000D03*
X48050000Y-38550000D03*
X48050000Y-39450000D03*
G04 #@! TD*
G04 #@! TO.C,D19*
X43950000Y-29450000D03*
X43950000Y-28550000D03*
X43050000Y-28550000D03*
X43050000Y-29450000D03*
G04 #@! TD*
G04 #@! TO.C,D64*
X60050000Y-41950000D03*
X60950000Y-41950000D03*
X60950000Y-41050000D03*
X60050000Y-41050000D03*
G04 #@! TD*
G04 #@! TO.C,D61*
X45550000Y-41950000D03*
X46450000Y-41950000D03*
X46450000Y-41050000D03*
X45550000Y-41050000D03*
G04 #@! TD*
G04 #@! TO.C,D4*
X68450000Y-24450000D03*
X68450000Y-23550000D03*
X67550000Y-23550000D03*
X67550000Y-24450000D03*
G04 #@! TD*
G04 #@! TO.C,D50*
X19450000Y-39450000D03*
X19450000Y-38550000D03*
X18550000Y-38550000D03*
X18550000Y-39450000D03*
G04 #@! TD*
G04 #@! TO.C,D1*
X82950000Y-24450000D03*
X82950000Y-23550000D03*
X82050000Y-23550000D03*
X82050000Y-24450000D03*
G04 #@! TD*
G04 #@! TO.C,D12*
X92050000Y-26950000D03*
X92950000Y-26950000D03*
X92950000Y-26050000D03*
X92050000Y-26050000D03*
G04 #@! TD*
D12*
G04 #@! TO.C,REF\u002A\u002A*
X24500000Y-22700000D03*
G04 #@! TD*
D10*
G04 #@! TO.C,D30*
X21050000Y-31950000D03*
X21950000Y-31950000D03*
X21950000Y-31050000D03*
X21050000Y-31050000D03*
G04 #@! TD*
G04 #@! TO.C,D33*
X82950000Y-34450000D03*
X82950000Y-33550000D03*
X82050000Y-33550000D03*
X82050000Y-34450000D03*
G04 #@! TD*
G04 #@! TO.C,D13*
X23550000Y-26950000D03*
X24450000Y-26950000D03*
X24450000Y-26050000D03*
X23550000Y-26050000D03*
G04 #@! TD*
G04 #@! TO.C,D42*
X97050000Y-36950000D03*
X97950000Y-36950000D03*
X97950000Y-36050000D03*
X97050000Y-36050000D03*
G04 #@! TD*
G04 #@! TO.C,D42*
X31050000Y-36950000D03*
X31950000Y-36950000D03*
X31950000Y-36050000D03*
X31050000Y-36050000D03*
G04 #@! TD*
G04 #@! TO.C,D44*
X92050000Y-36950000D03*
X92950000Y-36950000D03*
X92950000Y-36050000D03*
X92050000Y-36050000D03*
G04 #@! TD*
G04 #@! TO.C,D29*
X45550000Y-31950000D03*
X46450000Y-31950000D03*
X46450000Y-31050000D03*
X45550000Y-31050000D03*
G04 #@! TD*
G04 #@! TO.C,D57*
X33550000Y-41950000D03*
X34450000Y-41950000D03*
X34450000Y-41050000D03*
X33550000Y-41050000D03*
G04 #@! TD*
D13*
G04 #@! TO.C,REF\u002A\u002A*
X20000000Y-17500000D03*
G04 #@! TD*
D10*
G04 #@! TO.C,D60*
X48050000Y-41950000D03*
X48950000Y-41950000D03*
X48950000Y-41050000D03*
X48050000Y-41050000D03*
G04 #@! TD*
G04 #@! TO.C,D49*
X16950000Y-39450000D03*
X16950000Y-38550000D03*
X16050000Y-38550000D03*
X16050000Y-39450000D03*
G04 #@! TD*
G04 #@! TO.C,D25*
X55550000Y-31950000D03*
X56450000Y-31950000D03*
X56450000Y-31050000D03*
X55550000Y-31050000D03*
G04 #@! TD*
G04 #@! TO.C,D57*
X77550000Y-41950000D03*
X78450000Y-41950000D03*
X78450000Y-41050000D03*
X77550000Y-41050000D03*
G04 #@! TD*
D12*
G04 #@! TO.C,REF\u002A\u002A*
X45500000Y-22700000D03*
G04 #@! TD*
D10*
G04 #@! TO.C,D31*
X62550000Y-31950000D03*
X63450000Y-31950000D03*
X63450000Y-31050000D03*
X62550000Y-31050000D03*
G04 #@! TD*
G04 #@! TO.C,D53*
X70950000Y-39450000D03*
X70950000Y-38550000D03*
X70050000Y-38550000D03*
X70050000Y-39450000D03*
G04 #@! TD*
G04 #@! TO.C,D49*
X82950000Y-39450000D03*
X82950000Y-38550000D03*
X82050000Y-38550000D03*
X82050000Y-39450000D03*
G04 #@! TD*
G04 #@! TO.C,D8*
X34450000Y-24450000D03*
X34450000Y-23550000D03*
X33550000Y-23550000D03*
X33550000Y-24450000D03*
G04 #@! TD*
G04 #@! TO.C,D59*
X50550000Y-41950000D03*
X51450000Y-41950000D03*
X51450000Y-41050000D03*
X50550000Y-41050000D03*
G04 #@! TD*
G04 #@! TO.C,D49*
X60950000Y-39450000D03*
X60950000Y-38550000D03*
X60050000Y-38550000D03*
X60050000Y-39450000D03*
G04 #@! TD*
G04 #@! TO.C,D6*
X95450000Y-24450000D03*
X95450000Y-23550000D03*
X94550000Y-23550000D03*
X94550000Y-24450000D03*
G04 #@! TD*
G04 #@! TO.C,D9*
X33550000Y-26950000D03*
X34450000Y-26950000D03*
X34450000Y-26050000D03*
X33550000Y-26050000D03*
G04 #@! TD*
D12*
G04 #@! TO.C,REF\u002A\u002A*
X90500000Y-43300000D03*
G04 #@! TD*
D10*
G04 #@! TO.C,D18*
X63450000Y-29400000D03*
X63450000Y-28500000D03*
X62550000Y-28500000D03*
X62550000Y-29400000D03*
G04 #@! TD*
G04 #@! TO.C,D24*
X56450000Y-29450000D03*
X56450000Y-28550000D03*
X55550000Y-28550000D03*
X55550000Y-29450000D03*
G04 #@! TD*
G04 #@! TO.C,D22*
X29450000Y-29450000D03*
X29450000Y-28550000D03*
X28550000Y-28550000D03*
X28550000Y-29450000D03*
G04 #@! TD*
G04 #@! TO.C,D4*
X90450000Y-24450000D03*
X90450000Y-23550000D03*
X89550000Y-23550000D03*
X89550000Y-24450000D03*
G04 #@! TD*
G04 #@! TO.C,D3*
X43950000Y-24450000D03*
X43950000Y-23550000D03*
X43050000Y-23550000D03*
X43050000Y-24450000D03*
G04 #@! TD*
G04 #@! TO.C,D9*
X99550000Y-26950000D03*
X100450000Y-26950000D03*
X100450000Y-26050000D03*
X99550000Y-26050000D03*
G04 #@! TD*
G04 #@! TO.C,D27*
X72550000Y-31950000D03*
X73450000Y-31950000D03*
X73450000Y-31050000D03*
X72550000Y-31050000D03*
G04 #@! TD*
G04 #@! TO.C,D57*
X99550000Y-41950000D03*
X100450000Y-41950000D03*
X100450000Y-41050000D03*
X99550000Y-41050000D03*
G04 #@! TD*
D12*
G04 #@! TO.C,REF\u002A\u002A*
X48500000Y-43300000D03*
G04 #@! TD*
D10*
G04 #@! TO.C,D31*
X84550000Y-31950000D03*
X85450000Y-31950000D03*
X85450000Y-31050000D03*
X84550000Y-31050000D03*
G04 #@! TD*
G04 #@! TO.C,D17*
X60950000Y-29450000D03*
X60950000Y-28550000D03*
X60050000Y-28550000D03*
X60050000Y-29450000D03*
G04 #@! TD*
G04 #@! TO.C,D25*
X77550000Y-31950000D03*
X78450000Y-31950000D03*
X78450000Y-31050000D03*
X77550000Y-31050000D03*
G04 #@! TD*
D12*
G04 #@! TO.C,REF\u002A\u002A*
X70500000Y-22700000D03*
G04 #@! TD*
D10*
G04 #@! TO.C,D39*
X31950000Y-34450000D03*
X31950000Y-33550000D03*
X31050000Y-33550000D03*
X31050000Y-34450000D03*
G04 #@! TD*
G04 #@! TO.C,D52*
X24450000Y-39450000D03*
X24450000Y-38550000D03*
X23550000Y-38550000D03*
X23550000Y-39450000D03*
G04 #@! TD*
G04 #@! TO.C,D38*
X95450000Y-34450000D03*
X95450000Y-33550000D03*
X94550000Y-33550000D03*
X94550000Y-34450000D03*
G04 #@! TD*
G04 #@! TO.C,D27*
X50550000Y-31950000D03*
X51450000Y-31950000D03*
X51450000Y-31050000D03*
X50550000Y-31050000D03*
G04 #@! TD*
G04 #@! TO.C,D20*
X24450000Y-29450000D03*
X24450000Y-28550000D03*
X23550000Y-28550000D03*
X23550000Y-29450000D03*
G04 #@! TD*
D12*
G04 #@! TO.C,REF\u002A\u002A*
X69500000Y-43300000D03*
G04 #@! TD*
D10*
G04 #@! TO.C,D33*
X16950000Y-34450000D03*
X16950000Y-33550000D03*
X16050000Y-33550000D03*
X16050000Y-34450000D03*
G04 #@! TD*
G04 #@! TO.C,D8*
X100450000Y-24450000D03*
X100450000Y-23550000D03*
X99550000Y-23550000D03*
X99550000Y-24450000D03*
G04 #@! TD*
G04 #@! TO.C,D56*
X34450000Y-39450000D03*
X34450000Y-38550000D03*
X33550000Y-38550000D03*
X33550000Y-39450000D03*
G04 #@! TD*
G04 #@! TO.C,D34*
X85450000Y-34450000D03*
X85450000Y-33550000D03*
X84550000Y-33550000D03*
X84550000Y-34450000D03*
G04 #@! TD*
G04 #@! TO.C,D41*
X55550000Y-36950000D03*
X56450000Y-36950000D03*
X56450000Y-36050000D03*
X55550000Y-36050000D03*
G04 #@! TD*
G04 #@! TO.C,D48*
X38050000Y-36950000D03*
X38950000Y-36950000D03*
X38950000Y-36050000D03*
X38050000Y-36050000D03*
G04 #@! TD*
G04 #@! TO.C,D19*
X65950000Y-29450000D03*
X65950000Y-28550000D03*
X65050000Y-28550000D03*
X65050000Y-29450000D03*
G04 #@! TD*
D13*
G04 #@! TO.C,REF\u002A\u002A*
X96000000Y-17500000D03*
G04 #@! TD*
D10*
G04 #@! TO.C,D11*
X72550000Y-26950000D03*
X73450000Y-26950000D03*
X73450000Y-26050000D03*
X72550000Y-26050000D03*
G04 #@! TD*
G04 #@! TO.C,D61*
X23550000Y-41950000D03*
X24450000Y-41950000D03*
X24450000Y-41050000D03*
X23550000Y-41050000D03*
G04 #@! TD*
G04 #@! TO.C,D20*
X46450000Y-29450000D03*
X46450000Y-28550000D03*
X45550000Y-28550000D03*
X45550000Y-29450000D03*
G04 #@! TD*
G04 #@! TO.C,D2*
X63450000Y-24450000D03*
X63450000Y-23550000D03*
X62550000Y-23550000D03*
X62550000Y-24450000D03*
G04 #@! TD*
G04 #@! TO.C,D43*
X28550000Y-36950000D03*
X29450000Y-36950000D03*
X29450000Y-36050000D03*
X28550000Y-36050000D03*
G04 #@! TD*
G04 #@! TO.C,D61*
X67550000Y-41950000D03*
X68450000Y-41950000D03*
X68450000Y-41050000D03*
X67550000Y-41050000D03*
G04 #@! TD*
G04 #@! TO.C,D62*
X65050000Y-41950000D03*
X65950000Y-41950000D03*
X65950000Y-41050000D03*
X65050000Y-41050000D03*
G04 #@! TD*
G04 #@! TO.C,D34*
X19450000Y-34450000D03*
X19450000Y-33550000D03*
X18550000Y-33550000D03*
X18550000Y-34450000D03*
G04 #@! TD*
G04 #@! TO.C,D29*
X89550000Y-31950000D03*
X90450000Y-31950000D03*
X90450000Y-31050000D03*
X89550000Y-31050000D03*
G04 #@! TD*
G04 #@! TO.C,D52*
X46450000Y-39450000D03*
X46450000Y-38550000D03*
X45550000Y-38550000D03*
X45550000Y-39450000D03*
G04 #@! TD*
G04 #@! TO.C,D6*
X51450000Y-24450000D03*
X51450000Y-23550000D03*
X50550000Y-23550000D03*
X50550000Y-24450000D03*
G04 #@! TD*
G04 #@! TO.C,D33*
X60950000Y-34450000D03*
X60950000Y-33550000D03*
X60050000Y-33550000D03*
X60050000Y-34450000D03*
G04 #@! TD*
G04 #@! TO.C,D28*
X70050000Y-31950000D03*
X70950000Y-31950000D03*
X70950000Y-31050000D03*
X70050000Y-31050000D03*
G04 #@! TD*
G04 #@! TO.C,D61*
X89550000Y-41950000D03*
X90450000Y-41950000D03*
X90450000Y-41050000D03*
X89550000Y-41050000D03*
G04 #@! TD*
G04 #@! TO.C,D16*
X38050000Y-26950000D03*
X38950000Y-26950000D03*
X38950000Y-26050000D03*
X38050000Y-26050000D03*
G04 #@! TD*
D11*
G04 #@! TO.C,REF\u002A\u002A*
X98500000Y-17500000D03*
G04 #@! TD*
D12*
G04 #@! TO.C,REF\u002A\u002A*
X47500000Y-43300000D03*
G04 #@! TD*
D10*
G04 #@! TO.C,D13*
X67550000Y-26950000D03*
X68450000Y-26950000D03*
X68450000Y-26050000D03*
X67550000Y-26050000D03*
G04 #@! TD*
G04 #@! TO.C,D12*
X48050000Y-26950000D03*
X48950000Y-26950000D03*
X48950000Y-26050000D03*
X48050000Y-26050000D03*
G04 #@! TD*
G04 #@! TO.C,D26*
X75050000Y-31950000D03*
X75950000Y-31950000D03*
X75950000Y-31050000D03*
X75050000Y-31050000D03*
G04 #@! TD*
D12*
G04 #@! TO.C,REF\u002A\u002A*
X23500000Y-43300000D03*
G04 #@! TD*
D10*
G04 #@! TO.C,D5*
X70950000Y-24450000D03*
X70950000Y-23550000D03*
X70050000Y-23550000D03*
X70050000Y-24450000D03*
G04 #@! TD*
G04 #@! TO.C,D10*
X53050000Y-26950000D03*
X53950000Y-26950000D03*
X53950000Y-26050000D03*
X53050000Y-26050000D03*
G04 #@! TD*
G04 #@! TO.C,D53*
X26950000Y-39450000D03*
X26950000Y-38550000D03*
X26050000Y-38550000D03*
X26050000Y-39450000D03*
G04 #@! TD*
G04 #@! TO.C,D21*
X92950000Y-29450000D03*
X92950000Y-28550000D03*
X92050000Y-28550000D03*
X92050000Y-29450000D03*
G04 #@! TD*
G04 #@! TO.C,D64*
X82050000Y-41950000D03*
X82950000Y-41950000D03*
X82950000Y-41050000D03*
X82050000Y-41050000D03*
G04 #@! TD*
G04 #@! TO.C,D34*
X63450000Y-34450000D03*
X63450000Y-33550000D03*
X62550000Y-33550000D03*
X62550000Y-34450000D03*
G04 #@! TD*
G04 #@! TO.C,D63*
X84550000Y-41950000D03*
X85450000Y-41950000D03*
X85450000Y-41050000D03*
X84550000Y-41050000D03*
G04 #@! TD*
D12*
G04 #@! TO.C,REF\u002A\u002A*
X25500000Y-43300000D03*
G04 #@! TD*
D10*
G04 #@! TO.C,D4*
X24450000Y-24450000D03*
X24450000Y-23550000D03*
X23550000Y-23550000D03*
X23550000Y-24450000D03*
G04 #@! TD*
G04 #@! TO.C,D45*
X67550000Y-36950000D03*
X68450000Y-36950000D03*
X68450000Y-36050000D03*
X67550000Y-36050000D03*
G04 #@! TD*
G04 #@! TO.C,D37*
X70950000Y-34450000D03*
X70950000Y-33550000D03*
X70050000Y-33550000D03*
X70050000Y-34450000D03*
G04 #@! TD*
G04 #@! TO.C,D17*
X16950000Y-29450000D03*
X16950000Y-28550000D03*
X16050000Y-28550000D03*
X16050000Y-29450000D03*
G04 #@! TD*
G04 #@! TO.C,D41*
X33550000Y-36950000D03*
X34450000Y-36950000D03*
X34450000Y-36050000D03*
X33550000Y-36050000D03*
G04 #@! TD*
G04 #@! TO.C,D37*
X92950000Y-34450000D03*
X92950000Y-33550000D03*
X92050000Y-33550000D03*
X92050000Y-34450000D03*
G04 #@! TD*
G04 #@! TO.C,D58*
X31050000Y-41950000D03*
X31950000Y-41950000D03*
X31950000Y-41050000D03*
X31050000Y-41050000D03*
G04 #@! TD*
G04 #@! TO.C,D51*
X65950000Y-39450000D03*
X65950000Y-38550000D03*
X65050000Y-38550000D03*
X65050000Y-39450000D03*
G04 #@! TD*
G04 #@! TO.C,D43*
X94550000Y-36950000D03*
X95450000Y-36950000D03*
X95450000Y-36050000D03*
X94550000Y-36050000D03*
G04 #@! TD*
G04 #@! TO.C,D46*
X65050000Y-36950000D03*
X65950000Y-36950000D03*
X65950000Y-36050000D03*
X65050000Y-36050000D03*
G04 #@! TD*
G04 #@! TO.C,D56*
X100450000Y-39450000D03*
X100450000Y-38550000D03*
X99550000Y-38550000D03*
X99550000Y-39450000D03*
G04 #@! TD*
G04 #@! TO.C,D29*
X67550000Y-31950000D03*
X68450000Y-31950000D03*
X68450000Y-31050000D03*
X67550000Y-31050000D03*
G04 #@! TD*
G04 #@! TO.C,D50*
X85450000Y-39450000D03*
X85450000Y-38550000D03*
X84550000Y-38550000D03*
X84550000Y-39450000D03*
G04 #@! TD*
G04 #@! TO.C,D60*
X26050000Y-41950000D03*
X26950000Y-41950000D03*
X26950000Y-41050000D03*
X26050000Y-41050000D03*
G04 #@! TD*
G04 #@! TO.C,D23*
X97950000Y-29450000D03*
X97950000Y-28550000D03*
X97050000Y-28550000D03*
X97050000Y-29450000D03*
G04 #@! TD*
G04 #@! TO.C,D35*
X21950000Y-34450000D03*
X21950000Y-33550000D03*
X21050000Y-33550000D03*
X21050000Y-34450000D03*
G04 #@! TD*
G04 #@! TO.C,D8*
X78450000Y-24450000D03*
X78450000Y-23550000D03*
X77550000Y-23550000D03*
X77550000Y-24450000D03*
G04 #@! TD*
G04 #@! TO.C,D45*
X89550000Y-36950000D03*
X90450000Y-36950000D03*
X90450000Y-36050000D03*
X89550000Y-36050000D03*
G04 #@! TD*
G04 #@! TO.C,D26*
X31050000Y-31950000D03*
X31950000Y-31950000D03*
X31950000Y-31050000D03*
X31050000Y-31050000D03*
G04 #@! TD*
G04 #@! TO.C,D50*
X41450000Y-39450000D03*
X41450000Y-38550000D03*
X40550000Y-38550000D03*
X40550000Y-39450000D03*
G04 #@! TD*
G04 #@! TO.C,D63*
X62550000Y-41950000D03*
X63450000Y-41950000D03*
X63450000Y-41050000D03*
X62550000Y-41050000D03*
G04 #@! TD*
G04 #@! TO.C,D9*
X55550000Y-26950000D03*
X56450000Y-26950000D03*
X56450000Y-26050000D03*
X55550000Y-26050000D03*
G04 #@! TD*
G04 #@! TO.C,D40*
X100450000Y-34450000D03*
X100450000Y-33550000D03*
X99550000Y-33550000D03*
X99550000Y-34450000D03*
G04 #@! TD*
G04 #@! TO.C,D3*
X21950000Y-24450000D03*
X21950000Y-23550000D03*
X21050000Y-23550000D03*
X21050000Y-24450000D03*
G04 #@! TD*
G04 #@! TO.C,D36*
X46450000Y-34450000D03*
X46450000Y-33550000D03*
X45550000Y-33550000D03*
X45550000Y-34450000D03*
G04 #@! TD*
G04 #@! TO.C,D30*
X43050000Y-31950000D03*
X43950000Y-31950000D03*
X43950000Y-31050000D03*
X43050000Y-31050000D03*
G04 #@! TD*
G04 #@! TO.C,D62*
X87050000Y-41950000D03*
X87950000Y-41950000D03*
X87950000Y-41050000D03*
X87050000Y-41050000D03*
G04 #@! TD*
G04 #@! TO.C,D6*
X29450000Y-24450000D03*
X29450000Y-23550000D03*
X28550000Y-23550000D03*
X28550000Y-24450000D03*
G04 #@! TD*
G04 #@! TO.C,D10*
X31050000Y-26950000D03*
X31950000Y-26950000D03*
X31950000Y-26050000D03*
X31050000Y-26050000D03*
G04 #@! TD*
G04 #@! TO.C,D22*
X51450000Y-29450000D03*
X51450000Y-28550000D03*
X50550000Y-28550000D03*
X50550000Y-29450000D03*
G04 #@! TD*
G04 #@! TO.C,D44*
X70050000Y-36950000D03*
X70950000Y-36950000D03*
X70950000Y-36050000D03*
X70050000Y-36050000D03*
G04 #@! TD*
G04 #@! TO.C,D11*
X50550000Y-26950000D03*
X51450000Y-26950000D03*
X51450000Y-26050000D03*
X50550000Y-26050000D03*
G04 #@! TD*
G04 #@! TO.C,D14*
X43050000Y-26950000D03*
X43950000Y-26950000D03*
X43950000Y-26050000D03*
X43050000Y-26050000D03*
G04 #@! TD*
G04 #@! TO.C,D44*
X48050000Y-36950000D03*
X48950000Y-36950000D03*
X48950000Y-36050000D03*
X48050000Y-36050000D03*
G04 #@! TD*
G04 #@! TO.C,D29*
X23550000Y-31950000D03*
X24450000Y-31950000D03*
X24450000Y-31050000D03*
X23550000Y-31050000D03*
G04 #@! TD*
G04 #@! TO.C,D62*
X21050000Y-41950000D03*
X21950000Y-41950000D03*
X21950000Y-41050000D03*
X21050000Y-41050000D03*
G04 #@! TD*
G04 #@! TO.C,D37*
X26950000Y-34450000D03*
X26950000Y-33550000D03*
X26050000Y-33550000D03*
X26050000Y-34450000D03*
G04 #@! TD*
G04 #@! TO.C,D37*
X48950000Y-34450000D03*
X48950000Y-33550000D03*
X48050000Y-33550000D03*
X48050000Y-34450000D03*
G04 #@! TD*
D12*
G04 #@! TO.C,REF\u002A\u002A*
X89500000Y-22700000D03*
G04 #@! TD*
G04 #@! TO.C,REF\u002A\u002A*
X68500000Y-43300000D03*
G04 #@! TD*
D10*
G04 #@! TO.C,D36*
X90450000Y-34450000D03*
X90450000Y-33550000D03*
X89550000Y-33550000D03*
X89550000Y-34450000D03*
G04 #@! TD*
G04 #@! TO.C,D55*
X97950000Y-39450000D03*
X97950000Y-38550000D03*
X97050000Y-38550000D03*
X97050000Y-39450000D03*
G04 #@! TD*
G04 #@! TO.C,D24*
X78450000Y-29450000D03*
X78450000Y-28550000D03*
X77550000Y-28550000D03*
X77550000Y-29450000D03*
G04 #@! TD*
G04 #@! TO.C,D9*
X77550000Y-26950000D03*
X78450000Y-26950000D03*
X78450000Y-26050000D03*
X77550000Y-26050000D03*
G04 #@! TD*
G04 #@! TO.C,D39*
X53950000Y-34450000D03*
X53950000Y-33550000D03*
X53050000Y-33550000D03*
X53050000Y-34450000D03*
G04 #@! TD*
D12*
G04 #@! TO.C,REF\u002A\u002A*
X24500000Y-43300000D03*
G04 #@! TD*
D10*
G04 #@! TO.C,D46*
X43050000Y-36950000D03*
X43950000Y-36950000D03*
X43950000Y-36050000D03*
X43050000Y-36050000D03*
G04 #@! TD*
G04 #@! TO.C,D11*
X94550000Y-26950000D03*
X95450000Y-26950000D03*
X95450000Y-26050000D03*
X94550000Y-26050000D03*
G04 #@! TD*
G04 #@! TO.C,D27*
X94550000Y-31950000D03*
X95450000Y-31950000D03*
X95450000Y-31050000D03*
X94550000Y-31050000D03*
G04 #@! TD*
G04 #@! TO.C,D47*
X62550000Y-36950000D03*
X63450000Y-36950000D03*
X63450000Y-36050000D03*
X62550000Y-36050000D03*
G04 #@! TD*
G04 #@! TO.C,D22*
X73450000Y-29450000D03*
X73450000Y-28550000D03*
X72550000Y-28550000D03*
X72550000Y-29450000D03*
G04 #@! TD*
G04 #@! TO.C,D8*
X56450000Y-24450000D03*
X56450000Y-23550000D03*
X55550000Y-23550000D03*
X55550000Y-24450000D03*
G04 #@! TD*
G04 #@! TO.C,D26*
X53050000Y-31950000D03*
X53950000Y-31950000D03*
X53950000Y-31050000D03*
X53050000Y-31050000D03*
G04 #@! TD*
G04 #@! TO.C,D52*
X68450000Y-39450000D03*
X68450000Y-38550000D03*
X67550000Y-38550000D03*
X67550000Y-39450000D03*
G04 #@! TD*
G04 #@! TO.C,D35*
X43950000Y-34450000D03*
X43950000Y-33550000D03*
X43050000Y-33550000D03*
X43050000Y-34450000D03*
G04 #@! TD*
G04 #@! TO.C,D25*
X33550000Y-31950000D03*
X34450000Y-31950000D03*
X34450000Y-31050000D03*
X33550000Y-31050000D03*
G04 #@! TD*
G04 #@! TO.C,D55*
X75950000Y-39450000D03*
X75950000Y-38550000D03*
X75050000Y-38550000D03*
X75050000Y-39450000D03*
G04 #@! TD*
G04 #@! TO.C,D20*
X90450000Y-29450000D03*
X90450000Y-28550000D03*
X89550000Y-28550000D03*
X89550000Y-29450000D03*
G04 #@! TD*
G04 #@! TO.C,D56*
X78450000Y-39450000D03*
X78450000Y-38550000D03*
X77550000Y-38550000D03*
X77550000Y-39450000D03*
G04 #@! TD*
G04 #@! TO.C,D28*
X26050000Y-31950000D03*
X26950000Y-31950000D03*
X26950000Y-31050000D03*
X26050000Y-31050000D03*
G04 #@! TD*
G04 #@! TO.C,D38*
X29450000Y-34450000D03*
X29450000Y-33550000D03*
X28550000Y-33550000D03*
X28550000Y-34450000D03*
G04 #@! TD*
G04 #@! TO.C,D13*
X89550000Y-26950000D03*
X90450000Y-26950000D03*
X90450000Y-26050000D03*
X89550000Y-26050000D03*
G04 #@! TD*
G04 #@! TO.C,D14*
X65050000Y-26950000D03*
X65950000Y-26950000D03*
X65950000Y-26050000D03*
X65050000Y-26050000D03*
G04 #@! TD*
G04 #@! TO.C,D52*
X90450000Y-39450000D03*
X90450000Y-38550000D03*
X89550000Y-38550000D03*
X89550000Y-39450000D03*
G04 #@! TD*
G04 #@! TO.C,D17*
X38950000Y-29450000D03*
X38950000Y-28550000D03*
X38050000Y-28550000D03*
X38050000Y-29450000D03*
G04 #@! TD*
D12*
G04 #@! TO.C,REF\u002A\u002A*
X25500000Y-22700000D03*
G04 #@! TD*
D10*
G04 #@! TO.C,D4*
X46450000Y-24450000D03*
X46450000Y-23550000D03*
X45550000Y-23550000D03*
X45550000Y-24450000D03*
G04 #@! TD*
D12*
G04 #@! TO.C,REF\u002A\u002A*
X46500000Y-22700000D03*
G04 #@! TD*
D10*
G04 #@! TO.C,D24*
X100450000Y-29450000D03*
X100450000Y-28550000D03*
X99550000Y-28550000D03*
X99550000Y-29450000D03*
G04 #@! TD*
G04 #@! TO.C,D17*
X82950000Y-29450000D03*
X82950000Y-28550000D03*
X82050000Y-28550000D03*
X82050000Y-29450000D03*
G04 #@! TD*
D12*
G04 #@! TO.C,REF\u002A\u002A*
X91500000Y-22700000D03*
G04 #@! TD*
D10*
G04 #@! TO.C,D32*
X16050000Y-31950000D03*
X16950000Y-31950000D03*
X16950000Y-31050000D03*
X16050000Y-31050000D03*
G04 #@! TD*
G04 #@! TO.C,D45*
X23550000Y-36950000D03*
X24450000Y-36950000D03*
X24450000Y-36050000D03*
X23550000Y-36050000D03*
G04 #@! TD*
G04 #@! TO.C,D15*
X40550000Y-26950000D03*
X41450000Y-26950000D03*
X41450000Y-26050000D03*
X40550000Y-26050000D03*
G04 #@! TD*
G04 #@! TO.C,D2*
X85450000Y-24450000D03*
X85450000Y-23550000D03*
X84550000Y-23550000D03*
X84550000Y-24450000D03*
G04 #@! TD*
G04 #@! TO.C,D28*
X48050000Y-31950000D03*
X48950000Y-31950000D03*
X48950000Y-31050000D03*
X48050000Y-31050000D03*
G04 #@! TD*
G04 #@! TO.C,D59*
X94550000Y-41950000D03*
X95450000Y-41950000D03*
X95450000Y-41050000D03*
X94550000Y-41050000D03*
G04 #@! TD*
G04 #@! TO.C,D21*
X26950000Y-29450000D03*
X26950000Y-28550000D03*
X26050000Y-28550000D03*
X26050000Y-29450000D03*
G04 #@! TD*
G04 #@! TO.C,D58*
X53050000Y-41950000D03*
X53950000Y-41950000D03*
X53950000Y-41050000D03*
X53050000Y-41050000D03*
G04 #@! TD*
G04 #@! TO.C,D12*
X26050000Y-26950000D03*
X26950000Y-26950000D03*
X26950000Y-26050000D03*
X26050000Y-26050000D03*
G04 #@! TD*
G04 #@! TO.C,D14*
X21050000Y-26950000D03*
X21950000Y-26950000D03*
X21950000Y-26050000D03*
X21050000Y-26050000D03*
G04 #@! TD*
G04 #@! TO.C,D2*
X41450000Y-24450000D03*
X41450000Y-23550000D03*
X40550000Y-23550000D03*
X40550000Y-24450000D03*
G04 #@! TD*
D12*
G04 #@! TO.C,REF\u002A\u002A*
X45500000Y-43300000D03*
G04 #@! TD*
D10*
G04 #@! TO.C,D6*
X73450000Y-24450000D03*
X73450000Y-23550000D03*
X72550000Y-23550000D03*
X72550000Y-24450000D03*
G04 #@! TD*
G04 #@! TO.C,D51*
X87950000Y-39450000D03*
X87950000Y-38550000D03*
X87050000Y-38550000D03*
X87050000Y-39450000D03*
G04 #@! TD*
G04 #@! TO.C,D10*
X75050000Y-26950000D03*
X75950000Y-26950000D03*
X75950000Y-26050000D03*
X75050000Y-26050000D03*
G04 #@! TD*
G04 #@! TO.C,D23*
X75950000Y-29450000D03*
X75950000Y-28550000D03*
X75050000Y-28550000D03*
X75050000Y-29450000D03*
G04 #@! TD*
G04 #@! TO.C,D58*
X97050000Y-41950000D03*
X97950000Y-41950000D03*
X97950000Y-41050000D03*
X97050000Y-41050000D03*
G04 #@! TD*
G04 #@! TO.C,D35*
X65950000Y-34450000D03*
X65950000Y-33550000D03*
X65050000Y-33550000D03*
X65050000Y-34450000D03*
G04 #@! TD*
G04 #@! TO.C,D47*
X18550000Y-36950000D03*
X19450000Y-36950000D03*
X19450000Y-36050000D03*
X18550000Y-36050000D03*
G04 #@! TD*
G04 #@! TO.C,D7*
X31950000Y-24450000D03*
X31950000Y-23550000D03*
X31050000Y-23550000D03*
X31050000Y-24450000D03*
G04 #@! TD*
G04 #@! TO.C,D18*
X85450000Y-29400000D03*
X85450000Y-28500000D03*
X84550000Y-28500000D03*
X84550000Y-29400000D03*
G04 #@! TD*
G04 #@! TO.C,D36*
X24450000Y-34450000D03*
X24450000Y-33550000D03*
X23550000Y-33550000D03*
X23550000Y-34450000D03*
G04 #@! TD*
G04 #@! TO.C,D35*
X87950000Y-34450000D03*
X87950000Y-33550000D03*
X87050000Y-33550000D03*
X87050000Y-34450000D03*
G04 #@! TD*
G04 #@! TO.C,D56*
X56450000Y-39450000D03*
X56450000Y-38550000D03*
X55550000Y-38550000D03*
X55550000Y-39450000D03*
G04 #@! TD*
D11*
G04 #@! TO.C,REF\u002A\u002A*
X17500000Y-48500000D03*
G04 #@! TD*
D12*
G04 #@! TO.C,REF\u002A\u002A*
X91500000Y-43300000D03*
G04 #@! TD*
D10*
G04 #@! TO.C,D63*
X18550000Y-41950000D03*
X19450000Y-41950000D03*
X19450000Y-41050000D03*
X18550000Y-41050000D03*
G04 #@! TD*
G04 #@! TO.C,D42*
X53050000Y-36950000D03*
X53950000Y-36950000D03*
X53950000Y-36050000D03*
X53050000Y-36050000D03*
G04 #@! TD*
D13*
G04 #@! TO.C,REF\u002A\u002A*
X20000000Y-48500000D03*
G04 #@! TD*
D10*
G04 #@! TO.C,D7*
X75950000Y-24450000D03*
X75950000Y-23550000D03*
X75050000Y-23550000D03*
X75050000Y-24450000D03*
G04 #@! TD*
G04 #@! TO.C,D7*
X97950000Y-24450000D03*
X97950000Y-23550000D03*
X97050000Y-23550000D03*
X97050000Y-24450000D03*
G04 #@! TD*
G04 #@! TO.C,D43*
X50550000Y-36950000D03*
X51450000Y-36950000D03*
X51450000Y-36050000D03*
X50550000Y-36050000D03*
G04 #@! TD*
D12*
G04 #@! TO.C,REF\u002A\u002A*
X23500000Y-22700000D03*
G04 #@! TD*
D10*
G04 #@! TO.C,D5*
X26950000Y-24450000D03*
X26950000Y-23550000D03*
X26050000Y-23550000D03*
X26050000Y-24450000D03*
G04 #@! TD*
G04 #@! TO.C,D1*
X38950000Y-24450000D03*
X38950000Y-23550000D03*
X38050000Y-23550000D03*
X38050000Y-24450000D03*
G04 #@! TD*
G04 #@! TO.C,D40*
X56450000Y-34450000D03*
X56450000Y-33550000D03*
X55550000Y-33550000D03*
X55550000Y-34450000D03*
G04 #@! TD*
D12*
G04 #@! TO.C,REF\u002A\u002A*
X68500000Y-22700000D03*
G04 #@! TD*
D10*
G04 #@! TO.C,D38*
X51450000Y-34450000D03*
X51450000Y-33550000D03*
X50550000Y-33550000D03*
X50550000Y-34450000D03*
G04 #@! TD*
G04 #@! TO.C,D16*
X16050000Y-26950000D03*
X16950000Y-26950000D03*
X16950000Y-26050000D03*
X16050000Y-26050000D03*
G04 #@! TD*
G04 #@! TO.C,D20*
X68450000Y-29450000D03*
X68450000Y-28550000D03*
X67550000Y-28550000D03*
X67550000Y-29450000D03*
G04 #@! TD*
G04 #@! TO.C,D34*
X41450000Y-34450000D03*
X41450000Y-33550000D03*
X40550000Y-33550000D03*
X40550000Y-34450000D03*
G04 #@! TD*
G04 #@! TO.C,D25*
X99550000Y-31950000D03*
X100450000Y-31950000D03*
X100450000Y-31050000D03*
X99550000Y-31050000D03*
G04 #@! TD*
G04 #@! TO.C,D48*
X60050000Y-36950000D03*
X60950000Y-36950000D03*
X60950000Y-36050000D03*
X60050000Y-36050000D03*
G04 #@! TD*
G04 #@! TO.C,D46*
X87050000Y-36950000D03*
X87950000Y-36950000D03*
X87950000Y-36050000D03*
X87050000Y-36050000D03*
G04 #@! TD*
D12*
G04 #@! TO.C,REF\u002A\u002A*
X26500000Y-43300000D03*
G04 #@! TD*
D10*
G04 #@! TO.C,D59*
X28550000Y-41950000D03*
X29450000Y-41950000D03*
X29450000Y-41050000D03*
X28550000Y-41050000D03*
G04 #@! TD*
D12*
G04 #@! TO.C,REF\u002A\u002A*
X70500000Y-43300000D03*
G04 #@! TD*
D10*
G04 #@! TO.C,D10*
X97050000Y-26950000D03*
X97950000Y-26950000D03*
X97950000Y-26050000D03*
X97050000Y-26050000D03*
G04 #@! TD*
G04 #@! TO.C,D53*
X92950000Y-39450000D03*
X92950000Y-38550000D03*
X92050000Y-38550000D03*
X92050000Y-39450000D03*
G04 #@! TD*
G04 #@! TO.C,D5*
X48950000Y-24450000D03*
X48950000Y-23550000D03*
X48050000Y-23550000D03*
X48050000Y-24450000D03*
G04 #@! TD*
G04 #@! TO.C,D19*
X21950000Y-29450000D03*
X21950000Y-28550000D03*
X21050000Y-28550000D03*
X21050000Y-29450000D03*
G04 #@! TD*
G04 #@! TO.C,D3*
X65950000Y-24450000D03*
X65950000Y-23550000D03*
X65050000Y-23550000D03*
X65050000Y-24450000D03*
G04 #@! TD*
G04 #@! TO.C,D31*
X40550000Y-31950000D03*
X41450000Y-31950000D03*
X41450000Y-31050000D03*
X40550000Y-31050000D03*
G04 #@! TD*
G04 #@! TO.C,D54*
X29450000Y-39450000D03*
X29450000Y-38550000D03*
X28550000Y-38550000D03*
X28550000Y-39450000D03*
G04 #@! TD*
G04 #@! TO.C,D57*
X55550000Y-41950000D03*
X56450000Y-41950000D03*
X56450000Y-41050000D03*
X55550000Y-41050000D03*
G04 #@! TD*
G04 #@! TO.C,D55*
X31950000Y-39450000D03*
X31950000Y-38550000D03*
X31050000Y-38550000D03*
X31050000Y-39450000D03*
G04 #@! TD*
G04 #@! TO.C,D47*
X40550000Y-36950000D03*
X41450000Y-36950000D03*
X41450000Y-36050000D03*
X40550000Y-36050000D03*
G04 #@! TD*
G04 #@! TO.C,D5*
X92950000Y-24450000D03*
X92950000Y-23550000D03*
X92050000Y-23550000D03*
X92050000Y-24450000D03*
G04 #@! TD*
G04 #@! TO.C,D39*
X97950000Y-34450000D03*
X97950000Y-33550000D03*
X97050000Y-33550000D03*
X97050000Y-34450000D03*
G04 #@! TD*
G04 #@! TO.C,D59*
X72550000Y-41950000D03*
X73450000Y-41950000D03*
X73450000Y-41050000D03*
X72550000Y-41050000D03*
G04 #@! TD*
G04 #@! TO.C,D58*
X75050000Y-41950000D03*
X75950000Y-41950000D03*
X75950000Y-41050000D03*
X75050000Y-41050000D03*
G04 #@! TD*
G04 #@! TO.C,D47*
X84550000Y-36950000D03*
X85450000Y-36950000D03*
X85450000Y-36050000D03*
X84550000Y-36050000D03*
G04 #@! TD*
G04 #@! TO.C,D2*
X19450000Y-24450000D03*
X19450000Y-23550000D03*
X18550000Y-23550000D03*
X18550000Y-24450000D03*
G04 #@! TD*
G04 #@! TO.C,D64*
X38050000Y-41950000D03*
X38950000Y-41950000D03*
X38950000Y-41050000D03*
X38050000Y-41050000D03*
G04 #@! TD*
G04 #@! TO.C,D7*
X53950000Y-24450000D03*
X53950000Y-23550000D03*
X53050000Y-23550000D03*
X53050000Y-24450000D03*
G04 #@! TD*
G04 #@! TO.C,D48*
X82050000Y-36950000D03*
X82950000Y-36950000D03*
X82950000Y-36050000D03*
X82050000Y-36050000D03*
G04 #@! TD*
G04 #@! TO.C,D31*
X18550000Y-31950000D03*
X19450000Y-31950000D03*
X19450000Y-31050000D03*
X18550000Y-31050000D03*
G04 #@! TD*
G04 #@! TO.C,D18*
X19450000Y-29400000D03*
X19450000Y-28500000D03*
X18550000Y-28500000D03*
X18550000Y-29400000D03*
G04 #@! TD*
G04 #@! TO.C,D46*
X21050000Y-36950000D03*
X21950000Y-36950000D03*
X21950000Y-36050000D03*
X21050000Y-36050000D03*
G04 #@! TD*
G04 #@! TO.C,D51*
X43950000Y-39450000D03*
X43950000Y-38550000D03*
X43050000Y-38550000D03*
X43050000Y-39450000D03*
G04 #@! TD*
G04 #@! TO.C,D32*
X82050000Y-31950000D03*
X82950000Y-31950000D03*
X82950000Y-31050000D03*
X82050000Y-31050000D03*
G04 #@! TD*
M02*
