G04 #@! TF.GenerationSoftware,KiCad,Pcbnew,7.0.2*
G04 #@! TF.CreationDate,2024-01-09T17:33:51+01:00*
G04 #@! TF.ProjectId,MicroMatrix_Panel,4d696372-6f4d-4617-9472-69785f50616e,1.3*
G04 #@! TF.SameCoordinates,Original*
G04 #@! TF.FileFunction,Soldermask,Top*
G04 #@! TF.FilePolarity,Negative*
%FSLAX46Y46*%
G04 Gerber Fmt 4.6, Leading zero omitted, Abs format (unit mm)*
G04 Created by KiCad (PCBNEW 7.0.2) date 2024-01-09 17:33:51*
%MOMM*%
%LPD*%
G01*
G04 APERTURE LIST*
%ADD10R,0.500000X0.500000*%
%ADD11C,0.600000*%
%ADD12C,1.152000*%
%ADD13C,1.000000*%
G04 APERTURE END LIST*
D10*
G04 #@! TO.C,D41*
X63450000Y-21050000D03*
X62550000Y-21050000D03*
X62550000Y-21950000D03*
X63450000Y-21950000D03*
G04 #@! TD*
G04 #@! TO.C,D32*
X45950000Y-16050000D03*
X45050000Y-16050000D03*
X45050000Y-16950000D03*
X45950000Y-16950000D03*
G04 #@! TD*
D11*
G04 #@! TO.C,REF\u002A\u002A*
X53500000Y-28300000D03*
G04 #@! TD*
D10*
G04 #@! TO.C,D39*
X60050000Y-18550000D03*
X60050000Y-19450000D03*
X60950000Y-19450000D03*
X60950000Y-18550000D03*
G04 #@! TD*
G04 #@! TO.C,D46*
X72950000Y-21050000D03*
X72050000Y-21050000D03*
X72050000Y-21950000D03*
X72950000Y-21950000D03*
G04 #@! TD*
G04 #@! TO.C,D40*
X18550000Y-18550000D03*
X18550000Y-19450000D03*
X19450000Y-19450000D03*
X19450000Y-18550000D03*
G04 #@! TD*
G04 #@! TO.C,D24*
X84550000Y-13550000D03*
X84550000Y-14450000D03*
X85450000Y-14450000D03*
X85450000Y-13550000D03*
G04 #@! TD*
G04 #@! TO.C,D56*
X18550000Y-23550000D03*
X18550000Y-24450000D03*
X19450000Y-24450000D03*
X19450000Y-23550000D03*
G04 #@! TD*
G04 #@! TO.C,D18*
X47550000Y-13500000D03*
X47550000Y-14400000D03*
X48450000Y-14400000D03*
X48450000Y-13500000D03*
G04 #@! TD*
G04 #@! TO.C,D25*
X41450000Y-16050000D03*
X40550000Y-16050000D03*
X40550000Y-16950000D03*
X41450000Y-16950000D03*
G04 #@! TD*
G04 #@! TO.C,D23*
X16050000Y-13550000D03*
X16050000Y-14450000D03*
X16950000Y-14450000D03*
X16950000Y-13550000D03*
G04 #@! TD*
G04 #@! TO.C,D49*
X1050000Y-23550000D03*
X1050000Y-24450000D03*
X1950000Y-24450000D03*
X1950000Y-23550000D03*
G04 #@! TD*
G04 #@! TO.C,D45*
X31450000Y-21050000D03*
X30550000Y-21050000D03*
X30550000Y-21950000D03*
X31450000Y-21950000D03*
G04 #@! TD*
G04 #@! TO.C,D61*
X31450000Y-26050000D03*
X30550000Y-26050000D03*
X30550000Y-26950000D03*
X31450000Y-26950000D03*
G04 #@! TD*
G04 #@! TO.C,D61*
X75450000Y-26050000D03*
X74550000Y-26050000D03*
X74550000Y-26950000D03*
X75450000Y-26950000D03*
G04 #@! TD*
G04 #@! TO.C,D14*
X50950000Y-11050000D03*
X50050000Y-11050000D03*
X50050000Y-11950000D03*
X50950000Y-11950000D03*
G04 #@! TD*
G04 #@! TO.C,D61*
X9450000Y-26050000D03*
X8550000Y-26050000D03*
X8550000Y-26950000D03*
X9450000Y-26950000D03*
G04 #@! TD*
G04 #@! TO.C,D53*
X33050000Y-23550000D03*
X33050000Y-24450000D03*
X33950000Y-24450000D03*
X33950000Y-23550000D03*
G04 #@! TD*
D11*
G04 #@! TO.C,REF\u002A\u002A*
X8500000Y-7700000D03*
G04 #@! TD*
G04 #@! TO.C,REF\u002A\u002A*
X76500000Y-7700000D03*
G04 #@! TD*
D10*
G04 #@! TO.C,D49*
X67050000Y-23550000D03*
X67050000Y-24450000D03*
X67950000Y-24450000D03*
X67950000Y-23550000D03*
G04 #@! TD*
G04 #@! TO.C,D2*
X25550000Y-8550000D03*
X25550000Y-9450000D03*
X26450000Y-9450000D03*
X26450000Y-8550000D03*
G04 #@! TD*
G04 #@! TO.C,D59*
X58450000Y-26050000D03*
X57550000Y-26050000D03*
X57550000Y-26950000D03*
X58450000Y-26950000D03*
G04 #@! TD*
D11*
G04 #@! TO.C,REF\u002A\u002A*
X9500000Y-7700000D03*
G04 #@! TD*
D10*
G04 #@! TO.C,D27*
X80450000Y-16050000D03*
X79550000Y-16050000D03*
X79550000Y-16950000D03*
X80450000Y-16950000D03*
G04 #@! TD*
G04 #@! TO.C,D3*
X6050000Y-8550000D03*
X6050000Y-9450000D03*
X6950000Y-9450000D03*
X6950000Y-8550000D03*
G04 #@! TD*
G04 #@! TO.C,D13*
X31450000Y-11050000D03*
X30550000Y-11050000D03*
X30550000Y-11950000D03*
X31450000Y-11950000D03*
G04 #@! TD*
G04 #@! TO.C,D36*
X8550000Y-18550000D03*
X8550000Y-19450000D03*
X9450000Y-19450000D03*
X9450000Y-18550000D03*
G04 #@! TD*
D11*
G04 #@! TO.C,REF\u002A\u002A*
X31500000Y-28300000D03*
G04 #@! TD*
D12*
G04 #@! TO.C,REF\u002A\u002A*
X83500000Y-2500000D03*
G04 #@! TD*
D10*
G04 #@! TO.C,D40*
X40550000Y-18550000D03*
X40550000Y-19450000D03*
X41450000Y-19450000D03*
X41450000Y-18550000D03*
G04 #@! TD*
G04 #@! TO.C,D22*
X13550000Y-13550000D03*
X13550000Y-14450000D03*
X14450000Y-14450000D03*
X14450000Y-13550000D03*
G04 #@! TD*
G04 #@! TO.C,D43*
X14450000Y-21050000D03*
X13550000Y-21050000D03*
X13550000Y-21950000D03*
X14450000Y-21950000D03*
G04 #@! TD*
G04 #@! TO.C,D64*
X45950000Y-26050000D03*
X45050000Y-26050000D03*
X45050000Y-26950000D03*
X45950000Y-26950000D03*
G04 #@! TD*
G04 #@! TO.C,D17*
X67050000Y-13550000D03*
X67050000Y-14450000D03*
X67950000Y-14450000D03*
X67950000Y-13550000D03*
G04 #@! TD*
G04 #@! TO.C,D3*
X50050000Y-8550000D03*
X50050000Y-9450000D03*
X50950000Y-9450000D03*
X50950000Y-8550000D03*
G04 #@! TD*
D11*
G04 #@! TO.C,REF\u002A\u002A*
X74500000Y-7700000D03*
G04 #@! TD*
D10*
G04 #@! TO.C,D52*
X52550000Y-23550000D03*
X52550000Y-24450000D03*
X53450000Y-24450000D03*
X53450000Y-23550000D03*
G04 #@! TD*
G04 #@! TO.C,D62*
X28950000Y-26050000D03*
X28050000Y-26050000D03*
X28050000Y-26950000D03*
X28950000Y-26950000D03*
G04 #@! TD*
G04 #@! TO.C,D53*
X11050000Y-23550000D03*
X11050000Y-24450000D03*
X11950000Y-24450000D03*
X11950000Y-23550000D03*
G04 #@! TD*
G04 #@! TO.C,D33*
X67050000Y-18550000D03*
X67050000Y-19450000D03*
X67950000Y-19450000D03*
X67950000Y-18550000D03*
G04 #@! TD*
D13*
G04 #@! TO.C,REF\u002A\u002A*
X5000000Y-33500000D03*
G04 #@! TD*
D10*
G04 #@! TO.C,D38*
X35550000Y-18550000D03*
X35550000Y-19450000D03*
X36450000Y-19450000D03*
X36450000Y-18550000D03*
G04 #@! TD*
G04 #@! TO.C,D1*
X23050000Y-8550000D03*
X23050000Y-9450000D03*
X23950000Y-9450000D03*
X23950000Y-8550000D03*
G04 #@! TD*
D13*
G04 #@! TO.C,REF\u002A\u002A*
X5000000Y-2500000D03*
G04 #@! TD*
D10*
G04 #@! TO.C,D41*
X41450000Y-21050000D03*
X40550000Y-21050000D03*
X40550000Y-21950000D03*
X41450000Y-21950000D03*
G04 #@! TD*
D11*
G04 #@! TO.C,REF\u002A\u002A*
X10500000Y-28300000D03*
G04 #@! TD*
D10*
G04 #@! TO.C,D58*
X60950000Y-26050000D03*
X60050000Y-26050000D03*
X60050000Y-26950000D03*
X60950000Y-26950000D03*
G04 #@! TD*
G04 #@! TO.C,D31*
X70450000Y-16050000D03*
X69550000Y-16050000D03*
X69550000Y-16950000D03*
X70450000Y-16950000D03*
G04 #@! TD*
G04 #@! TO.C,D31*
X26450000Y-16050000D03*
X25550000Y-16050000D03*
X25550000Y-16950000D03*
X26450000Y-16950000D03*
G04 #@! TD*
G04 #@! TO.C,D12*
X55950000Y-11050000D03*
X55050000Y-11050000D03*
X55050000Y-11950000D03*
X55950000Y-11950000D03*
G04 #@! TD*
G04 #@! TO.C,D20*
X30550000Y-13550000D03*
X30550000Y-14450000D03*
X31450000Y-14450000D03*
X31450000Y-13550000D03*
G04 #@! TD*
G04 #@! TO.C,D24*
X18550000Y-13550000D03*
X18550000Y-14450000D03*
X19450000Y-14450000D03*
X19450000Y-13550000D03*
G04 #@! TD*
G04 #@! TO.C,D56*
X84550000Y-23550000D03*
X84550000Y-24450000D03*
X85450000Y-24450000D03*
X85450000Y-23550000D03*
G04 #@! TD*
G04 #@! TO.C,D2*
X47550000Y-8550000D03*
X47550000Y-9450000D03*
X48450000Y-9450000D03*
X48450000Y-8550000D03*
G04 #@! TD*
G04 #@! TO.C,D7*
X82050000Y-8550000D03*
X82050000Y-9450000D03*
X82950000Y-9450000D03*
X82950000Y-8550000D03*
G04 #@! TD*
G04 #@! TO.C,D42*
X16950000Y-21050000D03*
X16050000Y-21050000D03*
X16050000Y-21950000D03*
X16950000Y-21950000D03*
G04 #@! TD*
G04 #@! TO.C,D52*
X8550000Y-23550000D03*
X8550000Y-24450000D03*
X9450000Y-24450000D03*
X9450000Y-23550000D03*
G04 #@! TD*
G04 #@! TO.C,D38*
X79550000Y-18550000D03*
X79550000Y-19450000D03*
X80450000Y-19450000D03*
X80450000Y-18550000D03*
G04 #@! TD*
G04 #@! TO.C,D47*
X4450000Y-21050000D03*
X3550000Y-21050000D03*
X3550000Y-21950000D03*
X4450000Y-21950000D03*
G04 #@! TD*
G04 #@! TO.C,D18*
X69550000Y-13500000D03*
X69550000Y-14400000D03*
X70450000Y-14400000D03*
X70450000Y-13500000D03*
G04 #@! TD*
G04 #@! TO.C,D38*
X13550000Y-18550000D03*
X13550000Y-19450000D03*
X14450000Y-19450000D03*
X14450000Y-18550000D03*
G04 #@! TD*
G04 #@! TO.C,D54*
X57550000Y-23550000D03*
X57550000Y-24450000D03*
X58450000Y-24450000D03*
X58450000Y-23550000D03*
G04 #@! TD*
G04 #@! TO.C,D43*
X36450000Y-21050000D03*
X35550000Y-21050000D03*
X35550000Y-21950000D03*
X36450000Y-21950000D03*
G04 #@! TD*
G04 #@! TO.C,D5*
X33050000Y-8550000D03*
X33050000Y-9450000D03*
X33950000Y-9450000D03*
X33950000Y-8550000D03*
G04 #@! TD*
G04 #@! TO.C,D35*
X28050000Y-18550000D03*
X28050000Y-19450000D03*
X28950000Y-19450000D03*
X28950000Y-18550000D03*
G04 #@! TD*
D11*
G04 #@! TO.C,REF\u002A\u002A*
X52500000Y-7700000D03*
G04 #@! TD*
D10*
G04 #@! TO.C,D4*
X74550000Y-8550000D03*
X74550000Y-9450000D03*
X75450000Y-9450000D03*
X75450000Y-8550000D03*
G04 #@! TD*
D11*
G04 #@! TO.C,REF\u002A\u002A*
X74500000Y-28300000D03*
G04 #@! TD*
D10*
G04 #@! TO.C,D18*
X3550000Y-13500000D03*
X3550000Y-14400000D03*
X4450000Y-14400000D03*
X4450000Y-13500000D03*
G04 #@! TD*
G04 #@! TO.C,D48*
X23950000Y-21050000D03*
X23050000Y-21050000D03*
X23050000Y-21950000D03*
X23950000Y-21950000D03*
G04 #@! TD*
G04 #@! TO.C,D47*
X70450000Y-21050000D03*
X69550000Y-21050000D03*
X69550000Y-21950000D03*
X70450000Y-21950000D03*
G04 #@! TD*
G04 #@! TO.C,D44*
X77950000Y-21050000D03*
X77050000Y-21050000D03*
X77050000Y-21950000D03*
X77950000Y-21950000D03*
G04 #@! TD*
D11*
G04 #@! TO.C,REF\u002A\u002A*
X77500000Y-28300000D03*
G04 #@! TD*
D10*
G04 #@! TO.C,D16*
X1950000Y-11050000D03*
X1050000Y-11050000D03*
X1050000Y-11950000D03*
X1950000Y-11950000D03*
G04 #@! TD*
G04 #@! TO.C,D39*
X16050000Y-18550000D03*
X16050000Y-19450000D03*
X16950000Y-19450000D03*
X16950000Y-18550000D03*
G04 #@! TD*
G04 #@! TO.C,D13*
X9450000Y-11050000D03*
X8550000Y-11050000D03*
X8550000Y-11950000D03*
X9450000Y-11950000D03*
G04 #@! TD*
G04 #@! TO.C,D8*
X84550000Y-8550000D03*
X84550000Y-9450000D03*
X85450000Y-9450000D03*
X85450000Y-8550000D03*
G04 #@! TD*
G04 #@! TO.C,D63*
X4450000Y-26050000D03*
X3550000Y-26050000D03*
X3550000Y-26950000D03*
X4450000Y-26950000D03*
G04 #@! TD*
G04 #@! TO.C,D10*
X60950000Y-11050000D03*
X60050000Y-11050000D03*
X60050000Y-11950000D03*
X60950000Y-11950000D03*
G04 #@! TD*
G04 #@! TO.C,D6*
X79550000Y-8550000D03*
X79550000Y-9450000D03*
X80450000Y-9450000D03*
X80450000Y-8550000D03*
G04 #@! TD*
G04 #@! TO.C,D33*
X1050000Y-18550000D03*
X1050000Y-19450000D03*
X1950000Y-19450000D03*
X1950000Y-18550000D03*
G04 #@! TD*
G04 #@! TO.C,D64*
X1950000Y-26050000D03*
X1050000Y-26050000D03*
X1050000Y-26950000D03*
X1950000Y-26950000D03*
G04 #@! TD*
D11*
G04 #@! TO.C,REF\u002A\u002A*
X53500000Y-7700000D03*
G04 #@! TD*
D10*
G04 #@! TO.C,D39*
X38050000Y-18550000D03*
X38050000Y-19450000D03*
X38950000Y-19450000D03*
X38950000Y-18550000D03*
G04 #@! TD*
G04 #@! TO.C,D7*
X16050000Y-8550000D03*
X16050000Y-9450000D03*
X16950000Y-9450000D03*
X16950000Y-8550000D03*
G04 #@! TD*
G04 #@! TO.C,D32*
X67950000Y-16050000D03*
X67050000Y-16050000D03*
X67050000Y-16950000D03*
X67950000Y-16950000D03*
G04 #@! TD*
G04 #@! TO.C,D21*
X33050000Y-13550000D03*
X33050000Y-14450000D03*
X33950000Y-14450000D03*
X33950000Y-13550000D03*
G04 #@! TD*
G04 #@! TO.C,D29*
X9450000Y-16050000D03*
X8550000Y-16050000D03*
X8550000Y-16950000D03*
X9450000Y-16950000D03*
G04 #@! TD*
G04 #@! TO.C,D44*
X55950000Y-21050000D03*
X55050000Y-21050000D03*
X55050000Y-21950000D03*
X55950000Y-21950000D03*
G04 #@! TD*
G04 #@! TO.C,D51*
X6050000Y-23550000D03*
X6050000Y-24450000D03*
X6950000Y-24450000D03*
X6950000Y-23550000D03*
G04 #@! TD*
G04 #@! TO.C,D62*
X50950000Y-26050000D03*
X50050000Y-26050000D03*
X50050000Y-26950000D03*
X50950000Y-26950000D03*
G04 #@! TD*
G04 #@! TO.C,D19*
X28050000Y-13550000D03*
X28050000Y-14450000D03*
X28950000Y-14450000D03*
X28950000Y-13550000D03*
G04 #@! TD*
G04 #@! TO.C,D37*
X55050000Y-18550000D03*
X55050000Y-19450000D03*
X55950000Y-19450000D03*
X55950000Y-18550000D03*
G04 #@! TD*
G04 #@! TO.C,D8*
X62550000Y-8550000D03*
X62550000Y-9450000D03*
X63450000Y-9450000D03*
X63450000Y-8550000D03*
G04 #@! TD*
G04 #@! TO.C,D10*
X82950000Y-11050000D03*
X82050000Y-11050000D03*
X82050000Y-11950000D03*
X82950000Y-11950000D03*
G04 #@! TD*
G04 #@! TO.C,D37*
X11050000Y-18550000D03*
X11050000Y-19450000D03*
X11950000Y-19450000D03*
X11950000Y-18550000D03*
G04 #@! TD*
G04 #@! TO.C,D57*
X41450000Y-26050000D03*
X40550000Y-26050000D03*
X40550000Y-26950000D03*
X41450000Y-26950000D03*
G04 #@! TD*
D11*
G04 #@! TO.C,REF\u002A\u002A*
X10500000Y-7700000D03*
G04 #@! TD*
D10*
G04 #@! TO.C,D14*
X28950000Y-11050000D03*
X28050000Y-11050000D03*
X28050000Y-11950000D03*
X28950000Y-11950000D03*
G04 #@! TD*
D11*
G04 #@! TO.C,REF\u002A\u002A*
X55500000Y-28300000D03*
G04 #@! TD*
D10*
G04 #@! TO.C,D4*
X8550000Y-8550000D03*
X8550000Y-9450000D03*
X9450000Y-9450000D03*
X9450000Y-8550000D03*
G04 #@! TD*
D11*
G04 #@! TO.C,REF\u002A\u002A*
X77500000Y-7700000D03*
G04 #@! TD*
D10*
G04 #@! TO.C,D48*
X45950000Y-21050000D03*
X45050000Y-21050000D03*
X45050000Y-21950000D03*
X45950000Y-21950000D03*
G04 #@! TD*
G04 #@! TO.C,D27*
X36450000Y-16050000D03*
X35550000Y-16050000D03*
X35550000Y-16950000D03*
X36450000Y-16950000D03*
G04 #@! TD*
G04 #@! TO.C,D11*
X80450000Y-11050000D03*
X79550000Y-11050000D03*
X79550000Y-11950000D03*
X80450000Y-11950000D03*
G04 #@! TD*
G04 #@! TO.C,D50*
X47550000Y-23550000D03*
X47550000Y-24450000D03*
X48450000Y-24450000D03*
X48450000Y-23550000D03*
G04 #@! TD*
G04 #@! TO.C,D56*
X62550000Y-23550000D03*
X62550000Y-24450000D03*
X63450000Y-24450000D03*
X63450000Y-23550000D03*
G04 #@! TD*
G04 #@! TO.C,D64*
X67950000Y-26050000D03*
X67050000Y-26050000D03*
X67050000Y-26950000D03*
X67950000Y-26950000D03*
G04 #@! TD*
G04 #@! TO.C,D35*
X6050000Y-18550000D03*
X6050000Y-19450000D03*
X6950000Y-19450000D03*
X6950000Y-18550000D03*
G04 #@! TD*
G04 #@! TO.C,D5*
X55050000Y-8550000D03*
X55050000Y-9450000D03*
X55950000Y-9450000D03*
X55950000Y-8550000D03*
G04 #@! TD*
G04 #@! TO.C,D52*
X74550000Y-23550000D03*
X74550000Y-24450000D03*
X75450000Y-24450000D03*
X75450000Y-23550000D03*
G04 #@! TD*
G04 #@! TO.C,D37*
X77050000Y-18550000D03*
X77050000Y-19450000D03*
X77950000Y-19450000D03*
X77950000Y-18550000D03*
G04 #@! TD*
G04 #@! TO.C,D17*
X23050000Y-13550000D03*
X23050000Y-14450000D03*
X23950000Y-14450000D03*
X23950000Y-13550000D03*
G04 #@! TD*
G04 #@! TO.C,D9*
X85450000Y-11050000D03*
X84550000Y-11050000D03*
X84550000Y-11950000D03*
X85450000Y-11950000D03*
G04 #@! TD*
G04 #@! TO.C,D34*
X69550000Y-18550000D03*
X69550000Y-19450000D03*
X70450000Y-19450000D03*
X70450000Y-18550000D03*
G04 #@! TD*
G04 #@! TO.C,D21*
X77050000Y-13550000D03*
X77050000Y-14450000D03*
X77950000Y-14450000D03*
X77950000Y-13550000D03*
G04 #@! TD*
G04 #@! TO.C,D45*
X75450000Y-21050000D03*
X74550000Y-21050000D03*
X74550000Y-21950000D03*
X75450000Y-21950000D03*
G04 #@! TD*
G04 #@! TO.C,D1*
X45050000Y-8550000D03*
X45050000Y-9450000D03*
X45950000Y-9450000D03*
X45950000Y-8550000D03*
G04 #@! TD*
G04 #@! TO.C,D25*
X85450000Y-16050000D03*
X84550000Y-16050000D03*
X84550000Y-16950000D03*
X85450000Y-16950000D03*
G04 #@! TD*
G04 #@! TO.C,D29*
X75450000Y-16050000D03*
X74550000Y-16050000D03*
X74550000Y-16950000D03*
X75450000Y-16950000D03*
G04 #@! TD*
G04 #@! TO.C,D50*
X69550000Y-23550000D03*
X69550000Y-24450000D03*
X70450000Y-24450000D03*
X70450000Y-23550000D03*
G04 #@! TD*
G04 #@! TO.C,D63*
X26450000Y-26050000D03*
X25550000Y-26050000D03*
X25550000Y-26950000D03*
X26450000Y-26950000D03*
G04 #@! TD*
G04 #@! TO.C,D28*
X11950000Y-16050000D03*
X11050000Y-16050000D03*
X11050000Y-16950000D03*
X11950000Y-16950000D03*
G04 #@! TD*
G04 #@! TO.C,D7*
X60050000Y-8550000D03*
X60050000Y-9450000D03*
X60950000Y-9450000D03*
X60950000Y-8550000D03*
G04 #@! TD*
G04 #@! TO.C,D39*
X82050000Y-18550000D03*
X82050000Y-19450000D03*
X82950000Y-19450000D03*
X82950000Y-18550000D03*
G04 #@! TD*
G04 #@! TO.C,D62*
X72950000Y-26050000D03*
X72050000Y-26050000D03*
X72050000Y-26950000D03*
X72950000Y-26950000D03*
G04 #@! TD*
G04 #@! TO.C,D18*
X25550000Y-13500000D03*
X25550000Y-14400000D03*
X26450000Y-14400000D03*
X26450000Y-13500000D03*
G04 #@! TD*
G04 #@! TO.C,D55*
X38050000Y-23550000D03*
X38050000Y-24450000D03*
X38950000Y-24450000D03*
X38950000Y-23550000D03*
G04 #@! TD*
G04 #@! TO.C,D30*
X6950000Y-16050000D03*
X6050000Y-16050000D03*
X6050000Y-16950000D03*
X6950000Y-16950000D03*
G04 #@! TD*
G04 #@! TO.C,D60*
X55950000Y-26050000D03*
X55050000Y-26050000D03*
X55050000Y-26950000D03*
X55950000Y-26950000D03*
G04 #@! TD*
G04 #@! TO.C,D1*
X67050000Y-8550000D03*
X67050000Y-9450000D03*
X67950000Y-9450000D03*
X67950000Y-8550000D03*
G04 #@! TD*
G04 #@! TO.C,D19*
X72050000Y-13550000D03*
X72050000Y-14450000D03*
X72950000Y-14450000D03*
X72950000Y-13550000D03*
G04 #@! TD*
G04 #@! TO.C,D19*
X6050000Y-13550000D03*
X6050000Y-14450000D03*
X6950000Y-14450000D03*
X6950000Y-13550000D03*
G04 #@! TD*
G04 #@! TO.C,D17*
X45050000Y-13550000D03*
X45050000Y-14450000D03*
X45950000Y-14450000D03*
X45950000Y-13550000D03*
G04 #@! TD*
G04 #@! TO.C,D54*
X79550000Y-23550000D03*
X79550000Y-24450000D03*
X80450000Y-24450000D03*
X80450000Y-23550000D03*
G04 #@! TD*
G04 #@! TO.C,D36*
X74550000Y-18550000D03*
X74550000Y-19450000D03*
X75450000Y-19450000D03*
X75450000Y-18550000D03*
G04 #@! TD*
G04 #@! TO.C,D30*
X72950000Y-16050000D03*
X72050000Y-16050000D03*
X72050000Y-16950000D03*
X72950000Y-16950000D03*
G04 #@! TD*
G04 #@! TO.C,D47*
X48450000Y-21050000D03*
X47550000Y-21050000D03*
X47550000Y-21950000D03*
X48450000Y-21950000D03*
G04 #@! TD*
G04 #@! TO.C,D9*
X41450000Y-11050000D03*
X40550000Y-11050000D03*
X40550000Y-11950000D03*
X41450000Y-11950000D03*
G04 #@! TD*
G04 #@! TO.C,D44*
X33950000Y-21050000D03*
X33050000Y-21050000D03*
X33050000Y-21950000D03*
X33950000Y-21950000D03*
G04 #@! TD*
G04 #@! TO.C,D20*
X8550000Y-13550000D03*
X8550000Y-14450000D03*
X9450000Y-14450000D03*
X9450000Y-13550000D03*
G04 #@! TD*
D11*
G04 #@! TO.C,REF\u002A\u002A*
X30500000Y-28300000D03*
G04 #@! TD*
D10*
G04 #@! TO.C,D42*
X38950000Y-21050000D03*
X38050000Y-21050000D03*
X38050000Y-21950000D03*
X38950000Y-21950000D03*
G04 #@! TD*
G04 #@! TO.C,D54*
X13550000Y-23550000D03*
X13550000Y-24450000D03*
X14450000Y-24450000D03*
X14450000Y-23550000D03*
G04 #@! TD*
G04 #@! TO.C,D21*
X55050000Y-13550000D03*
X55050000Y-14450000D03*
X55950000Y-14450000D03*
X55950000Y-13550000D03*
G04 #@! TD*
G04 #@! TO.C,D24*
X40550000Y-13550000D03*
X40550000Y-14450000D03*
X41450000Y-14450000D03*
X41450000Y-13550000D03*
G04 #@! TD*
G04 #@! TO.C,D16*
X45950000Y-11050000D03*
X45050000Y-11050000D03*
X45050000Y-11950000D03*
X45950000Y-11950000D03*
G04 #@! TD*
G04 #@! TO.C,D10*
X16950000Y-11050000D03*
X16050000Y-11050000D03*
X16050000Y-11950000D03*
X16950000Y-11950000D03*
G04 #@! TD*
G04 #@! TO.C,D46*
X6950000Y-21050000D03*
X6050000Y-21050000D03*
X6050000Y-21950000D03*
X6950000Y-21950000D03*
G04 #@! TD*
G04 #@! TO.C,D16*
X23950000Y-11050000D03*
X23050000Y-11050000D03*
X23050000Y-11950000D03*
X23950000Y-11950000D03*
G04 #@! TD*
G04 #@! TO.C,D56*
X40550000Y-23550000D03*
X40550000Y-24450000D03*
X41450000Y-24450000D03*
X41450000Y-23550000D03*
G04 #@! TD*
D11*
G04 #@! TO.C,REF\u002A\u002A*
X8500000Y-28300000D03*
G04 #@! TD*
D10*
G04 #@! TO.C,D57*
X63450000Y-26050000D03*
X62550000Y-26050000D03*
X62550000Y-26950000D03*
X63450000Y-26950000D03*
G04 #@! TD*
G04 #@! TO.C,D50*
X25550000Y-23550000D03*
X25550000Y-24450000D03*
X26450000Y-24450000D03*
X26450000Y-23550000D03*
G04 #@! TD*
G04 #@! TO.C,D25*
X63450000Y-16050000D03*
X62550000Y-16050000D03*
X62550000Y-16950000D03*
X63450000Y-16950000D03*
G04 #@! TD*
G04 #@! TO.C,D47*
X26450000Y-21050000D03*
X25550000Y-21050000D03*
X25550000Y-21950000D03*
X26450000Y-21950000D03*
G04 #@! TD*
G04 #@! TO.C,D26*
X16950000Y-16050000D03*
X16050000Y-16050000D03*
X16050000Y-16950000D03*
X16950000Y-16950000D03*
G04 #@! TD*
D11*
G04 #@! TO.C,REF\u002A\u002A*
X76500000Y-28300000D03*
G04 #@! TD*
G04 #@! TO.C,REF\u002A\u002A*
X11500000Y-28300000D03*
G04 #@! TD*
D10*
G04 #@! TO.C,D60*
X77950000Y-26050000D03*
X77050000Y-26050000D03*
X77050000Y-26950000D03*
X77950000Y-26950000D03*
G04 #@! TD*
G04 #@! TO.C,D38*
X57550000Y-18550000D03*
X57550000Y-19450000D03*
X58450000Y-19450000D03*
X58450000Y-18550000D03*
G04 #@! TD*
G04 #@! TO.C,D34*
X3550000Y-18550000D03*
X3550000Y-19450000D03*
X4450000Y-19450000D03*
X4450000Y-18550000D03*
G04 #@! TD*
G04 #@! TO.C,D60*
X33950000Y-26050000D03*
X33050000Y-26050000D03*
X33050000Y-26950000D03*
X33950000Y-26950000D03*
G04 #@! TD*
G04 #@! TO.C,D9*
X63450000Y-11050000D03*
X62550000Y-11050000D03*
X62550000Y-11950000D03*
X63450000Y-11950000D03*
G04 #@! TD*
G04 #@! TO.C,D58*
X82950000Y-26050000D03*
X82050000Y-26050000D03*
X82050000Y-26950000D03*
X82950000Y-26950000D03*
G04 #@! TD*
G04 #@! TO.C,D34*
X25550000Y-18550000D03*
X25550000Y-19450000D03*
X26450000Y-19450000D03*
X26450000Y-18550000D03*
G04 #@! TD*
G04 #@! TO.C,D50*
X3550000Y-23550000D03*
X3550000Y-24450000D03*
X4450000Y-24450000D03*
X4450000Y-23550000D03*
G04 #@! TD*
G04 #@! TO.C,D22*
X57550000Y-13550000D03*
X57550000Y-14450000D03*
X58450000Y-14450000D03*
X58450000Y-13550000D03*
G04 #@! TD*
G04 #@! TO.C,D64*
X23950000Y-26050000D03*
X23050000Y-26050000D03*
X23050000Y-26950000D03*
X23950000Y-26950000D03*
G04 #@! TD*
G04 #@! TO.C,D11*
X14450000Y-11050000D03*
X13550000Y-11050000D03*
X13550000Y-11950000D03*
X14450000Y-11950000D03*
G04 #@! TD*
G04 #@! TO.C,D26*
X38950000Y-16050000D03*
X38050000Y-16050000D03*
X38050000Y-16950000D03*
X38950000Y-16950000D03*
G04 #@! TD*
G04 #@! TO.C,D24*
X62550000Y-13550000D03*
X62550000Y-14450000D03*
X63450000Y-14450000D03*
X63450000Y-13550000D03*
G04 #@! TD*
G04 #@! TO.C,D29*
X53450000Y-16050000D03*
X52550000Y-16050000D03*
X52550000Y-16950000D03*
X53450000Y-16950000D03*
G04 #@! TD*
G04 #@! TO.C,D59*
X14450000Y-26050000D03*
X13550000Y-26050000D03*
X13550000Y-26950000D03*
X14450000Y-26950000D03*
G04 #@! TD*
G04 #@! TO.C,D15*
X48450000Y-11050000D03*
X47550000Y-11050000D03*
X47550000Y-11950000D03*
X48450000Y-11950000D03*
G04 #@! TD*
G04 #@! TO.C,D48*
X1950000Y-21050000D03*
X1050000Y-21050000D03*
X1050000Y-21950000D03*
X1950000Y-21950000D03*
G04 #@! TD*
G04 #@! TO.C,D51*
X72050000Y-23550000D03*
X72050000Y-24450000D03*
X72950000Y-24450000D03*
X72950000Y-23550000D03*
G04 #@! TD*
G04 #@! TO.C,D58*
X16950000Y-26050000D03*
X16050000Y-26050000D03*
X16050000Y-26950000D03*
X16950000Y-26950000D03*
G04 #@! TD*
G04 #@! TO.C,D57*
X85450000Y-26050000D03*
X84550000Y-26050000D03*
X84550000Y-26950000D03*
X85450000Y-26950000D03*
G04 #@! TD*
G04 #@! TO.C,D23*
X38050000Y-13550000D03*
X38050000Y-14450000D03*
X38950000Y-14450000D03*
X38950000Y-13550000D03*
G04 #@! TD*
G04 #@! TO.C,D44*
X11950000Y-21050000D03*
X11050000Y-21050000D03*
X11050000Y-21950000D03*
X11950000Y-21950000D03*
G04 #@! TD*
G04 #@! TO.C,D63*
X48450000Y-26050000D03*
X47550000Y-26050000D03*
X47550000Y-26950000D03*
X48450000Y-26950000D03*
G04 #@! TD*
G04 #@! TO.C,D60*
X11950000Y-26050000D03*
X11050000Y-26050000D03*
X11050000Y-26950000D03*
X11950000Y-26950000D03*
G04 #@! TD*
G04 #@! TO.C,D42*
X60950000Y-21050000D03*
X60050000Y-21050000D03*
X60050000Y-21950000D03*
X60950000Y-21950000D03*
G04 #@! TD*
G04 #@! TO.C,D6*
X13550000Y-8550000D03*
X13550000Y-9450000D03*
X14450000Y-9450000D03*
X14450000Y-8550000D03*
G04 #@! TD*
D11*
G04 #@! TO.C,REF\u002A\u002A*
X55500000Y-7700000D03*
G04 #@! TD*
D10*
G04 #@! TO.C,D23*
X82050000Y-13550000D03*
X82050000Y-14450000D03*
X82950000Y-14450000D03*
X82950000Y-13550000D03*
G04 #@! TD*
G04 #@! TO.C,D29*
X31450000Y-16050000D03*
X30550000Y-16050000D03*
X30550000Y-16950000D03*
X31450000Y-16950000D03*
G04 #@! TD*
G04 #@! TO.C,D37*
X33050000Y-18550000D03*
X33050000Y-19450000D03*
X33950000Y-19450000D03*
X33950000Y-18550000D03*
G04 #@! TD*
G04 #@! TO.C,D25*
X19450000Y-16050000D03*
X18550000Y-16050000D03*
X18550000Y-16950000D03*
X19450000Y-16950000D03*
G04 #@! TD*
G04 #@! TO.C,D30*
X28950000Y-16050000D03*
X28050000Y-16050000D03*
X28050000Y-16950000D03*
X28950000Y-16950000D03*
G04 #@! TD*
G04 #@! TO.C,D59*
X36450000Y-26050000D03*
X35550000Y-26050000D03*
X35550000Y-26950000D03*
X36450000Y-26950000D03*
G04 #@! TD*
D11*
G04 #@! TO.C,REF\u002A\u002A*
X75500000Y-28300000D03*
G04 #@! TD*
D10*
G04 #@! TO.C,D23*
X60050000Y-13550000D03*
X60050000Y-14450000D03*
X60950000Y-14450000D03*
X60950000Y-13550000D03*
G04 #@! TD*
G04 #@! TO.C,D2*
X69550000Y-8550000D03*
X69550000Y-9450000D03*
X70450000Y-9450000D03*
X70450000Y-8550000D03*
G04 #@! TD*
G04 #@! TO.C,D28*
X33950000Y-16050000D03*
X33050000Y-16050000D03*
X33050000Y-16950000D03*
X33950000Y-16950000D03*
G04 #@! TD*
D12*
G04 #@! TO.C,REF\u002A\u002A*
X2500000Y-33500000D03*
G04 #@! TD*
D10*
G04 #@! TO.C,D53*
X77050000Y-23550000D03*
X77050000Y-24450000D03*
X77950000Y-24450000D03*
X77950000Y-23550000D03*
G04 #@! TD*
G04 #@! TO.C,D2*
X3550000Y-8550000D03*
X3550000Y-9450000D03*
X4450000Y-9450000D03*
X4450000Y-8550000D03*
G04 #@! TD*
G04 #@! TO.C,D13*
X53450000Y-11050000D03*
X52550000Y-11050000D03*
X52550000Y-11950000D03*
X53450000Y-11950000D03*
G04 #@! TD*
G04 #@! TO.C,D17*
X1050000Y-13550000D03*
X1050000Y-14450000D03*
X1950000Y-14450000D03*
X1950000Y-13550000D03*
G04 #@! TD*
G04 #@! TO.C,D63*
X70450000Y-26050000D03*
X69550000Y-26050000D03*
X69550000Y-26950000D03*
X70450000Y-26950000D03*
G04 #@! TD*
G04 #@! TO.C,D16*
X67950000Y-11050000D03*
X67050000Y-11050000D03*
X67050000Y-11950000D03*
X67950000Y-11950000D03*
G04 #@! TD*
G04 #@! TO.C,D33*
X45050000Y-18550000D03*
X45050000Y-19450000D03*
X45950000Y-19450000D03*
X45950000Y-18550000D03*
G04 #@! TD*
G04 #@! TO.C,D27*
X58450000Y-16050000D03*
X57550000Y-16050000D03*
X57550000Y-16950000D03*
X58450000Y-16950000D03*
G04 #@! TD*
D11*
G04 #@! TO.C,REF\u002A\u002A*
X30500000Y-7700000D03*
G04 #@! TD*
D10*
G04 #@! TO.C,D54*
X35550000Y-23550000D03*
X35550000Y-24450000D03*
X36450000Y-24450000D03*
X36450000Y-23550000D03*
G04 #@! TD*
G04 #@! TO.C,D10*
X38950000Y-11050000D03*
X38050000Y-11050000D03*
X38050000Y-11950000D03*
X38950000Y-11950000D03*
G04 #@! TD*
G04 #@! TO.C,D9*
X19450000Y-11050000D03*
X18550000Y-11050000D03*
X18550000Y-11950000D03*
X19450000Y-11950000D03*
G04 #@! TD*
G04 #@! TO.C,D45*
X53450000Y-21050000D03*
X52550000Y-21050000D03*
X52550000Y-21950000D03*
X53450000Y-21950000D03*
G04 #@! TD*
G04 #@! TO.C,D11*
X58450000Y-11050000D03*
X57550000Y-11050000D03*
X57550000Y-11950000D03*
X58450000Y-11950000D03*
G04 #@! TD*
G04 #@! TO.C,D40*
X62550000Y-18550000D03*
X62550000Y-19450000D03*
X63450000Y-19450000D03*
X63450000Y-18550000D03*
G04 #@! TD*
G04 #@! TO.C,D22*
X79550000Y-13550000D03*
X79550000Y-14450000D03*
X80450000Y-14450000D03*
X80450000Y-13550000D03*
G04 #@! TD*
G04 #@! TO.C,D26*
X60950000Y-16050000D03*
X60050000Y-16050000D03*
X60050000Y-16950000D03*
X60950000Y-16950000D03*
G04 #@! TD*
G04 #@! TO.C,D51*
X28050000Y-23550000D03*
X28050000Y-24450000D03*
X28950000Y-24450000D03*
X28950000Y-23550000D03*
G04 #@! TD*
D11*
G04 #@! TO.C,REF\u002A\u002A*
X9500000Y-28300000D03*
G04 #@! TD*
D10*
G04 #@! TO.C,D58*
X38950000Y-26050000D03*
X38050000Y-26050000D03*
X38050000Y-26950000D03*
X38950000Y-26950000D03*
G04 #@! TD*
G04 #@! TO.C,D12*
X11950000Y-11050000D03*
X11050000Y-11050000D03*
X11050000Y-11950000D03*
X11950000Y-11950000D03*
G04 #@! TD*
G04 #@! TO.C,D36*
X30550000Y-18550000D03*
X30550000Y-19450000D03*
X31450000Y-19450000D03*
X31450000Y-18550000D03*
G04 #@! TD*
G04 #@! TO.C,D42*
X82950000Y-21050000D03*
X82050000Y-21050000D03*
X82050000Y-21950000D03*
X82950000Y-21950000D03*
G04 #@! TD*
G04 #@! TO.C,D15*
X4450000Y-11050000D03*
X3550000Y-11050000D03*
X3550000Y-11950000D03*
X4450000Y-11950000D03*
G04 #@! TD*
G04 #@! TO.C,D27*
X14450000Y-16050000D03*
X13550000Y-16050000D03*
X13550000Y-16950000D03*
X14450000Y-16950000D03*
G04 #@! TD*
G04 #@! TO.C,D6*
X57550000Y-8550000D03*
X57550000Y-9450000D03*
X58450000Y-9450000D03*
X58450000Y-8550000D03*
G04 #@! TD*
G04 #@! TO.C,D6*
X35550000Y-8550000D03*
X35550000Y-9450000D03*
X36450000Y-9450000D03*
X36450000Y-8550000D03*
G04 #@! TD*
G04 #@! TO.C,D49*
X23050000Y-23550000D03*
X23050000Y-24450000D03*
X23950000Y-24450000D03*
X23950000Y-23550000D03*
G04 #@! TD*
D11*
G04 #@! TO.C,REF\u002A\u002A*
X54500000Y-28300000D03*
G04 #@! TD*
D10*
G04 #@! TO.C,D34*
X47550000Y-18550000D03*
X47550000Y-19450000D03*
X48450000Y-19450000D03*
X48450000Y-18550000D03*
G04 #@! TD*
G04 #@! TO.C,D12*
X33950000Y-11050000D03*
X33050000Y-11050000D03*
X33050000Y-11950000D03*
X33950000Y-11950000D03*
G04 #@! TD*
D11*
G04 #@! TO.C,REF\u002A\u002A*
X54500000Y-7700000D03*
G04 #@! TD*
D10*
G04 #@! TO.C,D45*
X9450000Y-21050000D03*
X8550000Y-21050000D03*
X8550000Y-21950000D03*
X9450000Y-21950000D03*
G04 #@! TD*
G04 #@! TO.C,D52*
X30550000Y-23550000D03*
X30550000Y-24450000D03*
X31450000Y-24450000D03*
X31450000Y-23550000D03*
G04 #@! TD*
G04 #@! TO.C,D28*
X77950000Y-16050000D03*
X77050000Y-16050000D03*
X77050000Y-16950000D03*
X77950000Y-16950000D03*
G04 #@! TD*
D11*
G04 #@! TO.C,REF\u002A\u002A*
X52500000Y-28300000D03*
G04 #@! TD*
D10*
G04 #@! TO.C,D28*
X55950000Y-16050000D03*
X55050000Y-16050000D03*
X55050000Y-16950000D03*
X55950000Y-16950000D03*
G04 #@! TD*
G04 #@! TO.C,D26*
X82950000Y-16050000D03*
X82050000Y-16050000D03*
X82050000Y-16950000D03*
X82950000Y-16950000D03*
G04 #@! TD*
G04 #@! TO.C,D55*
X16050000Y-23550000D03*
X16050000Y-24450000D03*
X16950000Y-24450000D03*
X16950000Y-23550000D03*
G04 #@! TD*
D12*
G04 #@! TO.C,REF\u002A\u002A*
X2500000Y-2500000D03*
G04 #@! TD*
D10*
G04 #@! TO.C,D46*
X28950000Y-21050000D03*
X28050000Y-21050000D03*
X28050000Y-21950000D03*
X28950000Y-21950000D03*
G04 #@! TD*
G04 #@! TO.C,D3*
X28050000Y-8550000D03*
X28050000Y-9450000D03*
X28950000Y-9450000D03*
X28950000Y-8550000D03*
G04 #@! TD*
G04 #@! TO.C,D21*
X11050000Y-13550000D03*
X11050000Y-14450000D03*
X11950000Y-14450000D03*
X11950000Y-13550000D03*
G04 #@! TD*
G04 #@! TO.C,D31*
X48450000Y-16050000D03*
X47550000Y-16050000D03*
X47550000Y-16950000D03*
X48450000Y-16950000D03*
G04 #@! TD*
G04 #@! TO.C,D12*
X77950000Y-11050000D03*
X77050000Y-11050000D03*
X77050000Y-11950000D03*
X77950000Y-11950000D03*
G04 #@! TD*
G04 #@! TO.C,D20*
X74550000Y-13550000D03*
X74550000Y-14450000D03*
X75450000Y-14450000D03*
X75450000Y-13550000D03*
G04 #@! TD*
G04 #@! TO.C,D55*
X82050000Y-23550000D03*
X82050000Y-24450000D03*
X82950000Y-24450000D03*
X82950000Y-23550000D03*
G04 #@! TD*
G04 #@! TO.C,D14*
X72950000Y-11050000D03*
X72050000Y-11050000D03*
X72050000Y-11950000D03*
X72950000Y-11950000D03*
G04 #@! TD*
D11*
G04 #@! TO.C,REF\u002A\u002A*
X33500000Y-28300000D03*
G04 #@! TD*
D13*
G04 #@! TO.C,REF\u002A\u002A*
X81000000Y-2500000D03*
G04 #@! TD*
D10*
G04 #@! TO.C,D46*
X50950000Y-21050000D03*
X50050000Y-21050000D03*
X50050000Y-21950000D03*
X50950000Y-21950000D03*
G04 #@! TD*
G04 #@! TO.C,D5*
X11050000Y-8550000D03*
X11050000Y-9450000D03*
X11950000Y-9450000D03*
X11950000Y-8550000D03*
G04 #@! TD*
G04 #@! TO.C,D53*
X55050000Y-23550000D03*
X55050000Y-24450000D03*
X55950000Y-24450000D03*
X55950000Y-23550000D03*
G04 #@! TD*
D11*
G04 #@! TO.C,REF\u002A\u002A*
X32500000Y-7700000D03*
G04 #@! TD*
D10*
G04 #@! TO.C,D40*
X84550000Y-18550000D03*
X84550000Y-19450000D03*
X85450000Y-19450000D03*
X85450000Y-18550000D03*
G04 #@! TD*
G04 #@! TO.C,D4*
X30550000Y-8550000D03*
X30550000Y-9450000D03*
X31450000Y-9450000D03*
X31450000Y-8550000D03*
G04 #@! TD*
G04 #@! TO.C,D20*
X52550000Y-13550000D03*
X52550000Y-14450000D03*
X53450000Y-14450000D03*
X53450000Y-13550000D03*
G04 #@! TD*
G04 #@! TO.C,D36*
X52550000Y-18550000D03*
X52550000Y-19450000D03*
X53450000Y-19450000D03*
X53450000Y-18550000D03*
G04 #@! TD*
G04 #@! TO.C,D33*
X23050000Y-18550000D03*
X23050000Y-19450000D03*
X23950000Y-19450000D03*
X23950000Y-18550000D03*
G04 #@! TD*
G04 #@! TO.C,D35*
X50050000Y-18550000D03*
X50050000Y-19450000D03*
X50950000Y-19450000D03*
X50950000Y-18550000D03*
G04 #@! TD*
G04 #@! TO.C,D62*
X6950000Y-26050000D03*
X6050000Y-26050000D03*
X6050000Y-26950000D03*
X6950000Y-26950000D03*
G04 #@! TD*
G04 #@! TO.C,D8*
X40550000Y-8550000D03*
X40550000Y-9450000D03*
X41450000Y-9450000D03*
X41450000Y-8550000D03*
G04 #@! TD*
D11*
G04 #@! TO.C,REF\u002A\u002A*
X32500000Y-28300000D03*
G04 #@! TD*
D10*
G04 #@! TO.C,D5*
X77050000Y-8550000D03*
X77050000Y-9450000D03*
X77950000Y-9450000D03*
X77950000Y-8550000D03*
G04 #@! TD*
G04 #@! TO.C,D61*
X53450000Y-26050000D03*
X52550000Y-26050000D03*
X52550000Y-26950000D03*
X53450000Y-26950000D03*
G04 #@! TD*
G04 #@! TO.C,D11*
X36450000Y-11050000D03*
X35550000Y-11050000D03*
X35550000Y-11950000D03*
X36450000Y-11950000D03*
G04 #@! TD*
G04 #@! TO.C,D43*
X80450000Y-21050000D03*
X79550000Y-21050000D03*
X79550000Y-21950000D03*
X80450000Y-21950000D03*
G04 #@! TD*
G04 #@! TO.C,D43*
X58450000Y-21050000D03*
X57550000Y-21050000D03*
X57550000Y-21950000D03*
X58450000Y-21950000D03*
G04 #@! TD*
G04 #@! TO.C,D1*
X1050000Y-8550000D03*
X1050000Y-9450000D03*
X1950000Y-9450000D03*
X1950000Y-8550000D03*
G04 #@! TD*
G04 #@! TO.C,D49*
X45050000Y-23550000D03*
X45050000Y-24450000D03*
X45950000Y-24450000D03*
X45950000Y-23550000D03*
G04 #@! TD*
G04 #@! TO.C,D3*
X72050000Y-8550000D03*
X72050000Y-9450000D03*
X72950000Y-9450000D03*
X72950000Y-8550000D03*
G04 #@! TD*
D11*
G04 #@! TO.C,REF\u002A\u002A*
X31500000Y-7700000D03*
G04 #@! TD*
D10*
G04 #@! TO.C,D4*
X52550000Y-8550000D03*
X52550000Y-9450000D03*
X53450000Y-9450000D03*
X53450000Y-8550000D03*
G04 #@! TD*
G04 #@! TO.C,D13*
X75450000Y-11050000D03*
X74550000Y-11050000D03*
X74550000Y-11950000D03*
X75450000Y-11950000D03*
G04 #@! TD*
G04 #@! TO.C,D48*
X67950000Y-21050000D03*
X67050000Y-21050000D03*
X67050000Y-21950000D03*
X67950000Y-21950000D03*
G04 #@! TD*
G04 #@! TO.C,D32*
X1950000Y-16050000D03*
X1050000Y-16050000D03*
X1050000Y-16950000D03*
X1950000Y-16950000D03*
G04 #@! TD*
G04 #@! TO.C,D59*
X80450000Y-26050000D03*
X79550000Y-26050000D03*
X79550000Y-26950000D03*
X80450000Y-26950000D03*
G04 #@! TD*
G04 #@! TO.C,D41*
X85450000Y-21050000D03*
X84550000Y-21050000D03*
X84550000Y-21950000D03*
X85450000Y-21950000D03*
G04 #@! TD*
G04 #@! TO.C,D57*
X19450000Y-26050000D03*
X18550000Y-26050000D03*
X18550000Y-26950000D03*
X19450000Y-26950000D03*
G04 #@! TD*
G04 #@! TO.C,D31*
X4450000Y-16050000D03*
X3550000Y-16050000D03*
X3550000Y-16950000D03*
X4450000Y-16950000D03*
G04 #@! TD*
G04 #@! TO.C,D51*
X50050000Y-23550000D03*
X50050000Y-24450000D03*
X50950000Y-24450000D03*
X50950000Y-23550000D03*
G04 #@! TD*
G04 #@! TO.C,D35*
X72050000Y-18550000D03*
X72050000Y-19450000D03*
X72950000Y-19450000D03*
X72950000Y-18550000D03*
G04 #@! TD*
G04 #@! TO.C,D19*
X50050000Y-13550000D03*
X50050000Y-14450000D03*
X50950000Y-14450000D03*
X50950000Y-13550000D03*
G04 #@! TD*
D11*
G04 #@! TO.C,REF\u002A\u002A*
X11500000Y-7700000D03*
G04 #@! TD*
D10*
G04 #@! TO.C,D8*
X18550000Y-8550000D03*
X18550000Y-9450000D03*
X19450000Y-9450000D03*
X19450000Y-8550000D03*
G04 #@! TD*
G04 #@! TO.C,D22*
X35550000Y-13550000D03*
X35550000Y-14450000D03*
X36450000Y-14450000D03*
X36450000Y-13550000D03*
G04 #@! TD*
G04 #@! TO.C,D30*
X50950000Y-16050000D03*
X50050000Y-16050000D03*
X50050000Y-16950000D03*
X50950000Y-16950000D03*
G04 #@! TD*
G04 #@! TO.C,D15*
X26450000Y-11050000D03*
X25550000Y-11050000D03*
X25550000Y-11950000D03*
X26450000Y-11950000D03*
G04 #@! TD*
G04 #@! TO.C,D32*
X23950000Y-16050000D03*
X23050000Y-16050000D03*
X23050000Y-16950000D03*
X23950000Y-16950000D03*
G04 #@! TD*
D11*
G04 #@! TO.C,REF\u002A\u002A*
X33500000Y-7700000D03*
G04 #@! TD*
D10*
G04 #@! TO.C,D14*
X6950000Y-11050000D03*
X6050000Y-11050000D03*
X6050000Y-11950000D03*
X6950000Y-11950000D03*
G04 #@! TD*
G04 #@! TO.C,D7*
X38050000Y-8550000D03*
X38050000Y-9450000D03*
X38950000Y-9450000D03*
X38950000Y-8550000D03*
G04 #@! TD*
G04 #@! TO.C,D55*
X60050000Y-23550000D03*
X60050000Y-24450000D03*
X60950000Y-24450000D03*
X60950000Y-23550000D03*
G04 #@! TD*
G04 #@! TO.C,D41*
X19450000Y-21050000D03*
X18550000Y-21050000D03*
X18550000Y-21950000D03*
X19450000Y-21950000D03*
G04 #@! TD*
D11*
G04 #@! TO.C,REF\u002A\u002A*
X75500000Y-7700000D03*
G04 #@! TD*
D10*
G04 #@! TO.C,D15*
X70450000Y-11050000D03*
X69550000Y-11050000D03*
X69550000Y-11950000D03*
X70450000Y-11950000D03*
G04 #@! TD*
M02*
