G04 #@! TF.GenerationSoftware,KiCad,Pcbnew,(6.0.5)*
G04 #@! TF.CreationDate,2022-06-19T09:18:47+02:00*
G04 #@! TF.ProjectId,MicroMatrix_Panel,4d696372-6f4d-4617-9472-69785f50616e,1.2*
G04 #@! TF.SameCoordinates,Original*
G04 #@! TF.FileFunction,Copper,L2,Bot*
G04 #@! TF.FilePolarity,Positive*
%FSLAX46Y46*%
G04 Gerber Fmt 4.6, Leading zero omitted, Abs format (unit mm)*
G04 Created by KiCad (PCBNEW (6.0.5)) date 2022-06-19 09:18:47*
%MOMM*%
%LPD*%
G01*
G04 APERTURE LIST*
G04 #@! TA.AperFunction,SMDPad,CuDef*
%ADD10R,5.080000X2.540000*%
G04 #@! TD*
G04 #@! TA.AperFunction,SMDPad,CuDef*
%ADD11C,2.000000*%
G04 #@! TD*
G04 #@! TA.AperFunction,ViaPad*
%ADD12C,0.600000*%
G04 #@! TD*
G04 #@! TA.AperFunction,ViaPad*
%ADD13C,0.500000*%
G04 #@! TD*
G04 #@! TA.AperFunction,Conductor*
%ADD14C,0.500000*%
G04 #@! TD*
G04 #@! TA.AperFunction,Conductor*
%ADD15C,0.250000*%
G04 #@! TD*
G04 APERTURE END LIST*
D10*
G04 #@! TO.P,,1*
G04 #@! TO.N,Board_3-GND*
X83500000Y-36500000D03*
G04 #@! TD*
G04 #@! TO.P,,1*
G04 #@! TO.N,Board_3-DOUT*
X98500000Y-33000000D03*
G04 #@! TD*
G04 #@! TO.P,,1*
G04 #@! TO.N,Board_3-GND*
X98500000Y-36500000D03*
G04 #@! TD*
G04 #@! TO.P,,1*
G04 #@! TO.N,Board_0-+5V*
X32500000Y-29500000D03*
G04 #@! TD*
G04 #@! TO.P,,1*
G04 #@! TO.N,Board_1-GND*
X39500000Y-36500000D03*
G04 #@! TD*
G04 #@! TO.P,,1*
G04 #@! TO.N,Board_1-GND*
X54500000Y-36500000D03*
G04 #@! TD*
G04 #@! TO.P,,1*
G04 #@! TO.N,Board_0-DOUT*
X32500000Y-33000000D03*
G04 #@! TD*
G04 #@! TO.P,,1*
G04 #@! TO.N,Board_2-DIN*
X61500000Y-33000000D03*
G04 #@! TD*
G04 #@! TO.P,,1*
G04 #@! TO.N,Board_2-+5V*
X61500000Y-29500000D03*
G04 #@! TD*
G04 #@! TO.P,,1*
G04 #@! TO.N,Board_0-DIN*
X17500000Y-33000000D03*
G04 #@! TD*
G04 #@! TO.P,,1*
G04 #@! TO.N,Board_2-GND*
X61500000Y-36500000D03*
G04 #@! TD*
G04 #@! TO.P,,1*
G04 #@! TO.N,Board_2-GND*
X76500000Y-36500000D03*
G04 #@! TD*
G04 #@! TO.P,,1*
G04 #@! TO.N,Board_3-DIN*
X83500000Y-33000000D03*
G04 #@! TD*
G04 #@! TO.P,,1*
G04 #@! TO.N,Board_0-GND*
X32500000Y-36500000D03*
G04 #@! TD*
G04 #@! TO.P,,1*
G04 #@! TO.N,Board_1-DOUT*
X54500000Y-33000000D03*
G04 #@! TD*
G04 #@! TO.P,,1*
G04 #@! TO.N,Board_1-+5V*
X39500000Y-29500000D03*
G04 #@! TD*
G04 #@! TO.P,,1*
G04 #@! TO.N,Board_3-+5V*
X83500000Y-29500000D03*
G04 #@! TD*
G04 #@! TO.P,,1*
G04 #@! TO.N,Board_3-+5V*
X98500000Y-29500000D03*
G04 #@! TD*
G04 #@! TO.P,,1*
G04 #@! TO.N,Board_2-DOUT*
X76500000Y-33000000D03*
G04 #@! TD*
G04 #@! TO.P,,1*
G04 #@! TO.N,Board_1-+5V*
X54500000Y-29500000D03*
G04 #@! TD*
G04 #@! TO.P,,1*
G04 #@! TO.N,Board_2-+5V*
X76500000Y-29500000D03*
G04 #@! TD*
G04 #@! TO.P,,1*
G04 #@! TO.N,Board_1-DIN*
X39500000Y-33000000D03*
G04 #@! TD*
G04 #@! TO.P,,1*
G04 #@! TO.N,Board_0-GND*
X17500000Y-36500000D03*
G04 #@! TD*
G04 #@! TO.P,,1*
G04 #@! TO.N,Board_0-+5V*
X17500000Y-29500000D03*
G04 #@! TD*
D11*
G04 #@! TO.P,REF\u002A\u002A,*
G04 #@! TO.N,*
X20000000Y-48500000D03*
G04 #@! TD*
G04 #@! TO.P,REF\u002A\u002A,*
G04 #@! TO.N,*
X96000000Y-17500000D03*
G04 #@! TD*
G04 #@! TO.P,REF\u002A\u002A,*
G04 #@! TO.N,*
X20000000Y-17500000D03*
G04 #@! TD*
D12*
G04 #@! TO.N,Board_0-+5V*
X21050000Y-30250000D03*
X18550000Y-25250000D03*
X28550000Y-25250000D03*
X28550000Y-30250000D03*
X21050000Y-25250000D03*
X23550000Y-35250000D03*
X23550000Y-40250000D03*
X31050000Y-25250000D03*
D13*
G04 #@! TO.N,Board_0-DIN*
X15325000Y-31250000D03*
D12*
G04 #@! TO.N,Board_0-DOUT*
X15400000Y-41950000D03*
G04 #@! TO.N,Board_0-GND*
X19450000Y-27725000D03*
X27750000Y-42500000D03*
X24450000Y-27750000D03*
X32600000Y-23500000D03*
X17750000Y-42500000D03*
X26950000Y-32700000D03*
X30100000Y-23500000D03*
X30250000Y-42500000D03*
X29450000Y-27750000D03*
X32750000Y-42500000D03*
X20250000Y-42500000D03*
X29450000Y-32700000D03*
X28550000Y-37750000D03*
X22600000Y-23500000D03*
X24450000Y-37750000D03*
D13*
X34680000Y-23320000D03*
D12*
X22000000Y-32700000D03*
X34450000Y-27725000D03*
X31450000Y-27725000D03*
X21950000Y-27750000D03*
X25100000Y-23500000D03*
X16950000Y-27725000D03*
X17600000Y-23500000D03*
X24450000Y-32700000D03*
X22750000Y-42500000D03*
X20100000Y-23500000D03*
X25250000Y-42500000D03*
X26950000Y-37700000D03*
X29450000Y-37750000D03*
X33250000Y-27725000D03*
X21950000Y-37750000D03*
X26950000Y-27750000D03*
X20650000Y-37750000D03*
X27600000Y-23500000D03*
G04 #@! TO.N,Board_1-+5V*
X43050000Y-30250000D03*
X40550000Y-25250000D03*
X50550000Y-25250000D03*
X50550000Y-30250000D03*
X43050000Y-25250000D03*
X45550000Y-35250000D03*
X45550000Y-40250000D03*
X53050000Y-25250000D03*
D13*
G04 #@! TO.N,Board_1-DIN*
X37325000Y-31250000D03*
D12*
G04 #@! TO.N,Board_1-DOUT*
X37400000Y-41950000D03*
G04 #@! TO.N,Board_1-GND*
X41450000Y-27725000D03*
X49750000Y-42500000D03*
X46450000Y-27750000D03*
X54600000Y-23500000D03*
X39750000Y-42500000D03*
X48950000Y-32700000D03*
X52100000Y-23500000D03*
X52250000Y-42500000D03*
X51450000Y-27750000D03*
X54750000Y-42500000D03*
X42250000Y-42500000D03*
X51450000Y-32700000D03*
X50550000Y-37750000D03*
X44600000Y-23500000D03*
X46450000Y-37750000D03*
D13*
X56680000Y-23320000D03*
D12*
X44000000Y-32700000D03*
X56450000Y-27725000D03*
X53450000Y-27725000D03*
X43950000Y-27750000D03*
X47100000Y-23500000D03*
X38950000Y-27725000D03*
X39600000Y-23500000D03*
X46450000Y-32700000D03*
X44750000Y-42500000D03*
X42100000Y-23500000D03*
X47250000Y-42500000D03*
X48950000Y-37700000D03*
X51450000Y-37750000D03*
X55250000Y-27725000D03*
X43950000Y-37750000D03*
X48950000Y-27750000D03*
X42650000Y-37750000D03*
X49600000Y-23500000D03*
G04 #@! TO.N,Board_2-+5V*
X65050000Y-30250000D03*
X62550000Y-25250000D03*
X72550000Y-25250000D03*
X72550000Y-30250000D03*
X65050000Y-25250000D03*
X67550000Y-35250000D03*
X67550000Y-40250000D03*
X75050000Y-25250000D03*
D13*
G04 #@! TO.N,Board_2-DIN*
X59325000Y-31250000D03*
D12*
G04 #@! TO.N,Board_2-DOUT*
X59400000Y-41950000D03*
G04 #@! TO.N,Board_2-GND*
X63450000Y-27725000D03*
X71750000Y-42500000D03*
X68450000Y-27750000D03*
X76600000Y-23500000D03*
X61750000Y-42500000D03*
X70950000Y-32700000D03*
X74100000Y-23500000D03*
X74250000Y-42500000D03*
X73450000Y-27750000D03*
X76750000Y-42500000D03*
X64250000Y-42500000D03*
X73450000Y-32700000D03*
X72550000Y-37750000D03*
X66600000Y-23500000D03*
X68450000Y-37750000D03*
D13*
X78680000Y-23320000D03*
D12*
X66000000Y-32700000D03*
X78450000Y-27725000D03*
X75450000Y-27725000D03*
X65950000Y-27750000D03*
X69100000Y-23500000D03*
X60950000Y-27725000D03*
X61600000Y-23500000D03*
X68450000Y-32700000D03*
X66750000Y-42500000D03*
X64100000Y-23500000D03*
X69250000Y-42500000D03*
X70950000Y-37700000D03*
X73450000Y-37750000D03*
X77250000Y-27725000D03*
X65950000Y-37750000D03*
X70950000Y-27750000D03*
X64650000Y-37750000D03*
X71600000Y-23500000D03*
G04 #@! TO.N,Board_3-+5V*
X87050000Y-30250000D03*
X84550000Y-25250000D03*
X94550000Y-25250000D03*
X94550000Y-30250000D03*
X87050000Y-25250000D03*
X89550000Y-35250000D03*
X89550000Y-40250000D03*
X97050000Y-25250000D03*
D13*
G04 #@! TO.N,Board_3-DIN*
X81325000Y-31250000D03*
D12*
G04 #@! TO.N,Board_3-DOUT*
X81400000Y-41950000D03*
G04 #@! TO.N,Board_3-GND*
X85450000Y-27725000D03*
X93750000Y-42500000D03*
X90450000Y-27750000D03*
X98600000Y-23500000D03*
X83750000Y-42500000D03*
X92950000Y-32700000D03*
X96100000Y-23500000D03*
X96250000Y-42500000D03*
X95450000Y-27750000D03*
X98750000Y-42500000D03*
X86250000Y-42500000D03*
X95450000Y-32700000D03*
X94550000Y-37750000D03*
X88600000Y-23500000D03*
X90450000Y-37750000D03*
D13*
X100680000Y-23320000D03*
D12*
X88000000Y-32700000D03*
X100450000Y-27725000D03*
X97450000Y-27725000D03*
X87950000Y-27750000D03*
X91100000Y-23500000D03*
X82950000Y-27725000D03*
X83600000Y-23500000D03*
X90450000Y-32700000D03*
X88750000Y-42500000D03*
X86100000Y-23500000D03*
X91250000Y-42500000D03*
X92950000Y-37700000D03*
X95450000Y-37750000D03*
X99250000Y-27725000D03*
X87950000Y-37750000D03*
X92950000Y-27750000D03*
X86650000Y-37750000D03*
X93600000Y-23500000D03*
G04 #@! TD*
D14*
G04 #@! TO.N,Board_0-+5V*
X31050000Y-25250000D02*
X28550000Y-25250000D01*
X23550000Y-35250000D02*
X23550000Y-40250000D01*
X29300000Y-29500000D02*
X32500000Y-29500000D01*
X23550000Y-32700000D02*
X21100000Y-30250000D01*
X28550000Y-30250000D02*
X29300000Y-29500000D01*
X18550000Y-25250000D02*
X17750000Y-26050000D01*
X20300000Y-29500000D02*
X17500000Y-29500000D01*
X21050000Y-30250000D02*
X20300000Y-29500000D01*
D15*
X17750000Y-29250000D02*
X17500000Y-29500000D01*
D14*
X17750000Y-26050000D02*
X17750000Y-29250000D01*
X31050000Y-25250000D02*
X32500000Y-26700000D01*
X32500000Y-26700000D02*
X32500000Y-29500000D01*
X23550000Y-35250000D02*
X23550000Y-32700000D01*
X21100000Y-30250000D02*
X21050000Y-30250000D01*
X18550000Y-25250000D02*
X21050000Y-25250000D01*
D15*
G04 #@! TO.N,Board_0-DIN*
X15325000Y-31250000D02*
X15325000Y-32075000D01*
X16125000Y-33000000D02*
X15325000Y-32200000D01*
X15325000Y-32075000D02*
X16750000Y-33500000D01*
X17500000Y-33000000D02*
X15950000Y-33000000D01*
X17500000Y-33000000D02*
X16125000Y-33000000D01*
G04 #@! TO.N,Board_0-DOUT*
X28775000Y-31950000D02*
X27725000Y-33000000D01*
X16050000Y-41300000D02*
X15400000Y-41950000D01*
X27725000Y-33000000D02*
X27725000Y-40150000D01*
X26575000Y-41300000D02*
X16050000Y-41300000D01*
X31450000Y-31950000D02*
X32500000Y-33000000D01*
X27725000Y-40150000D02*
X26575000Y-41300000D01*
X28775000Y-31950000D02*
X31450000Y-31950000D01*
D14*
G04 #@! TO.N,Board_1-+5V*
X53050000Y-25250000D02*
X50550000Y-25250000D01*
X45550000Y-35250000D02*
X45550000Y-40250000D01*
X51300000Y-29500000D02*
X54500000Y-29500000D01*
X45550000Y-32700000D02*
X43100000Y-30250000D01*
X50550000Y-30250000D02*
X51300000Y-29500000D01*
X40550000Y-25250000D02*
X39750000Y-26050000D01*
X42300000Y-29500000D02*
X39500000Y-29500000D01*
X43050000Y-30250000D02*
X42300000Y-29500000D01*
D15*
X39750000Y-29250000D02*
X39500000Y-29500000D01*
D14*
X39750000Y-26050000D02*
X39750000Y-29250000D01*
X53050000Y-25250000D02*
X54500000Y-26700000D01*
X54500000Y-26700000D02*
X54500000Y-29500000D01*
X45550000Y-35250000D02*
X45550000Y-32700000D01*
X43100000Y-30250000D02*
X43050000Y-30250000D01*
X40550000Y-25250000D02*
X43050000Y-25250000D01*
D15*
G04 #@! TO.N,Board_1-DIN*
X37325000Y-31250000D02*
X37325000Y-32075000D01*
X38125000Y-33000000D02*
X37325000Y-32200000D01*
X37325000Y-32075000D02*
X38750000Y-33500000D01*
X39500000Y-33000000D02*
X37950000Y-33000000D01*
X39500000Y-33000000D02*
X38125000Y-33000000D01*
G04 #@! TO.N,Board_1-DOUT*
X50775000Y-31950000D02*
X49725000Y-33000000D01*
X38050000Y-41300000D02*
X37400000Y-41950000D01*
X49725000Y-33000000D02*
X49725000Y-40150000D01*
X48575000Y-41300000D02*
X38050000Y-41300000D01*
X53450000Y-31950000D02*
X54500000Y-33000000D01*
X49725000Y-40150000D02*
X48575000Y-41300000D01*
X50775000Y-31950000D02*
X53450000Y-31950000D01*
D14*
G04 #@! TO.N,Board_2-+5V*
X75050000Y-25250000D02*
X72550000Y-25250000D01*
X67550000Y-35250000D02*
X67550000Y-40250000D01*
X73300000Y-29500000D02*
X76500000Y-29500000D01*
X67550000Y-32700000D02*
X65100000Y-30250000D01*
X72550000Y-30250000D02*
X73300000Y-29500000D01*
X62550000Y-25250000D02*
X61750000Y-26050000D01*
X64300000Y-29500000D02*
X61500000Y-29500000D01*
X65050000Y-30250000D02*
X64300000Y-29500000D01*
D15*
X61750000Y-29250000D02*
X61500000Y-29500000D01*
D14*
X61750000Y-26050000D02*
X61750000Y-29250000D01*
X75050000Y-25250000D02*
X76500000Y-26700000D01*
X76500000Y-26700000D02*
X76500000Y-29500000D01*
X67550000Y-35250000D02*
X67550000Y-32700000D01*
X65100000Y-30250000D02*
X65050000Y-30250000D01*
X62550000Y-25250000D02*
X65050000Y-25250000D01*
D15*
G04 #@! TO.N,Board_2-DIN*
X59325000Y-31250000D02*
X59325000Y-32075000D01*
X60125000Y-33000000D02*
X59325000Y-32200000D01*
X59325000Y-32075000D02*
X60750000Y-33500000D01*
X61500000Y-33000000D02*
X59950000Y-33000000D01*
X61500000Y-33000000D02*
X60125000Y-33000000D01*
G04 #@! TO.N,Board_2-DOUT*
X72775000Y-31950000D02*
X71725000Y-33000000D01*
X60050000Y-41300000D02*
X59400000Y-41950000D01*
X71725000Y-33000000D02*
X71725000Y-40150000D01*
X70575000Y-41300000D02*
X60050000Y-41300000D01*
X75450000Y-31950000D02*
X76500000Y-33000000D01*
X71725000Y-40150000D02*
X70575000Y-41300000D01*
X72775000Y-31950000D02*
X75450000Y-31950000D01*
D14*
G04 #@! TO.N,Board_3-+5V*
X97050000Y-25250000D02*
X94550000Y-25250000D01*
X89550000Y-35250000D02*
X89550000Y-40250000D01*
X95300000Y-29500000D02*
X98500000Y-29500000D01*
X89550000Y-32700000D02*
X87100000Y-30250000D01*
X94550000Y-30250000D02*
X95300000Y-29500000D01*
X84550000Y-25250000D02*
X83750000Y-26050000D01*
X86300000Y-29500000D02*
X83500000Y-29500000D01*
X87050000Y-30250000D02*
X86300000Y-29500000D01*
D15*
X83750000Y-29250000D02*
X83500000Y-29500000D01*
D14*
X83750000Y-26050000D02*
X83750000Y-29250000D01*
X97050000Y-25250000D02*
X98500000Y-26700000D01*
X98500000Y-26700000D02*
X98500000Y-29500000D01*
X89550000Y-35250000D02*
X89550000Y-32700000D01*
X87100000Y-30250000D02*
X87050000Y-30250000D01*
X84550000Y-25250000D02*
X87050000Y-25250000D01*
D15*
G04 #@! TO.N,Board_3-DIN*
X81325000Y-31250000D02*
X81325000Y-32075000D01*
X82125000Y-33000000D02*
X81325000Y-32200000D01*
X81325000Y-32075000D02*
X82750000Y-33500000D01*
X83500000Y-33000000D02*
X81950000Y-33000000D01*
X83500000Y-33000000D02*
X82125000Y-33000000D01*
G04 #@! TO.N,Board_3-DOUT*
X94775000Y-31950000D02*
X93725000Y-33000000D01*
X82050000Y-41300000D02*
X81400000Y-41950000D01*
X93725000Y-33000000D02*
X93725000Y-40150000D01*
X92575000Y-41300000D02*
X82050000Y-41300000D01*
X97450000Y-31950000D02*
X98500000Y-33000000D01*
X93725000Y-40150000D02*
X92575000Y-41300000D01*
X94775000Y-31950000D02*
X97450000Y-31950000D01*
G04 #@! TD*
G04 #@! TA.AperFunction,Conductor*
G04 #@! TO.N,Board_0-GND*
G36*
X29701621Y-32295502D02*
G01*
X29748114Y-32349158D01*
X29759500Y-32401500D01*
X29759500Y-34289748D01*
X29771133Y-34348231D01*
X29815448Y-34414552D01*
X29881769Y-34458867D01*
X29893938Y-34461288D01*
X29893939Y-34461288D01*
X29934184Y-34469293D01*
X29940252Y-34470500D01*
X34745500Y-34470500D01*
X34813621Y-34490502D01*
X34860114Y-34544158D01*
X34871500Y-34596500D01*
X34871500Y-34850000D01*
X34851498Y-34918121D01*
X34797842Y-34964614D01*
X34745500Y-34976000D01*
X32645115Y-34976000D01*
X32629876Y-34980475D01*
X32628671Y-34981865D01*
X32627000Y-34989548D01*
X32627000Y-38005884D01*
X32631475Y-38021123D01*
X32632865Y-38022328D01*
X32640548Y-38023999D01*
X34745500Y-38023999D01*
X34813621Y-38044001D01*
X34860114Y-38097657D01*
X34871500Y-38149999D01*
X34871500Y-42745500D01*
X34851498Y-42813621D01*
X34797842Y-42860114D01*
X34745500Y-42871500D01*
X15254500Y-42871500D01*
X15186379Y-42851498D01*
X15139886Y-42797842D01*
X15128500Y-42745500D01*
X15128500Y-42560948D01*
X15148502Y-42492827D01*
X15202158Y-42446334D01*
X15272432Y-42436230D01*
X15292069Y-42440679D01*
X15319157Y-42449142D01*
X15328129Y-42449306D01*
X15328132Y-42449307D01*
X15393463Y-42450504D01*
X15462499Y-42451770D01*
X15471533Y-42449307D01*
X15592158Y-42416421D01*
X15592160Y-42416420D01*
X15600817Y-42414060D01*
X15722991Y-42339045D01*
X15819200Y-42232754D01*
X15881710Y-42103733D01*
X15905496Y-41962354D01*
X15905581Y-41955403D01*
X15905810Y-41954658D01*
X15905991Y-41952637D01*
X15906418Y-41952675D01*
X15926415Y-41887532D01*
X15942477Y-41867849D01*
X16147921Y-41662405D01*
X16210233Y-41628379D01*
X16237016Y-41625500D01*
X26555290Y-41625500D01*
X26566272Y-41625980D01*
X26592820Y-41628303D01*
X26592822Y-41628303D01*
X26603807Y-41629264D01*
X26640215Y-41619508D01*
X26650942Y-41617130D01*
X26654301Y-41616538D01*
X26688045Y-41610588D01*
X26697590Y-41605077D01*
X26700866Y-41603885D01*
X26704034Y-41602408D01*
X26714684Y-41599554D01*
X26745544Y-41577945D01*
X26754815Y-41572039D01*
X26777906Y-41558707D01*
X26787455Y-41553194D01*
X26811685Y-41524317D01*
X26819111Y-41516215D01*
X27941215Y-40394111D01*
X27949319Y-40386684D01*
X27969749Y-40369541D01*
X27978194Y-40362455D01*
X27983707Y-40352906D01*
X27997039Y-40329815D01*
X28002945Y-40320544D01*
X28018230Y-40298715D01*
X28024554Y-40289684D01*
X28027408Y-40279034D01*
X28028885Y-40275866D01*
X28030077Y-40272590D01*
X28035588Y-40263045D01*
X28042130Y-40225942D01*
X28044509Y-40215210D01*
X28054264Y-40178807D01*
X28050979Y-40141257D01*
X28050500Y-40130276D01*
X28050500Y-37788828D01*
X29706001Y-37788828D01*
X29707209Y-37801088D01*
X29718315Y-37856931D01*
X29727633Y-37879427D01*
X29769983Y-37942808D01*
X29787192Y-37960017D01*
X29850575Y-38002368D01*
X29873066Y-38011684D01*
X29928915Y-38022793D01*
X29941170Y-38024000D01*
X32354885Y-38024000D01*
X32370124Y-38019525D01*
X32371329Y-38018135D01*
X32373000Y-38010452D01*
X32373000Y-36645115D01*
X32368525Y-36629876D01*
X32367135Y-36628671D01*
X32359452Y-36627000D01*
X29724116Y-36627000D01*
X29708877Y-36631475D01*
X29707672Y-36632865D01*
X29706001Y-36640548D01*
X29706001Y-37788828D01*
X28050500Y-37788828D01*
X28050500Y-36354885D01*
X29706000Y-36354885D01*
X29710475Y-36370124D01*
X29711865Y-36371329D01*
X29719548Y-36373000D01*
X32354885Y-36373000D01*
X32370124Y-36368525D01*
X32371329Y-36367135D01*
X32373000Y-36359452D01*
X32373000Y-34994116D01*
X32368525Y-34978877D01*
X32367135Y-34977672D01*
X32359452Y-34976001D01*
X29941172Y-34976001D01*
X29928912Y-34977209D01*
X29873069Y-34988315D01*
X29850573Y-34997633D01*
X29787192Y-35039983D01*
X29769983Y-35057192D01*
X29727632Y-35120575D01*
X29718316Y-35143066D01*
X29707207Y-35198915D01*
X29706000Y-35211170D01*
X29706000Y-36354885D01*
X28050500Y-36354885D01*
X28050500Y-33187017D01*
X28070502Y-33118896D01*
X28087405Y-33097921D01*
X28872923Y-32312404D01*
X28935235Y-32278379D01*
X28962018Y-32275500D01*
X29633500Y-32275500D01*
X29701621Y-32295502D01*
G37*
G04 #@! TD.AperFunction*
G04 #@! TA.AperFunction,Conductor*
G36*
X20449012Y-30286569D02*
G01*
X20455595Y-30292698D01*
X20557347Y-30394450D01*
X20583581Y-30432799D01*
X20620720Y-30517203D01*
X20626497Y-30524076D01*
X20626498Y-30524077D01*
X20633792Y-30532754D01*
X20712970Y-30626948D01*
X20832313Y-30706390D01*
X20929210Y-30736662D01*
X20980731Y-30767834D01*
X23062595Y-32849698D01*
X23096621Y-32912010D01*
X23099500Y-32938793D01*
X23099500Y-35003656D01*
X23087555Y-35057205D01*
X23066447Y-35102163D01*
X23060079Y-35143066D01*
X23049475Y-35211172D01*
X23044391Y-35243823D01*
X23045555Y-35252725D01*
X23045555Y-35252728D01*
X23046814Y-35262354D01*
X23062980Y-35385979D01*
X23066597Y-35394199D01*
X23088829Y-35444725D01*
X23099500Y-35495471D01*
X23099500Y-40003656D01*
X23087555Y-40057205D01*
X23066447Y-40102163D01*
X23065066Y-40111035D01*
X23052857Y-40189451D01*
X23044391Y-40243823D01*
X23045555Y-40252725D01*
X23045555Y-40252728D01*
X23047441Y-40267149D01*
X23062980Y-40385979D01*
X23120720Y-40517203D01*
X23126497Y-40524076D01*
X23126498Y-40524077D01*
X23133792Y-40532754D01*
X23212970Y-40626948D01*
X23332313Y-40706390D01*
X23398082Y-40726937D01*
X23402230Y-40728233D01*
X23461287Y-40767638D01*
X23489665Y-40832717D01*
X23478353Y-40902807D01*
X23430944Y-40955654D01*
X23364657Y-40974500D01*
X16069710Y-40974500D01*
X16058728Y-40974020D01*
X16032180Y-40971697D01*
X16032178Y-40971697D01*
X16021193Y-40970736D01*
X15984785Y-40980492D01*
X15974058Y-40982870D01*
X15970699Y-40983462D01*
X15936955Y-40989412D01*
X15927410Y-40994923D01*
X15924134Y-40996115D01*
X15920966Y-40997592D01*
X15910316Y-41000446D01*
X15901285Y-41006770D01*
X15879456Y-41022055D01*
X15870185Y-41027961D01*
X15847094Y-41041293D01*
X15837545Y-41046806D01*
X15830459Y-41055251D01*
X15813315Y-41075682D01*
X15805889Y-41083785D01*
X15477204Y-41412470D01*
X15414892Y-41446496D01*
X15387339Y-41449373D01*
X15361235Y-41449214D01*
X15331376Y-41449031D01*
X15289123Y-41461107D01*
X15218129Y-41460593D01*
X15158682Y-41421779D01*
X15129656Y-41356987D01*
X15128500Y-41339957D01*
X15128500Y-38150000D01*
X15148502Y-38081879D01*
X15202158Y-38035386D01*
X15254500Y-38024000D01*
X17354885Y-38024000D01*
X17370124Y-38019525D01*
X17371329Y-38018135D01*
X17373000Y-38010452D01*
X17373000Y-38005884D01*
X17627000Y-38005884D01*
X17631475Y-38021123D01*
X17632865Y-38022328D01*
X17640548Y-38023999D01*
X20058828Y-38023999D01*
X20071088Y-38022791D01*
X20126931Y-38011685D01*
X20149427Y-38002367D01*
X20212808Y-37960017D01*
X20230017Y-37942808D01*
X20272368Y-37879425D01*
X20281684Y-37856934D01*
X20292793Y-37801085D01*
X20294000Y-37788830D01*
X20294000Y-36645115D01*
X20289525Y-36629876D01*
X20288135Y-36628671D01*
X20280452Y-36627000D01*
X17645115Y-36627000D01*
X17629876Y-36631475D01*
X17628671Y-36632865D01*
X17627000Y-36640548D01*
X17627000Y-38005884D01*
X17373000Y-38005884D01*
X17373000Y-36354885D01*
X17627000Y-36354885D01*
X17631475Y-36370124D01*
X17632865Y-36371329D01*
X17640548Y-36373000D01*
X20275884Y-36373000D01*
X20291123Y-36368525D01*
X20292328Y-36367135D01*
X20293999Y-36359452D01*
X20293999Y-35211172D01*
X20292791Y-35198912D01*
X20281685Y-35143069D01*
X20272367Y-35120573D01*
X20230017Y-35057192D01*
X20212808Y-35039983D01*
X20149425Y-34997632D01*
X20126934Y-34988316D01*
X20071085Y-34977207D01*
X20058830Y-34976000D01*
X17645115Y-34976000D01*
X17629876Y-34980475D01*
X17628671Y-34981865D01*
X17627000Y-34989548D01*
X17627000Y-36354885D01*
X17373000Y-36354885D01*
X17373000Y-34994116D01*
X17368525Y-34978877D01*
X17367135Y-34977672D01*
X17359452Y-34976001D01*
X15254500Y-34976001D01*
X15186379Y-34955999D01*
X15139886Y-34902343D01*
X15128500Y-34850001D01*
X15128500Y-34596500D01*
X15148502Y-34528379D01*
X15202158Y-34481886D01*
X15254500Y-34470500D01*
X20059748Y-34470500D01*
X20065816Y-34469293D01*
X20106061Y-34461288D01*
X20106062Y-34461288D01*
X20118231Y-34458867D01*
X20184552Y-34414552D01*
X20228867Y-34348231D01*
X20240500Y-34289748D01*
X20240500Y-31710252D01*
X20228867Y-31651769D01*
X20184552Y-31585448D01*
X20118231Y-31541133D01*
X20106062Y-31538712D01*
X20106061Y-31538712D01*
X20065816Y-31530707D01*
X20059748Y-31529500D01*
X15883814Y-31529500D01*
X15815693Y-31509498D01*
X15769200Y-31455842D01*
X15759560Y-31382596D01*
X15779190Y-31265917D01*
X15779997Y-31261120D01*
X15780133Y-31250000D01*
X15761839Y-31122259D01*
X15763332Y-31122045D01*
X15763401Y-31060864D01*
X15801853Y-31001182D01*
X15866467Y-30971762D01*
X15884257Y-30970500D01*
X20059748Y-30970500D01*
X20065816Y-30969293D01*
X20106061Y-30961288D01*
X20106062Y-30961288D01*
X20118231Y-30958867D01*
X20184552Y-30914552D01*
X20228867Y-30848231D01*
X20240500Y-30789748D01*
X20240500Y-30381793D01*
X20260502Y-30313672D01*
X20314158Y-30267179D01*
X20384432Y-30257075D01*
X20449012Y-30286569D01*
G37*
G04 #@! TD.AperFunction*
G04 #@! TA.AperFunction,Conductor*
G36*
X34813621Y-23148502D02*
G01*
X34860114Y-23202158D01*
X34871500Y-23254500D01*
X34871500Y-27903500D01*
X34851498Y-27971621D01*
X34797842Y-28018114D01*
X34745500Y-28029500D01*
X33076500Y-28029500D01*
X33008379Y-28009498D01*
X32961886Y-27955842D01*
X32950500Y-27903500D01*
X32950500Y-26734220D01*
X32951373Y-26719411D01*
X32954257Y-26695043D01*
X32955364Y-26685690D01*
X32953672Y-26676426D01*
X32953672Y-26676422D01*
X32944827Y-26627989D01*
X32944178Y-26624088D01*
X32936851Y-26575355D01*
X32936849Y-26575347D01*
X32935449Y-26566038D01*
X32932323Y-26559528D01*
X32931026Y-26552427D01*
X32903982Y-26500363D01*
X32902214Y-26496825D01*
X32880886Y-26452411D01*
X32876809Y-26443921D01*
X32871922Y-26438635D01*
X32871895Y-26438595D01*
X32868580Y-26432212D01*
X32864275Y-26427172D01*
X32827048Y-26389945D01*
X32823618Y-26386379D01*
X32791246Y-26351359D01*
X32784854Y-26344444D01*
X32778495Y-26340751D01*
X32772337Y-26335234D01*
X31543254Y-25106151D01*
X31517648Y-25069207D01*
X31479701Y-24985746D01*
X31479699Y-24985743D01*
X31475984Y-24977572D01*
X31457598Y-24956234D01*
X31388260Y-24875763D01*
X31388257Y-24875760D01*
X31382400Y-24868963D01*
X31262095Y-24790985D01*
X31124739Y-24749907D01*
X31115763Y-24749852D01*
X31115762Y-24749852D01*
X31055555Y-24749484D01*
X30981376Y-24749031D01*
X30843529Y-24788428D01*
X30841824Y-24789504D01*
X30794996Y-24799500D01*
X28805192Y-24799500D01*
X28762364Y-24790084D01*
X28762095Y-24790985D01*
X28624739Y-24749907D01*
X28615763Y-24749852D01*
X28615762Y-24749852D01*
X28555555Y-24749484D01*
X28481376Y-24749031D01*
X28343529Y-24788428D01*
X28222280Y-24864930D01*
X28127377Y-24972388D01*
X28066447Y-25102163D01*
X28044391Y-25243823D01*
X28045555Y-25252725D01*
X28045555Y-25252728D01*
X28046814Y-25262354D01*
X28062980Y-25385979D01*
X28120720Y-25517203D01*
X28126497Y-25524076D01*
X28126498Y-25524077D01*
X28133792Y-25532754D01*
X28212970Y-25626948D01*
X28220447Y-25631925D01*
X28323465Y-25700500D01*
X28332313Y-25706390D01*
X28469157Y-25749142D01*
X28478129Y-25749306D01*
X28478132Y-25749307D01*
X28543463Y-25750504D01*
X28612499Y-25751770D01*
X28621533Y-25749307D01*
X28742155Y-25716422D01*
X28742158Y-25716421D01*
X28750817Y-25714060D01*
X28756546Y-25710542D01*
X28805042Y-25700500D01*
X30794410Y-25700500D01*
X30831528Y-25708902D01*
X30832313Y-25706390D01*
X30856492Y-25713944D01*
X30908013Y-25745116D01*
X32012595Y-26849698D01*
X32046621Y-26912010D01*
X32049500Y-26938793D01*
X32049500Y-27903500D01*
X32029498Y-27971621D01*
X31975842Y-28018114D01*
X31923500Y-28029500D01*
X29940252Y-28029500D01*
X29934184Y-28030707D01*
X29893939Y-28038712D01*
X29893938Y-28038712D01*
X29881769Y-28041133D01*
X29815448Y-28085448D01*
X29771133Y-28151769D01*
X29759500Y-28210252D01*
X29759500Y-28923500D01*
X29739498Y-28991621D01*
X29685842Y-29038114D01*
X29633500Y-29049500D01*
X29334219Y-29049500D01*
X29319410Y-29048627D01*
X29316224Y-29048250D01*
X29285689Y-29044636D01*
X29276426Y-29046328D01*
X29276419Y-29046328D01*
X29227982Y-29055175D01*
X29224083Y-29055825D01*
X29201353Y-29059242D01*
X29175356Y-29063150D01*
X29175355Y-29063150D01*
X29166038Y-29064551D01*
X29159525Y-29067679D01*
X29152427Y-29068975D01*
X29100347Y-29096028D01*
X29096845Y-29097777D01*
X29052413Y-29119113D01*
X29043921Y-29123191D01*
X29038636Y-29128077D01*
X29038589Y-29128108D01*
X29032211Y-29131421D01*
X29027172Y-29135725D01*
X28989945Y-29172952D01*
X28986380Y-29176381D01*
X28944444Y-29215146D01*
X28940751Y-29221505D01*
X28935234Y-29227663D01*
X28409934Y-29752963D01*
X28360298Y-29782174D01*
X28360353Y-29782297D01*
X28359248Y-29782791D01*
X28355468Y-29785016D01*
X28343529Y-29788428D01*
X28222280Y-29864930D01*
X28127377Y-29972388D01*
X28066447Y-30102163D01*
X28044391Y-30243823D01*
X28045555Y-30252725D01*
X28045555Y-30252728D01*
X28050782Y-30292698D01*
X28062980Y-30385979D01*
X28120720Y-30517203D01*
X28126497Y-30524076D01*
X28126498Y-30524077D01*
X28133792Y-30532754D01*
X28212970Y-30626948D01*
X28332313Y-30706390D01*
X28469157Y-30749142D01*
X28478129Y-30749306D01*
X28478132Y-30749307D01*
X28543463Y-30750504D01*
X28612499Y-30751770D01*
X28621533Y-30749307D01*
X28742158Y-30716421D01*
X28742160Y-30716420D01*
X28750817Y-30714060D01*
X28872991Y-30639045D01*
X28969200Y-30532754D01*
X29020883Y-30426080D01*
X29045180Y-30391923D01*
X29449698Y-29987405D01*
X29512010Y-29953379D01*
X29538793Y-29950500D01*
X29633500Y-29950500D01*
X29701621Y-29970502D01*
X29748114Y-30024158D01*
X29759500Y-30076500D01*
X29759500Y-30789748D01*
X29771133Y-30848231D01*
X29815448Y-30914552D01*
X29881769Y-30958867D01*
X29893938Y-30961288D01*
X29893939Y-30961288D01*
X29934184Y-30969293D01*
X29940252Y-30970500D01*
X34745500Y-30970500D01*
X34813621Y-30990502D01*
X34860114Y-31044158D01*
X34871500Y-31096500D01*
X34871500Y-31403500D01*
X34851498Y-31471621D01*
X34797842Y-31518114D01*
X34745500Y-31529500D01*
X29940252Y-31529500D01*
X29934184Y-31530707D01*
X29893939Y-31538712D01*
X29893938Y-31538712D01*
X29881769Y-31541133D01*
X29815448Y-31585448D01*
X29812456Y-31589925D01*
X29754416Y-31621620D01*
X29727629Y-31624500D01*
X28794713Y-31624500D01*
X28783732Y-31624021D01*
X28757170Y-31621697D01*
X28757168Y-31621697D01*
X28746193Y-31620737D01*
X28709783Y-31630492D01*
X28699076Y-31632866D01*
X28661955Y-31639412D01*
X28652411Y-31644922D01*
X28649135Y-31646114D01*
X28645964Y-31647593D01*
X28635316Y-31650446D01*
X28626287Y-31656768D01*
X28604449Y-31672059D01*
X28595179Y-31677964D01*
X28572092Y-31691293D01*
X28572088Y-31691296D01*
X28562545Y-31696806D01*
X28546071Y-31716439D01*
X28538320Y-31725676D01*
X28530894Y-31733779D01*
X27508784Y-32755890D01*
X27500681Y-32763316D01*
X27471806Y-32787545D01*
X27466293Y-32797094D01*
X27452961Y-32820185D01*
X27447055Y-32829456D01*
X27425446Y-32860316D01*
X27422592Y-32870966D01*
X27421115Y-32874134D01*
X27419923Y-32877410D01*
X27414412Y-32886955D01*
X27408462Y-32920699D01*
X27407870Y-32924058D01*
X27405492Y-32934785D01*
X27395736Y-32971193D01*
X27396697Y-32982178D01*
X27396697Y-32982180D01*
X27399020Y-33008728D01*
X27399500Y-33019710D01*
X27399500Y-39962984D01*
X27379498Y-40031105D01*
X27362595Y-40052079D01*
X26477079Y-40937595D01*
X26414767Y-40971621D01*
X26387984Y-40974500D01*
X23736727Y-40974500D01*
X23668606Y-40954498D01*
X23622113Y-40900842D01*
X23612009Y-40830568D01*
X23641503Y-40765988D01*
X23703585Y-40726937D01*
X23742158Y-40716421D01*
X23742160Y-40716420D01*
X23750817Y-40714060D01*
X23872991Y-40639045D01*
X23969200Y-40532754D01*
X24031710Y-40403733D01*
X24055496Y-40262354D01*
X24055647Y-40250000D01*
X24046976Y-40189451D01*
X24036596Y-40116968D01*
X24036595Y-40116965D01*
X24035323Y-40108082D01*
X24011799Y-40056343D01*
X24000500Y-40004192D01*
X24000500Y-35497066D01*
X24013106Y-35442132D01*
X24031710Y-35403733D01*
X24055496Y-35262354D01*
X24055647Y-35250000D01*
X24047473Y-35192924D01*
X24036596Y-35116968D01*
X24036595Y-35116965D01*
X24035323Y-35108082D01*
X24011799Y-35056343D01*
X24000500Y-35004192D01*
X24000500Y-32734219D01*
X24001373Y-32719410D01*
X24004257Y-32695041D01*
X24005364Y-32685689D01*
X24003672Y-32676426D01*
X24003672Y-32676419D01*
X23994825Y-32627982D01*
X23994174Y-32624075D01*
X23986850Y-32575356D01*
X23986850Y-32575355D01*
X23985449Y-32566038D01*
X23982321Y-32559525D01*
X23981025Y-32552427D01*
X23953972Y-32500347D01*
X23952223Y-32496845D01*
X23930887Y-32452413D01*
X23930886Y-32452412D01*
X23926809Y-32443921D01*
X23921923Y-32438636D01*
X23921892Y-32438589D01*
X23918579Y-32432211D01*
X23914275Y-32427172D01*
X23877048Y-32389945D01*
X23873618Y-32386379D01*
X23841246Y-32351359D01*
X23834854Y-32344444D01*
X23828495Y-32340751D01*
X23822337Y-32335234D01*
X21501539Y-30014436D01*
X21484486Y-29993227D01*
X21479697Y-29985739D01*
X21475984Y-29977572D01*
X21470129Y-29970777D01*
X21470127Y-29970774D01*
X21388260Y-29875763D01*
X21388257Y-29875760D01*
X21382400Y-29868963D01*
X21262095Y-29790985D01*
X21244066Y-29785593D01*
X21191075Y-29753972D01*
X20642753Y-29205650D01*
X20632899Y-29194561D01*
X20617707Y-29175291D01*
X20617705Y-29175289D01*
X20611872Y-29167890D01*
X20604125Y-29162535D01*
X20604123Y-29162534D01*
X20567875Y-29137482D01*
X20563615Y-29134538D01*
X20560403Y-29132243D01*
X20554785Y-29128093D01*
X20513184Y-29097366D01*
X20506368Y-29094973D01*
X20500431Y-29090869D01*
X20491451Y-29088029D01*
X20491449Y-29088028D01*
X20471283Y-29081650D01*
X20444481Y-29073174D01*
X20440750Y-29071929D01*
X20394263Y-29055604D01*
X20394261Y-29055604D01*
X20385369Y-29052481D01*
X20378181Y-29052199D01*
X20378122Y-29052188D01*
X20371270Y-29050020D01*
X20364663Y-29049500D01*
X20362194Y-29049500D01*
X20361557Y-29049475D01*
X20357920Y-29048250D01*
X20357052Y-29048081D01*
X20357075Y-29047965D01*
X20294273Y-29026816D01*
X20249921Y-28971378D01*
X20240500Y-28923572D01*
X20240500Y-28210252D01*
X20228867Y-28151769D01*
X20184552Y-28085448D01*
X20118231Y-28041133D01*
X20106062Y-28038712D01*
X20106061Y-28038712D01*
X20065816Y-28030707D01*
X20059748Y-28029500D01*
X18326500Y-28029500D01*
X18258379Y-28009498D01*
X18211886Y-27955842D01*
X18200500Y-27903500D01*
X18200500Y-26288793D01*
X18220502Y-26220672D01*
X18237405Y-26199698D01*
X18688968Y-25748135D01*
X18734636Y-25721636D01*
X18733921Y-25719984D01*
X18742153Y-25716422D01*
X18750817Y-25714060D01*
X18756547Y-25710542D01*
X18805042Y-25700500D01*
X20794411Y-25700500D01*
X20831528Y-25708902D01*
X20832313Y-25706390D01*
X20969157Y-25749142D01*
X20978129Y-25749306D01*
X20978132Y-25749307D01*
X21043463Y-25750504D01*
X21112499Y-25751770D01*
X21121533Y-25749307D01*
X21242158Y-25716421D01*
X21242160Y-25716420D01*
X21250817Y-25714060D01*
X21372991Y-25639045D01*
X21469200Y-25532754D01*
X21531710Y-25403733D01*
X21555496Y-25262354D01*
X21555647Y-25250000D01*
X21535323Y-25108082D01*
X21527736Y-25091394D01*
X21479700Y-24985746D01*
X21475984Y-24977572D01*
X21457598Y-24956234D01*
X21388260Y-24875763D01*
X21388257Y-24875760D01*
X21382400Y-24868963D01*
X21262095Y-24790985D01*
X21124739Y-24749907D01*
X21115763Y-24749852D01*
X21115762Y-24749852D01*
X21055555Y-24749484D01*
X20981376Y-24749031D01*
X20843529Y-24788428D01*
X20841824Y-24789504D01*
X20794996Y-24799500D01*
X18805192Y-24799500D01*
X18762364Y-24790084D01*
X18762095Y-24790985D01*
X18624739Y-24749907D01*
X18615763Y-24749852D01*
X18615762Y-24749852D01*
X18555555Y-24749484D01*
X18481376Y-24749031D01*
X18343529Y-24788428D01*
X18222280Y-24864930D01*
X18127377Y-24972388D01*
X18081920Y-25069207D01*
X18080872Y-25071439D01*
X18055912Y-25106985D01*
X17455650Y-25707247D01*
X17444561Y-25717101D01*
X17425291Y-25732293D01*
X17425289Y-25732295D01*
X17417890Y-25738128D01*
X17412535Y-25745875D01*
X17412534Y-25745877D01*
X17384545Y-25786375D01*
X17382250Y-25789587D01*
X17347366Y-25836816D01*
X17344973Y-25843632D01*
X17340869Y-25849569D01*
X17338029Y-25858549D01*
X17338028Y-25858551D01*
X17323182Y-25905495D01*
X17321929Y-25909250D01*
X17302481Y-25964631D01*
X17302199Y-25971819D01*
X17302188Y-25971878D01*
X17300020Y-25978730D01*
X17299500Y-25985337D01*
X17299500Y-26038016D01*
X17299403Y-26042962D01*
X17297162Y-26099994D01*
X17299046Y-26107100D01*
X17299500Y-26115347D01*
X17299500Y-27903500D01*
X17279498Y-27971621D01*
X17225842Y-28018114D01*
X17173500Y-28029500D01*
X15254500Y-28029500D01*
X15186379Y-28009498D01*
X15139886Y-27955842D01*
X15128500Y-27903500D01*
X15128500Y-23254500D01*
X15148502Y-23186379D01*
X15202158Y-23139886D01*
X15254500Y-23128500D01*
X34745500Y-23128500D01*
X34813621Y-23148502D01*
G37*
G04 #@! TD.AperFunction*
G04 #@! TD*
G04 #@! TA.AperFunction,Conductor*
G04 #@! TO.N,Board_1-GND*
G36*
X51701621Y-32295502D02*
G01*
X51748114Y-32349158D01*
X51759500Y-32401500D01*
X51759500Y-34289748D01*
X51771133Y-34348231D01*
X51815448Y-34414552D01*
X51881769Y-34458867D01*
X51893938Y-34461288D01*
X51893939Y-34461288D01*
X51934184Y-34469293D01*
X51940252Y-34470500D01*
X56745500Y-34470500D01*
X56813621Y-34490502D01*
X56860114Y-34544158D01*
X56871500Y-34596500D01*
X56871500Y-34850000D01*
X56851498Y-34918121D01*
X56797842Y-34964614D01*
X56745500Y-34976000D01*
X54645115Y-34976000D01*
X54629876Y-34980475D01*
X54628671Y-34981865D01*
X54627000Y-34989548D01*
X54627000Y-38005884D01*
X54631475Y-38021123D01*
X54632865Y-38022328D01*
X54640548Y-38023999D01*
X56745500Y-38023999D01*
X56813621Y-38044001D01*
X56860114Y-38097657D01*
X56871500Y-38149999D01*
X56871500Y-42745500D01*
X56851498Y-42813621D01*
X56797842Y-42860114D01*
X56745500Y-42871500D01*
X37254500Y-42871500D01*
X37186379Y-42851498D01*
X37139886Y-42797842D01*
X37128500Y-42745500D01*
X37128500Y-42560948D01*
X37148502Y-42492827D01*
X37202158Y-42446334D01*
X37272432Y-42436230D01*
X37292069Y-42440679D01*
X37319157Y-42449142D01*
X37328129Y-42449306D01*
X37328132Y-42449307D01*
X37393463Y-42450504D01*
X37462499Y-42451770D01*
X37471533Y-42449307D01*
X37592158Y-42416421D01*
X37592160Y-42416420D01*
X37600817Y-42414060D01*
X37722991Y-42339045D01*
X37819200Y-42232754D01*
X37881710Y-42103733D01*
X37905496Y-41962354D01*
X37905581Y-41955403D01*
X37905810Y-41954658D01*
X37905991Y-41952637D01*
X37906418Y-41952675D01*
X37926415Y-41887532D01*
X37942477Y-41867849D01*
X38147921Y-41662405D01*
X38210233Y-41628379D01*
X38237016Y-41625500D01*
X48555290Y-41625500D01*
X48566272Y-41625980D01*
X48592820Y-41628303D01*
X48592822Y-41628303D01*
X48603807Y-41629264D01*
X48640215Y-41619508D01*
X48650942Y-41617130D01*
X48654301Y-41616538D01*
X48688045Y-41610588D01*
X48697590Y-41605077D01*
X48700866Y-41603885D01*
X48704034Y-41602408D01*
X48714684Y-41599554D01*
X48745544Y-41577945D01*
X48754815Y-41572039D01*
X48777906Y-41558707D01*
X48787455Y-41553194D01*
X48811685Y-41524317D01*
X48819111Y-41516215D01*
X49941215Y-40394111D01*
X49949319Y-40386684D01*
X49969749Y-40369541D01*
X49978194Y-40362455D01*
X49983707Y-40352906D01*
X49997039Y-40329815D01*
X50002945Y-40320544D01*
X50018230Y-40298715D01*
X50024554Y-40289684D01*
X50027408Y-40279034D01*
X50028885Y-40275866D01*
X50030077Y-40272590D01*
X50035588Y-40263045D01*
X50042130Y-40225942D01*
X50044509Y-40215210D01*
X50054264Y-40178807D01*
X50050979Y-40141257D01*
X50050500Y-40130276D01*
X50050500Y-37788828D01*
X51706001Y-37788828D01*
X51707209Y-37801088D01*
X51718315Y-37856931D01*
X51727633Y-37879427D01*
X51769983Y-37942808D01*
X51787192Y-37960017D01*
X51850575Y-38002368D01*
X51873066Y-38011684D01*
X51928915Y-38022793D01*
X51941170Y-38024000D01*
X54354885Y-38024000D01*
X54370124Y-38019525D01*
X54371329Y-38018135D01*
X54373000Y-38010452D01*
X54373000Y-36645115D01*
X54368525Y-36629876D01*
X54367135Y-36628671D01*
X54359452Y-36627000D01*
X51724116Y-36627000D01*
X51708877Y-36631475D01*
X51707672Y-36632865D01*
X51706001Y-36640548D01*
X51706001Y-37788828D01*
X50050500Y-37788828D01*
X50050500Y-36354885D01*
X51706000Y-36354885D01*
X51710475Y-36370124D01*
X51711865Y-36371329D01*
X51719548Y-36373000D01*
X54354885Y-36373000D01*
X54370124Y-36368525D01*
X54371329Y-36367135D01*
X54373000Y-36359452D01*
X54373000Y-34994116D01*
X54368525Y-34978877D01*
X54367135Y-34977672D01*
X54359452Y-34976001D01*
X51941172Y-34976001D01*
X51928912Y-34977209D01*
X51873069Y-34988315D01*
X51850573Y-34997633D01*
X51787192Y-35039983D01*
X51769983Y-35057192D01*
X51727632Y-35120575D01*
X51718316Y-35143066D01*
X51707207Y-35198915D01*
X51706000Y-35211170D01*
X51706000Y-36354885D01*
X50050500Y-36354885D01*
X50050500Y-33187017D01*
X50070502Y-33118896D01*
X50087405Y-33097921D01*
X50872923Y-32312404D01*
X50935235Y-32278379D01*
X50962018Y-32275500D01*
X51633500Y-32275500D01*
X51701621Y-32295502D01*
G37*
G04 #@! TD.AperFunction*
G04 #@! TA.AperFunction,Conductor*
G36*
X42449012Y-30286569D02*
G01*
X42455595Y-30292698D01*
X42557347Y-30394450D01*
X42583581Y-30432799D01*
X42620720Y-30517203D01*
X42626497Y-30524076D01*
X42626498Y-30524077D01*
X42633792Y-30532754D01*
X42712970Y-30626948D01*
X42832313Y-30706390D01*
X42929210Y-30736662D01*
X42980731Y-30767834D01*
X45062595Y-32849698D01*
X45096621Y-32912010D01*
X45099500Y-32938793D01*
X45099500Y-35003656D01*
X45087555Y-35057205D01*
X45066447Y-35102163D01*
X45060079Y-35143066D01*
X45049475Y-35211172D01*
X45044391Y-35243823D01*
X45045555Y-35252725D01*
X45045555Y-35252728D01*
X45046814Y-35262354D01*
X45062980Y-35385979D01*
X45066597Y-35394199D01*
X45088829Y-35444725D01*
X45099500Y-35495471D01*
X45099500Y-40003656D01*
X45087555Y-40057205D01*
X45066447Y-40102163D01*
X45065066Y-40111035D01*
X45052857Y-40189451D01*
X45044391Y-40243823D01*
X45045555Y-40252725D01*
X45045555Y-40252728D01*
X45047441Y-40267149D01*
X45062980Y-40385979D01*
X45120720Y-40517203D01*
X45126497Y-40524076D01*
X45126498Y-40524077D01*
X45133792Y-40532754D01*
X45212970Y-40626948D01*
X45332313Y-40706390D01*
X45398082Y-40726937D01*
X45402230Y-40728233D01*
X45461287Y-40767638D01*
X45489665Y-40832717D01*
X45478353Y-40902807D01*
X45430944Y-40955654D01*
X45364657Y-40974500D01*
X38069710Y-40974500D01*
X38058728Y-40974020D01*
X38032180Y-40971697D01*
X38032178Y-40971697D01*
X38021193Y-40970736D01*
X37984785Y-40980492D01*
X37974058Y-40982870D01*
X37970699Y-40983462D01*
X37936955Y-40989412D01*
X37927410Y-40994923D01*
X37924134Y-40996115D01*
X37920966Y-40997592D01*
X37910316Y-41000446D01*
X37901285Y-41006770D01*
X37879456Y-41022055D01*
X37870185Y-41027961D01*
X37847094Y-41041293D01*
X37837545Y-41046806D01*
X37830459Y-41055251D01*
X37813315Y-41075682D01*
X37805889Y-41083785D01*
X37477204Y-41412470D01*
X37414892Y-41446496D01*
X37387339Y-41449373D01*
X37361235Y-41449214D01*
X37331376Y-41449031D01*
X37289123Y-41461107D01*
X37218129Y-41460593D01*
X37158682Y-41421779D01*
X37129656Y-41356987D01*
X37128500Y-41339957D01*
X37128500Y-38150000D01*
X37148502Y-38081879D01*
X37202158Y-38035386D01*
X37254500Y-38024000D01*
X39354885Y-38024000D01*
X39370124Y-38019525D01*
X39371329Y-38018135D01*
X39373000Y-38010452D01*
X39373000Y-38005884D01*
X39627000Y-38005884D01*
X39631475Y-38021123D01*
X39632865Y-38022328D01*
X39640548Y-38023999D01*
X42058828Y-38023999D01*
X42071088Y-38022791D01*
X42126931Y-38011685D01*
X42149427Y-38002367D01*
X42212808Y-37960017D01*
X42230017Y-37942808D01*
X42272368Y-37879425D01*
X42281684Y-37856934D01*
X42292793Y-37801085D01*
X42294000Y-37788830D01*
X42294000Y-36645115D01*
X42289525Y-36629876D01*
X42288135Y-36628671D01*
X42280452Y-36627000D01*
X39645115Y-36627000D01*
X39629876Y-36631475D01*
X39628671Y-36632865D01*
X39627000Y-36640548D01*
X39627000Y-38005884D01*
X39373000Y-38005884D01*
X39373000Y-36354885D01*
X39627000Y-36354885D01*
X39631475Y-36370124D01*
X39632865Y-36371329D01*
X39640548Y-36373000D01*
X42275884Y-36373000D01*
X42291123Y-36368525D01*
X42292328Y-36367135D01*
X42293999Y-36359452D01*
X42293999Y-35211172D01*
X42292791Y-35198912D01*
X42281685Y-35143069D01*
X42272367Y-35120573D01*
X42230017Y-35057192D01*
X42212808Y-35039983D01*
X42149425Y-34997632D01*
X42126934Y-34988316D01*
X42071085Y-34977207D01*
X42058830Y-34976000D01*
X39645115Y-34976000D01*
X39629876Y-34980475D01*
X39628671Y-34981865D01*
X39627000Y-34989548D01*
X39627000Y-36354885D01*
X39373000Y-36354885D01*
X39373000Y-34994116D01*
X39368525Y-34978877D01*
X39367135Y-34977672D01*
X39359452Y-34976001D01*
X37254500Y-34976001D01*
X37186379Y-34955999D01*
X37139886Y-34902343D01*
X37128500Y-34850001D01*
X37128500Y-34596500D01*
X37148502Y-34528379D01*
X37202158Y-34481886D01*
X37254500Y-34470500D01*
X42059748Y-34470500D01*
X42065816Y-34469293D01*
X42106061Y-34461288D01*
X42106062Y-34461288D01*
X42118231Y-34458867D01*
X42184552Y-34414552D01*
X42228867Y-34348231D01*
X42240500Y-34289748D01*
X42240500Y-31710252D01*
X42228867Y-31651769D01*
X42184552Y-31585448D01*
X42118231Y-31541133D01*
X42106062Y-31538712D01*
X42106061Y-31538712D01*
X42065816Y-31530707D01*
X42059748Y-31529500D01*
X37883814Y-31529500D01*
X37815693Y-31509498D01*
X37769200Y-31455842D01*
X37759560Y-31382596D01*
X37779190Y-31265917D01*
X37779997Y-31261120D01*
X37780133Y-31250000D01*
X37761839Y-31122259D01*
X37763332Y-31122045D01*
X37763401Y-31060864D01*
X37801853Y-31001182D01*
X37866467Y-30971762D01*
X37884257Y-30970500D01*
X42059748Y-30970500D01*
X42065816Y-30969293D01*
X42106061Y-30961288D01*
X42106062Y-30961288D01*
X42118231Y-30958867D01*
X42184552Y-30914552D01*
X42228867Y-30848231D01*
X42240500Y-30789748D01*
X42240500Y-30381793D01*
X42260502Y-30313672D01*
X42314158Y-30267179D01*
X42384432Y-30257075D01*
X42449012Y-30286569D01*
G37*
G04 #@! TD.AperFunction*
G04 #@! TA.AperFunction,Conductor*
G36*
X56813621Y-23148502D02*
G01*
X56860114Y-23202158D01*
X56871500Y-23254500D01*
X56871500Y-27903500D01*
X56851498Y-27971621D01*
X56797842Y-28018114D01*
X56745500Y-28029500D01*
X55076500Y-28029500D01*
X55008379Y-28009498D01*
X54961886Y-27955842D01*
X54950500Y-27903500D01*
X54950500Y-26734220D01*
X54951373Y-26719411D01*
X54954257Y-26695043D01*
X54955364Y-26685690D01*
X54953672Y-26676426D01*
X54953672Y-26676422D01*
X54944827Y-26627989D01*
X54944178Y-26624088D01*
X54936851Y-26575355D01*
X54936849Y-26575347D01*
X54935449Y-26566038D01*
X54932323Y-26559528D01*
X54931026Y-26552427D01*
X54903982Y-26500363D01*
X54902214Y-26496825D01*
X54880886Y-26452411D01*
X54876809Y-26443921D01*
X54871922Y-26438635D01*
X54871895Y-26438595D01*
X54868580Y-26432212D01*
X54864275Y-26427172D01*
X54827048Y-26389945D01*
X54823618Y-26386379D01*
X54791246Y-26351359D01*
X54784854Y-26344444D01*
X54778495Y-26340751D01*
X54772337Y-26335234D01*
X53543254Y-25106151D01*
X53517648Y-25069207D01*
X53479701Y-24985746D01*
X53479699Y-24985743D01*
X53475984Y-24977572D01*
X53457598Y-24956234D01*
X53388260Y-24875763D01*
X53388257Y-24875760D01*
X53382400Y-24868963D01*
X53262095Y-24790985D01*
X53124739Y-24749907D01*
X53115763Y-24749852D01*
X53115762Y-24749852D01*
X53055555Y-24749484D01*
X52981376Y-24749031D01*
X52843529Y-24788428D01*
X52841824Y-24789504D01*
X52794996Y-24799500D01*
X50805192Y-24799500D01*
X50762364Y-24790084D01*
X50762095Y-24790985D01*
X50624739Y-24749907D01*
X50615763Y-24749852D01*
X50615762Y-24749852D01*
X50555555Y-24749484D01*
X50481376Y-24749031D01*
X50343529Y-24788428D01*
X50222280Y-24864930D01*
X50127377Y-24972388D01*
X50066447Y-25102163D01*
X50044391Y-25243823D01*
X50045555Y-25252725D01*
X50045555Y-25252728D01*
X50046814Y-25262354D01*
X50062980Y-25385979D01*
X50120720Y-25517203D01*
X50126497Y-25524076D01*
X50126498Y-25524077D01*
X50133792Y-25532754D01*
X50212970Y-25626948D01*
X50220447Y-25631925D01*
X50323465Y-25700500D01*
X50332313Y-25706390D01*
X50469157Y-25749142D01*
X50478129Y-25749306D01*
X50478132Y-25749307D01*
X50543463Y-25750504D01*
X50612499Y-25751770D01*
X50621533Y-25749307D01*
X50742155Y-25716422D01*
X50742158Y-25716421D01*
X50750817Y-25714060D01*
X50756546Y-25710542D01*
X50805042Y-25700500D01*
X52794410Y-25700500D01*
X52831528Y-25708902D01*
X52832313Y-25706390D01*
X52856492Y-25713944D01*
X52908013Y-25745116D01*
X54012595Y-26849698D01*
X54046621Y-26912010D01*
X54049500Y-26938793D01*
X54049500Y-27903500D01*
X54029498Y-27971621D01*
X53975842Y-28018114D01*
X53923500Y-28029500D01*
X51940252Y-28029500D01*
X51934184Y-28030707D01*
X51893939Y-28038712D01*
X51893938Y-28038712D01*
X51881769Y-28041133D01*
X51815448Y-28085448D01*
X51771133Y-28151769D01*
X51759500Y-28210252D01*
X51759500Y-28923500D01*
X51739498Y-28991621D01*
X51685842Y-29038114D01*
X51633500Y-29049500D01*
X51334219Y-29049500D01*
X51319410Y-29048627D01*
X51316224Y-29048250D01*
X51285689Y-29044636D01*
X51276426Y-29046328D01*
X51276419Y-29046328D01*
X51227982Y-29055175D01*
X51224083Y-29055825D01*
X51201353Y-29059242D01*
X51175356Y-29063150D01*
X51175355Y-29063150D01*
X51166038Y-29064551D01*
X51159525Y-29067679D01*
X51152427Y-29068975D01*
X51100347Y-29096028D01*
X51096845Y-29097777D01*
X51052413Y-29119113D01*
X51043921Y-29123191D01*
X51038636Y-29128077D01*
X51038589Y-29128108D01*
X51032211Y-29131421D01*
X51027172Y-29135725D01*
X50989945Y-29172952D01*
X50986380Y-29176381D01*
X50944444Y-29215146D01*
X50940751Y-29221505D01*
X50935234Y-29227663D01*
X50409934Y-29752963D01*
X50360298Y-29782174D01*
X50360353Y-29782297D01*
X50359248Y-29782791D01*
X50355468Y-29785016D01*
X50343529Y-29788428D01*
X50222280Y-29864930D01*
X50127377Y-29972388D01*
X50066447Y-30102163D01*
X50044391Y-30243823D01*
X50045555Y-30252725D01*
X50045555Y-30252728D01*
X50050782Y-30292698D01*
X50062980Y-30385979D01*
X50120720Y-30517203D01*
X50126497Y-30524076D01*
X50126498Y-30524077D01*
X50133792Y-30532754D01*
X50212970Y-30626948D01*
X50332313Y-30706390D01*
X50469157Y-30749142D01*
X50478129Y-30749306D01*
X50478132Y-30749307D01*
X50543463Y-30750504D01*
X50612499Y-30751770D01*
X50621533Y-30749307D01*
X50742158Y-30716421D01*
X50742160Y-30716420D01*
X50750817Y-30714060D01*
X50872991Y-30639045D01*
X50969200Y-30532754D01*
X51020883Y-30426080D01*
X51045180Y-30391923D01*
X51449698Y-29987405D01*
X51512010Y-29953379D01*
X51538793Y-29950500D01*
X51633500Y-29950500D01*
X51701621Y-29970502D01*
X51748114Y-30024158D01*
X51759500Y-30076500D01*
X51759500Y-30789748D01*
X51771133Y-30848231D01*
X51815448Y-30914552D01*
X51881769Y-30958867D01*
X51893938Y-30961288D01*
X51893939Y-30961288D01*
X51934184Y-30969293D01*
X51940252Y-30970500D01*
X56745500Y-30970500D01*
X56813621Y-30990502D01*
X56860114Y-31044158D01*
X56871500Y-31096500D01*
X56871500Y-31403500D01*
X56851498Y-31471621D01*
X56797842Y-31518114D01*
X56745500Y-31529500D01*
X51940252Y-31529500D01*
X51934184Y-31530707D01*
X51893939Y-31538712D01*
X51893938Y-31538712D01*
X51881769Y-31541133D01*
X51815448Y-31585448D01*
X51812456Y-31589925D01*
X51754416Y-31621620D01*
X51727629Y-31624500D01*
X50794713Y-31624500D01*
X50783732Y-31624021D01*
X50757170Y-31621697D01*
X50757168Y-31621697D01*
X50746193Y-31620737D01*
X50709783Y-31630492D01*
X50699076Y-31632866D01*
X50661955Y-31639412D01*
X50652411Y-31644922D01*
X50649135Y-31646114D01*
X50645964Y-31647593D01*
X50635316Y-31650446D01*
X50626287Y-31656768D01*
X50604449Y-31672059D01*
X50595179Y-31677964D01*
X50572092Y-31691293D01*
X50572088Y-31691296D01*
X50562545Y-31696806D01*
X50546071Y-31716439D01*
X50538320Y-31725676D01*
X50530894Y-31733779D01*
X49508784Y-32755890D01*
X49500681Y-32763316D01*
X49471806Y-32787545D01*
X49466293Y-32797094D01*
X49452961Y-32820185D01*
X49447055Y-32829456D01*
X49425446Y-32860316D01*
X49422592Y-32870966D01*
X49421115Y-32874134D01*
X49419923Y-32877410D01*
X49414412Y-32886955D01*
X49408462Y-32920699D01*
X49407870Y-32924058D01*
X49405492Y-32934785D01*
X49395736Y-32971193D01*
X49396697Y-32982178D01*
X49396697Y-32982180D01*
X49399020Y-33008728D01*
X49399500Y-33019710D01*
X49399500Y-39962984D01*
X49379498Y-40031105D01*
X49362595Y-40052079D01*
X48477079Y-40937595D01*
X48414767Y-40971621D01*
X48387984Y-40974500D01*
X45736727Y-40974500D01*
X45668606Y-40954498D01*
X45622113Y-40900842D01*
X45612009Y-40830568D01*
X45641503Y-40765988D01*
X45703585Y-40726937D01*
X45742158Y-40716421D01*
X45742160Y-40716420D01*
X45750817Y-40714060D01*
X45872991Y-40639045D01*
X45969200Y-40532754D01*
X46031710Y-40403733D01*
X46055496Y-40262354D01*
X46055647Y-40250000D01*
X46046976Y-40189451D01*
X46036596Y-40116968D01*
X46036595Y-40116965D01*
X46035323Y-40108082D01*
X46011799Y-40056343D01*
X46000500Y-40004192D01*
X46000500Y-35497066D01*
X46013106Y-35442132D01*
X46031710Y-35403733D01*
X46055496Y-35262354D01*
X46055647Y-35250000D01*
X46047473Y-35192924D01*
X46036596Y-35116968D01*
X46036595Y-35116965D01*
X46035323Y-35108082D01*
X46011799Y-35056343D01*
X46000500Y-35004192D01*
X46000500Y-32734219D01*
X46001373Y-32719410D01*
X46004257Y-32695041D01*
X46005364Y-32685689D01*
X46003672Y-32676426D01*
X46003672Y-32676419D01*
X45994825Y-32627982D01*
X45994174Y-32624075D01*
X45986850Y-32575356D01*
X45986850Y-32575355D01*
X45985449Y-32566038D01*
X45982321Y-32559525D01*
X45981025Y-32552427D01*
X45953972Y-32500347D01*
X45952223Y-32496845D01*
X45930887Y-32452413D01*
X45930886Y-32452412D01*
X45926809Y-32443921D01*
X45921923Y-32438636D01*
X45921892Y-32438589D01*
X45918579Y-32432211D01*
X45914275Y-32427172D01*
X45877048Y-32389945D01*
X45873618Y-32386379D01*
X45841246Y-32351359D01*
X45834854Y-32344444D01*
X45828495Y-32340751D01*
X45822337Y-32335234D01*
X43501539Y-30014436D01*
X43484486Y-29993227D01*
X43479697Y-29985739D01*
X43475984Y-29977572D01*
X43470129Y-29970777D01*
X43470127Y-29970774D01*
X43388260Y-29875763D01*
X43388257Y-29875760D01*
X43382400Y-29868963D01*
X43262095Y-29790985D01*
X43244066Y-29785593D01*
X43191075Y-29753972D01*
X42642753Y-29205650D01*
X42632899Y-29194561D01*
X42617707Y-29175291D01*
X42617705Y-29175289D01*
X42611872Y-29167890D01*
X42604125Y-29162535D01*
X42604123Y-29162534D01*
X42567875Y-29137482D01*
X42563615Y-29134538D01*
X42560403Y-29132243D01*
X42554785Y-29128093D01*
X42513184Y-29097366D01*
X42506368Y-29094973D01*
X42500431Y-29090869D01*
X42491451Y-29088029D01*
X42491449Y-29088028D01*
X42471283Y-29081650D01*
X42444481Y-29073174D01*
X42440750Y-29071929D01*
X42394263Y-29055604D01*
X42394261Y-29055604D01*
X42385369Y-29052481D01*
X42378181Y-29052199D01*
X42378122Y-29052188D01*
X42371270Y-29050020D01*
X42364663Y-29049500D01*
X42362194Y-29049500D01*
X42361557Y-29049475D01*
X42357920Y-29048250D01*
X42357052Y-29048081D01*
X42357075Y-29047965D01*
X42294273Y-29026816D01*
X42249921Y-28971378D01*
X42240500Y-28923572D01*
X42240500Y-28210252D01*
X42228867Y-28151769D01*
X42184552Y-28085448D01*
X42118231Y-28041133D01*
X42106062Y-28038712D01*
X42106061Y-28038712D01*
X42065816Y-28030707D01*
X42059748Y-28029500D01*
X40326500Y-28029500D01*
X40258379Y-28009498D01*
X40211886Y-27955842D01*
X40200500Y-27903500D01*
X40200500Y-26288793D01*
X40220502Y-26220672D01*
X40237405Y-26199698D01*
X40688968Y-25748135D01*
X40734636Y-25721636D01*
X40733921Y-25719984D01*
X40742153Y-25716422D01*
X40750817Y-25714060D01*
X40756547Y-25710542D01*
X40805042Y-25700500D01*
X42794411Y-25700500D01*
X42831528Y-25708902D01*
X42832313Y-25706390D01*
X42969157Y-25749142D01*
X42978129Y-25749306D01*
X42978132Y-25749307D01*
X43043463Y-25750504D01*
X43112499Y-25751770D01*
X43121533Y-25749307D01*
X43242158Y-25716421D01*
X43242160Y-25716420D01*
X43250817Y-25714060D01*
X43372991Y-25639045D01*
X43469200Y-25532754D01*
X43531710Y-25403733D01*
X43555496Y-25262354D01*
X43555647Y-25250000D01*
X43535323Y-25108082D01*
X43527736Y-25091394D01*
X43479700Y-24985746D01*
X43475984Y-24977572D01*
X43457598Y-24956234D01*
X43388260Y-24875763D01*
X43388257Y-24875760D01*
X43382400Y-24868963D01*
X43262095Y-24790985D01*
X43124739Y-24749907D01*
X43115763Y-24749852D01*
X43115762Y-24749852D01*
X43055555Y-24749484D01*
X42981376Y-24749031D01*
X42843529Y-24788428D01*
X42841824Y-24789504D01*
X42794996Y-24799500D01*
X40805192Y-24799500D01*
X40762364Y-24790084D01*
X40762095Y-24790985D01*
X40624739Y-24749907D01*
X40615763Y-24749852D01*
X40615762Y-24749852D01*
X40555555Y-24749484D01*
X40481376Y-24749031D01*
X40343529Y-24788428D01*
X40222280Y-24864930D01*
X40127377Y-24972388D01*
X40081920Y-25069207D01*
X40080872Y-25071439D01*
X40055912Y-25106985D01*
X39455650Y-25707247D01*
X39444561Y-25717101D01*
X39425291Y-25732293D01*
X39425289Y-25732295D01*
X39417890Y-25738128D01*
X39412535Y-25745875D01*
X39412534Y-25745877D01*
X39384545Y-25786375D01*
X39382250Y-25789587D01*
X39347366Y-25836816D01*
X39344973Y-25843632D01*
X39340869Y-25849569D01*
X39338029Y-25858549D01*
X39338028Y-25858551D01*
X39323182Y-25905495D01*
X39321929Y-25909250D01*
X39302481Y-25964631D01*
X39302199Y-25971819D01*
X39302188Y-25971878D01*
X39300020Y-25978730D01*
X39299500Y-25985337D01*
X39299500Y-26038016D01*
X39299403Y-26042962D01*
X39297162Y-26099994D01*
X39299046Y-26107100D01*
X39299500Y-26115347D01*
X39299500Y-27903500D01*
X39279498Y-27971621D01*
X39225842Y-28018114D01*
X39173500Y-28029500D01*
X37254500Y-28029500D01*
X37186379Y-28009498D01*
X37139886Y-27955842D01*
X37128500Y-27903500D01*
X37128500Y-23254500D01*
X37148502Y-23186379D01*
X37202158Y-23139886D01*
X37254500Y-23128500D01*
X56745500Y-23128500D01*
X56813621Y-23148502D01*
G37*
G04 #@! TD.AperFunction*
G04 #@! TD*
G04 #@! TA.AperFunction,Conductor*
G04 #@! TO.N,Board_2-GND*
G36*
X73701621Y-32295502D02*
G01*
X73748114Y-32349158D01*
X73759500Y-32401500D01*
X73759500Y-34289748D01*
X73771133Y-34348231D01*
X73815448Y-34414552D01*
X73881769Y-34458867D01*
X73893938Y-34461288D01*
X73893939Y-34461288D01*
X73934184Y-34469293D01*
X73940252Y-34470500D01*
X78745500Y-34470500D01*
X78813621Y-34490502D01*
X78860114Y-34544158D01*
X78871500Y-34596500D01*
X78871500Y-34850000D01*
X78851498Y-34918121D01*
X78797842Y-34964614D01*
X78745500Y-34976000D01*
X76645115Y-34976000D01*
X76629876Y-34980475D01*
X76628671Y-34981865D01*
X76627000Y-34989548D01*
X76627000Y-38005884D01*
X76631475Y-38021123D01*
X76632865Y-38022328D01*
X76640548Y-38023999D01*
X78745500Y-38023999D01*
X78813621Y-38044001D01*
X78860114Y-38097657D01*
X78871500Y-38149999D01*
X78871500Y-42745500D01*
X78851498Y-42813621D01*
X78797842Y-42860114D01*
X78745500Y-42871500D01*
X59254500Y-42871500D01*
X59186379Y-42851498D01*
X59139886Y-42797842D01*
X59128500Y-42745500D01*
X59128500Y-42560948D01*
X59148502Y-42492827D01*
X59202158Y-42446334D01*
X59272432Y-42436230D01*
X59292069Y-42440679D01*
X59319157Y-42449142D01*
X59328129Y-42449306D01*
X59328132Y-42449307D01*
X59393463Y-42450504D01*
X59462499Y-42451770D01*
X59471533Y-42449307D01*
X59592158Y-42416421D01*
X59592160Y-42416420D01*
X59600817Y-42414060D01*
X59722991Y-42339045D01*
X59819200Y-42232754D01*
X59881710Y-42103733D01*
X59905496Y-41962354D01*
X59905581Y-41955403D01*
X59905810Y-41954658D01*
X59905991Y-41952637D01*
X59906418Y-41952675D01*
X59926415Y-41887532D01*
X59942477Y-41867849D01*
X60147921Y-41662405D01*
X60210233Y-41628379D01*
X60237016Y-41625500D01*
X70555290Y-41625500D01*
X70566272Y-41625980D01*
X70592820Y-41628303D01*
X70592822Y-41628303D01*
X70603807Y-41629264D01*
X70640215Y-41619508D01*
X70650942Y-41617130D01*
X70654301Y-41616538D01*
X70688045Y-41610588D01*
X70697590Y-41605077D01*
X70700866Y-41603885D01*
X70704034Y-41602408D01*
X70714684Y-41599554D01*
X70745544Y-41577945D01*
X70754815Y-41572039D01*
X70777906Y-41558707D01*
X70787455Y-41553194D01*
X70811685Y-41524317D01*
X70819111Y-41516215D01*
X71941215Y-40394111D01*
X71949319Y-40386684D01*
X71969749Y-40369541D01*
X71978194Y-40362455D01*
X71983707Y-40352906D01*
X71997039Y-40329815D01*
X72002945Y-40320544D01*
X72018230Y-40298715D01*
X72024554Y-40289684D01*
X72027408Y-40279034D01*
X72028885Y-40275866D01*
X72030077Y-40272590D01*
X72035588Y-40263045D01*
X72042130Y-40225942D01*
X72044509Y-40215210D01*
X72054264Y-40178807D01*
X72050979Y-40141257D01*
X72050500Y-40130276D01*
X72050500Y-37788828D01*
X73706001Y-37788828D01*
X73707209Y-37801088D01*
X73718315Y-37856931D01*
X73727633Y-37879427D01*
X73769983Y-37942808D01*
X73787192Y-37960017D01*
X73850575Y-38002368D01*
X73873066Y-38011684D01*
X73928915Y-38022793D01*
X73941170Y-38024000D01*
X76354885Y-38024000D01*
X76370124Y-38019525D01*
X76371329Y-38018135D01*
X76373000Y-38010452D01*
X76373000Y-36645115D01*
X76368525Y-36629876D01*
X76367135Y-36628671D01*
X76359452Y-36627000D01*
X73724116Y-36627000D01*
X73708877Y-36631475D01*
X73707672Y-36632865D01*
X73706001Y-36640548D01*
X73706001Y-37788828D01*
X72050500Y-37788828D01*
X72050500Y-36354885D01*
X73706000Y-36354885D01*
X73710475Y-36370124D01*
X73711865Y-36371329D01*
X73719548Y-36373000D01*
X76354885Y-36373000D01*
X76370124Y-36368525D01*
X76371329Y-36367135D01*
X76373000Y-36359452D01*
X76373000Y-34994116D01*
X76368525Y-34978877D01*
X76367135Y-34977672D01*
X76359452Y-34976001D01*
X73941172Y-34976001D01*
X73928912Y-34977209D01*
X73873069Y-34988315D01*
X73850573Y-34997633D01*
X73787192Y-35039983D01*
X73769983Y-35057192D01*
X73727632Y-35120575D01*
X73718316Y-35143066D01*
X73707207Y-35198915D01*
X73706000Y-35211170D01*
X73706000Y-36354885D01*
X72050500Y-36354885D01*
X72050500Y-33187017D01*
X72070502Y-33118896D01*
X72087405Y-33097921D01*
X72872923Y-32312404D01*
X72935235Y-32278379D01*
X72962018Y-32275500D01*
X73633500Y-32275500D01*
X73701621Y-32295502D01*
G37*
G04 #@! TD.AperFunction*
G04 #@! TA.AperFunction,Conductor*
G36*
X64449012Y-30286569D02*
G01*
X64455595Y-30292698D01*
X64557347Y-30394450D01*
X64583581Y-30432799D01*
X64620720Y-30517203D01*
X64626497Y-30524076D01*
X64626498Y-30524077D01*
X64633792Y-30532754D01*
X64712970Y-30626948D01*
X64832313Y-30706390D01*
X64929210Y-30736662D01*
X64980731Y-30767834D01*
X67062595Y-32849698D01*
X67096621Y-32912010D01*
X67099500Y-32938793D01*
X67099500Y-35003656D01*
X67087555Y-35057205D01*
X67066447Y-35102163D01*
X67060079Y-35143066D01*
X67049475Y-35211172D01*
X67044391Y-35243823D01*
X67045555Y-35252725D01*
X67045555Y-35252728D01*
X67046814Y-35262354D01*
X67062980Y-35385979D01*
X67066597Y-35394199D01*
X67088829Y-35444725D01*
X67099500Y-35495471D01*
X67099500Y-40003656D01*
X67087555Y-40057205D01*
X67066447Y-40102163D01*
X67065066Y-40111035D01*
X67052857Y-40189451D01*
X67044391Y-40243823D01*
X67045555Y-40252725D01*
X67045555Y-40252728D01*
X67047441Y-40267149D01*
X67062980Y-40385979D01*
X67120720Y-40517203D01*
X67126497Y-40524076D01*
X67126498Y-40524077D01*
X67133792Y-40532754D01*
X67212970Y-40626948D01*
X67332313Y-40706390D01*
X67398082Y-40726937D01*
X67402230Y-40728233D01*
X67461287Y-40767638D01*
X67489665Y-40832717D01*
X67478353Y-40902807D01*
X67430944Y-40955654D01*
X67364657Y-40974500D01*
X60069710Y-40974500D01*
X60058728Y-40974020D01*
X60032180Y-40971697D01*
X60032178Y-40971697D01*
X60021193Y-40970736D01*
X59984785Y-40980492D01*
X59974058Y-40982870D01*
X59970699Y-40983462D01*
X59936955Y-40989412D01*
X59927410Y-40994923D01*
X59924134Y-40996115D01*
X59920966Y-40997592D01*
X59910316Y-41000446D01*
X59901285Y-41006770D01*
X59879456Y-41022055D01*
X59870185Y-41027961D01*
X59847094Y-41041293D01*
X59837545Y-41046806D01*
X59830459Y-41055251D01*
X59813315Y-41075682D01*
X59805889Y-41083785D01*
X59477204Y-41412470D01*
X59414892Y-41446496D01*
X59387339Y-41449373D01*
X59361235Y-41449214D01*
X59331376Y-41449031D01*
X59289123Y-41461107D01*
X59218129Y-41460593D01*
X59158682Y-41421779D01*
X59129656Y-41356987D01*
X59128500Y-41339957D01*
X59128500Y-38150000D01*
X59148502Y-38081879D01*
X59202158Y-38035386D01*
X59254500Y-38024000D01*
X61354885Y-38024000D01*
X61370124Y-38019525D01*
X61371329Y-38018135D01*
X61373000Y-38010452D01*
X61373000Y-38005884D01*
X61627000Y-38005884D01*
X61631475Y-38021123D01*
X61632865Y-38022328D01*
X61640548Y-38023999D01*
X64058828Y-38023999D01*
X64071088Y-38022791D01*
X64126931Y-38011685D01*
X64149427Y-38002367D01*
X64212808Y-37960017D01*
X64230017Y-37942808D01*
X64272368Y-37879425D01*
X64281684Y-37856934D01*
X64292793Y-37801085D01*
X64294000Y-37788830D01*
X64294000Y-36645115D01*
X64289525Y-36629876D01*
X64288135Y-36628671D01*
X64280452Y-36627000D01*
X61645115Y-36627000D01*
X61629876Y-36631475D01*
X61628671Y-36632865D01*
X61627000Y-36640548D01*
X61627000Y-38005884D01*
X61373000Y-38005884D01*
X61373000Y-36354885D01*
X61627000Y-36354885D01*
X61631475Y-36370124D01*
X61632865Y-36371329D01*
X61640548Y-36373000D01*
X64275884Y-36373000D01*
X64291123Y-36368525D01*
X64292328Y-36367135D01*
X64293999Y-36359452D01*
X64293999Y-35211172D01*
X64292791Y-35198912D01*
X64281685Y-35143069D01*
X64272367Y-35120573D01*
X64230017Y-35057192D01*
X64212808Y-35039983D01*
X64149425Y-34997632D01*
X64126934Y-34988316D01*
X64071085Y-34977207D01*
X64058830Y-34976000D01*
X61645115Y-34976000D01*
X61629876Y-34980475D01*
X61628671Y-34981865D01*
X61627000Y-34989548D01*
X61627000Y-36354885D01*
X61373000Y-36354885D01*
X61373000Y-34994116D01*
X61368525Y-34978877D01*
X61367135Y-34977672D01*
X61359452Y-34976001D01*
X59254500Y-34976001D01*
X59186379Y-34955999D01*
X59139886Y-34902343D01*
X59128500Y-34850001D01*
X59128500Y-34596500D01*
X59148502Y-34528379D01*
X59202158Y-34481886D01*
X59254500Y-34470500D01*
X64059748Y-34470500D01*
X64065816Y-34469293D01*
X64106061Y-34461288D01*
X64106062Y-34461288D01*
X64118231Y-34458867D01*
X64184552Y-34414552D01*
X64228867Y-34348231D01*
X64240500Y-34289748D01*
X64240500Y-31710252D01*
X64228867Y-31651769D01*
X64184552Y-31585448D01*
X64118231Y-31541133D01*
X64106062Y-31538712D01*
X64106061Y-31538712D01*
X64065816Y-31530707D01*
X64059748Y-31529500D01*
X59883814Y-31529500D01*
X59815693Y-31509498D01*
X59769200Y-31455842D01*
X59759560Y-31382596D01*
X59779190Y-31265917D01*
X59779997Y-31261120D01*
X59780133Y-31250000D01*
X59761839Y-31122259D01*
X59763332Y-31122045D01*
X59763401Y-31060864D01*
X59801853Y-31001182D01*
X59866467Y-30971762D01*
X59884257Y-30970500D01*
X64059748Y-30970500D01*
X64065816Y-30969293D01*
X64106061Y-30961288D01*
X64106062Y-30961288D01*
X64118231Y-30958867D01*
X64184552Y-30914552D01*
X64228867Y-30848231D01*
X64240500Y-30789748D01*
X64240500Y-30381793D01*
X64260502Y-30313672D01*
X64314158Y-30267179D01*
X64384432Y-30257075D01*
X64449012Y-30286569D01*
G37*
G04 #@! TD.AperFunction*
G04 #@! TA.AperFunction,Conductor*
G36*
X78813621Y-23148502D02*
G01*
X78860114Y-23202158D01*
X78871500Y-23254500D01*
X78871500Y-27903500D01*
X78851498Y-27971621D01*
X78797842Y-28018114D01*
X78745500Y-28029500D01*
X77076500Y-28029500D01*
X77008379Y-28009498D01*
X76961886Y-27955842D01*
X76950500Y-27903500D01*
X76950500Y-26734220D01*
X76951373Y-26719411D01*
X76954257Y-26695043D01*
X76955364Y-26685690D01*
X76953672Y-26676426D01*
X76953672Y-26676422D01*
X76944827Y-26627989D01*
X76944178Y-26624088D01*
X76936851Y-26575355D01*
X76936849Y-26575347D01*
X76935449Y-26566038D01*
X76932323Y-26559528D01*
X76931026Y-26552427D01*
X76903982Y-26500363D01*
X76902214Y-26496825D01*
X76880886Y-26452411D01*
X76876809Y-26443921D01*
X76871922Y-26438635D01*
X76871895Y-26438595D01*
X76868580Y-26432212D01*
X76864275Y-26427172D01*
X76827048Y-26389945D01*
X76823618Y-26386379D01*
X76791246Y-26351359D01*
X76784854Y-26344444D01*
X76778495Y-26340751D01*
X76772337Y-26335234D01*
X75543254Y-25106151D01*
X75517648Y-25069207D01*
X75479701Y-24985746D01*
X75479699Y-24985743D01*
X75475984Y-24977572D01*
X75457598Y-24956234D01*
X75388260Y-24875763D01*
X75388257Y-24875760D01*
X75382400Y-24868963D01*
X75262095Y-24790985D01*
X75124739Y-24749907D01*
X75115763Y-24749852D01*
X75115762Y-24749852D01*
X75055555Y-24749484D01*
X74981376Y-24749031D01*
X74843529Y-24788428D01*
X74841824Y-24789504D01*
X74794996Y-24799500D01*
X72805192Y-24799500D01*
X72762364Y-24790084D01*
X72762095Y-24790985D01*
X72624739Y-24749907D01*
X72615763Y-24749852D01*
X72615762Y-24749852D01*
X72555555Y-24749484D01*
X72481376Y-24749031D01*
X72343529Y-24788428D01*
X72222280Y-24864930D01*
X72127377Y-24972388D01*
X72066447Y-25102163D01*
X72044391Y-25243823D01*
X72045555Y-25252725D01*
X72045555Y-25252728D01*
X72046814Y-25262354D01*
X72062980Y-25385979D01*
X72120720Y-25517203D01*
X72126497Y-25524076D01*
X72126498Y-25524077D01*
X72133792Y-25532754D01*
X72212970Y-25626948D01*
X72220447Y-25631925D01*
X72323465Y-25700500D01*
X72332313Y-25706390D01*
X72469157Y-25749142D01*
X72478129Y-25749306D01*
X72478132Y-25749307D01*
X72543463Y-25750504D01*
X72612499Y-25751770D01*
X72621533Y-25749307D01*
X72742155Y-25716422D01*
X72742158Y-25716421D01*
X72750817Y-25714060D01*
X72756546Y-25710542D01*
X72805042Y-25700500D01*
X74794410Y-25700500D01*
X74831528Y-25708902D01*
X74832313Y-25706390D01*
X74856492Y-25713944D01*
X74908013Y-25745116D01*
X76012595Y-26849698D01*
X76046621Y-26912010D01*
X76049500Y-26938793D01*
X76049500Y-27903500D01*
X76029498Y-27971621D01*
X75975842Y-28018114D01*
X75923500Y-28029500D01*
X73940252Y-28029500D01*
X73934184Y-28030707D01*
X73893939Y-28038712D01*
X73893938Y-28038712D01*
X73881769Y-28041133D01*
X73815448Y-28085448D01*
X73771133Y-28151769D01*
X73759500Y-28210252D01*
X73759500Y-28923500D01*
X73739498Y-28991621D01*
X73685842Y-29038114D01*
X73633500Y-29049500D01*
X73334219Y-29049500D01*
X73319410Y-29048627D01*
X73316224Y-29048250D01*
X73285689Y-29044636D01*
X73276426Y-29046328D01*
X73276419Y-29046328D01*
X73227982Y-29055175D01*
X73224083Y-29055825D01*
X73201353Y-29059242D01*
X73175356Y-29063150D01*
X73175355Y-29063150D01*
X73166038Y-29064551D01*
X73159525Y-29067679D01*
X73152427Y-29068975D01*
X73100347Y-29096028D01*
X73096845Y-29097777D01*
X73052413Y-29119113D01*
X73043921Y-29123191D01*
X73038636Y-29128077D01*
X73038589Y-29128108D01*
X73032211Y-29131421D01*
X73027172Y-29135725D01*
X72989945Y-29172952D01*
X72986380Y-29176381D01*
X72944444Y-29215146D01*
X72940751Y-29221505D01*
X72935234Y-29227663D01*
X72409934Y-29752963D01*
X72360298Y-29782174D01*
X72360353Y-29782297D01*
X72359248Y-29782791D01*
X72355468Y-29785016D01*
X72343529Y-29788428D01*
X72222280Y-29864930D01*
X72127377Y-29972388D01*
X72066447Y-30102163D01*
X72044391Y-30243823D01*
X72045555Y-30252725D01*
X72045555Y-30252728D01*
X72050782Y-30292698D01*
X72062980Y-30385979D01*
X72120720Y-30517203D01*
X72126497Y-30524076D01*
X72126498Y-30524077D01*
X72133792Y-30532754D01*
X72212970Y-30626948D01*
X72332313Y-30706390D01*
X72469157Y-30749142D01*
X72478129Y-30749306D01*
X72478132Y-30749307D01*
X72543463Y-30750504D01*
X72612499Y-30751770D01*
X72621533Y-30749307D01*
X72742158Y-30716421D01*
X72742160Y-30716420D01*
X72750817Y-30714060D01*
X72872991Y-30639045D01*
X72969200Y-30532754D01*
X73020883Y-30426080D01*
X73045180Y-30391923D01*
X73449698Y-29987405D01*
X73512010Y-29953379D01*
X73538793Y-29950500D01*
X73633500Y-29950500D01*
X73701621Y-29970502D01*
X73748114Y-30024158D01*
X73759500Y-30076500D01*
X73759500Y-30789748D01*
X73771133Y-30848231D01*
X73815448Y-30914552D01*
X73881769Y-30958867D01*
X73893938Y-30961288D01*
X73893939Y-30961288D01*
X73934184Y-30969293D01*
X73940252Y-30970500D01*
X78745500Y-30970500D01*
X78813621Y-30990502D01*
X78860114Y-31044158D01*
X78871500Y-31096500D01*
X78871500Y-31403500D01*
X78851498Y-31471621D01*
X78797842Y-31518114D01*
X78745500Y-31529500D01*
X73940252Y-31529500D01*
X73934184Y-31530707D01*
X73893939Y-31538712D01*
X73893938Y-31538712D01*
X73881769Y-31541133D01*
X73815448Y-31585448D01*
X73812456Y-31589925D01*
X73754416Y-31621620D01*
X73727629Y-31624500D01*
X72794713Y-31624500D01*
X72783732Y-31624021D01*
X72757170Y-31621697D01*
X72757168Y-31621697D01*
X72746193Y-31620737D01*
X72709783Y-31630492D01*
X72699076Y-31632866D01*
X72661955Y-31639412D01*
X72652411Y-31644922D01*
X72649135Y-31646114D01*
X72645964Y-31647593D01*
X72635316Y-31650446D01*
X72626287Y-31656768D01*
X72604449Y-31672059D01*
X72595179Y-31677964D01*
X72572092Y-31691293D01*
X72572088Y-31691296D01*
X72562545Y-31696806D01*
X72546071Y-31716439D01*
X72538320Y-31725676D01*
X72530894Y-31733779D01*
X71508784Y-32755890D01*
X71500681Y-32763316D01*
X71471806Y-32787545D01*
X71466293Y-32797094D01*
X71452961Y-32820185D01*
X71447055Y-32829456D01*
X71425446Y-32860316D01*
X71422592Y-32870966D01*
X71421115Y-32874134D01*
X71419923Y-32877410D01*
X71414412Y-32886955D01*
X71408462Y-32920699D01*
X71407870Y-32924058D01*
X71405492Y-32934785D01*
X71395736Y-32971193D01*
X71396697Y-32982178D01*
X71396697Y-32982180D01*
X71399020Y-33008728D01*
X71399500Y-33019710D01*
X71399500Y-39962984D01*
X71379498Y-40031105D01*
X71362595Y-40052079D01*
X70477079Y-40937595D01*
X70414767Y-40971621D01*
X70387984Y-40974500D01*
X67736727Y-40974500D01*
X67668606Y-40954498D01*
X67622113Y-40900842D01*
X67612009Y-40830568D01*
X67641503Y-40765988D01*
X67703585Y-40726937D01*
X67742158Y-40716421D01*
X67742160Y-40716420D01*
X67750817Y-40714060D01*
X67872991Y-40639045D01*
X67969200Y-40532754D01*
X68031710Y-40403733D01*
X68055496Y-40262354D01*
X68055647Y-40250000D01*
X68046976Y-40189451D01*
X68036596Y-40116968D01*
X68036595Y-40116965D01*
X68035323Y-40108082D01*
X68011799Y-40056343D01*
X68000500Y-40004192D01*
X68000500Y-35497066D01*
X68013106Y-35442132D01*
X68031710Y-35403733D01*
X68055496Y-35262354D01*
X68055647Y-35250000D01*
X68047473Y-35192924D01*
X68036596Y-35116968D01*
X68036595Y-35116965D01*
X68035323Y-35108082D01*
X68011799Y-35056343D01*
X68000500Y-35004192D01*
X68000500Y-32734219D01*
X68001373Y-32719410D01*
X68004257Y-32695041D01*
X68005364Y-32685689D01*
X68003672Y-32676426D01*
X68003672Y-32676419D01*
X67994825Y-32627982D01*
X67994174Y-32624075D01*
X67986850Y-32575356D01*
X67986850Y-32575355D01*
X67985449Y-32566038D01*
X67982321Y-32559525D01*
X67981025Y-32552427D01*
X67953972Y-32500347D01*
X67952223Y-32496845D01*
X67930887Y-32452413D01*
X67930886Y-32452412D01*
X67926809Y-32443921D01*
X67921923Y-32438636D01*
X67921892Y-32438589D01*
X67918579Y-32432211D01*
X67914275Y-32427172D01*
X67877048Y-32389945D01*
X67873618Y-32386379D01*
X67841246Y-32351359D01*
X67834854Y-32344444D01*
X67828495Y-32340751D01*
X67822337Y-32335234D01*
X65501539Y-30014436D01*
X65484486Y-29993227D01*
X65479697Y-29985739D01*
X65475984Y-29977572D01*
X65470129Y-29970777D01*
X65470127Y-29970774D01*
X65388260Y-29875763D01*
X65388257Y-29875760D01*
X65382400Y-29868963D01*
X65262095Y-29790985D01*
X65244066Y-29785593D01*
X65191075Y-29753972D01*
X64642753Y-29205650D01*
X64632899Y-29194561D01*
X64617707Y-29175291D01*
X64617705Y-29175289D01*
X64611872Y-29167890D01*
X64604125Y-29162535D01*
X64604123Y-29162534D01*
X64567875Y-29137482D01*
X64563615Y-29134538D01*
X64560403Y-29132243D01*
X64554785Y-29128093D01*
X64513184Y-29097366D01*
X64506368Y-29094973D01*
X64500431Y-29090869D01*
X64491451Y-29088029D01*
X64491449Y-29088028D01*
X64471283Y-29081650D01*
X64444481Y-29073174D01*
X64440750Y-29071929D01*
X64394263Y-29055604D01*
X64394261Y-29055604D01*
X64385369Y-29052481D01*
X64378181Y-29052199D01*
X64378122Y-29052188D01*
X64371270Y-29050020D01*
X64364663Y-29049500D01*
X64362194Y-29049500D01*
X64361557Y-29049475D01*
X64357920Y-29048250D01*
X64357052Y-29048081D01*
X64357075Y-29047965D01*
X64294273Y-29026816D01*
X64249921Y-28971378D01*
X64240500Y-28923572D01*
X64240500Y-28210252D01*
X64228867Y-28151769D01*
X64184552Y-28085448D01*
X64118231Y-28041133D01*
X64106062Y-28038712D01*
X64106061Y-28038712D01*
X64065816Y-28030707D01*
X64059748Y-28029500D01*
X62326500Y-28029500D01*
X62258379Y-28009498D01*
X62211886Y-27955842D01*
X62200500Y-27903500D01*
X62200500Y-26288793D01*
X62220502Y-26220672D01*
X62237405Y-26199698D01*
X62688968Y-25748135D01*
X62734636Y-25721636D01*
X62733921Y-25719984D01*
X62742153Y-25716422D01*
X62750817Y-25714060D01*
X62756547Y-25710542D01*
X62805042Y-25700500D01*
X64794411Y-25700500D01*
X64831528Y-25708902D01*
X64832313Y-25706390D01*
X64969157Y-25749142D01*
X64978129Y-25749306D01*
X64978132Y-25749307D01*
X65043463Y-25750504D01*
X65112499Y-25751770D01*
X65121533Y-25749307D01*
X65242158Y-25716421D01*
X65242160Y-25716420D01*
X65250817Y-25714060D01*
X65372991Y-25639045D01*
X65469200Y-25532754D01*
X65531710Y-25403733D01*
X65555496Y-25262354D01*
X65555647Y-25250000D01*
X65535323Y-25108082D01*
X65527736Y-25091394D01*
X65479700Y-24985746D01*
X65475984Y-24977572D01*
X65457598Y-24956234D01*
X65388260Y-24875763D01*
X65388257Y-24875760D01*
X65382400Y-24868963D01*
X65262095Y-24790985D01*
X65124739Y-24749907D01*
X65115763Y-24749852D01*
X65115762Y-24749852D01*
X65055555Y-24749484D01*
X64981376Y-24749031D01*
X64843529Y-24788428D01*
X64841824Y-24789504D01*
X64794996Y-24799500D01*
X62805192Y-24799500D01*
X62762364Y-24790084D01*
X62762095Y-24790985D01*
X62624739Y-24749907D01*
X62615763Y-24749852D01*
X62615762Y-24749852D01*
X62555555Y-24749484D01*
X62481376Y-24749031D01*
X62343529Y-24788428D01*
X62222280Y-24864930D01*
X62127377Y-24972388D01*
X62081920Y-25069207D01*
X62080872Y-25071439D01*
X62055912Y-25106985D01*
X61455650Y-25707247D01*
X61444561Y-25717101D01*
X61425291Y-25732293D01*
X61425289Y-25732295D01*
X61417890Y-25738128D01*
X61412535Y-25745875D01*
X61412534Y-25745877D01*
X61384545Y-25786375D01*
X61382250Y-25789587D01*
X61347366Y-25836816D01*
X61344973Y-25843632D01*
X61340869Y-25849569D01*
X61338029Y-25858549D01*
X61338028Y-25858551D01*
X61323182Y-25905495D01*
X61321929Y-25909250D01*
X61302481Y-25964631D01*
X61302199Y-25971819D01*
X61302188Y-25971878D01*
X61300020Y-25978730D01*
X61299500Y-25985337D01*
X61299500Y-26038016D01*
X61299403Y-26042962D01*
X61297162Y-26099994D01*
X61299046Y-26107100D01*
X61299500Y-26115347D01*
X61299500Y-27903500D01*
X61279498Y-27971621D01*
X61225842Y-28018114D01*
X61173500Y-28029500D01*
X59254500Y-28029500D01*
X59186379Y-28009498D01*
X59139886Y-27955842D01*
X59128500Y-27903500D01*
X59128500Y-23254500D01*
X59148502Y-23186379D01*
X59202158Y-23139886D01*
X59254500Y-23128500D01*
X78745500Y-23128500D01*
X78813621Y-23148502D01*
G37*
G04 #@! TD.AperFunction*
G04 #@! TD*
G04 #@! TA.AperFunction,Conductor*
G04 #@! TO.N,Board_3-GND*
G36*
X95701621Y-32295502D02*
G01*
X95748114Y-32349158D01*
X95759500Y-32401500D01*
X95759500Y-34289748D01*
X95771133Y-34348231D01*
X95815448Y-34414552D01*
X95881769Y-34458867D01*
X95893938Y-34461288D01*
X95893939Y-34461288D01*
X95934184Y-34469293D01*
X95940252Y-34470500D01*
X100745500Y-34470500D01*
X100813621Y-34490502D01*
X100860114Y-34544158D01*
X100871500Y-34596500D01*
X100871500Y-34850000D01*
X100851498Y-34918121D01*
X100797842Y-34964614D01*
X100745500Y-34976000D01*
X98645115Y-34976000D01*
X98629876Y-34980475D01*
X98628671Y-34981865D01*
X98627000Y-34989548D01*
X98627000Y-38005884D01*
X98631475Y-38021123D01*
X98632865Y-38022328D01*
X98640548Y-38023999D01*
X100745500Y-38023999D01*
X100813621Y-38044001D01*
X100860114Y-38097657D01*
X100871500Y-38149999D01*
X100871500Y-42745500D01*
X100851498Y-42813621D01*
X100797842Y-42860114D01*
X100745500Y-42871500D01*
X81254500Y-42871500D01*
X81186379Y-42851498D01*
X81139886Y-42797842D01*
X81128500Y-42745500D01*
X81128500Y-42560948D01*
X81148502Y-42492827D01*
X81202158Y-42446334D01*
X81272432Y-42436230D01*
X81292069Y-42440679D01*
X81319157Y-42449142D01*
X81328129Y-42449306D01*
X81328132Y-42449307D01*
X81393463Y-42450504D01*
X81462499Y-42451770D01*
X81471533Y-42449307D01*
X81592158Y-42416421D01*
X81592160Y-42416420D01*
X81600817Y-42414060D01*
X81722991Y-42339045D01*
X81819200Y-42232754D01*
X81881710Y-42103733D01*
X81905496Y-41962354D01*
X81905581Y-41955403D01*
X81905810Y-41954658D01*
X81905991Y-41952637D01*
X81906418Y-41952675D01*
X81926415Y-41887532D01*
X81942477Y-41867849D01*
X82147921Y-41662405D01*
X82210233Y-41628379D01*
X82237016Y-41625500D01*
X92555290Y-41625500D01*
X92566272Y-41625980D01*
X92592820Y-41628303D01*
X92592822Y-41628303D01*
X92603807Y-41629264D01*
X92640215Y-41619508D01*
X92650942Y-41617130D01*
X92654301Y-41616538D01*
X92688045Y-41610588D01*
X92697590Y-41605077D01*
X92700866Y-41603885D01*
X92704034Y-41602408D01*
X92714684Y-41599554D01*
X92745544Y-41577945D01*
X92754815Y-41572039D01*
X92777906Y-41558707D01*
X92787455Y-41553194D01*
X92811685Y-41524317D01*
X92819111Y-41516215D01*
X93941215Y-40394111D01*
X93949319Y-40386684D01*
X93969749Y-40369541D01*
X93978194Y-40362455D01*
X93983707Y-40352906D01*
X93997039Y-40329815D01*
X94002945Y-40320544D01*
X94018230Y-40298715D01*
X94024554Y-40289684D01*
X94027408Y-40279034D01*
X94028885Y-40275866D01*
X94030077Y-40272590D01*
X94035588Y-40263045D01*
X94042130Y-40225942D01*
X94044509Y-40215210D01*
X94054264Y-40178807D01*
X94050979Y-40141257D01*
X94050500Y-40130276D01*
X94050500Y-37788828D01*
X95706001Y-37788828D01*
X95707209Y-37801088D01*
X95718315Y-37856931D01*
X95727633Y-37879427D01*
X95769983Y-37942808D01*
X95787192Y-37960017D01*
X95850575Y-38002368D01*
X95873066Y-38011684D01*
X95928915Y-38022793D01*
X95941170Y-38024000D01*
X98354885Y-38024000D01*
X98370124Y-38019525D01*
X98371329Y-38018135D01*
X98373000Y-38010452D01*
X98373000Y-36645115D01*
X98368525Y-36629876D01*
X98367135Y-36628671D01*
X98359452Y-36627000D01*
X95724116Y-36627000D01*
X95708877Y-36631475D01*
X95707672Y-36632865D01*
X95706001Y-36640548D01*
X95706001Y-37788828D01*
X94050500Y-37788828D01*
X94050500Y-36354885D01*
X95706000Y-36354885D01*
X95710475Y-36370124D01*
X95711865Y-36371329D01*
X95719548Y-36373000D01*
X98354885Y-36373000D01*
X98370124Y-36368525D01*
X98371329Y-36367135D01*
X98373000Y-36359452D01*
X98373000Y-34994116D01*
X98368525Y-34978877D01*
X98367135Y-34977672D01*
X98359452Y-34976001D01*
X95941172Y-34976001D01*
X95928912Y-34977209D01*
X95873069Y-34988315D01*
X95850573Y-34997633D01*
X95787192Y-35039983D01*
X95769983Y-35057192D01*
X95727632Y-35120575D01*
X95718316Y-35143066D01*
X95707207Y-35198915D01*
X95706000Y-35211170D01*
X95706000Y-36354885D01*
X94050500Y-36354885D01*
X94050500Y-33187017D01*
X94070502Y-33118896D01*
X94087405Y-33097921D01*
X94872923Y-32312404D01*
X94935235Y-32278379D01*
X94962018Y-32275500D01*
X95633500Y-32275500D01*
X95701621Y-32295502D01*
G37*
G04 #@! TD.AperFunction*
G04 #@! TA.AperFunction,Conductor*
G36*
X86449012Y-30286569D02*
G01*
X86455595Y-30292698D01*
X86557347Y-30394450D01*
X86583581Y-30432799D01*
X86620720Y-30517203D01*
X86626497Y-30524076D01*
X86626498Y-30524077D01*
X86633792Y-30532754D01*
X86712970Y-30626948D01*
X86832313Y-30706390D01*
X86929210Y-30736662D01*
X86980731Y-30767834D01*
X89062595Y-32849698D01*
X89096621Y-32912010D01*
X89099500Y-32938793D01*
X89099500Y-35003656D01*
X89087555Y-35057205D01*
X89066447Y-35102163D01*
X89060079Y-35143066D01*
X89049475Y-35211172D01*
X89044391Y-35243823D01*
X89045555Y-35252725D01*
X89045555Y-35252728D01*
X89046814Y-35262354D01*
X89062980Y-35385979D01*
X89066597Y-35394199D01*
X89088829Y-35444725D01*
X89099500Y-35495471D01*
X89099500Y-40003656D01*
X89087555Y-40057205D01*
X89066447Y-40102163D01*
X89065066Y-40111035D01*
X89052857Y-40189451D01*
X89044391Y-40243823D01*
X89045555Y-40252725D01*
X89045555Y-40252728D01*
X89047441Y-40267149D01*
X89062980Y-40385979D01*
X89120720Y-40517203D01*
X89126497Y-40524076D01*
X89126498Y-40524077D01*
X89133792Y-40532754D01*
X89212970Y-40626948D01*
X89332313Y-40706390D01*
X89398082Y-40726937D01*
X89402230Y-40728233D01*
X89461287Y-40767638D01*
X89489665Y-40832717D01*
X89478353Y-40902807D01*
X89430944Y-40955654D01*
X89364657Y-40974500D01*
X82069710Y-40974500D01*
X82058728Y-40974020D01*
X82032180Y-40971697D01*
X82032178Y-40971697D01*
X82021193Y-40970736D01*
X81984785Y-40980492D01*
X81974058Y-40982870D01*
X81970699Y-40983462D01*
X81936955Y-40989412D01*
X81927410Y-40994923D01*
X81924134Y-40996115D01*
X81920966Y-40997592D01*
X81910316Y-41000446D01*
X81901285Y-41006770D01*
X81879456Y-41022055D01*
X81870185Y-41027961D01*
X81847094Y-41041293D01*
X81837545Y-41046806D01*
X81830459Y-41055251D01*
X81813315Y-41075682D01*
X81805889Y-41083785D01*
X81477204Y-41412470D01*
X81414892Y-41446496D01*
X81387339Y-41449373D01*
X81361235Y-41449214D01*
X81331376Y-41449031D01*
X81289123Y-41461107D01*
X81218129Y-41460593D01*
X81158682Y-41421779D01*
X81129656Y-41356987D01*
X81128500Y-41339957D01*
X81128500Y-38150000D01*
X81148502Y-38081879D01*
X81202158Y-38035386D01*
X81254500Y-38024000D01*
X83354885Y-38024000D01*
X83370124Y-38019525D01*
X83371329Y-38018135D01*
X83373000Y-38010452D01*
X83373000Y-38005884D01*
X83627000Y-38005884D01*
X83631475Y-38021123D01*
X83632865Y-38022328D01*
X83640548Y-38023999D01*
X86058828Y-38023999D01*
X86071088Y-38022791D01*
X86126931Y-38011685D01*
X86149427Y-38002367D01*
X86212808Y-37960017D01*
X86230017Y-37942808D01*
X86272368Y-37879425D01*
X86281684Y-37856934D01*
X86292793Y-37801085D01*
X86294000Y-37788830D01*
X86294000Y-36645115D01*
X86289525Y-36629876D01*
X86288135Y-36628671D01*
X86280452Y-36627000D01*
X83645115Y-36627000D01*
X83629876Y-36631475D01*
X83628671Y-36632865D01*
X83627000Y-36640548D01*
X83627000Y-38005884D01*
X83373000Y-38005884D01*
X83373000Y-36354885D01*
X83627000Y-36354885D01*
X83631475Y-36370124D01*
X83632865Y-36371329D01*
X83640548Y-36373000D01*
X86275884Y-36373000D01*
X86291123Y-36368525D01*
X86292328Y-36367135D01*
X86293999Y-36359452D01*
X86293999Y-35211172D01*
X86292791Y-35198912D01*
X86281685Y-35143069D01*
X86272367Y-35120573D01*
X86230017Y-35057192D01*
X86212808Y-35039983D01*
X86149425Y-34997632D01*
X86126934Y-34988316D01*
X86071085Y-34977207D01*
X86058830Y-34976000D01*
X83645115Y-34976000D01*
X83629876Y-34980475D01*
X83628671Y-34981865D01*
X83627000Y-34989548D01*
X83627000Y-36354885D01*
X83373000Y-36354885D01*
X83373000Y-34994116D01*
X83368525Y-34978877D01*
X83367135Y-34977672D01*
X83359452Y-34976001D01*
X81254500Y-34976001D01*
X81186379Y-34955999D01*
X81139886Y-34902343D01*
X81128500Y-34850001D01*
X81128500Y-34596500D01*
X81148502Y-34528379D01*
X81202158Y-34481886D01*
X81254500Y-34470500D01*
X86059748Y-34470500D01*
X86065816Y-34469293D01*
X86106061Y-34461288D01*
X86106062Y-34461288D01*
X86118231Y-34458867D01*
X86184552Y-34414552D01*
X86228867Y-34348231D01*
X86240500Y-34289748D01*
X86240500Y-31710252D01*
X86228867Y-31651769D01*
X86184552Y-31585448D01*
X86118231Y-31541133D01*
X86106062Y-31538712D01*
X86106061Y-31538712D01*
X86065816Y-31530707D01*
X86059748Y-31529500D01*
X81883814Y-31529500D01*
X81815693Y-31509498D01*
X81769200Y-31455842D01*
X81759560Y-31382596D01*
X81779190Y-31265917D01*
X81779997Y-31261120D01*
X81780133Y-31250000D01*
X81761839Y-31122259D01*
X81763332Y-31122045D01*
X81763401Y-31060864D01*
X81801853Y-31001182D01*
X81866467Y-30971762D01*
X81884257Y-30970500D01*
X86059748Y-30970500D01*
X86065816Y-30969293D01*
X86106061Y-30961288D01*
X86106062Y-30961288D01*
X86118231Y-30958867D01*
X86184552Y-30914552D01*
X86228867Y-30848231D01*
X86240500Y-30789748D01*
X86240500Y-30381793D01*
X86260502Y-30313672D01*
X86314158Y-30267179D01*
X86384432Y-30257075D01*
X86449012Y-30286569D01*
G37*
G04 #@! TD.AperFunction*
G04 #@! TA.AperFunction,Conductor*
G36*
X100813621Y-23148502D02*
G01*
X100860114Y-23202158D01*
X100871500Y-23254500D01*
X100871500Y-27903500D01*
X100851498Y-27971621D01*
X100797842Y-28018114D01*
X100745500Y-28029500D01*
X99076500Y-28029500D01*
X99008379Y-28009498D01*
X98961886Y-27955842D01*
X98950500Y-27903500D01*
X98950500Y-26734220D01*
X98951373Y-26719411D01*
X98954257Y-26695043D01*
X98955364Y-26685690D01*
X98953672Y-26676426D01*
X98953672Y-26676422D01*
X98944827Y-26627989D01*
X98944178Y-26624088D01*
X98936851Y-26575355D01*
X98936849Y-26575347D01*
X98935449Y-26566038D01*
X98932323Y-26559528D01*
X98931026Y-26552427D01*
X98903982Y-26500363D01*
X98902214Y-26496825D01*
X98880886Y-26452411D01*
X98876809Y-26443921D01*
X98871922Y-26438635D01*
X98871895Y-26438595D01*
X98868580Y-26432212D01*
X98864275Y-26427172D01*
X98827048Y-26389945D01*
X98823618Y-26386379D01*
X98791246Y-26351359D01*
X98784854Y-26344444D01*
X98778495Y-26340751D01*
X98772337Y-26335234D01*
X97543254Y-25106151D01*
X97517648Y-25069207D01*
X97479701Y-24985746D01*
X97479699Y-24985743D01*
X97475984Y-24977572D01*
X97457598Y-24956234D01*
X97388260Y-24875763D01*
X97388257Y-24875760D01*
X97382400Y-24868963D01*
X97262095Y-24790985D01*
X97124739Y-24749907D01*
X97115763Y-24749852D01*
X97115762Y-24749852D01*
X97055555Y-24749484D01*
X96981376Y-24749031D01*
X96843529Y-24788428D01*
X96841824Y-24789504D01*
X96794996Y-24799500D01*
X94805192Y-24799500D01*
X94762364Y-24790084D01*
X94762095Y-24790985D01*
X94624739Y-24749907D01*
X94615763Y-24749852D01*
X94615762Y-24749852D01*
X94555555Y-24749484D01*
X94481376Y-24749031D01*
X94343529Y-24788428D01*
X94222280Y-24864930D01*
X94127377Y-24972388D01*
X94066447Y-25102163D01*
X94044391Y-25243823D01*
X94045555Y-25252725D01*
X94045555Y-25252728D01*
X94046814Y-25262354D01*
X94062980Y-25385979D01*
X94120720Y-25517203D01*
X94126497Y-25524076D01*
X94126498Y-25524077D01*
X94133792Y-25532754D01*
X94212970Y-25626948D01*
X94220447Y-25631925D01*
X94323465Y-25700500D01*
X94332313Y-25706390D01*
X94469157Y-25749142D01*
X94478129Y-25749306D01*
X94478132Y-25749307D01*
X94543463Y-25750504D01*
X94612499Y-25751770D01*
X94621533Y-25749307D01*
X94742155Y-25716422D01*
X94742158Y-25716421D01*
X94750817Y-25714060D01*
X94756546Y-25710542D01*
X94805042Y-25700500D01*
X96794410Y-25700500D01*
X96831528Y-25708902D01*
X96832313Y-25706390D01*
X96856492Y-25713944D01*
X96908013Y-25745116D01*
X98012595Y-26849698D01*
X98046621Y-26912010D01*
X98049500Y-26938793D01*
X98049500Y-27903500D01*
X98029498Y-27971621D01*
X97975842Y-28018114D01*
X97923500Y-28029500D01*
X95940252Y-28029500D01*
X95934184Y-28030707D01*
X95893939Y-28038712D01*
X95893938Y-28038712D01*
X95881769Y-28041133D01*
X95815448Y-28085448D01*
X95771133Y-28151769D01*
X95759500Y-28210252D01*
X95759500Y-28923500D01*
X95739498Y-28991621D01*
X95685842Y-29038114D01*
X95633500Y-29049500D01*
X95334219Y-29049500D01*
X95319410Y-29048627D01*
X95316224Y-29048250D01*
X95285689Y-29044636D01*
X95276426Y-29046328D01*
X95276419Y-29046328D01*
X95227982Y-29055175D01*
X95224083Y-29055825D01*
X95201353Y-29059242D01*
X95175356Y-29063150D01*
X95175355Y-29063150D01*
X95166038Y-29064551D01*
X95159525Y-29067679D01*
X95152427Y-29068975D01*
X95100347Y-29096028D01*
X95096845Y-29097777D01*
X95052413Y-29119113D01*
X95043921Y-29123191D01*
X95038636Y-29128077D01*
X95038589Y-29128108D01*
X95032211Y-29131421D01*
X95027172Y-29135725D01*
X94989945Y-29172952D01*
X94986380Y-29176381D01*
X94944444Y-29215146D01*
X94940751Y-29221505D01*
X94935234Y-29227663D01*
X94409934Y-29752963D01*
X94360298Y-29782174D01*
X94360353Y-29782297D01*
X94359248Y-29782791D01*
X94355468Y-29785016D01*
X94343529Y-29788428D01*
X94222280Y-29864930D01*
X94127377Y-29972388D01*
X94066447Y-30102163D01*
X94044391Y-30243823D01*
X94045555Y-30252725D01*
X94045555Y-30252728D01*
X94050782Y-30292698D01*
X94062980Y-30385979D01*
X94120720Y-30517203D01*
X94126497Y-30524076D01*
X94126498Y-30524077D01*
X94133792Y-30532754D01*
X94212970Y-30626948D01*
X94332313Y-30706390D01*
X94469157Y-30749142D01*
X94478129Y-30749306D01*
X94478132Y-30749307D01*
X94543463Y-30750504D01*
X94612499Y-30751770D01*
X94621533Y-30749307D01*
X94742158Y-30716421D01*
X94742160Y-30716420D01*
X94750817Y-30714060D01*
X94872991Y-30639045D01*
X94969200Y-30532754D01*
X95020883Y-30426080D01*
X95045180Y-30391923D01*
X95449698Y-29987405D01*
X95512010Y-29953379D01*
X95538793Y-29950500D01*
X95633500Y-29950500D01*
X95701621Y-29970502D01*
X95748114Y-30024158D01*
X95759500Y-30076500D01*
X95759500Y-30789748D01*
X95771133Y-30848231D01*
X95815448Y-30914552D01*
X95881769Y-30958867D01*
X95893938Y-30961288D01*
X95893939Y-30961288D01*
X95934184Y-30969293D01*
X95940252Y-30970500D01*
X100745500Y-30970500D01*
X100813621Y-30990502D01*
X100860114Y-31044158D01*
X100871500Y-31096500D01*
X100871500Y-31403500D01*
X100851498Y-31471621D01*
X100797842Y-31518114D01*
X100745500Y-31529500D01*
X95940252Y-31529500D01*
X95934184Y-31530707D01*
X95893939Y-31538712D01*
X95893938Y-31538712D01*
X95881769Y-31541133D01*
X95815448Y-31585448D01*
X95812456Y-31589925D01*
X95754416Y-31621620D01*
X95727629Y-31624500D01*
X94794713Y-31624500D01*
X94783732Y-31624021D01*
X94757170Y-31621697D01*
X94757168Y-31621697D01*
X94746193Y-31620737D01*
X94709783Y-31630492D01*
X94699076Y-31632866D01*
X94661955Y-31639412D01*
X94652411Y-31644922D01*
X94649135Y-31646114D01*
X94645964Y-31647593D01*
X94635316Y-31650446D01*
X94626287Y-31656768D01*
X94604449Y-31672059D01*
X94595179Y-31677964D01*
X94572092Y-31691293D01*
X94572088Y-31691296D01*
X94562545Y-31696806D01*
X94546071Y-31716439D01*
X94538320Y-31725676D01*
X94530894Y-31733779D01*
X93508784Y-32755890D01*
X93500681Y-32763316D01*
X93471806Y-32787545D01*
X93466293Y-32797094D01*
X93452961Y-32820185D01*
X93447055Y-32829456D01*
X93425446Y-32860316D01*
X93422592Y-32870966D01*
X93421115Y-32874134D01*
X93419923Y-32877410D01*
X93414412Y-32886955D01*
X93408462Y-32920699D01*
X93407870Y-32924058D01*
X93405492Y-32934785D01*
X93395736Y-32971193D01*
X93396697Y-32982178D01*
X93396697Y-32982180D01*
X93399020Y-33008728D01*
X93399500Y-33019710D01*
X93399500Y-39962984D01*
X93379498Y-40031105D01*
X93362595Y-40052079D01*
X92477079Y-40937595D01*
X92414767Y-40971621D01*
X92387984Y-40974500D01*
X89736727Y-40974500D01*
X89668606Y-40954498D01*
X89622113Y-40900842D01*
X89612009Y-40830568D01*
X89641503Y-40765988D01*
X89703585Y-40726937D01*
X89742158Y-40716421D01*
X89742160Y-40716420D01*
X89750817Y-40714060D01*
X89872991Y-40639045D01*
X89969200Y-40532754D01*
X90031710Y-40403733D01*
X90055496Y-40262354D01*
X90055647Y-40250000D01*
X90046976Y-40189451D01*
X90036596Y-40116968D01*
X90036595Y-40116965D01*
X90035323Y-40108082D01*
X90011799Y-40056343D01*
X90000500Y-40004192D01*
X90000500Y-35497066D01*
X90013106Y-35442132D01*
X90031710Y-35403733D01*
X90055496Y-35262354D01*
X90055647Y-35250000D01*
X90047473Y-35192924D01*
X90036596Y-35116968D01*
X90036595Y-35116965D01*
X90035323Y-35108082D01*
X90011799Y-35056343D01*
X90000500Y-35004192D01*
X90000500Y-32734219D01*
X90001373Y-32719410D01*
X90004257Y-32695041D01*
X90005364Y-32685689D01*
X90003672Y-32676426D01*
X90003672Y-32676419D01*
X89994825Y-32627982D01*
X89994174Y-32624075D01*
X89986850Y-32575356D01*
X89986850Y-32575355D01*
X89985449Y-32566038D01*
X89982321Y-32559525D01*
X89981025Y-32552427D01*
X89953972Y-32500347D01*
X89952223Y-32496845D01*
X89930887Y-32452413D01*
X89930886Y-32452412D01*
X89926809Y-32443921D01*
X89921923Y-32438636D01*
X89921892Y-32438589D01*
X89918579Y-32432211D01*
X89914275Y-32427172D01*
X89877048Y-32389945D01*
X89873618Y-32386379D01*
X89841246Y-32351359D01*
X89834854Y-32344444D01*
X89828495Y-32340751D01*
X89822337Y-32335234D01*
X87501539Y-30014436D01*
X87484486Y-29993227D01*
X87479697Y-29985739D01*
X87475984Y-29977572D01*
X87470129Y-29970777D01*
X87470127Y-29970774D01*
X87388260Y-29875763D01*
X87388257Y-29875760D01*
X87382400Y-29868963D01*
X87262095Y-29790985D01*
X87244066Y-29785593D01*
X87191075Y-29753972D01*
X86642753Y-29205650D01*
X86632899Y-29194561D01*
X86617707Y-29175291D01*
X86617705Y-29175289D01*
X86611872Y-29167890D01*
X86604125Y-29162535D01*
X86604123Y-29162534D01*
X86567875Y-29137482D01*
X86563615Y-29134538D01*
X86560403Y-29132243D01*
X86554785Y-29128093D01*
X86513184Y-29097366D01*
X86506368Y-29094973D01*
X86500431Y-29090869D01*
X86491451Y-29088029D01*
X86491449Y-29088028D01*
X86471283Y-29081650D01*
X86444481Y-29073174D01*
X86440750Y-29071929D01*
X86394263Y-29055604D01*
X86394261Y-29055604D01*
X86385369Y-29052481D01*
X86378181Y-29052199D01*
X86378122Y-29052188D01*
X86371270Y-29050020D01*
X86364663Y-29049500D01*
X86362194Y-29049500D01*
X86361557Y-29049475D01*
X86357920Y-29048250D01*
X86357052Y-29048081D01*
X86357075Y-29047965D01*
X86294273Y-29026816D01*
X86249921Y-28971378D01*
X86240500Y-28923572D01*
X86240500Y-28210252D01*
X86228867Y-28151769D01*
X86184552Y-28085448D01*
X86118231Y-28041133D01*
X86106062Y-28038712D01*
X86106061Y-28038712D01*
X86065816Y-28030707D01*
X86059748Y-28029500D01*
X84326500Y-28029500D01*
X84258379Y-28009498D01*
X84211886Y-27955842D01*
X84200500Y-27903500D01*
X84200500Y-26288793D01*
X84220502Y-26220672D01*
X84237405Y-26199698D01*
X84688968Y-25748135D01*
X84734636Y-25721636D01*
X84733921Y-25719984D01*
X84742153Y-25716422D01*
X84750817Y-25714060D01*
X84756547Y-25710542D01*
X84805042Y-25700500D01*
X86794411Y-25700500D01*
X86831528Y-25708902D01*
X86832313Y-25706390D01*
X86969157Y-25749142D01*
X86978129Y-25749306D01*
X86978132Y-25749307D01*
X87043463Y-25750504D01*
X87112499Y-25751770D01*
X87121533Y-25749307D01*
X87242158Y-25716421D01*
X87242160Y-25716420D01*
X87250817Y-25714060D01*
X87372991Y-25639045D01*
X87469200Y-25532754D01*
X87531710Y-25403733D01*
X87555496Y-25262354D01*
X87555647Y-25250000D01*
X87535323Y-25108082D01*
X87527736Y-25091394D01*
X87479700Y-24985746D01*
X87475984Y-24977572D01*
X87457598Y-24956234D01*
X87388260Y-24875763D01*
X87388257Y-24875760D01*
X87382400Y-24868963D01*
X87262095Y-24790985D01*
X87124739Y-24749907D01*
X87115763Y-24749852D01*
X87115762Y-24749852D01*
X87055555Y-24749484D01*
X86981376Y-24749031D01*
X86843529Y-24788428D01*
X86841824Y-24789504D01*
X86794996Y-24799500D01*
X84805192Y-24799500D01*
X84762364Y-24790084D01*
X84762095Y-24790985D01*
X84624739Y-24749907D01*
X84615763Y-24749852D01*
X84615762Y-24749852D01*
X84555555Y-24749484D01*
X84481376Y-24749031D01*
X84343529Y-24788428D01*
X84222280Y-24864930D01*
X84127377Y-24972388D01*
X84081920Y-25069207D01*
X84080872Y-25071439D01*
X84055912Y-25106985D01*
X83455650Y-25707247D01*
X83444561Y-25717101D01*
X83425291Y-25732293D01*
X83425289Y-25732295D01*
X83417890Y-25738128D01*
X83412535Y-25745875D01*
X83412534Y-25745877D01*
X83384545Y-25786375D01*
X83382250Y-25789587D01*
X83347366Y-25836816D01*
X83344973Y-25843632D01*
X83340869Y-25849569D01*
X83338029Y-25858549D01*
X83338028Y-25858551D01*
X83323182Y-25905495D01*
X83321929Y-25909250D01*
X83302481Y-25964631D01*
X83302199Y-25971819D01*
X83302188Y-25971878D01*
X83300020Y-25978730D01*
X83299500Y-25985337D01*
X83299500Y-26038016D01*
X83299403Y-26042962D01*
X83297162Y-26099994D01*
X83299046Y-26107100D01*
X83299500Y-26115347D01*
X83299500Y-27903500D01*
X83279498Y-27971621D01*
X83225842Y-28018114D01*
X83173500Y-28029500D01*
X81254500Y-28029500D01*
X81186379Y-28009498D01*
X81139886Y-27955842D01*
X81128500Y-27903500D01*
X81128500Y-23254500D01*
X81148502Y-23186379D01*
X81202158Y-23139886D01*
X81254500Y-23128500D01*
X100745500Y-23128500D01*
X100813621Y-23148502D01*
G37*
G04 #@! TD.AperFunction*
G04 #@! TD*
M02*
