M48
; DRILL file {KiCad 7.0.2} date Tue Jan  9 17:33:51 2024
; FORMAT={-:-/ absolute / metric / decimal}
; #@! TF.CreationDate,2024-01-09T17:33:51+01:00
; #@! TF.GenerationSoftware,Kicad,Pcbnew,7.0.2
; #@! TF.FileFunction,MixedPlating,1,2
FMAT,2
METRIC
; #@! TA.AperFunction,Plated,PTH,ViaDrill
T1C0.300
; #@! TA.AperFunction,NonPlated,NPTH,ComponentDrill
T2C0.600
; #@! TA.AperFunction,NonPlated,NPTH,ComponentDrill
T3C1.152
%
G90
G05
T1
X0.325Y-16.25
X0.4Y-26.95
X1.95Y-12.725
X2.6Y-8.5
X2.75Y-27.5
X3.55Y-10.25
X4.45Y-12.725
X5.1Y-8.5
X5.25Y-27.5
X5.65Y-22.75
X6.05Y-10.25
X6.05Y-15.25
X6.95Y-12.75
X6.95Y-22.75
X7.0Y-17.7
X7.6Y-8.5
X7.75Y-27.5
X8.55Y-20.25
X8.55Y-25.25
X9.45Y-12.75
X9.45Y-17.7
X9.45Y-22.75
X10.1Y-8.5
X10.25Y-27.5
X11.95Y-12.75
X11.95Y-17.7
X11.95Y-22.7
X12.6Y-8.5
X12.75Y-27.5
X13.55Y-10.25
X13.55Y-15.25
X13.55Y-22.75
X14.45Y-12.75
X14.45Y-17.7
X14.45Y-22.75
X15.1Y-8.5
X15.25Y-27.5
X16.05Y-10.25
X16.45Y-12.725
X17.6Y-8.5
X17.75Y-27.5
X18.25Y-12.725
X19.45Y-12.725
X19.68Y-8.32
X22.325Y-16.25
X22.4Y-26.95
X23.95Y-12.725
X24.6Y-8.5
X24.75Y-27.5
X25.55Y-10.25
X26.45Y-12.725
X27.1Y-8.5
X27.25Y-27.5
X27.65Y-22.75
X28.05Y-10.25
X28.05Y-15.25
X28.95Y-12.75
X28.95Y-22.75
X29.0Y-17.7
X29.6Y-8.5
X29.75Y-27.5
X30.55Y-20.25
X30.55Y-25.25
X31.45Y-12.75
X31.45Y-17.7
X31.45Y-22.75
X32.1Y-8.5
X32.25Y-27.5
X33.95Y-12.75
X33.95Y-17.7
X33.95Y-22.7
X34.6Y-8.5
X34.75Y-27.5
X35.55Y-10.25
X35.55Y-15.25
X35.55Y-22.75
X36.45Y-12.75
X36.45Y-17.7
X36.45Y-22.75
X37.1Y-8.5
X37.25Y-27.5
X38.05Y-10.25
X38.45Y-12.725
X39.6Y-8.5
X39.75Y-27.5
X40.25Y-12.725
X41.45Y-12.725
X41.68Y-8.32
X44.325Y-16.25
X44.4Y-26.95
X45.95Y-12.725
X46.6Y-8.5
X46.75Y-27.5
X47.55Y-10.25
X48.45Y-12.725
X49.1Y-8.5
X49.25Y-27.5
X49.65Y-22.75
X50.05Y-10.25
X50.05Y-15.25
X50.95Y-12.75
X50.95Y-22.75
X51.0Y-17.7
X51.6Y-8.5
X51.75Y-27.5
X52.55Y-20.25
X52.55Y-25.25
X53.45Y-12.75
X53.45Y-17.7
X53.45Y-22.75
X54.1Y-8.5
X54.25Y-27.5
X55.95Y-12.75
X55.95Y-17.7
X55.95Y-22.7
X56.6Y-8.5
X56.75Y-27.5
X57.55Y-10.25
X57.55Y-15.25
X57.55Y-22.75
X58.45Y-12.75
X58.45Y-17.7
X58.45Y-22.75
X59.1Y-8.5
X59.25Y-27.5
X60.05Y-10.25
X60.45Y-12.725
X61.6Y-8.5
X61.75Y-27.5
X62.25Y-12.725
X63.45Y-12.725
X63.68Y-8.32
X66.325Y-16.25
X66.4Y-26.95
X67.95Y-12.725
X68.6Y-8.5
X68.75Y-27.5
X69.55Y-10.25
X70.45Y-12.725
X71.1Y-8.5
X71.25Y-27.5
X71.65Y-22.75
X72.05Y-10.25
X72.05Y-15.25
X72.95Y-12.75
X72.95Y-22.75
X73.0Y-17.7
X73.6Y-8.5
X73.75Y-27.5
X74.55Y-20.25
X74.55Y-25.25
X75.45Y-12.75
X75.45Y-17.7
X75.45Y-22.75
X76.1Y-8.5
X76.25Y-27.5
X77.95Y-12.75
X77.95Y-17.7
X77.95Y-22.7
X78.6Y-8.5
X78.75Y-27.5
X79.55Y-10.25
X79.55Y-15.25
X79.55Y-22.75
X80.45Y-12.75
X80.45Y-17.7
X80.45Y-22.75
X81.1Y-8.5
X81.25Y-27.5
X82.05Y-10.25
X82.45Y-12.725
X83.6Y-8.5
X83.75Y-27.5
X84.25Y-12.725
X85.45Y-12.725
X85.68Y-8.32
T2
X8.5Y-7.7
X8.5Y-28.3
X9.5Y-7.7
X9.5Y-28.3
X10.5Y-7.7
X10.5Y-28.3
X11.5Y-7.7
X11.5Y-28.3
X30.5Y-7.7
X30.5Y-28.3
X31.5Y-7.7
X31.5Y-28.3
X32.5Y-7.7
X32.5Y-28.3
X33.5Y-7.7
X33.5Y-28.3
X52.5Y-7.7
X52.5Y-28.3
X53.5Y-7.7
X53.5Y-28.3
X54.5Y-7.7
X54.5Y-28.3
X55.5Y-7.7
X55.5Y-28.3
X74.5Y-7.7
X74.5Y-28.3
X75.5Y-7.7
X75.5Y-28.3
X76.5Y-7.7
X76.5Y-28.3
X77.5Y-7.7
X77.5Y-28.3
T3
X2.5Y-2.5
X2.5Y-33.5
X83.5Y-2.5
T0
M30
