M48
; DRILL file {KiCad (6.0.5)} date Fri Jun 10 16:45:54 2022
; FORMAT={-:-/ absolute / metric / decimal}
; #@! TF.CreationDate,2022-06-10T16:45:54+02:00
; #@! TF.GenerationSoftware,Kicad,Pcbnew,(6.0.5)
; #@! TF.FileFunction,MixedPlating,1,2
FMAT,2
METRIC
; #@! TA.AperFunction,Plated,PTH,ViaDrill
T1C0.300
; #@! TA.AperFunction,NonPlated,NPTH,ComponentDrill
T2C0.400
; #@! TA.AperFunction,NonPlated,NPTH,ComponentDrill
T3C1.152
%
G90
G05
T1
X15.325Y-31.4
X15.4Y-41.95
X16.9Y-27.7
X17.6Y-23.5
X17.75Y-42.5
X18.55Y-25.2
X19.45Y-27.7
X20.1Y-23.5
X20.25Y-42.5
X20.65Y-37.75
X21.05Y-25.2
X21.05Y-30.2
X21.95Y-27.75
X21.95Y-37.75
X22.0Y-32.7
X22.6Y-23.5
X22.75Y-42.5
X23.55Y-25.2
X23.55Y-35.2
X23.55Y-40.2
X24.45Y-27.75
X24.45Y-32.7
X24.45Y-37.75
X25.1Y-23.5
X25.25Y-42.5
X26.95Y-27.75
X26.95Y-32.7
X26.95Y-37.7
X27.6Y-23.5
X27.75Y-42.5
X28.55Y-25.2
X28.55Y-30.2
X28.55Y-37.75
X29.45Y-27.7
X29.45Y-32.7
X29.45Y-37.75
X30.1Y-23.5
X30.25Y-42.5
X31.05Y-25.2
X31.35Y-27.7
X32.6Y-23.5
X32.75Y-42.5
X34.45Y-27.7
X34.7Y-23.3
X37.325Y-31.4
X37.4Y-41.95
X38.9Y-27.7
X39.6Y-23.5
X39.75Y-42.5
X40.55Y-25.2
X41.45Y-27.7
X42.1Y-23.5
X42.25Y-42.5
X42.65Y-37.75
X43.05Y-25.2
X43.05Y-30.2
X43.95Y-27.75
X43.95Y-37.75
X44.0Y-32.7
X44.6Y-23.5
X44.75Y-42.5
X45.55Y-25.2
X45.55Y-35.2
X45.55Y-40.2
X46.45Y-27.75
X46.45Y-32.7
X46.45Y-37.75
X47.1Y-23.5
X47.25Y-42.5
X48.95Y-27.75
X48.95Y-32.7
X48.95Y-37.7
X49.6Y-23.5
X49.75Y-42.5
X50.55Y-25.2
X50.55Y-30.2
X50.55Y-37.75
X51.45Y-27.7
X51.45Y-32.7
X51.45Y-37.75
X52.1Y-23.5
X52.25Y-42.5
X53.05Y-25.2
X53.35Y-27.7
X54.6Y-23.5
X54.75Y-42.5
X56.45Y-27.7
X56.7Y-23.3
X59.325Y-31.4
X59.4Y-41.95
X60.9Y-27.7
X61.6Y-23.5
X61.75Y-42.5
X62.55Y-25.2
X63.45Y-27.7
X64.1Y-23.5
X64.25Y-42.5
X64.65Y-37.75
X65.05Y-25.2
X65.05Y-30.2
X65.95Y-27.75
X65.95Y-37.75
X66.0Y-32.7
X66.6Y-23.5
X66.75Y-42.5
X67.55Y-25.2
X67.55Y-35.2
X67.55Y-40.2
X68.45Y-27.75
X68.45Y-32.7
X68.45Y-37.75
X69.1Y-23.5
X69.25Y-42.5
X70.95Y-27.75
X70.95Y-32.7
X70.95Y-37.7
X71.6Y-23.5
X71.75Y-42.5
X72.55Y-25.2
X72.55Y-30.2
X72.55Y-37.75
X73.45Y-27.7
X73.45Y-32.7
X73.45Y-37.75
X74.1Y-23.5
X74.25Y-42.5
X75.05Y-25.2
X75.35Y-27.7
X76.6Y-23.5
X76.75Y-42.5
X78.45Y-27.7
X78.7Y-23.3
X81.325Y-31.4
X81.4Y-41.95
X82.9Y-27.7
X83.6Y-23.5
X83.75Y-42.5
X84.55Y-25.2
X85.45Y-27.7
X86.1Y-23.5
X86.25Y-42.5
X86.65Y-37.75
X87.05Y-25.2
X87.05Y-30.2
X87.95Y-27.75
X87.95Y-37.75
X88.0Y-32.7
X88.6Y-23.5
X88.75Y-42.5
X89.55Y-25.2
X89.55Y-35.2
X89.55Y-40.2
X90.45Y-27.75
X90.45Y-32.7
X90.45Y-37.75
X91.1Y-23.5
X91.25Y-42.5
X92.95Y-27.75
X92.95Y-32.7
X92.95Y-37.7
X93.6Y-23.5
X93.75Y-42.5
X94.55Y-25.2
X94.55Y-30.2
X94.55Y-37.75
X95.45Y-27.7
X95.45Y-32.7
X95.45Y-37.75
X96.1Y-23.5
X96.25Y-42.5
X97.05Y-25.2
X97.35Y-27.7
X98.6Y-23.5
X98.75Y-42.5
X100.45Y-27.7
X100.7Y-23.3
T2
X20.067Y-22.8
X20.067Y-43.2
X20.707Y-22.8
X20.707Y-43.2
X21.347Y-22.8
X21.347Y-43.2
X21.987Y-22.8
X21.987Y-43.2
X22.627Y-22.8
X22.627Y-43.2
X23.267Y-22.8
X23.267Y-43.2
X26.733Y-22.8
X26.733Y-43.2
X27.373Y-22.8
X27.373Y-43.2
X28.013Y-22.8
X28.013Y-43.2
X28.653Y-22.8
X28.653Y-43.2
X29.293Y-22.8
X29.293Y-43.2
X29.933Y-22.8
X29.933Y-43.2
X42.067Y-22.8
X42.067Y-43.2
X42.707Y-22.8
X42.707Y-43.2
X43.347Y-22.8
X43.347Y-43.2
X43.987Y-22.8
X43.987Y-43.2
X44.627Y-22.8
X44.627Y-43.2
X45.267Y-22.8
X45.267Y-43.2
X48.733Y-22.8
X48.733Y-43.2
X49.373Y-22.8
X49.373Y-43.2
X50.013Y-22.8
X50.013Y-43.2
X50.653Y-22.8
X50.653Y-43.2
X51.293Y-22.8
X51.293Y-43.2
X51.933Y-22.8
X51.933Y-43.2
X64.067Y-22.8
X64.067Y-43.2
X64.707Y-22.8
X64.707Y-43.2
X65.347Y-22.8
X65.347Y-43.2
X65.987Y-22.8
X65.987Y-43.2
X66.627Y-22.8
X66.627Y-43.2
X67.267Y-22.8
X67.267Y-43.2
X70.733Y-22.8
X70.733Y-43.2
X71.373Y-22.8
X71.373Y-43.2
X72.013Y-22.8
X72.013Y-43.2
X72.653Y-22.8
X72.653Y-43.2
X73.293Y-22.8
X73.293Y-43.2
X73.933Y-22.8
X73.933Y-43.2
X86.067Y-22.8
X86.067Y-43.2
X86.707Y-22.8
X86.707Y-43.2
X87.347Y-22.8
X87.347Y-43.2
X87.987Y-22.8
X87.987Y-43.2
X88.627Y-22.8
X88.627Y-43.2
X89.267Y-22.8
X89.267Y-43.2
X92.733Y-22.8
X92.733Y-43.2
X93.373Y-22.8
X93.373Y-43.2
X94.013Y-22.8
X94.013Y-43.2
X94.653Y-22.8
X94.653Y-43.2
X95.293Y-22.8
X95.293Y-43.2
X95.933Y-22.8
X95.933Y-43.2
T3
X17.5Y-17.5
X17.5Y-48.5
X98.5Y-17.5
T0
M30
