G04 #@! TF.GenerationSoftware,KiCad,Pcbnew,(6.0.5)*
G04 #@! TF.CreationDate,2022-06-14T15:41:47+02:00*
G04 #@! TF.ProjectId,MicroMatrix_Panel,4d696372-6f4d-4617-9472-69785f50616e,1.1*
G04 #@! TF.SameCoordinates,Original*
G04 #@! TF.FileFunction,Legend,Bot*
G04 #@! TF.FilePolarity,Positive*
%FSLAX46Y46*%
G04 Gerber Fmt 4.6, Leading zero omitted, Abs format (unit mm)*
G04 Created by KiCad (PCBNEW (6.0.5)) date 2022-06-14 15:41:47*
%MOMM*%
%LPD*%
G01*
G04 APERTURE LIST*
%ADD10C,0.200000*%
%ADD11C,0.250000*%
%ADD12C,0.300000*%
G04 APERTURE END LIST*
D10*
X28735714Y-28788095D02*
X29354761Y-28788095D01*
X29416666Y-29407142D01*
X29354761Y-29345238D01*
X29230952Y-29283333D01*
X28921428Y-29283333D01*
X28797618Y-29345238D01*
X28735714Y-29407142D01*
X28673809Y-29530952D01*
X28673809Y-29840476D01*
X28735714Y-29964285D01*
X28797618Y-30026190D01*
X28921428Y-30088095D01*
X29230952Y-30088095D01*
X29354761Y-30026190D01*
X29416666Y-29964285D01*
X28302380Y-28788095D02*
X27869047Y-30088095D01*
X27435714Y-28788095D01*
X50735714Y-28788095D02*
X51354761Y-28788095D01*
X51416666Y-29407142D01*
X51354761Y-29345238D01*
X51230952Y-29283333D01*
X50921428Y-29283333D01*
X50797618Y-29345238D01*
X50735714Y-29407142D01*
X50673809Y-29530952D01*
X50673809Y-29840476D01*
X50735714Y-29964285D01*
X50797618Y-30026190D01*
X50921428Y-30088095D01*
X51230952Y-30088095D01*
X51354761Y-30026190D01*
X51416666Y-29964285D01*
X50302380Y-28788095D02*
X49869047Y-30088095D01*
X49435714Y-28788095D01*
X72735714Y-28788095D02*
X73354761Y-28788095D01*
X73416666Y-29407142D01*
X73354761Y-29345238D01*
X73230952Y-29283333D01*
X72921428Y-29283333D01*
X72797618Y-29345238D01*
X72735714Y-29407142D01*
X72673809Y-29530952D01*
X72673809Y-29840476D01*
X72735714Y-29964285D01*
X72797618Y-30026190D01*
X72921428Y-30088095D01*
X73230952Y-30088095D01*
X73354761Y-30026190D01*
X73416666Y-29964285D01*
X72302380Y-28788095D02*
X71869047Y-30088095D01*
X71435714Y-28788095D01*
X94735714Y-28788095D02*
X95354761Y-28788095D01*
X95416666Y-29407142D01*
X95354761Y-29345238D01*
X95230952Y-29283333D01*
X94921428Y-29283333D01*
X94797618Y-29345238D01*
X94735714Y-29407142D01*
X94673809Y-29530952D01*
X94673809Y-29840476D01*
X94735714Y-29964285D01*
X94797618Y-30026190D01*
X94921428Y-30088095D01*
X95230952Y-30088095D01*
X95354761Y-30026190D01*
X95416666Y-29964285D01*
X94302380Y-28788095D02*
X93869047Y-30088095D01*
X93435714Y-28788095D01*
X33673571Y-27342857D02*
X34073571Y-26771428D01*
X34359285Y-27342857D02*
X34359285Y-26142857D01*
X33902142Y-26142857D01*
X33787857Y-26200000D01*
X33730714Y-26257142D01*
X33673571Y-26371428D01*
X33673571Y-26542857D01*
X33730714Y-26657142D01*
X33787857Y-26714285D01*
X33902142Y-26771428D01*
X34359285Y-26771428D01*
X33159285Y-26714285D02*
X32759285Y-26714285D01*
X32587857Y-27342857D02*
X33159285Y-27342857D01*
X33159285Y-26142857D01*
X32587857Y-26142857D01*
X32245000Y-26142857D02*
X31845000Y-27342857D01*
X31445000Y-26142857D01*
X30416428Y-27342857D02*
X31102142Y-27342857D01*
X30759285Y-27342857D02*
X30759285Y-26142857D01*
X30873571Y-26314285D01*
X30987857Y-26428571D01*
X31102142Y-26485714D01*
X29902142Y-27228571D02*
X29845000Y-27285714D01*
X29902142Y-27342857D01*
X29959285Y-27285714D01*
X29902142Y-27228571D01*
X29902142Y-27342857D01*
X28702142Y-27342857D02*
X29387857Y-27342857D01*
X29045000Y-27342857D02*
X29045000Y-26142857D01*
X29159285Y-26314285D01*
X29273571Y-26428571D01*
X29387857Y-26485714D01*
X55673571Y-27342857D02*
X56073571Y-26771428D01*
X56359285Y-27342857D02*
X56359285Y-26142857D01*
X55902142Y-26142857D01*
X55787857Y-26200000D01*
X55730714Y-26257142D01*
X55673571Y-26371428D01*
X55673571Y-26542857D01*
X55730714Y-26657142D01*
X55787857Y-26714285D01*
X55902142Y-26771428D01*
X56359285Y-26771428D01*
X55159285Y-26714285D02*
X54759285Y-26714285D01*
X54587857Y-27342857D02*
X55159285Y-27342857D01*
X55159285Y-26142857D01*
X54587857Y-26142857D01*
X54245000Y-26142857D02*
X53845000Y-27342857D01*
X53445000Y-26142857D01*
X52416428Y-27342857D02*
X53102142Y-27342857D01*
X52759285Y-27342857D02*
X52759285Y-26142857D01*
X52873571Y-26314285D01*
X52987857Y-26428571D01*
X53102142Y-26485714D01*
X51902142Y-27228571D02*
X51845000Y-27285714D01*
X51902142Y-27342857D01*
X51959285Y-27285714D01*
X51902142Y-27228571D01*
X51902142Y-27342857D01*
X50702142Y-27342857D02*
X51387857Y-27342857D01*
X51045000Y-27342857D02*
X51045000Y-26142857D01*
X51159285Y-26314285D01*
X51273571Y-26428571D01*
X51387857Y-26485714D01*
X77673571Y-27342857D02*
X78073571Y-26771428D01*
X78359285Y-27342857D02*
X78359285Y-26142857D01*
X77902142Y-26142857D01*
X77787857Y-26200000D01*
X77730714Y-26257142D01*
X77673571Y-26371428D01*
X77673571Y-26542857D01*
X77730714Y-26657142D01*
X77787857Y-26714285D01*
X77902142Y-26771428D01*
X78359285Y-26771428D01*
X77159285Y-26714285D02*
X76759285Y-26714285D01*
X76587857Y-27342857D02*
X77159285Y-27342857D01*
X77159285Y-26142857D01*
X76587857Y-26142857D01*
X76245000Y-26142857D02*
X75845000Y-27342857D01*
X75445000Y-26142857D01*
X74416428Y-27342857D02*
X75102142Y-27342857D01*
X74759285Y-27342857D02*
X74759285Y-26142857D01*
X74873571Y-26314285D01*
X74987857Y-26428571D01*
X75102142Y-26485714D01*
X73902142Y-27228571D02*
X73845000Y-27285714D01*
X73902142Y-27342857D01*
X73959285Y-27285714D01*
X73902142Y-27228571D01*
X73902142Y-27342857D01*
X72702142Y-27342857D02*
X73387857Y-27342857D01*
X73045000Y-27342857D02*
X73045000Y-26142857D01*
X73159285Y-26314285D01*
X73273571Y-26428571D01*
X73387857Y-26485714D01*
X99673571Y-27342857D02*
X100073571Y-26771428D01*
X100359285Y-27342857D02*
X100359285Y-26142857D01*
X99902142Y-26142857D01*
X99787857Y-26200000D01*
X99730714Y-26257142D01*
X99673571Y-26371428D01*
X99673571Y-26542857D01*
X99730714Y-26657142D01*
X99787857Y-26714285D01*
X99902142Y-26771428D01*
X100359285Y-26771428D01*
X99159285Y-26714285D02*
X98759285Y-26714285D01*
X98587857Y-27342857D02*
X99159285Y-27342857D01*
X99159285Y-26142857D01*
X98587857Y-26142857D01*
X98245000Y-26142857D02*
X97845000Y-27342857D01*
X97445000Y-26142857D01*
X96416428Y-27342857D02*
X97102142Y-27342857D01*
X96759285Y-27342857D02*
X96759285Y-26142857D01*
X96873571Y-26314285D01*
X96987857Y-26428571D01*
X97102142Y-26485714D01*
X95902142Y-27228571D02*
X95845000Y-27285714D01*
X95902142Y-27342857D01*
X95959285Y-27285714D01*
X95902142Y-27228571D01*
X95902142Y-27342857D01*
X94702142Y-27342857D02*
X95387857Y-27342857D01*
X95045000Y-27342857D02*
X95045000Y-26142857D01*
X95159285Y-26314285D01*
X95273571Y-26428571D01*
X95387857Y-26485714D01*
X21853809Y-28768095D02*
X22472857Y-28768095D01*
X22534761Y-29387142D01*
X22472857Y-29325238D01*
X22349047Y-29263333D01*
X22039523Y-29263333D01*
X21915714Y-29325238D01*
X21853809Y-29387142D01*
X21791904Y-29510952D01*
X21791904Y-29820476D01*
X21853809Y-29944285D01*
X21915714Y-30006190D01*
X22039523Y-30068095D01*
X22349047Y-30068095D01*
X22472857Y-30006190D01*
X22534761Y-29944285D01*
X21420476Y-28768095D02*
X20987142Y-30068095D01*
X20553809Y-28768095D01*
X43853809Y-28768095D02*
X44472857Y-28768095D01*
X44534761Y-29387142D01*
X44472857Y-29325238D01*
X44349047Y-29263333D01*
X44039523Y-29263333D01*
X43915714Y-29325238D01*
X43853809Y-29387142D01*
X43791904Y-29510952D01*
X43791904Y-29820476D01*
X43853809Y-29944285D01*
X43915714Y-30006190D01*
X44039523Y-30068095D01*
X44349047Y-30068095D01*
X44472857Y-30006190D01*
X44534761Y-29944285D01*
X43420476Y-28768095D02*
X42987142Y-30068095D01*
X42553809Y-28768095D01*
X65853809Y-28768095D02*
X66472857Y-28768095D01*
X66534761Y-29387142D01*
X66472857Y-29325238D01*
X66349047Y-29263333D01*
X66039523Y-29263333D01*
X65915714Y-29325238D01*
X65853809Y-29387142D01*
X65791904Y-29510952D01*
X65791904Y-29820476D01*
X65853809Y-29944285D01*
X65915714Y-30006190D01*
X66039523Y-30068095D01*
X66349047Y-30068095D01*
X66472857Y-30006190D01*
X66534761Y-29944285D01*
X65420476Y-28768095D02*
X64987142Y-30068095D01*
X64553809Y-28768095D01*
X87853809Y-28768095D02*
X88472857Y-28768095D01*
X88534761Y-29387142D01*
X88472857Y-29325238D01*
X88349047Y-29263333D01*
X88039523Y-29263333D01*
X87915714Y-29325238D01*
X87853809Y-29387142D01*
X87791904Y-29510952D01*
X87791904Y-29820476D01*
X87853809Y-29944285D01*
X87915714Y-30006190D01*
X88039523Y-30068095D01*
X88349047Y-30068095D01*
X88472857Y-30006190D01*
X88534761Y-29944285D01*
X87420476Y-28768095D02*
X86987142Y-30068095D01*
X86553809Y-28768095D01*
D11*
X30819047Y-39797619D02*
X30942857Y-39735714D01*
X31190476Y-39735714D01*
X31314285Y-39797619D01*
X31438095Y-39921428D01*
X31500000Y-40045238D01*
X31500000Y-40292857D01*
X31438095Y-40416666D01*
X31314285Y-40540476D01*
X31190476Y-40602380D01*
X30942857Y-40602380D01*
X30819047Y-40540476D01*
X31066666Y-39302380D02*
X31376190Y-39364285D01*
X31685714Y-39550000D01*
X31871428Y-39859523D01*
X31933333Y-40169047D01*
X31871428Y-40478571D01*
X31685714Y-40788095D01*
X31376190Y-40973809D01*
X31066666Y-41035714D01*
X30757142Y-40973809D01*
X30447619Y-40788095D01*
X30261904Y-40478571D01*
X30200000Y-40169047D01*
X30261904Y-39859523D01*
X30447619Y-39550000D01*
X30757142Y-39364285D01*
X31066666Y-39302380D01*
X28838095Y-39921428D02*
X28342857Y-39921428D01*
X28652380Y-40788095D02*
X28652380Y-39673809D01*
X28590476Y-39550000D01*
X28466666Y-39488095D01*
X28342857Y-39488095D01*
X27723809Y-40788095D02*
X27847619Y-40726190D01*
X27909523Y-40664285D01*
X27971428Y-40540476D01*
X27971428Y-40169047D01*
X27909523Y-40045238D01*
X27847619Y-39983333D01*
X27723809Y-39921428D01*
X27538095Y-39921428D01*
X27414285Y-39983333D01*
X27352380Y-40045238D01*
X27290476Y-40169047D01*
X27290476Y-40540476D01*
X27352380Y-40664285D01*
X27414285Y-40726190D01*
X27538095Y-40788095D01*
X27723809Y-40788095D01*
X26547619Y-40788095D02*
X26671428Y-40726190D01*
X26733333Y-40664285D01*
X26795238Y-40540476D01*
X26795238Y-40169047D01*
X26733333Y-40045238D01*
X26671428Y-39983333D01*
X26547619Y-39921428D01*
X26361904Y-39921428D01*
X26238095Y-39983333D01*
X26176190Y-40045238D01*
X26114285Y-40169047D01*
X26114285Y-40540476D01*
X26176190Y-40664285D01*
X26238095Y-40726190D01*
X26361904Y-40788095D01*
X26547619Y-40788095D01*
X25557142Y-40788095D02*
X25557142Y-39921428D01*
X25557142Y-40169047D02*
X25495238Y-40045238D01*
X25433333Y-39983333D01*
X25309523Y-39921428D01*
X25185714Y-39921428D01*
X24814285Y-40726190D02*
X24690476Y-40788095D01*
X24442857Y-40788095D01*
X24319047Y-40726190D01*
X24257142Y-40602380D01*
X24257142Y-40540476D01*
X24319047Y-40416666D01*
X24442857Y-40354761D01*
X24628571Y-40354761D01*
X24752380Y-40292857D01*
X24814285Y-40169047D01*
X24814285Y-40107142D01*
X24752380Y-39983333D01*
X24628571Y-39921428D01*
X24442857Y-39921428D01*
X24319047Y-39983333D01*
X23142857Y-40726190D02*
X23266666Y-40788095D01*
X23514285Y-40788095D01*
X23638095Y-40726190D01*
X23700000Y-40664285D01*
X23761904Y-40540476D01*
X23761904Y-40169047D01*
X23700000Y-40045238D01*
X23638095Y-39983333D01*
X23514285Y-39921428D01*
X23266666Y-39921428D01*
X23142857Y-39983333D01*
X22585714Y-40788095D02*
X22585714Y-39488095D01*
X22028571Y-40788095D02*
X22028571Y-40107142D01*
X22090476Y-39983333D01*
X22214285Y-39921428D01*
X22400000Y-39921428D01*
X22523809Y-39983333D01*
X22585714Y-40045238D01*
X21595238Y-39921428D02*
X21100000Y-39921428D01*
X21409523Y-39488095D02*
X21409523Y-40602380D01*
X21347619Y-40726190D01*
X21223809Y-40788095D01*
X21100000Y-40788095D01*
X20666666Y-40788095D02*
X20666666Y-39488095D01*
X20666666Y-39983333D02*
X20542857Y-39921428D01*
X20295238Y-39921428D01*
X20171428Y-39983333D01*
X20109523Y-40045238D01*
X20047619Y-40169047D01*
X20047619Y-40540476D01*
X20109523Y-40664285D01*
X20171428Y-40726190D01*
X20295238Y-40788095D01*
X20542857Y-40788095D01*
X20666666Y-40726190D01*
X18933333Y-40788095D02*
X18933333Y-40107142D01*
X18995238Y-39983333D01*
X19119047Y-39921428D01*
X19366666Y-39921428D01*
X19490476Y-39983333D01*
X18933333Y-40726190D02*
X19057142Y-40788095D01*
X19366666Y-40788095D01*
X19490476Y-40726190D01*
X19552380Y-40602380D01*
X19552380Y-40478571D01*
X19490476Y-40354761D01*
X19366666Y-40292857D01*
X19057142Y-40292857D01*
X18933333Y-40230952D01*
X18314285Y-40788095D02*
X18314285Y-39921428D01*
X18314285Y-40169047D02*
X18252380Y-40045238D01*
X18190476Y-39983333D01*
X18066666Y-39921428D01*
X17942857Y-39921428D01*
X52819047Y-39797619D02*
X52942857Y-39735714D01*
X53190476Y-39735714D01*
X53314285Y-39797619D01*
X53438095Y-39921428D01*
X53500000Y-40045238D01*
X53500000Y-40292857D01*
X53438095Y-40416666D01*
X53314285Y-40540476D01*
X53190476Y-40602380D01*
X52942857Y-40602380D01*
X52819047Y-40540476D01*
X53066666Y-39302380D02*
X53376190Y-39364285D01*
X53685714Y-39550000D01*
X53871428Y-39859523D01*
X53933333Y-40169047D01*
X53871428Y-40478571D01*
X53685714Y-40788095D01*
X53376190Y-40973809D01*
X53066666Y-41035714D01*
X52757142Y-40973809D01*
X52447619Y-40788095D01*
X52261904Y-40478571D01*
X52200000Y-40169047D01*
X52261904Y-39859523D01*
X52447619Y-39550000D01*
X52757142Y-39364285D01*
X53066666Y-39302380D01*
X50838095Y-39921428D02*
X50342857Y-39921428D01*
X50652380Y-40788095D02*
X50652380Y-39673809D01*
X50590476Y-39550000D01*
X50466666Y-39488095D01*
X50342857Y-39488095D01*
X49723809Y-40788095D02*
X49847619Y-40726190D01*
X49909523Y-40664285D01*
X49971428Y-40540476D01*
X49971428Y-40169047D01*
X49909523Y-40045238D01*
X49847619Y-39983333D01*
X49723809Y-39921428D01*
X49538095Y-39921428D01*
X49414285Y-39983333D01*
X49352380Y-40045238D01*
X49290476Y-40169047D01*
X49290476Y-40540476D01*
X49352380Y-40664285D01*
X49414285Y-40726190D01*
X49538095Y-40788095D01*
X49723809Y-40788095D01*
X48547619Y-40788095D02*
X48671428Y-40726190D01*
X48733333Y-40664285D01*
X48795238Y-40540476D01*
X48795238Y-40169047D01*
X48733333Y-40045238D01*
X48671428Y-39983333D01*
X48547619Y-39921428D01*
X48361904Y-39921428D01*
X48238095Y-39983333D01*
X48176190Y-40045238D01*
X48114285Y-40169047D01*
X48114285Y-40540476D01*
X48176190Y-40664285D01*
X48238095Y-40726190D01*
X48361904Y-40788095D01*
X48547619Y-40788095D01*
X47557142Y-40788095D02*
X47557142Y-39921428D01*
X47557142Y-40169047D02*
X47495238Y-40045238D01*
X47433333Y-39983333D01*
X47309523Y-39921428D01*
X47185714Y-39921428D01*
X46814285Y-40726190D02*
X46690476Y-40788095D01*
X46442857Y-40788095D01*
X46319047Y-40726190D01*
X46257142Y-40602380D01*
X46257142Y-40540476D01*
X46319047Y-40416666D01*
X46442857Y-40354761D01*
X46628571Y-40354761D01*
X46752380Y-40292857D01*
X46814285Y-40169047D01*
X46814285Y-40107142D01*
X46752380Y-39983333D01*
X46628571Y-39921428D01*
X46442857Y-39921428D01*
X46319047Y-39983333D01*
X45142857Y-40726190D02*
X45266666Y-40788095D01*
X45514285Y-40788095D01*
X45638095Y-40726190D01*
X45700000Y-40664285D01*
X45761904Y-40540476D01*
X45761904Y-40169047D01*
X45700000Y-40045238D01*
X45638095Y-39983333D01*
X45514285Y-39921428D01*
X45266666Y-39921428D01*
X45142857Y-39983333D01*
X44585714Y-40788095D02*
X44585714Y-39488095D01*
X44028571Y-40788095D02*
X44028571Y-40107142D01*
X44090476Y-39983333D01*
X44214285Y-39921428D01*
X44400000Y-39921428D01*
X44523809Y-39983333D01*
X44585714Y-40045238D01*
X43595238Y-39921428D02*
X43100000Y-39921428D01*
X43409523Y-39488095D02*
X43409523Y-40602380D01*
X43347619Y-40726190D01*
X43223809Y-40788095D01*
X43100000Y-40788095D01*
X42666666Y-40788095D02*
X42666666Y-39488095D01*
X42666666Y-39983333D02*
X42542857Y-39921428D01*
X42295238Y-39921428D01*
X42171428Y-39983333D01*
X42109523Y-40045238D01*
X42047619Y-40169047D01*
X42047619Y-40540476D01*
X42109523Y-40664285D01*
X42171428Y-40726190D01*
X42295238Y-40788095D01*
X42542857Y-40788095D01*
X42666666Y-40726190D01*
X40933333Y-40788095D02*
X40933333Y-40107142D01*
X40995238Y-39983333D01*
X41119047Y-39921428D01*
X41366666Y-39921428D01*
X41490476Y-39983333D01*
X40933333Y-40726190D02*
X41057142Y-40788095D01*
X41366666Y-40788095D01*
X41490476Y-40726190D01*
X41552380Y-40602380D01*
X41552380Y-40478571D01*
X41490476Y-40354761D01*
X41366666Y-40292857D01*
X41057142Y-40292857D01*
X40933333Y-40230952D01*
X40314285Y-40788095D02*
X40314285Y-39921428D01*
X40314285Y-40169047D02*
X40252380Y-40045238D01*
X40190476Y-39983333D01*
X40066666Y-39921428D01*
X39942857Y-39921428D01*
X74819047Y-39797619D02*
X74942857Y-39735714D01*
X75190476Y-39735714D01*
X75314285Y-39797619D01*
X75438095Y-39921428D01*
X75500000Y-40045238D01*
X75500000Y-40292857D01*
X75438095Y-40416666D01*
X75314285Y-40540476D01*
X75190476Y-40602380D01*
X74942857Y-40602380D01*
X74819047Y-40540476D01*
X75066666Y-39302380D02*
X75376190Y-39364285D01*
X75685714Y-39550000D01*
X75871428Y-39859523D01*
X75933333Y-40169047D01*
X75871428Y-40478571D01*
X75685714Y-40788095D01*
X75376190Y-40973809D01*
X75066666Y-41035714D01*
X74757142Y-40973809D01*
X74447619Y-40788095D01*
X74261904Y-40478571D01*
X74200000Y-40169047D01*
X74261904Y-39859523D01*
X74447619Y-39550000D01*
X74757142Y-39364285D01*
X75066666Y-39302380D01*
X72838095Y-39921428D02*
X72342857Y-39921428D01*
X72652380Y-40788095D02*
X72652380Y-39673809D01*
X72590476Y-39550000D01*
X72466666Y-39488095D01*
X72342857Y-39488095D01*
X71723809Y-40788095D02*
X71847619Y-40726190D01*
X71909523Y-40664285D01*
X71971428Y-40540476D01*
X71971428Y-40169047D01*
X71909523Y-40045238D01*
X71847619Y-39983333D01*
X71723809Y-39921428D01*
X71538095Y-39921428D01*
X71414285Y-39983333D01*
X71352380Y-40045238D01*
X71290476Y-40169047D01*
X71290476Y-40540476D01*
X71352380Y-40664285D01*
X71414285Y-40726190D01*
X71538095Y-40788095D01*
X71723809Y-40788095D01*
X70547619Y-40788095D02*
X70671428Y-40726190D01*
X70733333Y-40664285D01*
X70795238Y-40540476D01*
X70795238Y-40169047D01*
X70733333Y-40045238D01*
X70671428Y-39983333D01*
X70547619Y-39921428D01*
X70361904Y-39921428D01*
X70238095Y-39983333D01*
X70176190Y-40045238D01*
X70114285Y-40169047D01*
X70114285Y-40540476D01*
X70176190Y-40664285D01*
X70238095Y-40726190D01*
X70361904Y-40788095D01*
X70547619Y-40788095D01*
X69557142Y-40788095D02*
X69557142Y-39921428D01*
X69557142Y-40169047D02*
X69495238Y-40045238D01*
X69433333Y-39983333D01*
X69309523Y-39921428D01*
X69185714Y-39921428D01*
X68814285Y-40726190D02*
X68690476Y-40788095D01*
X68442857Y-40788095D01*
X68319047Y-40726190D01*
X68257142Y-40602380D01*
X68257142Y-40540476D01*
X68319047Y-40416666D01*
X68442857Y-40354761D01*
X68628571Y-40354761D01*
X68752380Y-40292857D01*
X68814285Y-40169047D01*
X68814285Y-40107142D01*
X68752380Y-39983333D01*
X68628571Y-39921428D01*
X68442857Y-39921428D01*
X68319047Y-39983333D01*
X67142857Y-40726190D02*
X67266666Y-40788095D01*
X67514285Y-40788095D01*
X67638095Y-40726190D01*
X67700000Y-40664285D01*
X67761904Y-40540476D01*
X67761904Y-40169047D01*
X67700000Y-40045238D01*
X67638095Y-39983333D01*
X67514285Y-39921428D01*
X67266666Y-39921428D01*
X67142857Y-39983333D01*
X66585714Y-40788095D02*
X66585714Y-39488095D01*
X66028571Y-40788095D02*
X66028571Y-40107142D01*
X66090476Y-39983333D01*
X66214285Y-39921428D01*
X66400000Y-39921428D01*
X66523809Y-39983333D01*
X66585714Y-40045238D01*
X65595238Y-39921428D02*
X65100000Y-39921428D01*
X65409523Y-39488095D02*
X65409523Y-40602380D01*
X65347619Y-40726190D01*
X65223809Y-40788095D01*
X65100000Y-40788095D01*
X64666666Y-40788095D02*
X64666666Y-39488095D01*
X64666666Y-39983333D02*
X64542857Y-39921428D01*
X64295238Y-39921428D01*
X64171428Y-39983333D01*
X64109523Y-40045238D01*
X64047619Y-40169047D01*
X64047619Y-40540476D01*
X64109523Y-40664285D01*
X64171428Y-40726190D01*
X64295238Y-40788095D01*
X64542857Y-40788095D01*
X64666666Y-40726190D01*
X62933333Y-40788095D02*
X62933333Y-40107142D01*
X62995238Y-39983333D01*
X63119047Y-39921428D01*
X63366666Y-39921428D01*
X63490476Y-39983333D01*
X62933333Y-40726190D02*
X63057142Y-40788095D01*
X63366666Y-40788095D01*
X63490476Y-40726190D01*
X63552380Y-40602380D01*
X63552380Y-40478571D01*
X63490476Y-40354761D01*
X63366666Y-40292857D01*
X63057142Y-40292857D01*
X62933333Y-40230952D01*
X62314285Y-40788095D02*
X62314285Y-39921428D01*
X62314285Y-40169047D02*
X62252380Y-40045238D01*
X62190476Y-39983333D01*
X62066666Y-39921428D01*
X61942857Y-39921428D01*
X96819047Y-39797619D02*
X96942857Y-39735714D01*
X97190476Y-39735714D01*
X97314285Y-39797619D01*
X97438095Y-39921428D01*
X97500000Y-40045238D01*
X97500000Y-40292857D01*
X97438095Y-40416666D01*
X97314285Y-40540476D01*
X97190476Y-40602380D01*
X96942857Y-40602380D01*
X96819047Y-40540476D01*
X97066666Y-39302380D02*
X97376190Y-39364285D01*
X97685714Y-39550000D01*
X97871428Y-39859523D01*
X97933333Y-40169047D01*
X97871428Y-40478571D01*
X97685714Y-40788095D01*
X97376190Y-40973809D01*
X97066666Y-41035714D01*
X96757142Y-40973809D01*
X96447619Y-40788095D01*
X96261904Y-40478571D01*
X96200000Y-40169047D01*
X96261904Y-39859523D01*
X96447619Y-39550000D01*
X96757142Y-39364285D01*
X97066666Y-39302380D01*
X94838095Y-39921428D02*
X94342857Y-39921428D01*
X94652380Y-40788095D02*
X94652380Y-39673809D01*
X94590476Y-39550000D01*
X94466666Y-39488095D01*
X94342857Y-39488095D01*
X93723809Y-40788095D02*
X93847619Y-40726190D01*
X93909523Y-40664285D01*
X93971428Y-40540476D01*
X93971428Y-40169047D01*
X93909523Y-40045238D01*
X93847619Y-39983333D01*
X93723809Y-39921428D01*
X93538095Y-39921428D01*
X93414285Y-39983333D01*
X93352380Y-40045238D01*
X93290476Y-40169047D01*
X93290476Y-40540476D01*
X93352380Y-40664285D01*
X93414285Y-40726190D01*
X93538095Y-40788095D01*
X93723809Y-40788095D01*
X92547619Y-40788095D02*
X92671428Y-40726190D01*
X92733333Y-40664285D01*
X92795238Y-40540476D01*
X92795238Y-40169047D01*
X92733333Y-40045238D01*
X92671428Y-39983333D01*
X92547619Y-39921428D01*
X92361904Y-39921428D01*
X92238095Y-39983333D01*
X92176190Y-40045238D01*
X92114285Y-40169047D01*
X92114285Y-40540476D01*
X92176190Y-40664285D01*
X92238095Y-40726190D01*
X92361904Y-40788095D01*
X92547619Y-40788095D01*
X91557142Y-40788095D02*
X91557142Y-39921428D01*
X91557142Y-40169047D02*
X91495238Y-40045238D01*
X91433333Y-39983333D01*
X91309523Y-39921428D01*
X91185714Y-39921428D01*
X90814285Y-40726190D02*
X90690476Y-40788095D01*
X90442857Y-40788095D01*
X90319047Y-40726190D01*
X90257142Y-40602380D01*
X90257142Y-40540476D01*
X90319047Y-40416666D01*
X90442857Y-40354761D01*
X90628571Y-40354761D01*
X90752380Y-40292857D01*
X90814285Y-40169047D01*
X90814285Y-40107142D01*
X90752380Y-39983333D01*
X90628571Y-39921428D01*
X90442857Y-39921428D01*
X90319047Y-39983333D01*
X89142857Y-40726190D02*
X89266666Y-40788095D01*
X89514285Y-40788095D01*
X89638095Y-40726190D01*
X89699999Y-40664285D01*
X89761904Y-40540476D01*
X89761904Y-40169047D01*
X89699999Y-40045238D01*
X89638095Y-39983333D01*
X89514285Y-39921428D01*
X89266666Y-39921428D01*
X89142857Y-39983333D01*
X88585714Y-40788095D02*
X88585714Y-39488095D01*
X88028571Y-40788095D02*
X88028571Y-40107142D01*
X88090476Y-39983333D01*
X88214285Y-39921428D01*
X88399999Y-39921428D01*
X88523809Y-39983333D01*
X88585714Y-40045238D01*
X87595238Y-39921428D02*
X87099999Y-39921428D01*
X87409523Y-39488095D02*
X87409523Y-40602380D01*
X87347619Y-40726190D01*
X87223809Y-40788095D01*
X87099999Y-40788095D01*
X86666666Y-40788095D02*
X86666666Y-39488095D01*
X86666666Y-39983333D02*
X86542857Y-39921428D01*
X86295238Y-39921428D01*
X86171428Y-39983333D01*
X86109523Y-40045238D01*
X86047619Y-40169047D01*
X86047619Y-40540476D01*
X86109523Y-40664285D01*
X86171428Y-40726190D01*
X86295238Y-40788095D01*
X86542857Y-40788095D01*
X86666666Y-40726190D01*
X84933333Y-40788095D02*
X84933333Y-40107142D01*
X84995238Y-39983333D01*
X85119047Y-39921428D01*
X85366666Y-39921428D01*
X85490476Y-39983333D01*
X84933333Y-40726190D02*
X85057142Y-40788095D01*
X85366666Y-40788095D01*
X85490476Y-40726190D01*
X85552380Y-40602380D01*
X85552380Y-40478571D01*
X85490476Y-40354761D01*
X85366666Y-40292857D01*
X85057142Y-40292857D01*
X84933333Y-40230952D01*
X84314285Y-40788095D02*
X84314285Y-39921428D01*
X84314285Y-40169047D02*
X84252380Y-40045238D01*
X84190476Y-39983333D01*
X84066666Y-39921428D01*
X83942857Y-39921428D01*
D10*
X23401428Y-33588095D02*
X23401428Y-32288095D01*
X23091904Y-32288095D01*
X22906190Y-32350000D01*
X22782380Y-32473809D01*
X22720476Y-32597619D01*
X22658571Y-32845238D01*
X22658571Y-33030952D01*
X22720476Y-33278571D01*
X22782380Y-33402380D01*
X22906190Y-33526190D01*
X23091904Y-33588095D01*
X23401428Y-33588095D01*
X22101428Y-33588095D02*
X22101428Y-32288095D01*
X21482380Y-33588095D02*
X21482380Y-32288095D01*
X20739523Y-33588095D01*
X20739523Y-32288095D01*
X45401428Y-33588095D02*
X45401428Y-32288095D01*
X45091904Y-32288095D01*
X44906190Y-32350000D01*
X44782380Y-32473809D01*
X44720476Y-32597619D01*
X44658571Y-32845238D01*
X44658571Y-33030952D01*
X44720476Y-33278571D01*
X44782380Y-33402380D01*
X44906190Y-33526190D01*
X45091904Y-33588095D01*
X45401428Y-33588095D01*
X44101428Y-33588095D02*
X44101428Y-32288095D01*
X43482380Y-33588095D02*
X43482380Y-32288095D01*
X42739523Y-33588095D01*
X42739523Y-32288095D01*
X67401428Y-33588095D02*
X67401428Y-32288095D01*
X67091904Y-32288095D01*
X66906190Y-32350000D01*
X66782380Y-32473809D01*
X66720476Y-32597619D01*
X66658571Y-32845238D01*
X66658571Y-33030952D01*
X66720476Y-33278571D01*
X66782380Y-33402380D01*
X66906190Y-33526190D01*
X67091904Y-33588095D01*
X67401428Y-33588095D01*
X66101428Y-33588095D02*
X66101428Y-32288095D01*
X65482380Y-33588095D02*
X65482380Y-32288095D01*
X64739523Y-33588095D01*
X64739523Y-32288095D01*
X89401428Y-33588095D02*
X89401428Y-32288095D01*
X89091904Y-32288095D01*
X88906190Y-32350000D01*
X88782380Y-32473809D01*
X88720476Y-32597619D01*
X88658571Y-32845238D01*
X88658571Y-33030952D01*
X88720476Y-33278571D01*
X88782380Y-33402380D01*
X88906190Y-33526190D01*
X89091904Y-33588095D01*
X89401428Y-33588095D01*
X88101428Y-33588095D02*
X88101428Y-32288095D01*
X87482380Y-33588095D02*
X87482380Y-32288095D01*
X86739523Y-33588095D01*
X86739523Y-32288095D01*
X29334761Y-33588095D02*
X29334761Y-32288095D01*
X29025238Y-32288095D01*
X28839523Y-32350000D01*
X28715714Y-32473809D01*
X28653809Y-32597619D01*
X28591904Y-32845238D01*
X28591904Y-33030952D01*
X28653809Y-33278571D01*
X28715714Y-33402380D01*
X28839523Y-33526190D01*
X29025238Y-33588095D01*
X29334761Y-33588095D01*
X27787142Y-32288095D02*
X27539523Y-32288095D01*
X27415714Y-32350000D01*
X27291904Y-32473809D01*
X27230000Y-32721428D01*
X27230000Y-33154761D01*
X27291904Y-33402380D01*
X27415714Y-33526190D01*
X27539523Y-33588095D01*
X27787142Y-33588095D01*
X27910952Y-33526190D01*
X28034761Y-33402380D01*
X28096666Y-33154761D01*
X28096666Y-32721428D01*
X28034761Y-32473809D01*
X27910952Y-32350000D01*
X27787142Y-32288095D01*
X26672857Y-32288095D02*
X26672857Y-33340476D01*
X26610952Y-33464285D01*
X26549047Y-33526190D01*
X26425238Y-33588095D01*
X26177619Y-33588095D01*
X26053809Y-33526190D01*
X25991904Y-33464285D01*
X25930000Y-33340476D01*
X25930000Y-32288095D01*
X25496666Y-32288095D02*
X24753809Y-32288095D01*
X25125238Y-33588095D02*
X25125238Y-32288095D01*
X51334761Y-33588095D02*
X51334761Y-32288095D01*
X51025238Y-32288095D01*
X50839523Y-32350000D01*
X50715714Y-32473809D01*
X50653809Y-32597619D01*
X50591904Y-32845238D01*
X50591904Y-33030952D01*
X50653809Y-33278571D01*
X50715714Y-33402380D01*
X50839523Y-33526190D01*
X51025238Y-33588095D01*
X51334761Y-33588095D01*
X49787142Y-32288095D02*
X49539523Y-32288095D01*
X49415714Y-32350000D01*
X49291904Y-32473809D01*
X49230000Y-32721428D01*
X49230000Y-33154761D01*
X49291904Y-33402380D01*
X49415714Y-33526190D01*
X49539523Y-33588095D01*
X49787142Y-33588095D01*
X49910952Y-33526190D01*
X50034761Y-33402380D01*
X50096666Y-33154761D01*
X50096666Y-32721428D01*
X50034761Y-32473809D01*
X49910952Y-32350000D01*
X49787142Y-32288095D01*
X48672857Y-32288095D02*
X48672857Y-33340476D01*
X48610952Y-33464285D01*
X48549047Y-33526190D01*
X48425238Y-33588095D01*
X48177619Y-33588095D01*
X48053809Y-33526190D01*
X47991904Y-33464285D01*
X47930000Y-33340476D01*
X47930000Y-32288095D01*
X47496666Y-32288095D02*
X46753809Y-32288095D01*
X47125238Y-33588095D02*
X47125238Y-32288095D01*
X73334761Y-33588095D02*
X73334761Y-32288095D01*
X73025238Y-32288095D01*
X72839523Y-32350000D01*
X72715714Y-32473809D01*
X72653809Y-32597619D01*
X72591904Y-32845238D01*
X72591904Y-33030952D01*
X72653809Y-33278571D01*
X72715714Y-33402380D01*
X72839523Y-33526190D01*
X73025238Y-33588095D01*
X73334761Y-33588095D01*
X71787142Y-32288095D02*
X71539523Y-32288095D01*
X71415714Y-32350000D01*
X71291904Y-32473809D01*
X71230000Y-32721428D01*
X71230000Y-33154761D01*
X71291904Y-33402380D01*
X71415714Y-33526190D01*
X71539523Y-33588095D01*
X71787142Y-33588095D01*
X71910952Y-33526190D01*
X72034761Y-33402380D01*
X72096666Y-33154761D01*
X72096666Y-32721428D01*
X72034761Y-32473809D01*
X71910952Y-32350000D01*
X71787142Y-32288095D01*
X70672857Y-32288095D02*
X70672857Y-33340476D01*
X70610952Y-33464285D01*
X70549047Y-33526190D01*
X70425238Y-33588095D01*
X70177619Y-33588095D01*
X70053809Y-33526190D01*
X69991904Y-33464285D01*
X69930000Y-33340476D01*
X69930000Y-32288095D01*
X69496666Y-32288095D02*
X68753809Y-32288095D01*
X69125238Y-33588095D02*
X69125238Y-32288095D01*
X95334761Y-33588095D02*
X95334761Y-32288095D01*
X95025238Y-32288095D01*
X94839523Y-32350000D01*
X94715714Y-32473809D01*
X94653809Y-32597619D01*
X94591904Y-32845238D01*
X94591904Y-33030952D01*
X94653809Y-33278571D01*
X94715714Y-33402380D01*
X94839523Y-33526190D01*
X95025238Y-33588095D01*
X95334761Y-33588095D01*
X93787142Y-32288095D02*
X93539523Y-32288095D01*
X93415714Y-32350000D01*
X93291904Y-32473809D01*
X93230000Y-32721428D01*
X93230000Y-33154761D01*
X93291904Y-33402380D01*
X93415714Y-33526190D01*
X93539523Y-33588095D01*
X93787142Y-33588095D01*
X93910952Y-33526190D01*
X94034761Y-33402380D01*
X94096666Y-33154761D01*
X94096666Y-32721428D01*
X94034761Y-32473809D01*
X93910952Y-32350000D01*
X93787142Y-32288095D01*
X92672857Y-32288095D02*
X92672857Y-33340476D01*
X92610952Y-33464285D01*
X92549047Y-33526190D01*
X92425238Y-33588095D01*
X92177619Y-33588095D01*
X92053809Y-33526190D01*
X91991904Y-33464285D01*
X91930000Y-33340476D01*
X91930000Y-32288095D01*
X91496666Y-32288095D02*
X90753809Y-32288095D01*
X91125238Y-33588095D02*
X91125238Y-32288095D01*
X23401428Y-35850000D02*
X23525238Y-35788095D01*
X23710952Y-35788095D01*
X23896666Y-35850000D01*
X24020476Y-35973809D01*
X24082380Y-36097619D01*
X24144285Y-36345238D01*
X24144285Y-36530952D01*
X24082380Y-36778571D01*
X24020476Y-36902380D01*
X23896666Y-37026190D01*
X23710952Y-37088095D01*
X23587142Y-37088095D01*
X23401428Y-37026190D01*
X23339523Y-36964285D01*
X23339523Y-36530952D01*
X23587142Y-36530952D01*
X22782380Y-37088095D02*
X22782380Y-35788095D01*
X22039523Y-37088095D01*
X22039523Y-35788095D01*
X21420476Y-37088095D02*
X21420476Y-35788095D01*
X21110952Y-35788095D01*
X20925238Y-35850000D01*
X20801428Y-35973809D01*
X20739523Y-36097619D01*
X20677619Y-36345238D01*
X20677619Y-36530952D01*
X20739523Y-36778571D01*
X20801428Y-36902380D01*
X20925238Y-37026190D01*
X21110952Y-37088095D01*
X21420476Y-37088095D01*
X45401428Y-35850000D02*
X45525238Y-35788095D01*
X45710952Y-35788095D01*
X45896666Y-35850000D01*
X46020476Y-35973809D01*
X46082380Y-36097619D01*
X46144285Y-36345238D01*
X46144285Y-36530952D01*
X46082380Y-36778571D01*
X46020476Y-36902380D01*
X45896666Y-37026190D01*
X45710952Y-37088095D01*
X45587142Y-37088095D01*
X45401428Y-37026190D01*
X45339523Y-36964285D01*
X45339523Y-36530952D01*
X45587142Y-36530952D01*
X44782380Y-37088095D02*
X44782380Y-35788095D01*
X44039523Y-37088095D01*
X44039523Y-35788095D01*
X43420476Y-37088095D02*
X43420476Y-35788095D01*
X43110952Y-35788095D01*
X42925238Y-35850000D01*
X42801428Y-35973809D01*
X42739523Y-36097619D01*
X42677619Y-36345238D01*
X42677619Y-36530952D01*
X42739523Y-36778571D01*
X42801428Y-36902380D01*
X42925238Y-37026190D01*
X43110952Y-37088095D01*
X43420476Y-37088095D01*
X67401428Y-35850000D02*
X67525238Y-35788095D01*
X67710952Y-35788095D01*
X67896666Y-35850000D01*
X68020476Y-35973809D01*
X68082380Y-36097619D01*
X68144285Y-36345238D01*
X68144285Y-36530952D01*
X68082380Y-36778571D01*
X68020476Y-36902380D01*
X67896666Y-37026190D01*
X67710952Y-37088095D01*
X67587142Y-37088095D01*
X67401428Y-37026190D01*
X67339523Y-36964285D01*
X67339523Y-36530952D01*
X67587142Y-36530952D01*
X66782380Y-37088095D02*
X66782380Y-35788095D01*
X66039523Y-37088095D01*
X66039523Y-35788095D01*
X65420476Y-37088095D02*
X65420476Y-35788095D01*
X65110952Y-35788095D01*
X64925238Y-35850000D01*
X64801428Y-35973809D01*
X64739523Y-36097619D01*
X64677619Y-36345238D01*
X64677619Y-36530952D01*
X64739523Y-36778571D01*
X64801428Y-36902380D01*
X64925238Y-37026190D01*
X65110952Y-37088095D01*
X65420476Y-37088095D01*
X89401428Y-35850000D02*
X89525238Y-35788095D01*
X89710952Y-35788095D01*
X89896666Y-35850000D01*
X90020476Y-35973809D01*
X90082380Y-36097619D01*
X90144285Y-36345238D01*
X90144285Y-36530952D01*
X90082380Y-36778571D01*
X90020476Y-36902380D01*
X89896666Y-37026190D01*
X89710952Y-37088095D01*
X89587142Y-37088095D01*
X89401428Y-37026190D01*
X89339523Y-36964285D01*
X89339523Y-36530952D01*
X89587142Y-36530952D01*
X88782380Y-37088095D02*
X88782380Y-35788095D01*
X88039523Y-37088095D01*
X88039523Y-35788095D01*
X87420476Y-37088095D02*
X87420476Y-35788095D01*
X87110952Y-35788095D01*
X86925238Y-35850000D01*
X86801428Y-35973809D01*
X86739523Y-36097619D01*
X86677619Y-36345238D01*
X86677619Y-36530952D01*
X86739523Y-36778571D01*
X86801428Y-36902380D01*
X86925238Y-37026190D01*
X87110952Y-37088095D01*
X87420476Y-37088095D01*
X28673809Y-35850000D02*
X28797618Y-35788095D01*
X28983333Y-35788095D01*
X29169047Y-35850000D01*
X29292856Y-35973809D01*
X29354761Y-36097619D01*
X29416666Y-36345238D01*
X29416666Y-36530952D01*
X29354761Y-36778571D01*
X29292856Y-36902380D01*
X29169047Y-37026190D01*
X28983333Y-37088095D01*
X28859523Y-37088095D01*
X28673809Y-37026190D01*
X28611904Y-36964285D01*
X28611904Y-36530952D01*
X28859523Y-36530952D01*
X28054761Y-37088095D02*
X28054761Y-35788095D01*
X27311904Y-37088095D01*
X27311904Y-35788095D01*
X26692856Y-37088095D02*
X26692856Y-35788095D01*
X26383333Y-35788095D01*
X26197618Y-35850000D01*
X26073809Y-35973809D01*
X26011904Y-36097619D01*
X25949999Y-36345238D01*
X25949999Y-36530952D01*
X26011904Y-36778571D01*
X26073809Y-36902380D01*
X26197618Y-37026190D01*
X26383333Y-37088095D01*
X26692856Y-37088095D01*
X50673809Y-35850000D02*
X50797618Y-35788095D01*
X50983333Y-35788095D01*
X51169047Y-35850000D01*
X51292856Y-35973809D01*
X51354761Y-36097619D01*
X51416666Y-36345238D01*
X51416666Y-36530952D01*
X51354761Y-36778571D01*
X51292856Y-36902380D01*
X51169047Y-37026190D01*
X50983333Y-37088095D01*
X50859523Y-37088095D01*
X50673809Y-37026190D01*
X50611904Y-36964285D01*
X50611904Y-36530952D01*
X50859523Y-36530952D01*
X50054761Y-37088095D02*
X50054761Y-35788095D01*
X49311904Y-37088095D01*
X49311904Y-35788095D01*
X48692856Y-37088095D02*
X48692856Y-35788095D01*
X48383333Y-35788095D01*
X48197618Y-35850000D01*
X48073809Y-35973809D01*
X48011904Y-36097619D01*
X47949999Y-36345238D01*
X47949999Y-36530952D01*
X48011904Y-36778571D01*
X48073809Y-36902380D01*
X48197618Y-37026190D01*
X48383333Y-37088095D01*
X48692856Y-37088095D01*
X72673809Y-35850000D02*
X72797618Y-35788095D01*
X72983333Y-35788095D01*
X73169047Y-35850000D01*
X73292856Y-35973809D01*
X73354761Y-36097619D01*
X73416666Y-36345238D01*
X73416666Y-36530952D01*
X73354761Y-36778571D01*
X73292856Y-36902380D01*
X73169047Y-37026190D01*
X72983333Y-37088095D01*
X72859523Y-37088095D01*
X72673809Y-37026190D01*
X72611904Y-36964285D01*
X72611904Y-36530952D01*
X72859523Y-36530952D01*
X72054761Y-37088095D02*
X72054761Y-35788095D01*
X71311904Y-37088095D01*
X71311904Y-35788095D01*
X70692856Y-37088095D02*
X70692856Y-35788095D01*
X70383333Y-35788095D01*
X70197618Y-35850000D01*
X70073809Y-35973809D01*
X70011904Y-36097619D01*
X69949999Y-36345238D01*
X69949999Y-36530952D01*
X70011904Y-36778571D01*
X70073809Y-36902380D01*
X70197618Y-37026190D01*
X70383333Y-37088095D01*
X70692856Y-37088095D01*
X94673809Y-35850000D02*
X94797618Y-35788095D01*
X94983333Y-35788095D01*
X95169047Y-35850000D01*
X95292856Y-35973809D01*
X95354761Y-36097619D01*
X95416666Y-36345238D01*
X95416666Y-36530952D01*
X95354761Y-36778571D01*
X95292856Y-36902380D01*
X95169047Y-37026190D01*
X94983333Y-37088095D01*
X94859523Y-37088095D01*
X94673809Y-37026190D01*
X94611904Y-36964285D01*
X94611904Y-36530952D01*
X94859523Y-36530952D01*
X94054761Y-37088095D02*
X94054761Y-35788095D01*
X93311904Y-37088095D01*
X93311904Y-35788095D01*
X92692856Y-37088095D02*
X92692856Y-35788095D01*
X92383333Y-35788095D01*
X92197618Y-35850000D01*
X92073809Y-35973809D01*
X92011904Y-36097619D01*
X91949999Y-36345238D01*
X91949999Y-36530952D01*
X92011904Y-36778571D01*
X92073809Y-36902380D01*
X92197618Y-37026190D01*
X92383333Y-37088095D01*
X92692856Y-37088095D01*
D12*
X31840476Y-25369047D02*
X31840476Y-23669047D01*
X31273809Y-24883333D01*
X30707142Y-23669047D01*
X30707142Y-25369047D01*
X29897619Y-25369047D02*
X29897619Y-24235714D01*
X29897619Y-23669047D02*
X29978571Y-23750000D01*
X29897619Y-23830952D01*
X29816666Y-23750000D01*
X29897619Y-23669047D01*
X29897619Y-23830952D01*
X28359523Y-25288095D02*
X28521428Y-25369047D01*
X28845238Y-25369047D01*
X29007142Y-25288095D01*
X29088095Y-25207142D01*
X29169047Y-25045238D01*
X29169047Y-24559523D01*
X29088095Y-24397619D01*
X29007142Y-24316666D01*
X28845238Y-24235714D01*
X28521428Y-24235714D01*
X28359523Y-24316666D01*
X27630952Y-25369047D02*
X27630952Y-24235714D01*
X27630952Y-24559523D02*
X27550000Y-24397619D01*
X27469047Y-24316666D01*
X27307142Y-24235714D01*
X27145238Y-24235714D01*
X26335714Y-25369047D02*
X26497619Y-25288095D01*
X26578571Y-25207142D01*
X26659523Y-25045238D01*
X26659523Y-24559523D01*
X26578571Y-24397619D01*
X26497619Y-24316666D01*
X26335714Y-24235714D01*
X26092857Y-24235714D01*
X25930952Y-24316666D01*
X25850000Y-24397619D01*
X25769047Y-24559523D01*
X25769047Y-25045238D01*
X25850000Y-25207142D01*
X25930952Y-25288095D01*
X26092857Y-25369047D01*
X26335714Y-25369047D01*
X25040476Y-25369047D02*
X25040476Y-23669047D01*
X24473809Y-24883333D01*
X23907142Y-23669047D01*
X23907142Y-25369047D01*
X22369047Y-25369047D02*
X22369047Y-24478571D01*
X22450000Y-24316666D01*
X22611904Y-24235714D01*
X22935714Y-24235714D01*
X23097619Y-24316666D01*
X22369047Y-25288095D02*
X22530952Y-25369047D01*
X22935714Y-25369047D01*
X23097619Y-25288095D01*
X23178571Y-25126190D01*
X23178571Y-24964285D01*
X23097619Y-24802380D01*
X22935714Y-24721428D01*
X22530952Y-24721428D01*
X22369047Y-24640476D01*
X21802380Y-24235714D02*
X21154761Y-24235714D01*
X21559523Y-23669047D02*
X21559523Y-25126190D01*
X21478571Y-25288095D01*
X21316666Y-25369047D01*
X21154761Y-25369047D01*
X20588095Y-25369047D02*
X20588095Y-24235714D01*
X20588095Y-24559523D02*
X20507142Y-24397619D01*
X20426190Y-24316666D01*
X20264285Y-24235714D01*
X20102380Y-24235714D01*
X19535714Y-25369047D02*
X19535714Y-24235714D01*
X19535714Y-23669047D02*
X19616666Y-23750000D01*
X19535714Y-23830952D01*
X19454761Y-23750000D01*
X19535714Y-23669047D01*
X19535714Y-23830952D01*
X18888095Y-25369047D02*
X17997619Y-24235714D01*
X18888095Y-24235714D02*
X17997619Y-25369047D01*
X53840476Y-25369047D02*
X53840476Y-23669047D01*
X53273809Y-24883333D01*
X52707142Y-23669047D01*
X52707142Y-25369047D01*
X51897619Y-25369047D02*
X51897619Y-24235714D01*
X51897619Y-23669047D02*
X51978571Y-23750000D01*
X51897619Y-23830952D01*
X51816666Y-23750000D01*
X51897619Y-23669047D01*
X51897619Y-23830952D01*
X50359523Y-25288095D02*
X50521428Y-25369047D01*
X50845238Y-25369047D01*
X51007142Y-25288095D01*
X51088095Y-25207142D01*
X51169047Y-25045238D01*
X51169047Y-24559523D01*
X51088095Y-24397619D01*
X51007142Y-24316666D01*
X50845238Y-24235714D01*
X50521428Y-24235714D01*
X50359523Y-24316666D01*
X49630952Y-25369047D02*
X49630952Y-24235714D01*
X49630952Y-24559523D02*
X49550000Y-24397619D01*
X49469047Y-24316666D01*
X49307142Y-24235714D01*
X49145238Y-24235714D01*
X48335714Y-25369047D02*
X48497619Y-25288095D01*
X48578571Y-25207142D01*
X48659523Y-25045238D01*
X48659523Y-24559523D01*
X48578571Y-24397619D01*
X48497619Y-24316666D01*
X48335714Y-24235714D01*
X48092857Y-24235714D01*
X47930952Y-24316666D01*
X47850000Y-24397619D01*
X47769047Y-24559523D01*
X47769047Y-25045238D01*
X47850000Y-25207142D01*
X47930952Y-25288095D01*
X48092857Y-25369047D01*
X48335714Y-25369047D01*
X47040476Y-25369047D02*
X47040476Y-23669047D01*
X46473809Y-24883333D01*
X45907142Y-23669047D01*
X45907142Y-25369047D01*
X44369047Y-25369047D02*
X44369047Y-24478571D01*
X44450000Y-24316666D01*
X44611904Y-24235714D01*
X44935714Y-24235714D01*
X45097619Y-24316666D01*
X44369047Y-25288095D02*
X44530952Y-25369047D01*
X44935714Y-25369047D01*
X45097619Y-25288095D01*
X45178571Y-25126190D01*
X45178571Y-24964285D01*
X45097619Y-24802380D01*
X44935714Y-24721428D01*
X44530952Y-24721428D01*
X44369047Y-24640476D01*
X43802380Y-24235714D02*
X43154761Y-24235714D01*
X43559523Y-23669047D02*
X43559523Y-25126190D01*
X43478571Y-25288095D01*
X43316666Y-25369047D01*
X43154761Y-25369047D01*
X42588095Y-25369047D02*
X42588095Y-24235714D01*
X42588095Y-24559523D02*
X42507142Y-24397619D01*
X42426190Y-24316666D01*
X42264285Y-24235714D01*
X42102380Y-24235714D01*
X41535714Y-25369047D02*
X41535714Y-24235714D01*
X41535714Y-23669047D02*
X41616666Y-23750000D01*
X41535714Y-23830952D01*
X41454761Y-23750000D01*
X41535714Y-23669047D01*
X41535714Y-23830952D01*
X40888095Y-25369047D02*
X39997619Y-24235714D01*
X40888095Y-24235714D02*
X39997619Y-25369047D01*
X75840476Y-25369047D02*
X75840476Y-23669047D01*
X75273809Y-24883333D01*
X74707142Y-23669047D01*
X74707142Y-25369047D01*
X73897619Y-25369047D02*
X73897619Y-24235714D01*
X73897619Y-23669047D02*
X73978571Y-23750000D01*
X73897619Y-23830952D01*
X73816666Y-23750000D01*
X73897619Y-23669047D01*
X73897619Y-23830952D01*
X72359523Y-25288095D02*
X72521428Y-25369047D01*
X72845238Y-25369047D01*
X73007142Y-25288095D01*
X73088095Y-25207142D01*
X73169047Y-25045238D01*
X73169047Y-24559523D01*
X73088095Y-24397619D01*
X73007142Y-24316666D01*
X72845238Y-24235714D01*
X72521428Y-24235714D01*
X72359523Y-24316666D01*
X71630952Y-25369047D02*
X71630952Y-24235714D01*
X71630952Y-24559523D02*
X71550000Y-24397619D01*
X71469047Y-24316666D01*
X71307142Y-24235714D01*
X71145238Y-24235714D01*
X70335714Y-25369047D02*
X70497619Y-25288095D01*
X70578571Y-25207142D01*
X70659523Y-25045238D01*
X70659523Y-24559523D01*
X70578571Y-24397619D01*
X70497619Y-24316666D01*
X70335714Y-24235714D01*
X70092857Y-24235714D01*
X69930952Y-24316666D01*
X69850000Y-24397619D01*
X69769047Y-24559523D01*
X69769047Y-25045238D01*
X69850000Y-25207142D01*
X69930952Y-25288095D01*
X70092857Y-25369047D01*
X70335714Y-25369047D01*
X69040476Y-25369047D02*
X69040476Y-23669047D01*
X68473809Y-24883333D01*
X67907142Y-23669047D01*
X67907142Y-25369047D01*
X66369047Y-25369047D02*
X66369047Y-24478571D01*
X66450000Y-24316666D01*
X66611904Y-24235714D01*
X66935714Y-24235714D01*
X67097619Y-24316666D01*
X66369047Y-25288095D02*
X66530952Y-25369047D01*
X66935714Y-25369047D01*
X67097619Y-25288095D01*
X67178571Y-25126190D01*
X67178571Y-24964285D01*
X67097619Y-24802380D01*
X66935714Y-24721428D01*
X66530952Y-24721428D01*
X66369047Y-24640476D01*
X65802380Y-24235714D02*
X65154761Y-24235714D01*
X65559523Y-23669047D02*
X65559523Y-25126190D01*
X65478571Y-25288095D01*
X65316666Y-25369047D01*
X65154761Y-25369047D01*
X64588095Y-25369047D02*
X64588095Y-24235714D01*
X64588095Y-24559523D02*
X64507142Y-24397619D01*
X64426190Y-24316666D01*
X64264285Y-24235714D01*
X64102380Y-24235714D01*
X63535714Y-25369047D02*
X63535714Y-24235714D01*
X63535714Y-23669047D02*
X63616666Y-23750000D01*
X63535714Y-23830952D01*
X63454761Y-23750000D01*
X63535714Y-23669047D01*
X63535714Y-23830952D01*
X62888095Y-25369047D02*
X61997619Y-24235714D01*
X62888095Y-24235714D02*
X61997619Y-25369047D01*
X97840476Y-25369047D02*
X97840476Y-23669047D01*
X97273809Y-24883333D01*
X96707142Y-23669047D01*
X96707142Y-25369047D01*
X95897619Y-25369047D02*
X95897619Y-24235714D01*
X95897619Y-23669047D02*
X95978571Y-23750000D01*
X95897619Y-23830952D01*
X95816666Y-23750000D01*
X95897619Y-23669047D01*
X95897619Y-23830952D01*
X94359523Y-25288095D02*
X94521428Y-25369047D01*
X94845238Y-25369047D01*
X95007142Y-25288095D01*
X95088095Y-25207142D01*
X95169047Y-25045238D01*
X95169047Y-24559523D01*
X95088095Y-24397619D01*
X95007142Y-24316666D01*
X94845238Y-24235714D01*
X94521428Y-24235714D01*
X94359523Y-24316666D01*
X93630952Y-25369047D02*
X93630952Y-24235714D01*
X93630952Y-24559523D02*
X93550000Y-24397619D01*
X93469047Y-24316666D01*
X93307142Y-24235714D01*
X93145238Y-24235714D01*
X92335714Y-25369047D02*
X92497619Y-25288095D01*
X92578571Y-25207142D01*
X92659523Y-25045238D01*
X92659523Y-24559523D01*
X92578571Y-24397619D01*
X92497619Y-24316666D01*
X92335714Y-24235714D01*
X92092857Y-24235714D01*
X91930952Y-24316666D01*
X91850000Y-24397619D01*
X91769047Y-24559523D01*
X91769047Y-25045238D01*
X91850000Y-25207142D01*
X91930952Y-25288095D01*
X92092857Y-25369047D01*
X92335714Y-25369047D01*
X91040476Y-25369047D02*
X91040476Y-23669047D01*
X90473809Y-24883333D01*
X89907142Y-23669047D01*
X89907142Y-25369047D01*
X88369047Y-25369047D02*
X88369047Y-24478571D01*
X88450000Y-24316666D01*
X88611904Y-24235714D01*
X88935714Y-24235714D01*
X89097619Y-24316666D01*
X88369047Y-25288095D02*
X88530952Y-25369047D01*
X88935714Y-25369047D01*
X89097619Y-25288095D01*
X89178571Y-25126190D01*
X89178571Y-24964285D01*
X89097619Y-24802380D01*
X88935714Y-24721428D01*
X88530952Y-24721428D01*
X88369047Y-24640476D01*
X87802380Y-24235714D02*
X87154761Y-24235714D01*
X87559523Y-23669047D02*
X87559523Y-25126190D01*
X87478571Y-25288095D01*
X87316666Y-25369047D01*
X87154761Y-25369047D01*
X86588095Y-25369047D02*
X86588095Y-24235714D01*
X86588095Y-24559523D02*
X86507142Y-24397619D01*
X86426190Y-24316666D01*
X86264285Y-24235714D01*
X86102380Y-24235714D01*
X85535714Y-25369047D02*
X85535714Y-24235714D01*
X85535714Y-23669047D02*
X85616666Y-23750000D01*
X85535714Y-23830952D01*
X85454761Y-23750000D01*
X85535714Y-23669047D01*
X85535714Y-23830952D01*
X84888095Y-25369047D02*
X83997619Y-24235714D01*
X84888095Y-24235714D02*
X83997619Y-25369047D01*
D10*
X23258571Y-26257142D02*
X23201428Y-26200000D01*
X23087142Y-26142857D01*
X22801428Y-26142857D01*
X22687142Y-26200000D01*
X22629999Y-26257142D01*
X22572857Y-26371428D01*
X22572857Y-26485714D01*
X22629999Y-26657142D01*
X23315714Y-27342857D01*
X22572857Y-27342857D01*
X21829999Y-26142857D02*
X21715714Y-26142857D01*
X21601428Y-26200000D01*
X21544285Y-26257142D01*
X21487142Y-26371428D01*
X21429999Y-26600000D01*
X21429999Y-26885714D01*
X21487142Y-27114285D01*
X21544285Y-27228571D01*
X21601428Y-27285714D01*
X21715714Y-27342857D01*
X21829999Y-27342857D01*
X21944285Y-27285714D01*
X22001428Y-27228571D01*
X22058571Y-27114285D01*
X22115714Y-26885714D01*
X22115714Y-26600000D01*
X22058571Y-26371428D01*
X22001428Y-26257142D01*
X21944285Y-26200000D01*
X21829999Y-26142857D01*
X20972857Y-26257142D02*
X20915714Y-26200000D01*
X20801428Y-26142857D01*
X20515714Y-26142857D01*
X20401428Y-26200000D01*
X20344285Y-26257142D01*
X20287142Y-26371428D01*
X20287142Y-26485714D01*
X20344285Y-26657142D01*
X21029999Y-27342857D01*
X20287142Y-27342857D01*
X19829999Y-26257142D02*
X19772857Y-26200000D01*
X19658571Y-26142857D01*
X19372857Y-26142857D01*
X19258571Y-26200000D01*
X19201428Y-26257142D01*
X19144285Y-26371428D01*
X19144285Y-26485714D01*
X19201428Y-26657142D01*
X19887142Y-27342857D01*
X19144285Y-27342857D01*
X17772857Y-26085714D02*
X18801428Y-27628571D01*
X17144285Y-26142857D02*
X17029999Y-26142857D01*
X16915714Y-26200000D01*
X16858571Y-26257142D01*
X16801428Y-26371428D01*
X16744285Y-26600000D01*
X16744285Y-26885714D01*
X16801428Y-27114285D01*
X16858571Y-27228571D01*
X16915714Y-27285714D01*
X17029999Y-27342857D01*
X17144285Y-27342857D01*
X17258571Y-27285714D01*
X17315714Y-27228571D01*
X17372857Y-27114285D01*
X17429999Y-26885714D01*
X17429999Y-26600000D01*
X17372857Y-26371428D01*
X17315714Y-26257142D01*
X17258571Y-26200000D01*
X17144285Y-26142857D01*
X15715714Y-26142857D02*
X15944285Y-26142857D01*
X16058571Y-26200000D01*
X16115714Y-26257142D01*
X16229999Y-26428571D01*
X16287142Y-26657142D01*
X16287142Y-27114285D01*
X16229999Y-27228571D01*
X16172857Y-27285714D01*
X16058571Y-27342857D01*
X15829999Y-27342857D01*
X15715714Y-27285714D01*
X15658571Y-27228571D01*
X15601428Y-27114285D01*
X15601428Y-26828571D01*
X15658571Y-26714285D01*
X15715714Y-26657142D01*
X15829999Y-26600000D01*
X16058571Y-26600000D01*
X16172857Y-26657142D01*
X16229999Y-26714285D01*
X16287142Y-26828571D01*
X45258571Y-26257142D02*
X45201428Y-26200000D01*
X45087142Y-26142857D01*
X44801428Y-26142857D01*
X44687142Y-26200000D01*
X44629999Y-26257142D01*
X44572857Y-26371428D01*
X44572857Y-26485714D01*
X44629999Y-26657142D01*
X45315714Y-27342857D01*
X44572857Y-27342857D01*
X43829999Y-26142857D02*
X43715714Y-26142857D01*
X43601428Y-26200000D01*
X43544285Y-26257142D01*
X43487142Y-26371428D01*
X43429999Y-26600000D01*
X43429999Y-26885714D01*
X43487142Y-27114285D01*
X43544285Y-27228571D01*
X43601428Y-27285714D01*
X43715714Y-27342857D01*
X43829999Y-27342857D01*
X43944285Y-27285714D01*
X44001428Y-27228571D01*
X44058571Y-27114285D01*
X44115714Y-26885714D01*
X44115714Y-26600000D01*
X44058571Y-26371428D01*
X44001428Y-26257142D01*
X43944285Y-26200000D01*
X43829999Y-26142857D01*
X42972857Y-26257142D02*
X42915714Y-26200000D01*
X42801428Y-26142857D01*
X42515714Y-26142857D01*
X42401428Y-26200000D01*
X42344285Y-26257142D01*
X42287142Y-26371428D01*
X42287142Y-26485714D01*
X42344285Y-26657142D01*
X43029999Y-27342857D01*
X42287142Y-27342857D01*
X41829999Y-26257142D02*
X41772857Y-26200000D01*
X41658571Y-26142857D01*
X41372857Y-26142857D01*
X41258571Y-26200000D01*
X41201428Y-26257142D01*
X41144285Y-26371428D01*
X41144285Y-26485714D01*
X41201428Y-26657142D01*
X41887142Y-27342857D01*
X41144285Y-27342857D01*
X39772857Y-26085714D02*
X40801428Y-27628571D01*
X39144285Y-26142857D02*
X39029999Y-26142857D01*
X38915714Y-26200000D01*
X38858571Y-26257142D01*
X38801428Y-26371428D01*
X38744285Y-26600000D01*
X38744285Y-26885714D01*
X38801428Y-27114285D01*
X38858571Y-27228571D01*
X38915714Y-27285714D01*
X39029999Y-27342857D01*
X39144285Y-27342857D01*
X39258571Y-27285714D01*
X39315714Y-27228571D01*
X39372857Y-27114285D01*
X39429999Y-26885714D01*
X39429999Y-26600000D01*
X39372857Y-26371428D01*
X39315714Y-26257142D01*
X39258571Y-26200000D01*
X39144285Y-26142857D01*
X37715714Y-26142857D02*
X37944285Y-26142857D01*
X38058571Y-26200000D01*
X38115714Y-26257142D01*
X38229999Y-26428571D01*
X38287142Y-26657142D01*
X38287142Y-27114285D01*
X38229999Y-27228571D01*
X38172857Y-27285714D01*
X38058571Y-27342857D01*
X37829999Y-27342857D01*
X37715714Y-27285714D01*
X37658571Y-27228571D01*
X37601428Y-27114285D01*
X37601428Y-26828571D01*
X37658571Y-26714285D01*
X37715714Y-26657142D01*
X37829999Y-26600000D01*
X38058571Y-26600000D01*
X38172857Y-26657142D01*
X38229999Y-26714285D01*
X38287142Y-26828571D01*
X67258571Y-26257142D02*
X67201428Y-26200000D01*
X67087142Y-26142857D01*
X66801428Y-26142857D01*
X66687142Y-26200000D01*
X66629999Y-26257142D01*
X66572857Y-26371428D01*
X66572857Y-26485714D01*
X66629999Y-26657142D01*
X67315714Y-27342857D01*
X66572857Y-27342857D01*
X65829999Y-26142857D02*
X65715714Y-26142857D01*
X65601428Y-26200000D01*
X65544285Y-26257142D01*
X65487142Y-26371428D01*
X65429999Y-26600000D01*
X65429999Y-26885714D01*
X65487142Y-27114285D01*
X65544285Y-27228571D01*
X65601428Y-27285714D01*
X65715714Y-27342857D01*
X65829999Y-27342857D01*
X65944285Y-27285714D01*
X66001428Y-27228571D01*
X66058571Y-27114285D01*
X66115714Y-26885714D01*
X66115714Y-26600000D01*
X66058571Y-26371428D01*
X66001428Y-26257142D01*
X65944285Y-26200000D01*
X65829999Y-26142857D01*
X64972857Y-26257142D02*
X64915714Y-26200000D01*
X64801428Y-26142857D01*
X64515714Y-26142857D01*
X64401428Y-26200000D01*
X64344285Y-26257142D01*
X64287142Y-26371428D01*
X64287142Y-26485714D01*
X64344285Y-26657142D01*
X65029999Y-27342857D01*
X64287142Y-27342857D01*
X63829999Y-26257142D02*
X63772857Y-26200000D01*
X63658571Y-26142857D01*
X63372857Y-26142857D01*
X63258571Y-26200000D01*
X63201428Y-26257142D01*
X63144285Y-26371428D01*
X63144285Y-26485714D01*
X63201428Y-26657142D01*
X63887142Y-27342857D01*
X63144285Y-27342857D01*
X61772857Y-26085714D02*
X62801428Y-27628571D01*
X61144285Y-26142857D02*
X61029999Y-26142857D01*
X60915714Y-26200000D01*
X60858571Y-26257142D01*
X60801428Y-26371428D01*
X60744285Y-26600000D01*
X60744285Y-26885714D01*
X60801428Y-27114285D01*
X60858571Y-27228571D01*
X60915714Y-27285714D01*
X61029999Y-27342857D01*
X61144285Y-27342857D01*
X61258571Y-27285714D01*
X61315714Y-27228571D01*
X61372857Y-27114285D01*
X61429999Y-26885714D01*
X61429999Y-26600000D01*
X61372857Y-26371428D01*
X61315714Y-26257142D01*
X61258571Y-26200000D01*
X61144285Y-26142857D01*
X59715714Y-26142857D02*
X59944285Y-26142857D01*
X60058571Y-26200000D01*
X60115714Y-26257142D01*
X60229999Y-26428571D01*
X60287142Y-26657142D01*
X60287142Y-27114285D01*
X60229999Y-27228571D01*
X60172857Y-27285714D01*
X60058571Y-27342857D01*
X59829999Y-27342857D01*
X59715714Y-27285714D01*
X59658571Y-27228571D01*
X59601428Y-27114285D01*
X59601428Y-26828571D01*
X59658571Y-26714285D01*
X59715714Y-26657142D01*
X59829999Y-26600000D01*
X60058571Y-26600000D01*
X60172857Y-26657142D01*
X60229999Y-26714285D01*
X60287142Y-26828571D01*
X89258571Y-26257142D02*
X89201428Y-26200000D01*
X89087142Y-26142857D01*
X88801428Y-26142857D01*
X88687142Y-26200000D01*
X88629999Y-26257142D01*
X88572857Y-26371428D01*
X88572857Y-26485714D01*
X88629999Y-26657142D01*
X89315714Y-27342857D01*
X88572857Y-27342857D01*
X87829999Y-26142857D02*
X87715714Y-26142857D01*
X87601428Y-26200000D01*
X87544285Y-26257142D01*
X87487142Y-26371428D01*
X87429999Y-26600000D01*
X87429999Y-26885714D01*
X87487142Y-27114285D01*
X87544285Y-27228571D01*
X87601428Y-27285714D01*
X87715714Y-27342857D01*
X87829999Y-27342857D01*
X87944285Y-27285714D01*
X88001428Y-27228571D01*
X88058571Y-27114285D01*
X88115714Y-26885714D01*
X88115714Y-26600000D01*
X88058571Y-26371428D01*
X88001428Y-26257142D01*
X87944285Y-26200000D01*
X87829999Y-26142857D01*
X86972857Y-26257142D02*
X86915714Y-26200000D01*
X86801428Y-26142857D01*
X86515714Y-26142857D01*
X86401428Y-26200000D01*
X86344285Y-26257142D01*
X86287142Y-26371428D01*
X86287142Y-26485714D01*
X86344285Y-26657142D01*
X87029999Y-27342857D01*
X86287142Y-27342857D01*
X85829999Y-26257142D02*
X85772857Y-26200000D01*
X85658571Y-26142857D01*
X85372857Y-26142857D01*
X85258571Y-26200000D01*
X85201428Y-26257142D01*
X85144285Y-26371428D01*
X85144285Y-26485714D01*
X85201428Y-26657142D01*
X85887142Y-27342857D01*
X85144285Y-27342857D01*
X83772857Y-26085714D02*
X84801428Y-27628571D01*
X83144285Y-26142857D02*
X83029999Y-26142857D01*
X82915714Y-26200000D01*
X82858571Y-26257142D01*
X82801428Y-26371428D01*
X82744285Y-26600000D01*
X82744285Y-26885714D01*
X82801428Y-27114285D01*
X82858571Y-27228571D01*
X82915714Y-27285714D01*
X83029999Y-27342857D01*
X83144285Y-27342857D01*
X83258571Y-27285714D01*
X83315714Y-27228571D01*
X83372857Y-27114285D01*
X83429999Y-26885714D01*
X83429999Y-26600000D01*
X83372857Y-26371428D01*
X83315714Y-26257142D01*
X83258571Y-26200000D01*
X83144285Y-26142857D01*
X81715714Y-26142857D02*
X81944285Y-26142857D01*
X82058571Y-26200000D01*
X82115714Y-26257142D01*
X82229999Y-26428571D01*
X82287142Y-26657142D01*
X82287142Y-27114285D01*
X82229999Y-27228571D01*
X82172857Y-27285714D01*
X82058571Y-27342857D01*
X81829999Y-27342857D01*
X81715714Y-27285714D01*
X81658571Y-27228571D01*
X81601428Y-27114285D01*
X81601428Y-26828571D01*
X81658571Y-26714285D01*
X81715714Y-26657142D01*
X81829999Y-26600000D01*
X82058571Y-26600000D01*
X82172857Y-26657142D01*
X82229999Y-26714285D01*
X82287142Y-26828571D01*
M02*
