G04 #@! TF.GenerationSoftware,KiCad,Pcbnew,7.0.2*
G04 #@! TF.CreationDate,2024-01-09T17:33:50+01:00*
G04 #@! TF.ProjectId,MicroMatrix_Panel,4d696372-6f4d-4617-9472-69785f50616e,1.3*
G04 #@! TF.SameCoordinates,Original*
G04 #@! TF.FileFunction,Copper,L2,Bot*
G04 #@! TF.FilePolarity,Positive*
%FSLAX46Y46*%
G04 Gerber Fmt 4.6, Leading zero omitted, Abs format (unit mm)*
G04 Created by KiCad (PCBNEW 7.0.2) date 2024-01-09 17:33:50*
%MOMM*%
%LPD*%
G01*
G04 APERTURE LIST*
G04 #@! TA.AperFunction,SMDPad,CuDef*
%ADD10R,5.080000X2.540000*%
G04 #@! TD*
G04 #@! TA.AperFunction,SMDPad,CuDef*
%ADD11C,2.000000*%
G04 #@! TD*
G04 #@! TA.AperFunction,ViaPad*
%ADD12C,0.600000*%
G04 #@! TD*
G04 #@! TA.AperFunction,ViaPad*
%ADD13C,0.500000*%
G04 #@! TD*
G04 #@! TA.AperFunction,Conductor*
%ADD14C,0.500000*%
G04 #@! TD*
G04 #@! TA.AperFunction,Conductor*
%ADD15C,0.250000*%
G04 #@! TD*
G04 APERTURE END LIST*
D10*
G04 #@! TO.P,,1*
G04 #@! TO.N,Board_2-GND*
X46500000Y-21500000D03*
G04 #@! TD*
G04 #@! TO.P,,1*
G04 #@! TO.N,Board_1-GND*
X24500000Y-21500000D03*
G04 #@! TD*
G04 #@! TO.P,,1*
G04 #@! TO.N,Board_3-+5V*
X68500000Y-14500000D03*
G04 #@! TD*
G04 #@! TO.P,,1*
G04 #@! TO.N,Board_1-+5V*
X24500000Y-14500000D03*
G04 #@! TD*
G04 #@! TO.P,,1*
G04 #@! TO.N,Board_2-DOUT*
X61500000Y-18000000D03*
G04 #@! TD*
G04 #@! TO.P,,1*
G04 #@! TO.N,Board_3-GND*
X68500000Y-21500000D03*
G04 #@! TD*
G04 #@! TO.P,,1*
G04 #@! TO.N,Board_2-GND*
X61500000Y-21500000D03*
G04 #@! TD*
G04 #@! TO.P,,1*
G04 #@! TO.N,Board_0-GND*
X2500000Y-21500000D03*
G04 #@! TD*
G04 #@! TO.P,,1*
G04 #@! TO.N,Board_0-+5V*
X17500000Y-14500000D03*
G04 #@! TD*
G04 #@! TO.P,,1*
G04 #@! TO.N,Board_1-GND*
X39500000Y-21500000D03*
G04 #@! TD*
G04 #@! TO.P,,1*
G04 #@! TO.N,Board_3-DIN*
X68500000Y-18000000D03*
G04 #@! TD*
G04 #@! TO.P,,1*
G04 #@! TO.N,Board_0-DIN*
X2500000Y-18000000D03*
G04 #@! TD*
G04 #@! TO.P,,1*
G04 #@! TO.N,Board_0-DOUT*
X17500000Y-18000000D03*
G04 #@! TD*
G04 #@! TO.P,,1*
G04 #@! TO.N,Board_1-DIN*
X24500000Y-18000000D03*
G04 #@! TD*
G04 #@! TO.P,,1*
G04 #@! TO.N,Board_2-+5V*
X61500000Y-14500000D03*
G04 #@! TD*
G04 #@! TO.P,,1*
G04 #@! TO.N,Board_3-+5V*
X83500000Y-14500000D03*
G04 #@! TD*
G04 #@! TO.P,,1*
G04 #@! TO.N,Board_0-+5V*
X2500000Y-14500000D03*
G04 #@! TD*
G04 #@! TO.P,,1*
G04 #@! TO.N,Board_1-DOUT*
X39500000Y-18000000D03*
G04 #@! TD*
G04 #@! TO.P,,1*
G04 #@! TO.N,Board_2-+5V*
X46500000Y-14500000D03*
G04 #@! TD*
G04 #@! TO.P,,1*
G04 #@! TO.N,Board_3-GND*
X83500000Y-21500000D03*
G04 #@! TD*
G04 #@! TO.P,,1*
G04 #@! TO.N,Board_0-GND*
X17500000Y-21500000D03*
G04 #@! TD*
G04 #@! TO.P,,1*
G04 #@! TO.N,Board_3-DOUT*
X83500000Y-18000000D03*
G04 #@! TD*
G04 #@! TO.P,,1*
G04 #@! TO.N,Board_2-DIN*
X46500000Y-18000000D03*
G04 #@! TD*
G04 #@! TO.P,,1*
G04 #@! TO.N,Board_1-+5V*
X39500000Y-14500000D03*
G04 #@! TD*
D11*
G04 #@! TO.P,REF\u002A\u002A,*
G04 #@! TO.N,*
X81000000Y-2500000D03*
G04 #@! TD*
G04 #@! TO.P,REF\u002A\u002A,*
G04 #@! TO.N,*
X5000000Y-2500000D03*
G04 #@! TD*
G04 #@! TO.P,REF\u002A\u002A,*
G04 #@! TO.N,*
X5000000Y-33500000D03*
G04 #@! TD*
D12*
G04 #@! TO.N,Board_0-+5V*
X6050000Y-10250000D03*
X13550000Y-15250000D03*
X6050000Y-15250000D03*
X8550000Y-25250000D03*
X13550000Y-10250000D03*
X8550000Y-20250000D03*
X3550000Y-10250000D03*
X16050000Y-10250000D03*
D13*
G04 #@! TO.N,Board_0-DIN*
X325000Y-16250000D03*
D12*
G04 #@! TO.N,Board_0-DOUT*
X400000Y-26950000D03*
G04 #@! TO.N,Board_0-GND*
X14450000Y-22750000D03*
X2600000Y-8500000D03*
X6950000Y-12750000D03*
X4450000Y-12725000D03*
X5250000Y-27500000D03*
X13550000Y-22750000D03*
X17750000Y-27500000D03*
X18250000Y-12725000D03*
X17600000Y-8500000D03*
X11950000Y-22700000D03*
X12600000Y-8500000D03*
X14450000Y-17700000D03*
X9450000Y-12750000D03*
X10100000Y-8500000D03*
X6950000Y-22750000D03*
X9450000Y-17700000D03*
X16450000Y-12725000D03*
X10250000Y-27500000D03*
X11950000Y-17700000D03*
X9450000Y-22750000D03*
X7750000Y-27500000D03*
X15100000Y-8500000D03*
X2750000Y-27500000D03*
X7000000Y-17700000D03*
D13*
X19680000Y-8320000D03*
D12*
X19450000Y-12725000D03*
X15250000Y-27500000D03*
X7600000Y-8500000D03*
X5100000Y-8500000D03*
X11950000Y-12750000D03*
X5650000Y-22750000D03*
X1950000Y-12725000D03*
X12750000Y-27500000D03*
X14450000Y-12750000D03*
G04 #@! TO.N,Board_1-+5V*
X28050000Y-10250000D03*
X30550000Y-25250000D03*
X28050000Y-15250000D03*
X25550000Y-10250000D03*
X30550000Y-20250000D03*
X38050000Y-10250000D03*
X35550000Y-10250000D03*
X35550000Y-15250000D03*
D13*
G04 #@! TO.N,Board_1-DIN*
X22325000Y-16250000D03*
D12*
G04 #@! TO.N,Board_1-DOUT*
X22400000Y-26950000D03*
G04 #@! TO.N,Board_1-GND*
X27650000Y-22750000D03*
X24600000Y-8500000D03*
X33950000Y-12750000D03*
X27100000Y-8500000D03*
X38450000Y-12725000D03*
X29600000Y-8500000D03*
X37250000Y-27500000D03*
X39600000Y-8500000D03*
X36450000Y-22750000D03*
X39750000Y-27500000D03*
X41450000Y-12725000D03*
X33950000Y-22700000D03*
X31450000Y-17700000D03*
X34750000Y-27500000D03*
X36450000Y-17700000D03*
X36450000Y-12750000D03*
X27250000Y-27500000D03*
X40250000Y-12725000D03*
X34600000Y-8500000D03*
X32250000Y-27500000D03*
X29750000Y-27500000D03*
X32100000Y-8500000D03*
X33950000Y-17700000D03*
X28950000Y-22750000D03*
D13*
X41680000Y-8320000D03*
D12*
X26450000Y-12725000D03*
X24750000Y-27500000D03*
X35550000Y-22750000D03*
X31450000Y-22750000D03*
X29000000Y-17700000D03*
X37100000Y-8500000D03*
X28950000Y-12750000D03*
X31450000Y-12750000D03*
X23950000Y-12725000D03*
G04 #@! TO.N,Board_2-+5V*
X52550000Y-25250000D03*
X47550000Y-10250000D03*
X57550000Y-15250000D03*
X52550000Y-20250000D03*
X50050000Y-15250000D03*
X57550000Y-10250000D03*
X60050000Y-10250000D03*
X50050000Y-10250000D03*
D13*
G04 #@! TO.N,Board_2-DIN*
X44325000Y-16250000D03*
D12*
G04 #@! TO.N,Board_2-DOUT*
X44400000Y-26950000D03*
G04 #@! TO.N,Board_2-GND*
X56600000Y-8500000D03*
X55950000Y-17700000D03*
X49650000Y-22750000D03*
X61750000Y-27500000D03*
X60450000Y-12725000D03*
X58450000Y-17700000D03*
X53450000Y-12750000D03*
X58450000Y-22750000D03*
X58450000Y-12750000D03*
X48450000Y-12725000D03*
X45950000Y-12725000D03*
X50950000Y-22750000D03*
X54100000Y-8500000D03*
X51000000Y-17700000D03*
X57550000Y-22750000D03*
X51600000Y-8500000D03*
X61600000Y-8500000D03*
X55950000Y-12750000D03*
X55950000Y-22700000D03*
X54250000Y-27500000D03*
X63450000Y-12725000D03*
X53450000Y-22750000D03*
X46750000Y-27500000D03*
X49250000Y-27500000D03*
X59100000Y-8500000D03*
D13*
X63680000Y-8320000D03*
D12*
X53450000Y-17700000D03*
X51750000Y-27500000D03*
X56750000Y-27500000D03*
X46600000Y-8500000D03*
X50950000Y-12750000D03*
X62250000Y-12725000D03*
X59250000Y-27500000D03*
X49100000Y-8500000D03*
G04 #@! TO.N,Board_3-+5V*
X69550000Y-10250000D03*
X74550000Y-25250000D03*
X72050000Y-10250000D03*
X72050000Y-15250000D03*
X74550000Y-20250000D03*
X79550000Y-15250000D03*
X82050000Y-10250000D03*
X79550000Y-10250000D03*
D13*
G04 #@! TO.N,Board_3-DIN*
X66325000Y-16250000D03*
D12*
G04 #@! TO.N,Board_3-DOUT*
X66400000Y-26950000D03*
G04 #@! TO.N,Board_3-GND*
X72950000Y-22750000D03*
X72950000Y-12750000D03*
D13*
X85680000Y-8320000D03*
D12*
X80450000Y-22750000D03*
X70450000Y-12725000D03*
X77950000Y-12750000D03*
X75450000Y-22750000D03*
X68750000Y-27500000D03*
X73000000Y-17700000D03*
X77950000Y-22700000D03*
X76250000Y-27500000D03*
X75450000Y-12750000D03*
X78750000Y-27500000D03*
X73600000Y-8500000D03*
X82450000Y-12725000D03*
X81100000Y-8500000D03*
X78600000Y-8500000D03*
X84250000Y-12725000D03*
X67950000Y-12725000D03*
X81250000Y-27500000D03*
X71650000Y-22750000D03*
X71250000Y-27500000D03*
X73750000Y-27500000D03*
X79550000Y-22750000D03*
X71100000Y-8500000D03*
X80450000Y-17700000D03*
X83600000Y-8500000D03*
X83750000Y-27500000D03*
X76100000Y-8500000D03*
X75450000Y-17700000D03*
X68600000Y-8500000D03*
X85450000Y-12725000D03*
X80450000Y-12750000D03*
X77950000Y-17700000D03*
G04 #@! TD*
D14*
G04 #@! TO.N,Board_0-+5V*
X8550000Y-17700000D02*
X6100000Y-15250000D01*
X17500000Y-11700000D02*
X17500000Y-14500000D01*
X14300000Y-14500000D02*
X17500000Y-14500000D01*
X2750000Y-11050000D02*
X2750000Y-14250000D01*
X8550000Y-20250000D02*
X8550000Y-17700000D01*
D15*
X2750000Y-14250000D02*
X2500000Y-14500000D01*
D14*
X6100000Y-15250000D02*
X6050000Y-15250000D01*
X16050000Y-10250000D02*
X17500000Y-11700000D01*
X6050000Y-15250000D02*
X5300000Y-14500000D01*
X3550000Y-10250000D02*
X2750000Y-11050000D01*
X3550000Y-10250000D02*
X6050000Y-10250000D01*
X5300000Y-14500000D02*
X2500000Y-14500000D01*
X16050000Y-10250000D02*
X13550000Y-10250000D01*
X13550000Y-15250000D02*
X14300000Y-14500000D01*
X8550000Y-20250000D02*
X8550000Y-25250000D01*
D15*
G04 #@! TO.N,Board_0-DIN*
X325000Y-17075000D02*
X1750000Y-18500000D01*
X1125000Y-18000000D02*
X325000Y-17200000D01*
X325000Y-16250000D02*
X325000Y-17075000D01*
X2500000Y-18000000D02*
X950000Y-18000000D01*
X2500000Y-18000000D02*
X1125000Y-18000000D01*
G04 #@! TO.N,Board_0-DOUT*
X12725000Y-18000000D02*
X12725000Y-25150000D01*
X13775000Y-16950000D02*
X12725000Y-18000000D01*
X11375000Y-26500000D02*
X850000Y-26500000D01*
X850000Y-26500000D02*
X400000Y-26950000D01*
X16450000Y-16950000D02*
X13775000Y-16950000D01*
X12725000Y-25150000D02*
X11375000Y-26500000D01*
X17500000Y-18000000D02*
X16450000Y-16950000D01*
D14*
G04 #@! TO.N,Board_1-+5V*
X35550000Y-15250000D02*
X36300000Y-14500000D01*
X38050000Y-10250000D02*
X35550000Y-10250000D01*
X25550000Y-10250000D02*
X24750000Y-11050000D01*
X28100000Y-15250000D02*
X28050000Y-15250000D01*
X30550000Y-20250000D02*
X30550000Y-17700000D01*
X27300000Y-14500000D02*
X24500000Y-14500000D01*
X30550000Y-17700000D02*
X28100000Y-15250000D01*
X38050000Y-10250000D02*
X39500000Y-11700000D01*
X24750000Y-11050000D02*
X24750000Y-14250000D01*
X39500000Y-11700000D02*
X39500000Y-14500000D01*
D15*
X24750000Y-14250000D02*
X24500000Y-14500000D01*
D14*
X30550000Y-20250000D02*
X30550000Y-25250000D01*
X36300000Y-14500000D02*
X39500000Y-14500000D01*
X28050000Y-15250000D02*
X27300000Y-14500000D01*
X25550000Y-10250000D02*
X28050000Y-10250000D01*
D15*
G04 #@! TO.N,Board_1-DIN*
X24500000Y-18000000D02*
X22950000Y-18000000D01*
X23125000Y-18000000D02*
X22325000Y-17200000D01*
X22325000Y-16250000D02*
X22325000Y-17075000D01*
X24500000Y-18000000D02*
X23125000Y-18000000D01*
X22325000Y-17075000D02*
X23750000Y-18500000D01*
G04 #@! TO.N,Board_1-DOUT*
X34725000Y-18000000D02*
X34725000Y-25150000D01*
X33375000Y-26500000D02*
X22850000Y-26500000D01*
X35775000Y-16950000D02*
X34725000Y-18000000D01*
X38450000Y-16950000D02*
X35775000Y-16950000D01*
X22850000Y-26500000D02*
X22400000Y-26950000D01*
X34725000Y-25150000D02*
X33375000Y-26500000D01*
X39500000Y-18000000D02*
X38450000Y-16950000D01*
D14*
G04 #@! TO.N,Board_2-+5V*
X47550000Y-10250000D02*
X46750000Y-11050000D01*
X50100000Y-15250000D02*
X50050000Y-15250000D01*
X60050000Y-10250000D02*
X61500000Y-11700000D01*
X47550000Y-10250000D02*
X50050000Y-10250000D01*
X57550000Y-15250000D02*
X58300000Y-14500000D01*
X46750000Y-11050000D02*
X46750000Y-14250000D01*
X52550000Y-20250000D02*
X52550000Y-17700000D01*
X50050000Y-15250000D02*
X49300000Y-14500000D01*
X49300000Y-14500000D02*
X46500000Y-14500000D01*
X52550000Y-17700000D02*
X50100000Y-15250000D01*
X61500000Y-11700000D02*
X61500000Y-14500000D01*
X60050000Y-10250000D02*
X57550000Y-10250000D01*
X52550000Y-20250000D02*
X52550000Y-25250000D01*
X58300000Y-14500000D02*
X61500000Y-14500000D01*
D15*
X46750000Y-14250000D02*
X46500000Y-14500000D01*
G04 #@! TO.N,Board_2-DIN*
X45125000Y-18000000D02*
X44325000Y-17200000D01*
X44325000Y-17075000D02*
X45750000Y-18500000D01*
X46500000Y-18000000D02*
X44950000Y-18000000D01*
X46500000Y-18000000D02*
X45125000Y-18000000D01*
X44325000Y-16250000D02*
X44325000Y-17075000D01*
G04 #@! TO.N,Board_2-DOUT*
X56725000Y-25150000D02*
X55375000Y-26500000D01*
X44850000Y-26500000D02*
X44400000Y-26950000D01*
X55375000Y-26500000D02*
X44850000Y-26500000D01*
X57775000Y-16950000D02*
X56725000Y-18000000D01*
X61500000Y-18000000D02*
X60450000Y-16950000D01*
X60450000Y-16950000D02*
X57775000Y-16950000D01*
X56725000Y-18000000D02*
X56725000Y-25150000D01*
D14*
G04 #@! TO.N,Board_3-+5V*
X68750000Y-11050000D02*
X68750000Y-14250000D01*
D15*
X68750000Y-14250000D02*
X68500000Y-14500000D01*
D14*
X74550000Y-20250000D02*
X74550000Y-25250000D01*
X69550000Y-10250000D02*
X72050000Y-10250000D01*
X79550000Y-15250000D02*
X80300000Y-14500000D01*
X82050000Y-10250000D02*
X83500000Y-11700000D01*
X74550000Y-20250000D02*
X74550000Y-17700000D01*
X74550000Y-17700000D02*
X72100000Y-15250000D01*
X72050000Y-15250000D02*
X71300000Y-14500000D01*
X69550000Y-10250000D02*
X68750000Y-11050000D01*
X82050000Y-10250000D02*
X79550000Y-10250000D01*
X72100000Y-15250000D02*
X72050000Y-15250000D01*
X71300000Y-14500000D02*
X68500000Y-14500000D01*
X83500000Y-11700000D02*
X83500000Y-14500000D01*
X80300000Y-14500000D02*
X83500000Y-14500000D01*
D15*
G04 #@! TO.N,Board_3-DIN*
X68500000Y-18000000D02*
X66950000Y-18000000D01*
X66325000Y-16250000D02*
X66325000Y-17075000D01*
X66325000Y-17075000D02*
X67750000Y-18500000D01*
X68500000Y-18000000D02*
X67125000Y-18000000D01*
X67125000Y-18000000D02*
X66325000Y-17200000D01*
G04 #@! TO.N,Board_3-DOUT*
X79775000Y-16950000D02*
X78725000Y-18000000D01*
X77375000Y-26500000D02*
X66850000Y-26500000D01*
X66850000Y-26500000D02*
X66400000Y-26950000D01*
X78725000Y-25150000D02*
X77375000Y-26500000D01*
X78725000Y-18000000D02*
X78725000Y-25150000D01*
X82450000Y-16950000D02*
X79775000Y-16950000D01*
X83500000Y-18000000D02*
X82450000Y-16950000D01*
G04 #@! TD*
G04 #@! TA.AperFunction,Conductor*
G04 #@! TO.N,Board_0-GND*
G36*
X19941621Y-8020502D02*
G01*
X19988114Y-8074158D01*
X19999500Y-8126500D01*
X19999500Y-12903500D01*
X19979498Y-12971621D01*
X19925842Y-13018114D01*
X19873500Y-13029500D01*
X18076500Y-13029500D01*
X18008379Y-13009498D01*
X17961886Y-12955842D01*
X17950500Y-12903500D01*
X17950500Y-11732377D01*
X17951292Y-11718270D01*
X17955270Y-11682965D01*
X17944650Y-11626839D01*
X17943861Y-11622196D01*
X17935348Y-11565713D01*
X17935346Y-11565710D01*
X17934417Y-11559543D01*
X17932935Y-11555040D01*
X17930024Y-11549533D01*
X17930024Y-11549529D01*
X17903314Y-11498992D01*
X17901196Y-11494796D01*
X17873722Y-11437746D01*
X17870968Y-11433865D01*
X17866566Y-11429463D01*
X17826163Y-11389060D01*
X17822947Y-11385722D01*
X17784055Y-11343806D01*
X17784051Y-11343804D01*
X17779816Y-11339239D01*
X17764881Y-11327778D01*
X16543271Y-10106168D01*
X16517753Y-10069416D01*
X16475377Y-9976628D01*
X16475377Y-9976627D01*
X16381128Y-9867857D01*
X16381127Y-9867856D01*
X16381126Y-9867855D01*
X16260053Y-9790047D01*
X16121962Y-9749500D01*
X16121961Y-9749500D01*
X15978039Y-9749500D01*
X15978038Y-9749500D01*
X15825135Y-9794396D01*
X15789637Y-9799500D01*
X13810363Y-9799500D01*
X13774865Y-9794396D01*
X13621962Y-9749500D01*
X13621961Y-9749500D01*
X13478039Y-9749500D01*
X13478038Y-9749500D01*
X13339946Y-9790047D01*
X13218873Y-9867855D01*
X13124622Y-9976628D01*
X13064834Y-10107543D01*
X13044352Y-10249999D01*
X13064834Y-10392456D01*
X13124622Y-10523371D01*
X13124623Y-10523373D01*
X13218872Y-10632143D01*
X13218873Y-10632144D01*
X13279409Y-10671048D01*
X13339947Y-10709953D01*
X13437490Y-10738594D01*
X13478038Y-10750500D01*
X13478039Y-10750500D01*
X13621962Y-10750500D01*
X13774865Y-10705604D01*
X13810363Y-10700500D01*
X15789635Y-10700500D01*
X15825129Y-10705603D01*
X15854162Y-10714126D01*
X15855661Y-10714567D01*
X15855665Y-10714568D01*
X15909266Y-10746370D01*
X17012595Y-11849698D01*
X17046620Y-11912010D01*
X17049500Y-11938793D01*
X17049500Y-12903500D01*
X17029498Y-12971621D01*
X16975842Y-13018114D01*
X16923500Y-13029500D01*
X14940252Y-13029500D01*
X14911010Y-13035316D01*
X14881768Y-13041133D01*
X14815447Y-13085447D01*
X14771133Y-13151768D01*
X14759500Y-13210253D01*
X14759500Y-13923500D01*
X14739498Y-13991621D01*
X14685842Y-14038114D01*
X14633500Y-14049500D01*
X14332378Y-14049500D01*
X14318272Y-14048708D01*
X14282965Y-14044730D01*
X14282964Y-14044730D01*
X14226832Y-14055350D01*
X14222191Y-14056138D01*
X14159560Y-14065579D01*
X14155028Y-14067070D01*
X14149527Y-14069977D01*
X14149528Y-14069977D01*
X14099020Y-14096671D01*
X14094828Y-14098787D01*
X14037756Y-14126272D01*
X14033858Y-14129038D01*
X13989072Y-14173823D01*
X13985681Y-14177089D01*
X13939244Y-14220176D01*
X13927780Y-14235115D01*
X13409266Y-14753629D01*
X13355671Y-14785430D01*
X13339946Y-14790047D01*
X13218872Y-14867856D01*
X13124622Y-14976628D01*
X13064834Y-15107543D01*
X13044352Y-15250000D01*
X13064834Y-15392456D01*
X13124622Y-15523371D01*
X13124623Y-15523373D01*
X13218872Y-15632143D01*
X13218873Y-15632144D01*
X13279409Y-15671048D01*
X13339947Y-15709953D01*
X13426449Y-15735352D01*
X13478038Y-15750500D01*
X13478039Y-15750500D01*
X13621962Y-15750500D01*
X13653305Y-15741296D01*
X13760053Y-15709953D01*
X13881128Y-15632143D01*
X13975377Y-15523373D01*
X14017751Y-15430585D01*
X14043266Y-15393835D01*
X14449698Y-14987404D01*
X14512011Y-14953379D01*
X14538794Y-14950500D01*
X14633500Y-14950500D01*
X14701621Y-14970502D01*
X14748114Y-15024158D01*
X14759500Y-15076500D01*
X14759500Y-15789746D01*
X14771133Y-15848231D01*
X14815447Y-15914552D01*
X14859762Y-15944162D01*
X14881769Y-15958867D01*
X14940252Y-15970500D01*
X19873500Y-15970500D01*
X19941621Y-15990502D01*
X19988114Y-16044158D01*
X19999500Y-16096500D01*
X19999500Y-16403500D01*
X19979498Y-16471621D01*
X19925842Y-16518114D01*
X19873500Y-16529500D01*
X14940252Y-16529500D01*
X14911010Y-16535316D01*
X14881768Y-16541133D01*
X14794609Y-16599372D01*
X14792898Y-16596811D01*
X14772299Y-16614028D01*
X14722006Y-16624500D01*
X13794713Y-16624500D01*
X13783732Y-16624021D01*
X13774198Y-16623186D01*
X13746193Y-16620737D01*
X13746192Y-16620737D01*
X13709798Y-16630488D01*
X13699074Y-16632865D01*
X13660742Y-16639625D01*
X13636323Y-16649740D01*
X13604444Y-16672061D01*
X13595181Y-16677962D01*
X13562546Y-16696805D01*
X13538319Y-16725676D01*
X13530895Y-16733776D01*
X12508786Y-17755886D01*
X12500685Y-17763310D01*
X12471806Y-17787543D01*
X12452963Y-17820179D01*
X12447062Y-17829441D01*
X12424741Y-17861320D01*
X12414625Y-17885742D01*
X12407869Y-17924054D01*
X12405491Y-17934780D01*
X12395735Y-17971191D01*
X12399020Y-18008725D01*
X12399500Y-18019709D01*
X12399500Y-24962983D01*
X12379498Y-25031104D01*
X12362595Y-25052078D01*
X11277079Y-26137595D01*
X11214767Y-26171620D01*
X11187984Y-26174500D01*
X869713Y-26174500D01*
X858732Y-26174021D01*
X831286Y-26171620D01*
X821193Y-26170737D01*
X821192Y-26170737D01*
X784798Y-26180488D01*
X774074Y-26182865D01*
X735742Y-26189625D01*
X711320Y-26199741D01*
X679441Y-26222062D01*
X670179Y-26227963D01*
X637545Y-26246805D01*
X613320Y-26275675D01*
X605896Y-26283776D01*
X477079Y-26412595D01*
X414767Y-26446620D01*
X387983Y-26449500D01*
X328038Y-26449500D01*
X243034Y-26474459D01*
X189947Y-26490047D01*
X189946Y-26490047D01*
X172565Y-26495151D01*
X172124Y-26493649D01*
X126492Y-26507045D01*
X58372Y-26487038D01*
X11883Y-26433380D01*
X500Y-26381045D01*
X500Y-23149999D01*
X20502Y-23081878D01*
X74158Y-23035385D01*
X126500Y-23023999D01*
X2373000Y-23023999D01*
X2373000Y-21627000D01*
X2627000Y-21627000D01*
X2627000Y-23023999D01*
X5065018Y-23023999D01*
X5139105Y-23009263D01*
X5223124Y-22953123D01*
X5279263Y-22869106D01*
X5294000Y-22795018D01*
X5294000Y-21627000D01*
X2627000Y-21627000D01*
X2373000Y-21627000D01*
X2373000Y-19976000D01*
X2627000Y-19976000D01*
X2627000Y-21373000D01*
X5293999Y-21373000D01*
X5293999Y-20204981D01*
X5279263Y-20130894D01*
X5223123Y-20046875D01*
X5139106Y-19990736D01*
X5065019Y-19976000D01*
X2627000Y-19976000D01*
X2373000Y-19976000D01*
X126500Y-19976000D01*
X58379Y-19955998D01*
X11886Y-19902342D01*
X500Y-19850000D01*
X500Y-19596500D01*
X20502Y-19528379D01*
X74158Y-19481886D01*
X126500Y-19470500D01*
X5059747Y-19470500D01*
X5059748Y-19470500D01*
X5118231Y-19458867D01*
X5184552Y-19414552D01*
X5228867Y-19348231D01*
X5240500Y-19289748D01*
X5240500Y-16710252D01*
X5228867Y-16651769D01*
X5192145Y-16596811D01*
X5184552Y-16585447D01*
X5118231Y-16541133D01*
X5118230Y-16541133D01*
X5059748Y-16529500D01*
X5059747Y-16529500D01*
X885359Y-16529500D01*
X817238Y-16509498D01*
X770745Y-16455842D01*
X760641Y-16385568D01*
X760642Y-16385568D01*
X780133Y-16250000D01*
X760642Y-16114432D01*
X770745Y-16044158D01*
X817238Y-15990502D01*
X885359Y-15970500D01*
X5059747Y-15970500D01*
X5059748Y-15970500D01*
X5118231Y-15958867D01*
X5184552Y-15914552D01*
X5228867Y-15848231D01*
X5240500Y-15789748D01*
X5240500Y-15381793D01*
X5260502Y-15313672D01*
X5314158Y-15267179D01*
X5384432Y-15257075D01*
X5449012Y-15286569D01*
X5455595Y-15292698D01*
X5556728Y-15393831D01*
X5582246Y-15430583D01*
X5624621Y-15523371D01*
X5718873Y-15632144D01*
X5779409Y-15671048D01*
X5839947Y-15709953D01*
X5926452Y-15735352D01*
X5980049Y-15767153D01*
X8062595Y-17849698D01*
X8096620Y-17912010D01*
X8099500Y-17938793D01*
X8099500Y-20004228D01*
X8088114Y-20056570D01*
X8064834Y-20107545D01*
X8044352Y-20250000D01*
X8064834Y-20392454D01*
X8064834Y-20392455D01*
X8064835Y-20392457D01*
X8088113Y-20443428D01*
X8099500Y-20495770D01*
X8099500Y-25004228D01*
X8088114Y-25056570D01*
X8064834Y-25107545D01*
X8044352Y-25250000D01*
X8064834Y-25392456D01*
X8124622Y-25523371D01*
X8124623Y-25523373D01*
X8218872Y-25632143D01*
X8218873Y-25632144D01*
X8279409Y-25671047D01*
X8339947Y-25709953D01*
X8437491Y-25738594D01*
X8478038Y-25750500D01*
X8478039Y-25750500D01*
X8621962Y-25750500D01*
X8653305Y-25741296D01*
X8760053Y-25709953D01*
X8881128Y-25632143D01*
X8975377Y-25523373D01*
X9035165Y-25392457D01*
X9055647Y-25250000D01*
X9035165Y-25107543D01*
X9011885Y-25056569D01*
X9000500Y-25004228D01*
X9000500Y-20495770D01*
X9011886Y-20443428D01*
X9035165Y-20392457D01*
X9055647Y-20250000D01*
X9035165Y-20107543D01*
X9011885Y-20056569D01*
X9000500Y-20004228D01*
X9000500Y-17732377D01*
X9001292Y-17718270D01*
X9005270Y-17682965D01*
X8994643Y-17626805D01*
X8993860Y-17622194D01*
X8985348Y-17565713D01*
X8985347Y-17565711D01*
X8984417Y-17559540D01*
X8982939Y-17555046D01*
X8980023Y-17549529D01*
X8980023Y-17549528D01*
X8953315Y-17498996D01*
X8951209Y-17494825D01*
X8926425Y-17443358D01*
X8926422Y-17443355D01*
X8923718Y-17437739D01*
X8920974Y-17433871D01*
X8916565Y-17429462D01*
X8876163Y-17389060D01*
X8872947Y-17385722D01*
X8834055Y-17343806D01*
X8834051Y-17343804D01*
X8829816Y-17339239D01*
X8814881Y-17327778D01*
X6501243Y-15014140D01*
X6475725Y-14977388D01*
X6475378Y-14976628D01*
X6381126Y-14867855D01*
X6260053Y-14790047D01*
X6260052Y-14790046D01*
X6244327Y-14785429D01*
X6190732Y-14753629D01*
X5641451Y-14204348D01*
X5632035Y-14193813D01*
X5618698Y-14177089D01*
X5609879Y-14166030D01*
X5609878Y-14166029D01*
X5609877Y-14166028D01*
X5562657Y-14133833D01*
X5558816Y-14131108D01*
X5556011Y-14129038D01*
X5512882Y-14097207D01*
X5512880Y-14097206D01*
X5507868Y-14093507D01*
X5503620Y-14091362D01*
X5479783Y-14084009D01*
X5443041Y-14072676D01*
X5438593Y-14071212D01*
X5378831Y-14050300D01*
X5374119Y-14049500D01*
X5367902Y-14049500D01*
X5366500Y-14049500D01*
X5298379Y-14029498D01*
X5251886Y-13975842D01*
X5240500Y-13923500D01*
X5240500Y-13210253D01*
X5240500Y-13210252D01*
X5228867Y-13151769D01*
X5214162Y-13129761D01*
X5184552Y-13085447D01*
X5118231Y-13041133D01*
X5118230Y-13041133D01*
X5059748Y-13029500D01*
X5059747Y-13029500D01*
X3326500Y-13029500D01*
X3258379Y-13009498D01*
X3211886Y-12955842D01*
X3200500Y-12903500D01*
X3200500Y-11288793D01*
X3220502Y-11220672D01*
X3237400Y-11199702D01*
X3690733Y-10746368D01*
X3744332Y-10714568D01*
X3760053Y-10709953D01*
X3760053Y-10709952D01*
X3774873Y-10705602D01*
X3810365Y-10700500D01*
X5789637Y-10700500D01*
X5825135Y-10705604D01*
X5978038Y-10750500D01*
X5978039Y-10750500D01*
X6121962Y-10750500D01*
X6157309Y-10740121D01*
X6260053Y-10709953D01*
X6381128Y-10632143D01*
X6475377Y-10523373D01*
X6535165Y-10392457D01*
X6555647Y-10250000D01*
X6535165Y-10107543D01*
X6475377Y-9976627D01*
X6381128Y-9867857D01*
X6381127Y-9867856D01*
X6381126Y-9867855D01*
X6260053Y-9790047D01*
X6121962Y-9749500D01*
X6121961Y-9749500D01*
X5978039Y-9749500D01*
X5978038Y-9749500D01*
X5825135Y-9794396D01*
X5789637Y-9799500D01*
X3810363Y-9799500D01*
X3774865Y-9794396D01*
X3621962Y-9749500D01*
X3621961Y-9749500D01*
X3478039Y-9749500D01*
X3478038Y-9749500D01*
X3339946Y-9790047D01*
X3218873Y-9867855D01*
X3124621Y-9976628D01*
X3082247Y-10069414D01*
X3056729Y-10106166D01*
X2454342Y-10708553D01*
X2443809Y-10717967D01*
X2416028Y-10740122D01*
X2383840Y-10787332D01*
X2381116Y-10791172D01*
X2343511Y-10842125D01*
X2341359Y-10846388D01*
X2322690Y-10906913D01*
X2321218Y-10911387D01*
X2300301Y-10971166D01*
X2299500Y-10975885D01*
X2299500Y-11039213D01*
X2299412Y-11043924D01*
X2297043Y-11107238D01*
X2299500Y-11125898D01*
X2299500Y-12903500D01*
X2279498Y-12971621D01*
X2225842Y-13018114D01*
X2173500Y-13029500D01*
X126500Y-13029500D01*
X58379Y-13009498D01*
X11886Y-12955842D01*
X500Y-12903500D01*
X500Y-8126500D01*
X20502Y-8058379D01*
X74158Y-8011886D01*
X126500Y-8000500D01*
X19873500Y-8000500D01*
X19941621Y-8020502D01*
G37*
G04 #@! TD.AperFunction*
G04 #@! TA.AperFunction,Conductor*
G36*
X14701621Y-17295502D02*
G01*
X14748114Y-17349158D01*
X14759500Y-17401500D01*
X14759500Y-19289746D01*
X14771133Y-19348231D01*
X14815447Y-19414552D01*
X14859762Y-19444162D01*
X14881769Y-19458867D01*
X14940252Y-19470500D01*
X19873500Y-19470500D01*
X19941621Y-19490502D01*
X19988114Y-19544158D01*
X19999500Y-19596500D01*
X19999500Y-19850000D01*
X19979498Y-19918121D01*
X19925842Y-19964614D01*
X19873500Y-19976000D01*
X17627000Y-19976000D01*
X17627000Y-23023999D01*
X19873500Y-23023999D01*
X19941621Y-23044001D01*
X19988114Y-23097657D01*
X19999500Y-23149999D01*
X19999500Y-27873500D01*
X19979498Y-27941621D01*
X19925842Y-27988114D01*
X19873500Y-27999500D01*
X126500Y-27999500D01*
X58379Y-27979498D01*
X11886Y-27925842D01*
X500Y-27873500D01*
X500Y-27518954D01*
X20502Y-27450833D01*
X74158Y-27404340D01*
X144432Y-27394236D01*
X174072Y-27405291D01*
X189945Y-27409951D01*
X189947Y-27409953D01*
X284020Y-27437575D01*
X328038Y-27450500D01*
X328039Y-27450500D01*
X471962Y-27450500D01*
X503305Y-27441296D01*
X610053Y-27409953D01*
X731128Y-27332143D01*
X825377Y-27223373D01*
X885165Y-27092457D01*
X905647Y-26950000D01*
X905646Y-26949995D01*
X907288Y-26938578D01*
X936781Y-26873997D01*
X942907Y-26867417D01*
X947938Y-26862387D01*
X1010258Y-26828374D01*
X1037017Y-26825500D01*
X11355290Y-26825500D01*
X11366271Y-26825979D01*
X11376937Y-26826913D01*
X11403805Y-26829264D01*
X11403805Y-26829263D01*
X11403807Y-26829264D01*
X11440224Y-26819505D01*
X11450932Y-26817131D01*
X11488045Y-26810588D01*
X11488046Y-26810586D01*
X11489266Y-26810372D01*
X11513668Y-26800264D01*
X11514680Y-26799554D01*
X11514684Y-26799554D01*
X11545568Y-26777927D01*
X11554797Y-26772048D01*
X11587455Y-26753194D01*
X11611696Y-26724302D01*
X11619100Y-26716224D01*
X12941235Y-25394090D01*
X12949305Y-25386694D01*
X12978194Y-25362455D01*
X12997041Y-25329809D01*
X13002934Y-25320558D01*
X13024554Y-25289684D01*
X13024554Y-25289681D01*
X13025263Y-25288670D01*
X13035371Y-25264269D01*
X13035586Y-25263047D01*
X13035588Y-25263045D01*
X13042134Y-25225912D01*
X13044503Y-25215226D01*
X13054263Y-25178807D01*
X13050979Y-25141267D01*
X13050500Y-25130287D01*
X13050500Y-21627000D01*
X14706001Y-21627000D01*
X14706001Y-22795018D01*
X14720736Y-22869105D01*
X14776876Y-22953124D01*
X14860893Y-23009263D01*
X14934981Y-23023999D01*
X17373000Y-23023999D01*
X17373000Y-21627000D01*
X14706001Y-21627000D01*
X13050500Y-21627000D01*
X13050500Y-21373000D01*
X14706000Y-21373000D01*
X17373000Y-21373000D01*
X17373000Y-19976000D01*
X14934981Y-19976000D01*
X14860894Y-19990736D01*
X14776875Y-20046876D01*
X14720736Y-20130893D01*
X14706000Y-20204981D01*
X14706000Y-21373000D01*
X13050500Y-21373000D01*
X13050500Y-18187017D01*
X13070502Y-18118896D01*
X13087405Y-18097921D01*
X13872923Y-17312404D01*
X13935235Y-17278379D01*
X13962018Y-17275500D01*
X14633500Y-17275500D01*
X14701621Y-17295502D01*
G37*
G04 #@! TD.AperFunction*
G04 #@! TD*
G04 #@! TA.AperFunction,Conductor*
G04 #@! TO.N,Board_3-GND*
G36*
X85941621Y-8020502D02*
G01*
X85988114Y-8074158D01*
X85999500Y-8126500D01*
X85999500Y-12903500D01*
X85979498Y-12971621D01*
X85925842Y-13018114D01*
X85873500Y-13029500D01*
X84076500Y-13029500D01*
X84008379Y-13009498D01*
X83961886Y-12955842D01*
X83950500Y-12903500D01*
X83950500Y-11732377D01*
X83951292Y-11718270D01*
X83955270Y-11682965D01*
X83944650Y-11626839D01*
X83943861Y-11622196D01*
X83935348Y-11565713D01*
X83935346Y-11565710D01*
X83934417Y-11559543D01*
X83932935Y-11555040D01*
X83930024Y-11549533D01*
X83930024Y-11549529D01*
X83903314Y-11498992D01*
X83901196Y-11494796D01*
X83873722Y-11437746D01*
X83870968Y-11433865D01*
X83866566Y-11429463D01*
X83826163Y-11389060D01*
X83822947Y-11385722D01*
X83784055Y-11343806D01*
X83784051Y-11343804D01*
X83779816Y-11339239D01*
X83764881Y-11327778D01*
X82543271Y-10106168D01*
X82517753Y-10069416D01*
X82475377Y-9976628D01*
X82475377Y-9976627D01*
X82381128Y-9867857D01*
X82381127Y-9867856D01*
X82381126Y-9867855D01*
X82260053Y-9790047D01*
X82121962Y-9749500D01*
X82121961Y-9749500D01*
X81978039Y-9749500D01*
X81978038Y-9749500D01*
X81825135Y-9794396D01*
X81789637Y-9799500D01*
X79810363Y-9799500D01*
X79774865Y-9794396D01*
X79621962Y-9749500D01*
X79621961Y-9749500D01*
X79478039Y-9749500D01*
X79478038Y-9749500D01*
X79339946Y-9790047D01*
X79218873Y-9867855D01*
X79124622Y-9976628D01*
X79064834Y-10107543D01*
X79044352Y-10249999D01*
X79064834Y-10392456D01*
X79124622Y-10523371D01*
X79124623Y-10523373D01*
X79218872Y-10632143D01*
X79218873Y-10632144D01*
X79279409Y-10671048D01*
X79339947Y-10709953D01*
X79437490Y-10738594D01*
X79478038Y-10750500D01*
X79478039Y-10750500D01*
X79621962Y-10750500D01*
X79774865Y-10705604D01*
X79810363Y-10700500D01*
X81789635Y-10700500D01*
X81825129Y-10705603D01*
X81854162Y-10714126D01*
X81855661Y-10714567D01*
X81855665Y-10714568D01*
X81909266Y-10746370D01*
X83012595Y-11849698D01*
X83046620Y-11912010D01*
X83049500Y-11938793D01*
X83049500Y-12903500D01*
X83029498Y-12971621D01*
X82975842Y-13018114D01*
X82923500Y-13029500D01*
X80940252Y-13029500D01*
X80911010Y-13035316D01*
X80881768Y-13041133D01*
X80815447Y-13085447D01*
X80771133Y-13151768D01*
X80759500Y-13210253D01*
X80759500Y-13923500D01*
X80739498Y-13991621D01*
X80685842Y-14038114D01*
X80633500Y-14049500D01*
X80332378Y-14049500D01*
X80318272Y-14048708D01*
X80282965Y-14044730D01*
X80282964Y-14044730D01*
X80226832Y-14055350D01*
X80222191Y-14056138D01*
X80159560Y-14065579D01*
X80155028Y-14067070D01*
X80149527Y-14069977D01*
X80149528Y-14069977D01*
X80099020Y-14096671D01*
X80094828Y-14098787D01*
X80037756Y-14126272D01*
X80033858Y-14129038D01*
X79989072Y-14173823D01*
X79985681Y-14177089D01*
X79939244Y-14220176D01*
X79927780Y-14235115D01*
X79409266Y-14753629D01*
X79355671Y-14785430D01*
X79339946Y-14790047D01*
X79218872Y-14867856D01*
X79124622Y-14976628D01*
X79064834Y-15107543D01*
X79044352Y-15250000D01*
X79064834Y-15392456D01*
X79124622Y-15523371D01*
X79124623Y-15523373D01*
X79218872Y-15632143D01*
X79218873Y-15632144D01*
X79279409Y-15671048D01*
X79339947Y-15709953D01*
X79426449Y-15735352D01*
X79478038Y-15750500D01*
X79478039Y-15750500D01*
X79621962Y-15750500D01*
X79653305Y-15741296D01*
X79760053Y-15709953D01*
X79881128Y-15632143D01*
X79975377Y-15523373D01*
X80017751Y-15430585D01*
X80043266Y-15393835D01*
X80449698Y-14987404D01*
X80512011Y-14953379D01*
X80538794Y-14950500D01*
X80633500Y-14950500D01*
X80701621Y-14970502D01*
X80748114Y-15024158D01*
X80759500Y-15076500D01*
X80759500Y-15789746D01*
X80771133Y-15848231D01*
X80815447Y-15914552D01*
X80859762Y-15944162D01*
X80881769Y-15958867D01*
X80940252Y-15970500D01*
X85873500Y-15970500D01*
X85941621Y-15990502D01*
X85988114Y-16044158D01*
X85999500Y-16096500D01*
X85999500Y-16403500D01*
X85979498Y-16471621D01*
X85925842Y-16518114D01*
X85873500Y-16529500D01*
X80940252Y-16529500D01*
X80911010Y-16535316D01*
X80881768Y-16541133D01*
X80794609Y-16599372D01*
X80792898Y-16596811D01*
X80772299Y-16614028D01*
X80722006Y-16624500D01*
X79794713Y-16624500D01*
X79783732Y-16624021D01*
X79774198Y-16623186D01*
X79746193Y-16620737D01*
X79746192Y-16620737D01*
X79709798Y-16630488D01*
X79699074Y-16632865D01*
X79660742Y-16639625D01*
X79636323Y-16649740D01*
X79604444Y-16672061D01*
X79595181Y-16677962D01*
X79562546Y-16696805D01*
X79538319Y-16725676D01*
X79530895Y-16733776D01*
X78508786Y-17755886D01*
X78500685Y-17763310D01*
X78471806Y-17787543D01*
X78452963Y-17820179D01*
X78447062Y-17829441D01*
X78424741Y-17861320D01*
X78414625Y-17885742D01*
X78407869Y-17924054D01*
X78405491Y-17934780D01*
X78395735Y-17971191D01*
X78399020Y-18008725D01*
X78399500Y-18019709D01*
X78399500Y-24962983D01*
X78379498Y-25031104D01*
X78362595Y-25052078D01*
X77277079Y-26137595D01*
X77214767Y-26171620D01*
X77187984Y-26174500D01*
X66869713Y-26174500D01*
X66858732Y-26174021D01*
X66831286Y-26171620D01*
X66821193Y-26170737D01*
X66821192Y-26170737D01*
X66784798Y-26180488D01*
X66774074Y-26182865D01*
X66735742Y-26189625D01*
X66711320Y-26199741D01*
X66679441Y-26222062D01*
X66670179Y-26227963D01*
X66637545Y-26246805D01*
X66613320Y-26275675D01*
X66605896Y-26283776D01*
X66477079Y-26412595D01*
X66414767Y-26446620D01*
X66387983Y-26449500D01*
X66328038Y-26449500D01*
X66243034Y-26474459D01*
X66189947Y-26490047D01*
X66189946Y-26490047D01*
X66172565Y-26495151D01*
X66172124Y-26493649D01*
X66126492Y-26507045D01*
X66058372Y-26487038D01*
X66011883Y-26433380D01*
X66000500Y-26381045D01*
X66000500Y-23149999D01*
X66020502Y-23081878D01*
X66074158Y-23035385D01*
X66126500Y-23023999D01*
X68373000Y-23023999D01*
X68373000Y-21627000D01*
X68627000Y-21627000D01*
X68627000Y-23023999D01*
X71065018Y-23023999D01*
X71139105Y-23009263D01*
X71223124Y-22953123D01*
X71279263Y-22869106D01*
X71294000Y-22795018D01*
X71294000Y-21627000D01*
X68627000Y-21627000D01*
X68373000Y-21627000D01*
X68373000Y-19976000D01*
X68627000Y-19976000D01*
X68627000Y-21373000D01*
X71293999Y-21373000D01*
X71293999Y-20204981D01*
X71279263Y-20130894D01*
X71223123Y-20046875D01*
X71139106Y-19990736D01*
X71065019Y-19976000D01*
X68627000Y-19976000D01*
X68373000Y-19976000D01*
X66126500Y-19976000D01*
X66058379Y-19955998D01*
X66011886Y-19902342D01*
X66000500Y-19850000D01*
X66000500Y-19596500D01*
X66020502Y-19528379D01*
X66074158Y-19481886D01*
X66126500Y-19470500D01*
X71059747Y-19470500D01*
X71059748Y-19470500D01*
X71118231Y-19458867D01*
X71184552Y-19414552D01*
X71228867Y-19348231D01*
X71240500Y-19289748D01*
X71240500Y-16710252D01*
X71228867Y-16651769D01*
X71192145Y-16596811D01*
X71184552Y-16585447D01*
X71118231Y-16541133D01*
X71118230Y-16541133D01*
X71059748Y-16529500D01*
X71059747Y-16529500D01*
X66885359Y-16529500D01*
X66817238Y-16509498D01*
X66770745Y-16455842D01*
X66760641Y-16385568D01*
X66760642Y-16385568D01*
X66780133Y-16250000D01*
X66760642Y-16114432D01*
X66770745Y-16044158D01*
X66817238Y-15990502D01*
X66885359Y-15970500D01*
X71059747Y-15970500D01*
X71059748Y-15970500D01*
X71118231Y-15958867D01*
X71184552Y-15914552D01*
X71228867Y-15848231D01*
X71240500Y-15789748D01*
X71240500Y-15381793D01*
X71260502Y-15313672D01*
X71314158Y-15267179D01*
X71384432Y-15257075D01*
X71449012Y-15286569D01*
X71455595Y-15292698D01*
X71556728Y-15393831D01*
X71582246Y-15430583D01*
X71624621Y-15523371D01*
X71718873Y-15632144D01*
X71779409Y-15671048D01*
X71839947Y-15709953D01*
X71926452Y-15735352D01*
X71980049Y-15767153D01*
X74062595Y-17849698D01*
X74096620Y-17912010D01*
X74099500Y-17938793D01*
X74099500Y-20004228D01*
X74088114Y-20056570D01*
X74064834Y-20107545D01*
X74044352Y-20250000D01*
X74064834Y-20392454D01*
X74064834Y-20392455D01*
X74064835Y-20392457D01*
X74088113Y-20443428D01*
X74099500Y-20495770D01*
X74099500Y-25004228D01*
X74088114Y-25056570D01*
X74064834Y-25107545D01*
X74044352Y-25250000D01*
X74064834Y-25392456D01*
X74124622Y-25523371D01*
X74124623Y-25523373D01*
X74218872Y-25632143D01*
X74218873Y-25632144D01*
X74279409Y-25671047D01*
X74339947Y-25709953D01*
X74437491Y-25738594D01*
X74478038Y-25750500D01*
X74478039Y-25750500D01*
X74621962Y-25750500D01*
X74653305Y-25741296D01*
X74760053Y-25709953D01*
X74881128Y-25632143D01*
X74975377Y-25523373D01*
X75035165Y-25392457D01*
X75055647Y-25250000D01*
X75035165Y-25107543D01*
X75011885Y-25056569D01*
X75000500Y-25004228D01*
X75000500Y-20495770D01*
X75011886Y-20443428D01*
X75035165Y-20392457D01*
X75055647Y-20250000D01*
X75035165Y-20107543D01*
X75011885Y-20056569D01*
X75000500Y-20004228D01*
X75000500Y-17732377D01*
X75001292Y-17718270D01*
X75005270Y-17682965D01*
X74994643Y-17626805D01*
X74993860Y-17622194D01*
X74985348Y-17565713D01*
X74985347Y-17565711D01*
X74984417Y-17559540D01*
X74982939Y-17555046D01*
X74980023Y-17549529D01*
X74980023Y-17549528D01*
X74953315Y-17498996D01*
X74951209Y-17494825D01*
X74926425Y-17443358D01*
X74926422Y-17443355D01*
X74923718Y-17437739D01*
X74920974Y-17433871D01*
X74916565Y-17429462D01*
X74876163Y-17389060D01*
X74872947Y-17385722D01*
X74834055Y-17343806D01*
X74834051Y-17343804D01*
X74829816Y-17339239D01*
X74814881Y-17327778D01*
X72501243Y-15014140D01*
X72475725Y-14977388D01*
X72475378Y-14976628D01*
X72381126Y-14867855D01*
X72260053Y-14790047D01*
X72260052Y-14790046D01*
X72244327Y-14785429D01*
X72190732Y-14753629D01*
X71641451Y-14204348D01*
X71632035Y-14193813D01*
X71618698Y-14177089D01*
X71609879Y-14166030D01*
X71609878Y-14166029D01*
X71609877Y-14166028D01*
X71562657Y-14133833D01*
X71558816Y-14131108D01*
X71556011Y-14129038D01*
X71512882Y-14097207D01*
X71512880Y-14097206D01*
X71507868Y-14093507D01*
X71503620Y-14091362D01*
X71479783Y-14084009D01*
X71443041Y-14072676D01*
X71438593Y-14071212D01*
X71378831Y-14050300D01*
X71374119Y-14049500D01*
X71367902Y-14049500D01*
X71366500Y-14049500D01*
X71298379Y-14029498D01*
X71251886Y-13975842D01*
X71240500Y-13923500D01*
X71240500Y-13210253D01*
X71240500Y-13210252D01*
X71228867Y-13151769D01*
X71214162Y-13129761D01*
X71184552Y-13085447D01*
X71118231Y-13041133D01*
X71118230Y-13041133D01*
X71059748Y-13029500D01*
X71059747Y-13029500D01*
X69326500Y-13029500D01*
X69258379Y-13009498D01*
X69211886Y-12955842D01*
X69200500Y-12903500D01*
X69200500Y-11288793D01*
X69220502Y-11220672D01*
X69237400Y-11199702D01*
X69690733Y-10746368D01*
X69744332Y-10714568D01*
X69760053Y-10709953D01*
X69760053Y-10709952D01*
X69774873Y-10705602D01*
X69810365Y-10700500D01*
X71789637Y-10700500D01*
X71825135Y-10705604D01*
X71978038Y-10750500D01*
X71978039Y-10750500D01*
X72121962Y-10750500D01*
X72157309Y-10740121D01*
X72260053Y-10709953D01*
X72381128Y-10632143D01*
X72475377Y-10523373D01*
X72535165Y-10392457D01*
X72555647Y-10250000D01*
X72535165Y-10107543D01*
X72475377Y-9976627D01*
X72381128Y-9867857D01*
X72381127Y-9867856D01*
X72381126Y-9867855D01*
X72260053Y-9790047D01*
X72121962Y-9749500D01*
X72121961Y-9749500D01*
X71978039Y-9749500D01*
X71978038Y-9749500D01*
X71825135Y-9794396D01*
X71789637Y-9799500D01*
X69810363Y-9799500D01*
X69774865Y-9794396D01*
X69621962Y-9749500D01*
X69621961Y-9749500D01*
X69478039Y-9749500D01*
X69478038Y-9749500D01*
X69339946Y-9790047D01*
X69218873Y-9867855D01*
X69124621Y-9976628D01*
X69082247Y-10069414D01*
X69056729Y-10106166D01*
X68454342Y-10708553D01*
X68443809Y-10717967D01*
X68416028Y-10740122D01*
X68383840Y-10787332D01*
X68381116Y-10791172D01*
X68343511Y-10842125D01*
X68341359Y-10846388D01*
X68322690Y-10906913D01*
X68321218Y-10911387D01*
X68300301Y-10971166D01*
X68299500Y-10975885D01*
X68299500Y-11039213D01*
X68299412Y-11043924D01*
X68297043Y-11107238D01*
X68299500Y-11125898D01*
X68299500Y-12903500D01*
X68279498Y-12971621D01*
X68225842Y-13018114D01*
X68173500Y-13029500D01*
X66126500Y-13029500D01*
X66058379Y-13009498D01*
X66011886Y-12955842D01*
X66000500Y-12903500D01*
X66000500Y-8126500D01*
X66020502Y-8058379D01*
X66074158Y-8011886D01*
X66126500Y-8000500D01*
X85873500Y-8000500D01*
X85941621Y-8020502D01*
G37*
G04 #@! TD.AperFunction*
G04 #@! TA.AperFunction,Conductor*
G36*
X80701621Y-17295502D02*
G01*
X80748114Y-17349158D01*
X80759500Y-17401500D01*
X80759500Y-19289746D01*
X80771133Y-19348231D01*
X80815447Y-19414552D01*
X80859762Y-19444162D01*
X80881769Y-19458867D01*
X80940252Y-19470500D01*
X85873500Y-19470500D01*
X85941621Y-19490502D01*
X85988114Y-19544158D01*
X85999500Y-19596500D01*
X85999500Y-19850000D01*
X85979498Y-19918121D01*
X85925842Y-19964614D01*
X85873500Y-19976000D01*
X83627000Y-19976000D01*
X83627000Y-23023999D01*
X85873500Y-23023999D01*
X85941621Y-23044001D01*
X85988114Y-23097657D01*
X85999500Y-23149999D01*
X85999500Y-27873500D01*
X85979498Y-27941621D01*
X85925842Y-27988114D01*
X85873500Y-27999500D01*
X66126500Y-27999500D01*
X66058379Y-27979498D01*
X66011886Y-27925842D01*
X66000500Y-27873500D01*
X66000500Y-27518954D01*
X66020502Y-27450833D01*
X66074158Y-27404340D01*
X66144432Y-27394236D01*
X66174072Y-27405291D01*
X66189945Y-27409951D01*
X66189947Y-27409953D01*
X66284020Y-27437575D01*
X66328038Y-27450500D01*
X66328039Y-27450500D01*
X66471962Y-27450500D01*
X66503305Y-27441296D01*
X66610053Y-27409953D01*
X66731128Y-27332143D01*
X66825377Y-27223373D01*
X66885165Y-27092457D01*
X66905647Y-26950000D01*
X66905646Y-26949995D01*
X66907288Y-26938578D01*
X66936781Y-26873997D01*
X66942907Y-26867417D01*
X66947938Y-26862387D01*
X67010258Y-26828374D01*
X67037017Y-26825500D01*
X77355290Y-26825500D01*
X77366271Y-26825979D01*
X77376937Y-26826913D01*
X77403805Y-26829264D01*
X77403805Y-26829263D01*
X77403807Y-26829264D01*
X77440224Y-26819505D01*
X77450932Y-26817131D01*
X77488045Y-26810588D01*
X77488046Y-26810586D01*
X77489266Y-26810372D01*
X77513668Y-26800264D01*
X77514680Y-26799554D01*
X77514684Y-26799554D01*
X77545568Y-26777927D01*
X77554797Y-26772048D01*
X77587455Y-26753194D01*
X77611696Y-26724302D01*
X77619100Y-26716224D01*
X78941235Y-25394090D01*
X78949305Y-25386694D01*
X78978194Y-25362455D01*
X78997041Y-25329809D01*
X79002934Y-25320558D01*
X79024554Y-25289684D01*
X79024554Y-25289681D01*
X79025263Y-25288670D01*
X79035371Y-25264269D01*
X79035586Y-25263047D01*
X79035588Y-25263045D01*
X79042134Y-25225912D01*
X79044503Y-25215226D01*
X79054263Y-25178807D01*
X79050979Y-25141267D01*
X79050500Y-25130287D01*
X79050500Y-21627000D01*
X80706001Y-21627000D01*
X80706001Y-22795018D01*
X80720736Y-22869105D01*
X80776876Y-22953124D01*
X80860893Y-23009263D01*
X80934981Y-23023999D01*
X83373000Y-23023999D01*
X83373000Y-21627000D01*
X80706001Y-21627000D01*
X79050500Y-21627000D01*
X79050500Y-21373000D01*
X80706000Y-21373000D01*
X83373000Y-21373000D01*
X83373000Y-19976000D01*
X80934981Y-19976000D01*
X80860894Y-19990736D01*
X80776875Y-20046876D01*
X80720736Y-20130893D01*
X80706000Y-20204981D01*
X80706000Y-21373000D01*
X79050500Y-21373000D01*
X79050500Y-18187017D01*
X79070502Y-18118896D01*
X79087405Y-18097921D01*
X79872923Y-17312404D01*
X79935235Y-17278379D01*
X79962018Y-17275500D01*
X80633500Y-17275500D01*
X80701621Y-17295502D01*
G37*
G04 #@! TD.AperFunction*
G04 #@! TD*
G04 #@! TA.AperFunction,Conductor*
G04 #@! TO.N,Board_1-GND*
G36*
X41941621Y-8020502D02*
G01*
X41988114Y-8074158D01*
X41999500Y-8126500D01*
X41999500Y-12903500D01*
X41979498Y-12971621D01*
X41925842Y-13018114D01*
X41873500Y-13029500D01*
X40076500Y-13029500D01*
X40008379Y-13009498D01*
X39961886Y-12955842D01*
X39950500Y-12903500D01*
X39950500Y-11732377D01*
X39951292Y-11718270D01*
X39955270Y-11682965D01*
X39944650Y-11626839D01*
X39943861Y-11622196D01*
X39935348Y-11565713D01*
X39935346Y-11565710D01*
X39934417Y-11559543D01*
X39932935Y-11555040D01*
X39930024Y-11549533D01*
X39930024Y-11549529D01*
X39903314Y-11498992D01*
X39901196Y-11494796D01*
X39873722Y-11437746D01*
X39870968Y-11433865D01*
X39866566Y-11429463D01*
X39826163Y-11389060D01*
X39822947Y-11385722D01*
X39784055Y-11343806D01*
X39784051Y-11343804D01*
X39779816Y-11339239D01*
X39764881Y-11327778D01*
X38543271Y-10106168D01*
X38517753Y-10069416D01*
X38475377Y-9976628D01*
X38475377Y-9976627D01*
X38381128Y-9867857D01*
X38381127Y-9867856D01*
X38381126Y-9867855D01*
X38260053Y-9790047D01*
X38121962Y-9749500D01*
X38121961Y-9749500D01*
X37978039Y-9749500D01*
X37978038Y-9749500D01*
X37825135Y-9794396D01*
X37789637Y-9799500D01*
X35810363Y-9799500D01*
X35774865Y-9794396D01*
X35621962Y-9749500D01*
X35621961Y-9749500D01*
X35478039Y-9749500D01*
X35478038Y-9749500D01*
X35339946Y-9790047D01*
X35218873Y-9867855D01*
X35124622Y-9976628D01*
X35064834Y-10107543D01*
X35044352Y-10249999D01*
X35064834Y-10392456D01*
X35124622Y-10523371D01*
X35124623Y-10523373D01*
X35218872Y-10632143D01*
X35218873Y-10632144D01*
X35279409Y-10671048D01*
X35339947Y-10709953D01*
X35437490Y-10738594D01*
X35478038Y-10750500D01*
X35478039Y-10750500D01*
X35621962Y-10750500D01*
X35774865Y-10705604D01*
X35810363Y-10700500D01*
X37789635Y-10700500D01*
X37825129Y-10705603D01*
X37854162Y-10714126D01*
X37855661Y-10714567D01*
X37855665Y-10714568D01*
X37909266Y-10746370D01*
X39012595Y-11849698D01*
X39046620Y-11912010D01*
X39049500Y-11938793D01*
X39049500Y-12903500D01*
X39029498Y-12971621D01*
X38975842Y-13018114D01*
X38923500Y-13029500D01*
X36940252Y-13029500D01*
X36911010Y-13035316D01*
X36881768Y-13041133D01*
X36815447Y-13085447D01*
X36771133Y-13151768D01*
X36759500Y-13210253D01*
X36759500Y-13923500D01*
X36739498Y-13991621D01*
X36685842Y-14038114D01*
X36633500Y-14049500D01*
X36332378Y-14049500D01*
X36318272Y-14048708D01*
X36282965Y-14044730D01*
X36282964Y-14044730D01*
X36226832Y-14055350D01*
X36222191Y-14056138D01*
X36159560Y-14065579D01*
X36155028Y-14067070D01*
X36149527Y-14069977D01*
X36149528Y-14069977D01*
X36099020Y-14096671D01*
X36094828Y-14098787D01*
X36037756Y-14126272D01*
X36033858Y-14129038D01*
X35989072Y-14173823D01*
X35985681Y-14177089D01*
X35939244Y-14220176D01*
X35927780Y-14235115D01*
X35409266Y-14753629D01*
X35355671Y-14785430D01*
X35339946Y-14790047D01*
X35218872Y-14867856D01*
X35124622Y-14976628D01*
X35064834Y-15107543D01*
X35044352Y-15250000D01*
X35064834Y-15392456D01*
X35124622Y-15523371D01*
X35124623Y-15523373D01*
X35218872Y-15632143D01*
X35218873Y-15632144D01*
X35279409Y-15671048D01*
X35339947Y-15709953D01*
X35426449Y-15735352D01*
X35478038Y-15750500D01*
X35478039Y-15750500D01*
X35621962Y-15750500D01*
X35653305Y-15741296D01*
X35760053Y-15709953D01*
X35881128Y-15632143D01*
X35975377Y-15523373D01*
X36017751Y-15430585D01*
X36043266Y-15393835D01*
X36449698Y-14987404D01*
X36512011Y-14953379D01*
X36538794Y-14950500D01*
X36633500Y-14950500D01*
X36701621Y-14970502D01*
X36748114Y-15024158D01*
X36759500Y-15076500D01*
X36759500Y-15789746D01*
X36771133Y-15848231D01*
X36815447Y-15914552D01*
X36859762Y-15944162D01*
X36881769Y-15958867D01*
X36940252Y-15970500D01*
X41873500Y-15970500D01*
X41941621Y-15990502D01*
X41988114Y-16044158D01*
X41999500Y-16096500D01*
X41999500Y-16403500D01*
X41979498Y-16471621D01*
X41925842Y-16518114D01*
X41873500Y-16529500D01*
X36940252Y-16529500D01*
X36911010Y-16535316D01*
X36881768Y-16541133D01*
X36794609Y-16599372D01*
X36792898Y-16596811D01*
X36772299Y-16614028D01*
X36722006Y-16624500D01*
X35794713Y-16624500D01*
X35783732Y-16624021D01*
X35774198Y-16623186D01*
X35746193Y-16620737D01*
X35746192Y-16620737D01*
X35709798Y-16630488D01*
X35699074Y-16632865D01*
X35660742Y-16639625D01*
X35636323Y-16649740D01*
X35604444Y-16672061D01*
X35595181Y-16677962D01*
X35562546Y-16696805D01*
X35538319Y-16725676D01*
X35530895Y-16733776D01*
X34508786Y-17755886D01*
X34500685Y-17763310D01*
X34471806Y-17787543D01*
X34452963Y-17820179D01*
X34447062Y-17829441D01*
X34424741Y-17861320D01*
X34414625Y-17885742D01*
X34407869Y-17924054D01*
X34405491Y-17934780D01*
X34395735Y-17971191D01*
X34399020Y-18008725D01*
X34399500Y-18019709D01*
X34399500Y-24962983D01*
X34379498Y-25031104D01*
X34362595Y-25052078D01*
X33277079Y-26137595D01*
X33214767Y-26171620D01*
X33187984Y-26174500D01*
X22869713Y-26174500D01*
X22858732Y-26174021D01*
X22831286Y-26171620D01*
X22821193Y-26170737D01*
X22821192Y-26170737D01*
X22784798Y-26180488D01*
X22774074Y-26182865D01*
X22735742Y-26189625D01*
X22711320Y-26199741D01*
X22679441Y-26222062D01*
X22670179Y-26227963D01*
X22637545Y-26246805D01*
X22613320Y-26275675D01*
X22605896Y-26283776D01*
X22477079Y-26412595D01*
X22414767Y-26446620D01*
X22387983Y-26449500D01*
X22328038Y-26449500D01*
X22243034Y-26474459D01*
X22189947Y-26490047D01*
X22189946Y-26490047D01*
X22172565Y-26495151D01*
X22172124Y-26493649D01*
X22126492Y-26507045D01*
X22058372Y-26487038D01*
X22011883Y-26433380D01*
X22000500Y-26381045D01*
X22000500Y-23149999D01*
X22020502Y-23081878D01*
X22074158Y-23035385D01*
X22126500Y-23023999D01*
X24373000Y-23023999D01*
X24373000Y-21627000D01*
X24627000Y-21627000D01*
X24627000Y-23023999D01*
X27065018Y-23023999D01*
X27139105Y-23009263D01*
X27223124Y-22953123D01*
X27279263Y-22869106D01*
X27294000Y-22795018D01*
X27294000Y-21627000D01*
X24627000Y-21627000D01*
X24373000Y-21627000D01*
X24373000Y-19976000D01*
X24627000Y-19976000D01*
X24627000Y-21373000D01*
X27293999Y-21373000D01*
X27293999Y-20204981D01*
X27279263Y-20130894D01*
X27223123Y-20046875D01*
X27139106Y-19990736D01*
X27065019Y-19976000D01*
X24627000Y-19976000D01*
X24373000Y-19976000D01*
X22126500Y-19976000D01*
X22058379Y-19955998D01*
X22011886Y-19902342D01*
X22000500Y-19850000D01*
X22000500Y-19596500D01*
X22020502Y-19528379D01*
X22074158Y-19481886D01*
X22126500Y-19470500D01*
X27059747Y-19470500D01*
X27059748Y-19470500D01*
X27118231Y-19458867D01*
X27184552Y-19414552D01*
X27228867Y-19348231D01*
X27240500Y-19289748D01*
X27240500Y-16710252D01*
X27228867Y-16651769D01*
X27192145Y-16596811D01*
X27184552Y-16585447D01*
X27118231Y-16541133D01*
X27118230Y-16541133D01*
X27059748Y-16529500D01*
X27059747Y-16529500D01*
X22885359Y-16529500D01*
X22817238Y-16509498D01*
X22770745Y-16455842D01*
X22760641Y-16385568D01*
X22760642Y-16385568D01*
X22780133Y-16250000D01*
X22760642Y-16114432D01*
X22770745Y-16044158D01*
X22817238Y-15990502D01*
X22885359Y-15970500D01*
X27059747Y-15970500D01*
X27059748Y-15970500D01*
X27118231Y-15958867D01*
X27184552Y-15914552D01*
X27228867Y-15848231D01*
X27240500Y-15789748D01*
X27240500Y-15381793D01*
X27260502Y-15313672D01*
X27314158Y-15267179D01*
X27384432Y-15257075D01*
X27449012Y-15286569D01*
X27455595Y-15292698D01*
X27556728Y-15393831D01*
X27582246Y-15430583D01*
X27624621Y-15523371D01*
X27718873Y-15632144D01*
X27779409Y-15671048D01*
X27839947Y-15709953D01*
X27926452Y-15735352D01*
X27980049Y-15767153D01*
X30062595Y-17849698D01*
X30096620Y-17912010D01*
X30099500Y-17938793D01*
X30099500Y-20004228D01*
X30088114Y-20056570D01*
X30064834Y-20107545D01*
X30044352Y-20250000D01*
X30064834Y-20392454D01*
X30064834Y-20392455D01*
X30064835Y-20392457D01*
X30088113Y-20443428D01*
X30099500Y-20495770D01*
X30099500Y-25004228D01*
X30088114Y-25056570D01*
X30064834Y-25107545D01*
X30044352Y-25250000D01*
X30064834Y-25392456D01*
X30124622Y-25523371D01*
X30124623Y-25523373D01*
X30218872Y-25632143D01*
X30218873Y-25632144D01*
X30279409Y-25671047D01*
X30339947Y-25709953D01*
X30437491Y-25738594D01*
X30478038Y-25750500D01*
X30478039Y-25750500D01*
X30621962Y-25750500D01*
X30653305Y-25741296D01*
X30760053Y-25709953D01*
X30881128Y-25632143D01*
X30975377Y-25523373D01*
X31035165Y-25392457D01*
X31055647Y-25250000D01*
X31035165Y-25107543D01*
X31011885Y-25056569D01*
X31000500Y-25004228D01*
X31000500Y-20495770D01*
X31011886Y-20443428D01*
X31035165Y-20392457D01*
X31055647Y-20250000D01*
X31035165Y-20107543D01*
X31011885Y-20056569D01*
X31000500Y-20004228D01*
X31000500Y-17732377D01*
X31001292Y-17718270D01*
X31005270Y-17682965D01*
X30994643Y-17626805D01*
X30993860Y-17622194D01*
X30985348Y-17565713D01*
X30985347Y-17565711D01*
X30984417Y-17559540D01*
X30982939Y-17555046D01*
X30980023Y-17549529D01*
X30980023Y-17549528D01*
X30953315Y-17498996D01*
X30951209Y-17494825D01*
X30926425Y-17443358D01*
X30926422Y-17443355D01*
X30923718Y-17437739D01*
X30920974Y-17433871D01*
X30916565Y-17429462D01*
X30876163Y-17389060D01*
X30872947Y-17385722D01*
X30834055Y-17343806D01*
X30834051Y-17343804D01*
X30829816Y-17339239D01*
X30814881Y-17327778D01*
X28501243Y-15014140D01*
X28475725Y-14977388D01*
X28475378Y-14976628D01*
X28381126Y-14867855D01*
X28260053Y-14790047D01*
X28260052Y-14790046D01*
X28244327Y-14785429D01*
X28190732Y-14753629D01*
X27641451Y-14204348D01*
X27632035Y-14193813D01*
X27618698Y-14177089D01*
X27609879Y-14166030D01*
X27609878Y-14166029D01*
X27609877Y-14166028D01*
X27562657Y-14133833D01*
X27558816Y-14131108D01*
X27556011Y-14129038D01*
X27512882Y-14097207D01*
X27512880Y-14097206D01*
X27507868Y-14093507D01*
X27503620Y-14091362D01*
X27479783Y-14084009D01*
X27443041Y-14072676D01*
X27438593Y-14071212D01*
X27378831Y-14050300D01*
X27374119Y-14049500D01*
X27367902Y-14049500D01*
X27366500Y-14049500D01*
X27298379Y-14029498D01*
X27251886Y-13975842D01*
X27240500Y-13923500D01*
X27240500Y-13210253D01*
X27240500Y-13210252D01*
X27228867Y-13151769D01*
X27214162Y-13129761D01*
X27184552Y-13085447D01*
X27118231Y-13041133D01*
X27118230Y-13041133D01*
X27059748Y-13029500D01*
X27059747Y-13029500D01*
X25326500Y-13029500D01*
X25258379Y-13009498D01*
X25211886Y-12955842D01*
X25200500Y-12903500D01*
X25200500Y-11288793D01*
X25220502Y-11220672D01*
X25237400Y-11199702D01*
X25690733Y-10746368D01*
X25744332Y-10714568D01*
X25760053Y-10709953D01*
X25760053Y-10709952D01*
X25774873Y-10705602D01*
X25810365Y-10700500D01*
X27789637Y-10700500D01*
X27825135Y-10705604D01*
X27978038Y-10750500D01*
X27978039Y-10750500D01*
X28121962Y-10750500D01*
X28157309Y-10740121D01*
X28260053Y-10709953D01*
X28381128Y-10632143D01*
X28475377Y-10523373D01*
X28535165Y-10392457D01*
X28555647Y-10250000D01*
X28535165Y-10107543D01*
X28475377Y-9976627D01*
X28381128Y-9867857D01*
X28381127Y-9867856D01*
X28381126Y-9867855D01*
X28260053Y-9790047D01*
X28121962Y-9749500D01*
X28121961Y-9749500D01*
X27978039Y-9749500D01*
X27978038Y-9749500D01*
X27825135Y-9794396D01*
X27789637Y-9799500D01*
X25810363Y-9799500D01*
X25774865Y-9794396D01*
X25621962Y-9749500D01*
X25621961Y-9749500D01*
X25478039Y-9749500D01*
X25478038Y-9749500D01*
X25339946Y-9790047D01*
X25218873Y-9867855D01*
X25124621Y-9976628D01*
X25082247Y-10069414D01*
X25056729Y-10106166D01*
X24454342Y-10708553D01*
X24443809Y-10717967D01*
X24416028Y-10740122D01*
X24383840Y-10787332D01*
X24381116Y-10791172D01*
X24343511Y-10842125D01*
X24341359Y-10846388D01*
X24322690Y-10906913D01*
X24321218Y-10911387D01*
X24300301Y-10971166D01*
X24299500Y-10975885D01*
X24299500Y-11039213D01*
X24299412Y-11043924D01*
X24297043Y-11107238D01*
X24299500Y-11125898D01*
X24299500Y-12903500D01*
X24279498Y-12971621D01*
X24225842Y-13018114D01*
X24173500Y-13029500D01*
X22126500Y-13029500D01*
X22058379Y-13009498D01*
X22011886Y-12955842D01*
X22000500Y-12903500D01*
X22000500Y-8126500D01*
X22020502Y-8058379D01*
X22074158Y-8011886D01*
X22126500Y-8000500D01*
X41873500Y-8000500D01*
X41941621Y-8020502D01*
G37*
G04 #@! TD.AperFunction*
G04 #@! TA.AperFunction,Conductor*
G36*
X36701621Y-17295502D02*
G01*
X36748114Y-17349158D01*
X36759500Y-17401500D01*
X36759500Y-19289746D01*
X36771133Y-19348231D01*
X36815447Y-19414552D01*
X36859762Y-19444162D01*
X36881769Y-19458867D01*
X36940252Y-19470500D01*
X41873500Y-19470500D01*
X41941621Y-19490502D01*
X41988114Y-19544158D01*
X41999500Y-19596500D01*
X41999500Y-19850000D01*
X41979498Y-19918121D01*
X41925842Y-19964614D01*
X41873500Y-19976000D01*
X39627000Y-19976000D01*
X39627000Y-23023999D01*
X41873500Y-23023999D01*
X41941621Y-23044001D01*
X41988114Y-23097657D01*
X41999500Y-23149999D01*
X41999500Y-27873500D01*
X41979498Y-27941621D01*
X41925842Y-27988114D01*
X41873500Y-27999500D01*
X22126500Y-27999500D01*
X22058379Y-27979498D01*
X22011886Y-27925842D01*
X22000500Y-27873500D01*
X22000500Y-27518954D01*
X22020502Y-27450833D01*
X22074158Y-27404340D01*
X22144432Y-27394236D01*
X22174072Y-27405291D01*
X22189945Y-27409951D01*
X22189947Y-27409953D01*
X22284020Y-27437575D01*
X22328038Y-27450500D01*
X22328039Y-27450500D01*
X22471962Y-27450500D01*
X22503305Y-27441296D01*
X22610053Y-27409953D01*
X22731128Y-27332143D01*
X22825377Y-27223373D01*
X22885165Y-27092457D01*
X22905647Y-26950000D01*
X22905646Y-26949995D01*
X22907288Y-26938578D01*
X22936781Y-26873997D01*
X22942907Y-26867417D01*
X22947938Y-26862387D01*
X23010258Y-26828374D01*
X23037017Y-26825500D01*
X33355290Y-26825500D01*
X33366271Y-26825979D01*
X33376937Y-26826913D01*
X33403805Y-26829264D01*
X33403805Y-26829263D01*
X33403807Y-26829264D01*
X33440224Y-26819505D01*
X33450932Y-26817131D01*
X33488045Y-26810588D01*
X33488046Y-26810586D01*
X33489266Y-26810372D01*
X33513668Y-26800264D01*
X33514680Y-26799554D01*
X33514684Y-26799554D01*
X33545568Y-26777927D01*
X33554797Y-26772048D01*
X33587455Y-26753194D01*
X33611696Y-26724302D01*
X33619100Y-26716224D01*
X34941235Y-25394090D01*
X34949305Y-25386694D01*
X34978194Y-25362455D01*
X34997041Y-25329809D01*
X35002934Y-25320558D01*
X35024554Y-25289684D01*
X35024554Y-25289681D01*
X35025263Y-25288670D01*
X35035371Y-25264269D01*
X35035586Y-25263047D01*
X35035588Y-25263045D01*
X35042134Y-25225912D01*
X35044503Y-25215226D01*
X35054263Y-25178807D01*
X35050979Y-25141267D01*
X35050500Y-25130287D01*
X35050500Y-21627000D01*
X36706001Y-21627000D01*
X36706001Y-22795018D01*
X36720736Y-22869105D01*
X36776876Y-22953124D01*
X36860893Y-23009263D01*
X36934981Y-23023999D01*
X39373000Y-23023999D01*
X39373000Y-21627000D01*
X36706001Y-21627000D01*
X35050500Y-21627000D01*
X35050500Y-21373000D01*
X36706000Y-21373000D01*
X39373000Y-21373000D01*
X39373000Y-19976000D01*
X36934981Y-19976000D01*
X36860894Y-19990736D01*
X36776875Y-20046876D01*
X36720736Y-20130893D01*
X36706000Y-20204981D01*
X36706000Y-21373000D01*
X35050500Y-21373000D01*
X35050500Y-18187017D01*
X35070502Y-18118896D01*
X35087405Y-18097921D01*
X35872923Y-17312404D01*
X35935235Y-17278379D01*
X35962018Y-17275500D01*
X36633500Y-17275500D01*
X36701621Y-17295502D01*
G37*
G04 #@! TD.AperFunction*
G04 #@! TD*
G04 #@! TA.AperFunction,Conductor*
G04 #@! TO.N,Board_2-GND*
G36*
X63941621Y-8020502D02*
G01*
X63988114Y-8074158D01*
X63999500Y-8126500D01*
X63999500Y-12903500D01*
X63979498Y-12971621D01*
X63925842Y-13018114D01*
X63873500Y-13029500D01*
X62076500Y-13029500D01*
X62008379Y-13009498D01*
X61961886Y-12955842D01*
X61950500Y-12903500D01*
X61950500Y-11732377D01*
X61951292Y-11718270D01*
X61955270Y-11682965D01*
X61944650Y-11626839D01*
X61943861Y-11622196D01*
X61935348Y-11565713D01*
X61935346Y-11565710D01*
X61934417Y-11559543D01*
X61932935Y-11555040D01*
X61930024Y-11549533D01*
X61930024Y-11549529D01*
X61903314Y-11498992D01*
X61901196Y-11494796D01*
X61873722Y-11437746D01*
X61870968Y-11433865D01*
X61866566Y-11429463D01*
X61826163Y-11389060D01*
X61822947Y-11385722D01*
X61784055Y-11343806D01*
X61784051Y-11343804D01*
X61779816Y-11339239D01*
X61764881Y-11327778D01*
X60543271Y-10106168D01*
X60517753Y-10069416D01*
X60475377Y-9976628D01*
X60475377Y-9976627D01*
X60381128Y-9867857D01*
X60381127Y-9867856D01*
X60381126Y-9867855D01*
X60260053Y-9790047D01*
X60121962Y-9749500D01*
X60121961Y-9749500D01*
X59978039Y-9749500D01*
X59978038Y-9749500D01*
X59825135Y-9794396D01*
X59789637Y-9799500D01*
X57810363Y-9799500D01*
X57774865Y-9794396D01*
X57621962Y-9749500D01*
X57621961Y-9749500D01*
X57478039Y-9749500D01*
X57478038Y-9749500D01*
X57339946Y-9790047D01*
X57218873Y-9867855D01*
X57124622Y-9976628D01*
X57064834Y-10107543D01*
X57044352Y-10249999D01*
X57064834Y-10392456D01*
X57124622Y-10523371D01*
X57124623Y-10523373D01*
X57218872Y-10632143D01*
X57218873Y-10632144D01*
X57279409Y-10671048D01*
X57339947Y-10709953D01*
X57437490Y-10738594D01*
X57478038Y-10750500D01*
X57478039Y-10750500D01*
X57621962Y-10750500D01*
X57774865Y-10705604D01*
X57810363Y-10700500D01*
X59789635Y-10700500D01*
X59825129Y-10705603D01*
X59854162Y-10714126D01*
X59855661Y-10714567D01*
X59855665Y-10714568D01*
X59909266Y-10746370D01*
X61012595Y-11849698D01*
X61046620Y-11912010D01*
X61049500Y-11938793D01*
X61049500Y-12903500D01*
X61029498Y-12971621D01*
X60975842Y-13018114D01*
X60923500Y-13029500D01*
X58940252Y-13029500D01*
X58911010Y-13035316D01*
X58881768Y-13041133D01*
X58815447Y-13085447D01*
X58771133Y-13151768D01*
X58759500Y-13210253D01*
X58759500Y-13923500D01*
X58739498Y-13991621D01*
X58685842Y-14038114D01*
X58633500Y-14049500D01*
X58332378Y-14049500D01*
X58318272Y-14048708D01*
X58282965Y-14044730D01*
X58282964Y-14044730D01*
X58226832Y-14055350D01*
X58222191Y-14056138D01*
X58159560Y-14065579D01*
X58155028Y-14067070D01*
X58149527Y-14069977D01*
X58149528Y-14069977D01*
X58099020Y-14096671D01*
X58094828Y-14098787D01*
X58037756Y-14126272D01*
X58033858Y-14129038D01*
X57989072Y-14173823D01*
X57985681Y-14177089D01*
X57939244Y-14220176D01*
X57927780Y-14235115D01*
X57409266Y-14753629D01*
X57355671Y-14785430D01*
X57339946Y-14790047D01*
X57218872Y-14867856D01*
X57124622Y-14976628D01*
X57064834Y-15107543D01*
X57044352Y-15250000D01*
X57064834Y-15392456D01*
X57124622Y-15523371D01*
X57124623Y-15523373D01*
X57218872Y-15632143D01*
X57218873Y-15632144D01*
X57279409Y-15671048D01*
X57339947Y-15709953D01*
X57426449Y-15735352D01*
X57478038Y-15750500D01*
X57478039Y-15750500D01*
X57621962Y-15750500D01*
X57653305Y-15741296D01*
X57760053Y-15709953D01*
X57881128Y-15632143D01*
X57975377Y-15523373D01*
X58017751Y-15430585D01*
X58043266Y-15393835D01*
X58449698Y-14987404D01*
X58512011Y-14953379D01*
X58538794Y-14950500D01*
X58633500Y-14950500D01*
X58701621Y-14970502D01*
X58748114Y-15024158D01*
X58759500Y-15076500D01*
X58759500Y-15789746D01*
X58771133Y-15848231D01*
X58815447Y-15914552D01*
X58859762Y-15944162D01*
X58881769Y-15958867D01*
X58940252Y-15970500D01*
X63873500Y-15970500D01*
X63941621Y-15990502D01*
X63988114Y-16044158D01*
X63999500Y-16096500D01*
X63999500Y-16403500D01*
X63979498Y-16471621D01*
X63925842Y-16518114D01*
X63873500Y-16529500D01*
X58940252Y-16529500D01*
X58911010Y-16535316D01*
X58881768Y-16541133D01*
X58794609Y-16599372D01*
X58792898Y-16596811D01*
X58772299Y-16614028D01*
X58722006Y-16624500D01*
X57794713Y-16624500D01*
X57783732Y-16624021D01*
X57774198Y-16623186D01*
X57746193Y-16620737D01*
X57746192Y-16620737D01*
X57709798Y-16630488D01*
X57699074Y-16632865D01*
X57660742Y-16639625D01*
X57636323Y-16649740D01*
X57604444Y-16672061D01*
X57595181Y-16677962D01*
X57562546Y-16696805D01*
X57538319Y-16725676D01*
X57530895Y-16733776D01*
X56508786Y-17755886D01*
X56500685Y-17763310D01*
X56471806Y-17787543D01*
X56452963Y-17820179D01*
X56447062Y-17829441D01*
X56424741Y-17861320D01*
X56414625Y-17885742D01*
X56407869Y-17924054D01*
X56405491Y-17934780D01*
X56395735Y-17971191D01*
X56399020Y-18008725D01*
X56399500Y-18019709D01*
X56399500Y-24962983D01*
X56379498Y-25031104D01*
X56362595Y-25052078D01*
X55277079Y-26137595D01*
X55214767Y-26171620D01*
X55187984Y-26174500D01*
X44869713Y-26174500D01*
X44858732Y-26174021D01*
X44831286Y-26171620D01*
X44821193Y-26170737D01*
X44821192Y-26170737D01*
X44784798Y-26180488D01*
X44774074Y-26182865D01*
X44735742Y-26189625D01*
X44711320Y-26199741D01*
X44679441Y-26222062D01*
X44670179Y-26227963D01*
X44637545Y-26246805D01*
X44613320Y-26275675D01*
X44605896Y-26283776D01*
X44477079Y-26412595D01*
X44414767Y-26446620D01*
X44387983Y-26449500D01*
X44328038Y-26449500D01*
X44243034Y-26474459D01*
X44189947Y-26490047D01*
X44189946Y-26490047D01*
X44172565Y-26495151D01*
X44172124Y-26493649D01*
X44126492Y-26507045D01*
X44058372Y-26487038D01*
X44011883Y-26433380D01*
X44000500Y-26381045D01*
X44000500Y-23149999D01*
X44020502Y-23081878D01*
X44074158Y-23035385D01*
X44126500Y-23023999D01*
X46373000Y-23023999D01*
X46373000Y-21627000D01*
X46627000Y-21627000D01*
X46627000Y-23023999D01*
X49065018Y-23023999D01*
X49139105Y-23009263D01*
X49223124Y-22953123D01*
X49279263Y-22869106D01*
X49294000Y-22795018D01*
X49294000Y-21627000D01*
X46627000Y-21627000D01*
X46373000Y-21627000D01*
X46373000Y-19976000D01*
X46627000Y-19976000D01*
X46627000Y-21373000D01*
X49293999Y-21373000D01*
X49293999Y-20204981D01*
X49279263Y-20130894D01*
X49223123Y-20046875D01*
X49139106Y-19990736D01*
X49065019Y-19976000D01*
X46627000Y-19976000D01*
X46373000Y-19976000D01*
X44126500Y-19976000D01*
X44058379Y-19955998D01*
X44011886Y-19902342D01*
X44000500Y-19850000D01*
X44000500Y-19596500D01*
X44020502Y-19528379D01*
X44074158Y-19481886D01*
X44126500Y-19470500D01*
X49059747Y-19470500D01*
X49059748Y-19470500D01*
X49118231Y-19458867D01*
X49184552Y-19414552D01*
X49228867Y-19348231D01*
X49240500Y-19289748D01*
X49240500Y-16710252D01*
X49228867Y-16651769D01*
X49192145Y-16596811D01*
X49184552Y-16585447D01*
X49118231Y-16541133D01*
X49118230Y-16541133D01*
X49059748Y-16529500D01*
X49059747Y-16529500D01*
X44885359Y-16529500D01*
X44817238Y-16509498D01*
X44770745Y-16455842D01*
X44760641Y-16385568D01*
X44760642Y-16385568D01*
X44780133Y-16250000D01*
X44760642Y-16114432D01*
X44770745Y-16044158D01*
X44817238Y-15990502D01*
X44885359Y-15970500D01*
X49059747Y-15970500D01*
X49059748Y-15970500D01*
X49118231Y-15958867D01*
X49184552Y-15914552D01*
X49228867Y-15848231D01*
X49240500Y-15789748D01*
X49240500Y-15381793D01*
X49260502Y-15313672D01*
X49314158Y-15267179D01*
X49384432Y-15257075D01*
X49449012Y-15286569D01*
X49455595Y-15292698D01*
X49556728Y-15393831D01*
X49582246Y-15430583D01*
X49624621Y-15523371D01*
X49718873Y-15632144D01*
X49779409Y-15671048D01*
X49839947Y-15709953D01*
X49926452Y-15735352D01*
X49980049Y-15767153D01*
X52062595Y-17849698D01*
X52096620Y-17912010D01*
X52099500Y-17938793D01*
X52099500Y-20004228D01*
X52088114Y-20056570D01*
X52064834Y-20107545D01*
X52044352Y-20250000D01*
X52064834Y-20392454D01*
X52064834Y-20392455D01*
X52064835Y-20392457D01*
X52088113Y-20443428D01*
X52099500Y-20495770D01*
X52099500Y-25004228D01*
X52088114Y-25056570D01*
X52064834Y-25107545D01*
X52044352Y-25250000D01*
X52064834Y-25392456D01*
X52124622Y-25523371D01*
X52124623Y-25523373D01*
X52218872Y-25632143D01*
X52218873Y-25632144D01*
X52279409Y-25671047D01*
X52339947Y-25709953D01*
X52437491Y-25738594D01*
X52478038Y-25750500D01*
X52478039Y-25750500D01*
X52621962Y-25750500D01*
X52653305Y-25741296D01*
X52760053Y-25709953D01*
X52881128Y-25632143D01*
X52975377Y-25523373D01*
X53035165Y-25392457D01*
X53055647Y-25250000D01*
X53035165Y-25107543D01*
X53011885Y-25056569D01*
X53000500Y-25004228D01*
X53000500Y-20495770D01*
X53011886Y-20443428D01*
X53035165Y-20392457D01*
X53055647Y-20250000D01*
X53035165Y-20107543D01*
X53011885Y-20056569D01*
X53000500Y-20004228D01*
X53000500Y-17732377D01*
X53001292Y-17718270D01*
X53005270Y-17682965D01*
X52994643Y-17626805D01*
X52993860Y-17622194D01*
X52985348Y-17565713D01*
X52985347Y-17565711D01*
X52984417Y-17559540D01*
X52982939Y-17555046D01*
X52980023Y-17549529D01*
X52980023Y-17549528D01*
X52953315Y-17498996D01*
X52951209Y-17494825D01*
X52926425Y-17443358D01*
X52926422Y-17443355D01*
X52923718Y-17437739D01*
X52920974Y-17433871D01*
X52916565Y-17429462D01*
X52876163Y-17389060D01*
X52872947Y-17385722D01*
X52834055Y-17343806D01*
X52834051Y-17343804D01*
X52829816Y-17339239D01*
X52814881Y-17327778D01*
X50501243Y-15014140D01*
X50475725Y-14977388D01*
X50475378Y-14976628D01*
X50381126Y-14867855D01*
X50260053Y-14790047D01*
X50260052Y-14790046D01*
X50244327Y-14785429D01*
X50190732Y-14753629D01*
X49641451Y-14204348D01*
X49632035Y-14193813D01*
X49618698Y-14177089D01*
X49609879Y-14166030D01*
X49609878Y-14166029D01*
X49609877Y-14166028D01*
X49562657Y-14133833D01*
X49558816Y-14131108D01*
X49556011Y-14129038D01*
X49512882Y-14097207D01*
X49512880Y-14097206D01*
X49507868Y-14093507D01*
X49503620Y-14091362D01*
X49479783Y-14084009D01*
X49443041Y-14072676D01*
X49438593Y-14071212D01*
X49378831Y-14050300D01*
X49374119Y-14049500D01*
X49367902Y-14049500D01*
X49366500Y-14049500D01*
X49298379Y-14029498D01*
X49251886Y-13975842D01*
X49240500Y-13923500D01*
X49240500Y-13210253D01*
X49240500Y-13210252D01*
X49228867Y-13151769D01*
X49214162Y-13129761D01*
X49184552Y-13085447D01*
X49118231Y-13041133D01*
X49118230Y-13041133D01*
X49059748Y-13029500D01*
X49059747Y-13029500D01*
X47326500Y-13029500D01*
X47258379Y-13009498D01*
X47211886Y-12955842D01*
X47200500Y-12903500D01*
X47200500Y-11288793D01*
X47220502Y-11220672D01*
X47237400Y-11199702D01*
X47690733Y-10746368D01*
X47744332Y-10714568D01*
X47760053Y-10709953D01*
X47760053Y-10709952D01*
X47774873Y-10705602D01*
X47810365Y-10700500D01*
X49789637Y-10700500D01*
X49825135Y-10705604D01*
X49978038Y-10750500D01*
X49978039Y-10750500D01*
X50121962Y-10750500D01*
X50157309Y-10740121D01*
X50260053Y-10709953D01*
X50381128Y-10632143D01*
X50475377Y-10523373D01*
X50535165Y-10392457D01*
X50555647Y-10250000D01*
X50535165Y-10107543D01*
X50475377Y-9976627D01*
X50381128Y-9867857D01*
X50381127Y-9867856D01*
X50381126Y-9867855D01*
X50260053Y-9790047D01*
X50121962Y-9749500D01*
X50121961Y-9749500D01*
X49978039Y-9749500D01*
X49978038Y-9749500D01*
X49825135Y-9794396D01*
X49789637Y-9799500D01*
X47810363Y-9799500D01*
X47774865Y-9794396D01*
X47621962Y-9749500D01*
X47621961Y-9749500D01*
X47478039Y-9749500D01*
X47478038Y-9749500D01*
X47339946Y-9790047D01*
X47218873Y-9867855D01*
X47124621Y-9976628D01*
X47082247Y-10069414D01*
X47056729Y-10106166D01*
X46454342Y-10708553D01*
X46443809Y-10717967D01*
X46416028Y-10740122D01*
X46383840Y-10787332D01*
X46381116Y-10791172D01*
X46343511Y-10842125D01*
X46341359Y-10846388D01*
X46322690Y-10906913D01*
X46321218Y-10911387D01*
X46300301Y-10971166D01*
X46299500Y-10975885D01*
X46299500Y-11039213D01*
X46299412Y-11043924D01*
X46297043Y-11107238D01*
X46299500Y-11125898D01*
X46299500Y-12903500D01*
X46279498Y-12971621D01*
X46225842Y-13018114D01*
X46173500Y-13029500D01*
X44126500Y-13029500D01*
X44058379Y-13009498D01*
X44011886Y-12955842D01*
X44000500Y-12903500D01*
X44000500Y-8126500D01*
X44020502Y-8058379D01*
X44074158Y-8011886D01*
X44126500Y-8000500D01*
X63873500Y-8000500D01*
X63941621Y-8020502D01*
G37*
G04 #@! TD.AperFunction*
G04 #@! TA.AperFunction,Conductor*
G36*
X58701621Y-17295502D02*
G01*
X58748114Y-17349158D01*
X58759500Y-17401500D01*
X58759500Y-19289746D01*
X58771133Y-19348231D01*
X58815447Y-19414552D01*
X58859762Y-19444162D01*
X58881769Y-19458867D01*
X58940252Y-19470500D01*
X63873500Y-19470500D01*
X63941621Y-19490502D01*
X63988114Y-19544158D01*
X63999500Y-19596500D01*
X63999500Y-19850000D01*
X63979498Y-19918121D01*
X63925842Y-19964614D01*
X63873500Y-19976000D01*
X61627000Y-19976000D01*
X61627000Y-23023999D01*
X63873500Y-23023999D01*
X63941621Y-23044001D01*
X63988114Y-23097657D01*
X63999500Y-23149999D01*
X63999500Y-27873500D01*
X63979498Y-27941621D01*
X63925842Y-27988114D01*
X63873500Y-27999500D01*
X44126500Y-27999500D01*
X44058379Y-27979498D01*
X44011886Y-27925842D01*
X44000500Y-27873500D01*
X44000500Y-27518954D01*
X44020502Y-27450833D01*
X44074158Y-27404340D01*
X44144432Y-27394236D01*
X44174072Y-27405291D01*
X44189945Y-27409951D01*
X44189947Y-27409953D01*
X44284020Y-27437575D01*
X44328038Y-27450500D01*
X44328039Y-27450500D01*
X44471962Y-27450500D01*
X44503305Y-27441296D01*
X44610053Y-27409953D01*
X44731128Y-27332143D01*
X44825377Y-27223373D01*
X44885165Y-27092457D01*
X44905647Y-26950000D01*
X44905646Y-26949995D01*
X44907288Y-26938578D01*
X44936781Y-26873997D01*
X44942907Y-26867417D01*
X44947938Y-26862387D01*
X45010258Y-26828374D01*
X45037017Y-26825500D01*
X55355290Y-26825500D01*
X55366271Y-26825979D01*
X55376937Y-26826913D01*
X55403805Y-26829264D01*
X55403805Y-26829263D01*
X55403807Y-26829264D01*
X55440224Y-26819505D01*
X55450932Y-26817131D01*
X55488045Y-26810588D01*
X55488046Y-26810586D01*
X55489266Y-26810372D01*
X55513668Y-26800264D01*
X55514680Y-26799554D01*
X55514684Y-26799554D01*
X55545568Y-26777927D01*
X55554797Y-26772048D01*
X55587455Y-26753194D01*
X55611696Y-26724302D01*
X55619100Y-26716224D01*
X56941235Y-25394090D01*
X56949305Y-25386694D01*
X56978194Y-25362455D01*
X56997041Y-25329809D01*
X57002934Y-25320558D01*
X57024554Y-25289684D01*
X57024554Y-25289681D01*
X57025263Y-25288670D01*
X57035371Y-25264269D01*
X57035586Y-25263047D01*
X57035588Y-25263045D01*
X57042134Y-25225912D01*
X57044503Y-25215226D01*
X57054263Y-25178807D01*
X57050979Y-25141267D01*
X57050500Y-25130287D01*
X57050500Y-21627000D01*
X58706001Y-21627000D01*
X58706001Y-22795018D01*
X58720736Y-22869105D01*
X58776876Y-22953124D01*
X58860893Y-23009263D01*
X58934981Y-23023999D01*
X61373000Y-23023999D01*
X61373000Y-21627000D01*
X58706001Y-21627000D01*
X57050500Y-21627000D01*
X57050500Y-21373000D01*
X58706000Y-21373000D01*
X61373000Y-21373000D01*
X61373000Y-19976000D01*
X58934981Y-19976000D01*
X58860894Y-19990736D01*
X58776875Y-20046876D01*
X58720736Y-20130893D01*
X58706000Y-20204981D01*
X58706000Y-21373000D01*
X57050500Y-21373000D01*
X57050500Y-18187017D01*
X57070502Y-18118896D01*
X57087405Y-18097921D01*
X57872923Y-17312404D01*
X57935235Y-17278379D01*
X57962018Y-17275500D01*
X58633500Y-17275500D01*
X58701621Y-17295502D01*
G37*
G04 #@! TD.AperFunction*
G04 #@! TD*
M02*
