G04 #@! TF.GenerationSoftware,KiCad,Pcbnew,(6.0.5)*
G04 #@! TF.CreationDate,2022-06-20T16:53:07+02:00*
G04 #@! TF.ProjectId,MicroMatrix_Panel,4d696372-6f4d-4617-9472-69785f50616e,1.2*
G04 #@! TF.SameCoordinates,Original*
G04 #@! TF.FileFunction,Profile,NP*
%FSLAX46Y46*%
G04 Gerber Fmt 4.6, Leading zero omitted, Abs format (unit mm)*
G04 Created by KiCad (PCBNEW (6.0.5)) date 2022-06-20 16:53:07*
%MOMM*%
%LPD*%
G01*
G04 APERTURE LIST*
G04 #@! TA.AperFunction,Profile*
%ADD10C,0.100000*%
G04 #@! TD*
G04 APERTURE END LIST*
D10*
X49111144Y-20075362D02*
X49156480Y-20057874D01*
X22843519Y-43057874D02*
X22888855Y-43075362D01*
X15301986Y-50715348D02*
X15365989Y-50772930D01*
X70504770Y-43892963D02*
X70510718Y-43844737D01*
X89500000Y-22009877D02*
X89498804Y-22058576D01*
X92861952Y-43224721D02*
X92900259Y-43194826D01*
X93202619Y-43042631D02*
X93249450Y-43029671D01*
X78987727Y-23000000D02*
X71490122Y-23000000D01*
X89210033Y-20289966D02*
X89243539Y-20325158D01*
X22655262Y-20010718D02*
X22703138Y-20019025D01*
X70529671Y-45250549D02*
X70519025Y-45203138D01*
X100382793Y-15076495D02*
X100301839Y-15047194D01*
X66933278Y-20095053D02*
X66976681Y-20116900D01*
X93156480Y-22942125D02*
X93111144Y-22924637D01*
X37005125Y-42998646D02*
X37012272Y-43000000D01*
X56994874Y-42998646D02*
X56999275Y-42993544D01*
X71202619Y-20042631D02*
X71249450Y-20029671D01*
X26825158Y-45743539D02*
X26789966Y-45710033D01*
X23060012Y-22833152D02*
X23018960Y-22859148D01*
X26789966Y-20289966D02*
X26825158Y-20256460D01*
X100987727Y-20000000D02*
X100996477Y-19997517D01*
X45457368Y-20702619D02*
X45470328Y-20749450D01*
X26575362Y-20611144D02*
X26595053Y-20566721D01*
X37012272Y-23000000D02*
X37006917Y-23000559D01*
X45442125Y-20656480D02*
X45457368Y-20702619D01*
X23498804Y-22058576D02*
X23495229Y-22107036D01*
X15000724Y-42993544D02*
X15005125Y-42998646D01*
X48529671Y-22250549D02*
X48519025Y-22203138D01*
X49296861Y-20019025D02*
X49344737Y-20010718D01*
X81000559Y-42993082D02*
X81005125Y-42998646D01*
X71296861Y-43019025D02*
X71344737Y-43010718D01*
X100987727Y-23000000D02*
X93490122Y-23000000D01*
X45243539Y-43325158D02*
X45275278Y-43361952D01*
X49111144Y-45924637D02*
X49066721Y-45904946D01*
X89498804Y-43941423D02*
X89500000Y-43990122D01*
X48666847Y-20439987D02*
X48694826Y-20400259D01*
X100097743Y-15005094D02*
X99987727Y-15000000D01*
X44976681Y-20116900D02*
X45018960Y-20140851D01*
X89333152Y-20439987D02*
X89359148Y-20481039D01*
X27441423Y-45998804D02*
X27392963Y-45995229D01*
X48981039Y-43140851D02*
X49023318Y-43116900D01*
X66750549Y-45970328D02*
X66703138Y-45980974D01*
X22976681Y-22883099D02*
X22933278Y-22904946D01*
X100698013Y-15284651D02*
X100634010Y-15227069D01*
X67495229Y-45107036D02*
X67489281Y-45155262D01*
X71392963Y-45995229D02*
X71344737Y-45989281D01*
X44888855Y-22924637D02*
X44843519Y-22942125D01*
X44509877Y-20000000D02*
X44558576Y-20001195D01*
X71296861Y-22980974D02*
X71249450Y-22970328D01*
X44750549Y-43029671D02*
X44797380Y-43042631D01*
X66703138Y-43019025D02*
X66750549Y-43029671D01*
X45243539Y-20325158D02*
X45275278Y-20361952D01*
X99987727Y-15000000D02*
X16012272Y-15000000D01*
X70640851Y-43481039D02*
X70666847Y-43439987D01*
X27023318Y-22883099D02*
X26981039Y-22859148D01*
X45275278Y-20361952D02*
X45305173Y-20400259D01*
X49392963Y-43004770D02*
X49441423Y-43001195D01*
X15617206Y-50923504D02*
X15698160Y-50952805D01*
X92640851Y-22518960D02*
X92616900Y-22476681D01*
X22607036Y-20004770D02*
X22655262Y-20010718D01*
X45498804Y-22058576D02*
X45495229Y-22107036D01*
X66703138Y-22980974D02*
X66655262Y-22989281D01*
X22976681Y-45883099D02*
X22933278Y-45904946D01*
X93490122Y-20000000D02*
X100987727Y-20000000D01*
X70789966Y-20289966D02*
X70825158Y-20256460D01*
X26519025Y-20796861D02*
X26529671Y-20749450D01*
X92504770Y-22107036D02*
X92501195Y-22058576D01*
X44607036Y-22995229D02*
X44558576Y-22998804D01*
X23138047Y-20224721D02*
X23174841Y-20256460D01*
X15000057Y-19990190D02*
X15003902Y-19997829D01*
X27296861Y-22980974D02*
X27249450Y-22970328D01*
X48616900Y-20523318D02*
X48640851Y-20481039D01*
X26616900Y-22476681D02*
X26595053Y-22433278D01*
X44843519Y-43057874D02*
X44888855Y-43075362D01*
X66558576Y-45998804D02*
X66509877Y-46000000D01*
X27296861Y-20019025D02*
X27344737Y-20010718D01*
X26542631Y-45297380D02*
X26529671Y-45250549D01*
X49344737Y-43010718D02*
X49392963Y-43004770D01*
X26756460Y-43325158D02*
X26789966Y-43289966D01*
X49490122Y-23000000D02*
X49441423Y-22998804D01*
X49344737Y-20010718D02*
X49392963Y-20004770D01*
X88750549Y-45970328D02*
X88703138Y-45980974D01*
X15003522Y-46002482D02*
X15000724Y-46006455D01*
X48504770Y-45107036D02*
X48501195Y-45058576D01*
X67489281Y-45155262D02*
X67480974Y-45203138D01*
X100698013Y-50715348D02*
X100764768Y-50643486D01*
X26557874Y-45343519D02*
X26542631Y-45297380D01*
X70616900Y-20523318D02*
X70640851Y-20481039D01*
X26939987Y-22833152D02*
X26900259Y-22805173D01*
X49441423Y-45998804D02*
X49392963Y-45995229D01*
X89498804Y-45058576D02*
X89495229Y-45107036D01*
X15003902Y-19997829D02*
X15012272Y-20000000D01*
X67018960Y-43140851D02*
X67060012Y-43166847D01*
X92616900Y-22476681D02*
X92595053Y-22433278D01*
X67174841Y-45743539D02*
X67138047Y-45775278D01*
X89404946Y-45433278D02*
X89383099Y-45476681D01*
X48724721Y-43361952D02*
X48756460Y-43325158D01*
X67500000Y-43990122D02*
X67500000Y-45009877D01*
X92900259Y-20194826D02*
X92939987Y-20166847D01*
X88703138Y-20019025D02*
X88750549Y-20029671D01*
X71156480Y-20057874D02*
X71202619Y-20042631D01*
X67210033Y-20289966D02*
X67243539Y-20325158D01*
X26861952Y-22775278D02*
X26825158Y-22743539D01*
X27296861Y-43019025D02*
X27344737Y-43010718D01*
X71111144Y-45924637D02*
X71066721Y-45904946D01*
X48939987Y-20166847D02*
X48981039Y-20140851D01*
X22843519Y-45942125D02*
X22797380Y-45957368D01*
X93111144Y-20075362D02*
X93156480Y-20057874D01*
X66750549Y-20029671D02*
X66797380Y-20042631D01*
X88976681Y-22883099D02*
X88933278Y-22904946D01*
X88976681Y-20116900D02*
X89018960Y-20140851D01*
X70616900Y-43523318D02*
X70640851Y-43481039D01*
X70542631Y-22297380D02*
X70529671Y-22250549D01*
X92939987Y-43166847D02*
X92981039Y-43140851D01*
X100923504Y-15617206D02*
X100881768Y-15528963D01*
X89210033Y-45710033D02*
X89174841Y-45743539D01*
X67442125Y-20656480D02*
X67457368Y-20702619D01*
X48500000Y-43990122D02*
X48501195Y-43941423D01*
X48529671Y-45250549D02*
X48519025Y-45203138D01*
X26694826Y-20400259D02*
X26724721Y-20361952D01*
X89404946Y-43566721D02*
X89424637Y-43611144D01*
X70575362Y-45388855D02*
X70557874Y-45343519D01*
X23333152Y-22560012D02*
X23305173Y-22599740D01*
X26640851Y-22518960D02*
X26616900Y-22476681D01*
X89442125Y-45343519D02*
X89424637Y-45388855D01*
X23210033Y-20289966D02*
X23243539Y-20325158D01*
X23470328Y-22250549D02*
X23457368Y-22297380D01*
X70861952Y-20224721D02*
X70900259Y-20194826D01*
X45489281Y-20844737D02*
X45495229Y-20892963D01*
X48900259Y-20194826D02*
X48939987Y-20166847D01*
X27441423Y-43001195D02*
X27490122Y-43000000D01*
X49249450Y-20029671D02*
X49296861Y-20019025D01*
X44703138Y-45980974D02*
X44655262Y-45989281D01*
X93441423Y-22998804D02*
X93392963Y-22995229D01*
X37000559Y-23006917D02*
X37000003Y-23012027D01*
X88888855Y-20075362D02*
X88933278Y-20095053D01*
X22509877Y-43000000D02*
X22558576Y-43001195D01*
X23495229Y-22107036D02*
X23489281Y-22155262D01*
X92861952Y-45775278D02*
X92825158Y-45743539D01*
X67243539Y-45674841D02*
X67210033Y-45710033D01*
X23305173Y-22599740D02*
X23275278Y-22638047D01*
X59005125Y-42998646D02*
X59012272Y-43000000D01*
X22750549Y-20029671D02*
X22797380Y-20042631D01*
X71344737Y-22989281D02*
X71296861Y-22980974D01*
X48542631Y-45297380D02*
X48529671Y-45250549D01*
X16012272Y-51000000D02*
X99987727Y-51000000D01*
X89470328Y-43749450D02*
X89480974Y-43796861D01*
X66843519Y-43057874D02*
X66888855Y-43075362D01*
X23333152Y-45560012D02*
X23305173Y-45599740D01*
X26724721Y-20361952D02*
X26756460Y-20325158D01*
X15047194Y-50301839D02*
X15076495Y-50382793D01*
X71249450Y-43029671D02*
X71296861Y-43019025D01*
X66750549Y-22970328D02*
X66703138Y-22980974D01*
X48789966Y-20289966D02*
X48825158Y-20256460D01*
X48504770Y-22107036D02*
X48501195Y-22058576D01*
X70616900Y-22476681D02*
X70595053Y-22433278D01*
X48595053Y-22433278D02*
X48575362Y-22388855D01*
X92825158Y-45743539D02*
X92789966Y-45710033D01*
X49249450Y-43029671D02*
X49296861Y-43019025D01*
X27344737Y-43010718D02*
X27392963Y-43004770D01*
X44976681Y-22883099D02*
X44933278Y-22904946D01*
X70939987Y-20166847D02*
X70981039Y-20140851D01*
X23359148Y-45518960D02*
X23333152Y-45560012D01*
X89498804Y-22058576D02*
X89495229Y-22107036D01*
X23495229Y-43892963D02*
X23498804Y-43941423D01*
X48756460Y-45674841D02*
X48724721Y-45638047D01*
X49249450Y-45970328D02*
X49202619Y-45957368D01*
X27111144Y-43075362D02*
X27156480Y-43057874D01*
X70694826Y-45599740D02*
X70666847Y-45560012D01*
X70500000Y-20990122D02*
X70501195Y-20941423D01*
X45470328Y-22250549D02*
X45457368Y-22297380D01*
X93392963Y-20004770D02*
X93441423Y-20001195D01*
X101000000Y-49987727D02*
X101000000Y-46012272D01*
X23500000Y-45009877D02*
X23498804Y-45058576D01*
X89424637Y-22388855D02*
X89404946Y-22433278D01*
X93066721Y-45904946D02*
X93023318Y-45883099D01*
X49066721Y-22904946D02*
X49023318Y-22883099D01*
X34999275Y-42993544D02*
X34999942Y-23009809D01*
X100881768Y-15528963D02*
X100837778Y-15454956D01*
X66888855Y-22924637D02*
X66843519Y-22942125D01*
X66933278Y-43095053D02*
X66976681Y-43116900D01*
X27249450Y-22970328D02*
X27202619Y-22957368D01*
X27023318Y-43116900D02*
X27066721Y-43095053D01*
X48640851Y-22518960D02*
X48616900Y-22476681D01*
X26504770Y-45107036D02*
X26501195Y-45058576D01*
X26640851Y-45518960D02*
X26616900Y-45476681D01*
X59012272Y-23000000D02*
X59006917Y-23000559D01*
X23359148Y-43481039D02*
X23383099Y-43523318D01*
X100382340Y-50923692D02*
X100460302Y-50887168D01*
X26861952Y-45775278D02*
X26825158Y-45743539D01*
X92756460Y-20325158D02*
X92789966Y-20289966D01*
X100634010Y-15227069D02*
X100555605Y-15168919D01*
X88797380Y-43042631D02*
X88843519Y-43057874D01*
X67489281Y-43844737D02*
X67495229Y-43892963D01*
X93156480Y-45942125D02*
X93111144Y-45924637D01*
X89174841Y-22743539D02*
X89138047Y-22775278D01*
X89138047Y-45775278D02*
X89099740Y-45805173D01*
X92510718Y-22155262D02*
X92504770Y-22107036D01*
X44933278Y-45904946D02*
X44888855Y-45924637D01*
X27023318Y-20116900D02*
X27066721Y-20095053D01*
X23404946Y-20566721D02*
X23424637Y-20611144D01*
X23174841Y-43256460D02*
X23210033Y-43289966D01*
X88558576Y-45998804D02*
X88509877Y-46000000D01*
X15000724Y-46006455D02*
X15000000Y-46012272D01*
X45099740Y-22805173D02*
X45060012Y-22833152D01*
X70640851Y-22518960D02*
X70616900Y-22476681D01*
X67333152Y-45560012D02*
X67305173Y-45599740D01*
X67359148Y-22518960D02*
X67333152Y-22560012D01*
X70756460Y-45674841D02*
X70724721Y-45638047D01*
X89359148Y-43481039D02*
X89383099Y-43523318D01*
X15617206Y-15076495D02*
X15528963Y-15118231D01*
X23275278Y-43361952D02*
X23305173Y-43400259D01*
X37006917Y-23000559D02*
X37003159Y-23002811D01*
X100952805Y-15698160D02*
X100923504Y-15617206D01*
X70501195Y-45058576D02*
X70500000Y-45009877D01*
X88607036Y-22995229D02*
X88558576Y-22998804D01*
X27066721Y-45904946D02*
X27023318Y-45883099D01*
X49344737Y-22989281D02*
X49296861Y-22980974D01*
X66703138Y-45980974D02*
X66655262Y-45989281D01*
X15043279Y-15710038D02*
X15019465Y-15805209D01*
X70789966Y-43289966D02*
X70825158Y-43256460D01*
X26900259Y-43194826D02*
X26939987Y-43166847D01*
X23275278Y-20361952D02*
X23305173Y-20400259D01*
X34987727Y-23000000D02*
X27490122Y-23000000D01*
X93023318Y-20116900D02*
X93066721Y-20095053D01*
X48666847Y-43439987D02*
X48694826Y-43400259D01*
X67470328Y-20749450D02*
X67480974Y-20796861D01*
X26640851Y-20481039D02*
X26666847Y-20439987D01*
X67480974Y-45203138D02*
X67470328Y-45250549D01*
X23060012Y-43166847D02*
X23099740Y-43194826D01*
X22933278Y-43095053D02*
X22976681Y-43116900D01*
X44607036Y-43004770D02*
X44655262Y-43010718D01*
X89470328Y-22250549D02*
X89457368Y-22297380D01*
X26939987Y-20166847D02*
X26981039Y-20140851D01*
X70981039Y-22859148D02*
X70939987Y-22833152D01*
X71344737Y-43010718D02*
X71392963Y-43004770D01*
X26542631Y-43702619D02*
X26557874Y-43656480D01*
X27344737Y-22989281D02*
X27296861Y-22980974D01*
X67359148Y-20481039D02*
X67383099Y-20523318D01*
X37012272Y-43000000D02*
X44509877Y-43000000D01*
X27202619Y-20042631D02*
X27249450Y-20029671D01*
X88703138Y-43019025D02*
X88750549Y-43029671D01*
X23457368Y-45297380D02*
X23442125Y-45343519D01*
X100085759Y-50995786D02*
X100110156Y-50993383D01*
X93202619Y-20042631D02*
X93249450Y-20029671D01*
X48694826Y-22599740D02*
X48666847Y-22560012D01*
X67383099Y-20523318D02*
X67404946Y-20566721D01*
X22558576Y-20001195D02*
X22607036Y-20004770D01*
X15518076Y-50875611D02*
X15539697Y-50887168D01*
X92510718Y-20844737D02*
X92519025Y-20796861D01*
X45099740Y-45805173D02*
X45060012Y-45833152D01*
X15162221Y-50545043D02*
X15175841Y-50565427D01*
X45383099Y-45476681D02*
X45359148Y-45518960D01*
X92500000Y-43990122D02*
X92501195Y-43941423D01*
X93023318Y-43116900D02*
X93066721Y-43095053D01*
X49441423Y-43001195D02*
X49490122Y-43000000D01*
X23383099Y-22476681D02*
X23359148Y-22518960D01*
X27392963Y-45995229D02*
X27344737Y-45989281D01*
X45404946Y-45433278D02*
X45383099Y-45476681D01*
X89495229Y-20892963D02*
X89498804Y-20941423D01*
X27344737Y-45989281D02*
X27296861Y-45980974D01*
X48861952Y-22775278D02*
X48825158Y-22743539D01*
X70939987Y-45833152D02*
X70900259Y-45805173D01*
X67060012Y-22833152D02*
X67018960Y-22859148D01*
X70500000Y-22009877D02*
X70500000Y-20990122D01*
X15227069Y-15365989D02*
X15168919Y-15444394D01*
X45210033Y-45710033D02*
X45174841Y-45743539D01*
X70694826Y-22599740D02*
X70666847Y-22560012D01*
X66607036Y-45995229D02*
X66558576Y-45998804D01*
X70510718Y-22155262D02*
X70504770Y-22107036D01*
X92666847Y-45560012D02*
X92640851Y-45518960D01*
X70500000Y-45009877D02*
X70500000Y-43990122D01*
X44558576Y-43001195D02*
X44607036Y-43004770D01*
X100555605Y-15168919D02*
X100481923Y-15124388D01*
X88558576Y-43001195D02*
X88607036Y-43004770D01*
X93249450Y-20029671D02*
X93296861Y-20019025D01*
X92529671Y-22250549D02*
X92519025Y-22203138D01*
X44933278Y-43095053D02*
X44976681Y-43116900D01*
X15071985Y-15628871D02*
X15043279Y-15710038D01*
X45333152Y-43439987D02*
X45359148Y-43481039D01*
X27066721Y-20095053D02*
X27111144Y-20075362D01*
X15000000Y-46012272D02*
X15000000Y-49987727D01*
X101000000Y-19987727D02*
X101000000Y-16012272D01*
X48557874Y-43656480D02*
X48575362Y-43611144D01*
X92501195Y-22058576D02*
X92500000Y-22009877D01*
X67174841Y-43256460D02*
X67210033Y-43289966D01*
X88797380Y-22957368D02*
X88750549Y-22970328D01*
X49249450Y-22970328D02*
X49202619Y-22957368D01*
X92529671Y-43749450D02*
X92542631Y-43702619D01*
X48666847Y-22560012D02*
X48640851Y-22518960D01*
X23099740Y-43194826D02*
X23138047Y-43224721D01*
X88703138Y-22980974D02*
X88655262Y-22989281D01*
X92510718Y-43844737D02*
X92519025Y-43796861D01*
X15076495Y-50382793D02*
X15118231Y-50471036D01*
X26575362Y-45388855D02*
X26557874Y-45343519D01*
X23018960Y-20140851D02*
X23060012Y-20166847D01*
X100881537Y-50471469D02*
X100923504Y-50382793D01*
X48501195Y-45058576D02*
X48500000Y-45009877D01*
X66888855Y-43075362D02*
X66933278Y-43095053D01*
X44933278Y-22904946D02*
X44888855Y-22924637D01*
X92756460Y-43325158D02*
X92789966Y-43289966D01*
X22558576Y-43001195D02*
X22607036Y-43004770D01*
X66509877Y-20000000D02*
X66558576Y-20001195D01*
X100999583Y-42992612D02*
X100999275Y-23006455D01*
X48825158Y-45743539D02*
X48789966Y-45710033D01*
X70595053Y-43566721D02*
X70616900Y-43523318D01*
X67424637Y-22388855D02*
X67404946Y-22433278D01*
X71066721Y-22904946D02*
X71023318Y-22883099D01*
X66607036Y-43004770D02*
X66655262Y-43010718D01*
X89489281Y-45155262D02*
X89480974Y-45203138D01*
X48900259Y-45805173D02*
X48861952Y-45775278D01*
X45243539Y-22674841D02*
X45210033Y-22710033D01*
X89457368Y-45297380D02*
X89442125Y-45343519D01*
X67138047Y-22775278D02*
X67099740Y-22805173D01*
X66509877Y-43000000D02*
X66558576Y-43001195D01*
X81006917Y-23000559D02*
X81003159Y-23002811D01*
X48504770Y-20892963D02*
X48510718Y-20844737D01*
X49111144Y-22924637D02*
X49066721Y-22904946D01*
X93490122Y-43000000D02*
X100987727Y-43000000D01*
X22558576Y-22998804D02*
X22509877Y-23000000D01*
X26504770Y-22107036D02*
X26501195Y-22058576D01*
X23480974Y-43796861D02*
X23489281Y-43844737D01*
X26981039Y-43140851D02*
X27023318Y-43116900D01*
X45275278Y-43361952D02*
X45305173Y-43400259D01*
X92519025Y-45203138D02*
X92510718Y-45155262D01*
X70519025Y-43796861D02*
X70529671Y-43749450D01*
X71023318Y-22883099D02*
X70981039Y-22859148D01*
X15004213Y-50085759D02*
X15006616Y-50110156D01*
X67138047Y-20224721D02*
X67174841Y-20256460D01*
X67138047Y-43224721D02*
X67174841Y-43256460D01*
X49066721Y-20095053D02*
X49111144Y-20075362D01*
X93202619Y-22957368D02*
X93156480Y-22942125D01*
X15006616Y-50110156D02*
X15019561Y-50195271D01*
X92510718Y-45155262D02*
X92504770Y-45107036D01*
X67424637Y-45388855D02*
X67404946Y-45433278D01*
X27441423Y-20001195D02*
X27490122Y-20000000D01*
X15365989Y-50772930D02*
X15444394Y-50831080D01*
X44797380Y-22957368D02*
X44750549Y-22970328D01*
X92616900Y-43523318D02*
X92640851Y-43481039D01*
X89442125Y-43656480D02*
X89457368Y-43702619D01*
X89500000Y-43990122D02*
X89500000Y-45009877D01*
X48500000Y-22009877D02*
X48500000Y-20990122D01*
X26500000Y-45009877D02*
X26500000Y-43990122D01*
X89174841Y-20256460D02*
X89210033Y-20289966D01*
X48510718Y-20844737D02*
X48519025Y-20796861D01*
X44797380Y-43042631D02*
X44843519Y-43057874D01*
X88509877Y-23000000D02*
X81012272Y-23000000D01*
X23404946Y-45433278D02*
X23383099Y-45476681D01*
X66976681Y-43116900D02*
X67018960Y-43140851D01*
X15012272Y-43000000D02*
X22509877Y-43000000D01*
X45489281Y-22155262D02*
X45480974Y-22203138D01*
X67275278Y-43361952D02*
X67305173Y-43400259D01*
X81012272Y-23000000D02*
X81006917Y-23000559D01*
X93111144Y-22924637D02*
X93066721Y-22904946D01*
X26825158Y-20256460D02*
X26861952Y-20224721D01*
X70501195Y-20941423D02*
X70504770Y-20892963D01*
X89099740Y-43194826D02*
X89138047Y-43224721D01*
X92825158Y-20256460D02*
X92861952Y-20224721D01*
X23018960Y-45859148D02*
X22976681Y-45883099D01*
X15019561Y-50195271D02*
X15040077Y-50278380D01*
X45404946Y-43566721D02*
X45424637Y-43611144D01*
X23174841Y-22743539D02*
X23138047Y-22775278D01*
X26939987Y-45833152D02*
X26900259Y-45805173D01*
X70501195Y-22058576D02*
X70500000Y-22009877D01*
X93066721Y-20095053D02*
X93111144Y-20075362D01*
X49066721Y-45904946D02*
X49023318Y-45883099D01*
X70861952Y-43224721D02*
X70900259Y-43194826D01*
X26666847Y-22560012D02*
X26640851Y-22518960D01*
X23442125Y-43656480D02*
X23457368Y-43702619D01*
X89500000Y-20990122D02*
X89500000Y-22009877D01*
X67333152Y-22560012D02*
X67305173Y-22599740D01*
X67060012Y-43166847D02*
X67099740Y-43194826D01*
X22607036Y-45995229D02*
X22558576Y-45998804D01*
X71249450Y-20029671D02*
X71296861Y-20019025D01*
X93249450Y-22970328D02*
X93202619Y-22957368D01*
X89457368Y-22297380D02*
X89442125Y-22343519D01*
X88843519Y-43057874D02*
X88888855Y-43075362D01*
X26595053Y-22433278D02*
X26575362Y-22388855D01*
X100995295Y-46001605D02*
X100987727Y-46000000D01*
X22933278Y-45904946D02*
X22888855Y-45924637D01*
X92557874Y-20656480D02*
X92575362Y-20611144D01*
X89099740Y-20194826D02*
X89138047Y-20224721D01*
X48542631Y-43702619D02*
X48557874Y-43656480D01*
X88655262Y-22989281D02*
X88607036Y-22995229D01*
X78999942Y-23009809D02*
X78996097Y-23002170D01*
X26501195Y-22058576D02*
X26500000Y-22009877D01*
X71490122Y-43000000D02*
X78987727Y-43000000D01*
X15817049Y-50982586D02*
X15902256Y-50994905D01*
X26529671Y-22250549D02*
X26519025Y-22203138D01*
X89060012Y-43166847D02*
X89099740Y-43194826D01*
X23138047Y-45775278D02*
X23099740Y-45805173D01*
X23498804Y-45058576D02*
X23495229Y-45107036D01*
X88933278Y-22904946D02*
X88888855Y-22924637D01*
X27202619Y-22957368D02*
X27156480Y-22942125D01*
X92575362Y-43611144D02*
X92595053Y-43566721D01*
X45489281Y-43844737D02*
X45495229Y-43892963D01*
X23243539Y-43325158D02*
X23275278Y-43361952D01*
X45424637Y-22388855D02*
X45404946Y-22433278D01*
X26519025Y-22203138D02*
X26510718Y-22155262D01*
X48575362Y-43611144D02*
X48595053Y-43566721D01*
X23174841Y-20256460D02*
X23210033Y-20289966D01*
X48519025Y-45203138D02*
X48510718Y-45155262D01*
X92542631Y-22297380D02*
X92529671Y-22250549D01*
X26825158Y-43256460D02*
X26861952Y-43224721D01*
X45404946Y-20566721D02*
X45424637Y-20611144D01*
X88933278Y-20095053D02*
X88976681Y-20116900D01*
X23404946Y-43566721D02*
X23424637Y-43611144D01*
X23424637Y-45388855D02*
X23404946Y-45433278D01*
X71490122Y-23000000D02*
X71441423Y-22998804D01*
X89305173Y-22599740D02*
X89275278Y-22638047D01*
X44655262Y-20010718D02*
X44703138Y-20019025D01*
X45174841Y-45743539D02*
X45138047Y-45775278D01*
X23489281Y-45155262D02*
X23480974Y-45203138D01*
X92861952Y-20224721D02*
X92900259Y-20194826D01*
X48756460Y-43325158D02*
X48789966Y-43289966D01*
X100977803Y-50206994D02*
X100982586Y-50182950D01*
X92616900Y-20523318D02*
X92640851Y-20481039D01*
X23457368Y-22297380D02*
X23442125Y-22343519D01*
X23424637Y-22388855D02*
X23404946Y-22433278D01*
X48789966Y-22710033D02*
X48756460Y-22674841D01*
X48595053Y-43566721D02*
X48616900Y-43523318D01*
X89243539Y-45674841D02*
X89210033Y-45710033D01*
X48542631Y-20702619D02*
X48557874Y-20656480D01*
X100182950Y-15017413D02*
X100097743Y-15005094D01*
X88750549Y-20029671D02*
X88797380Y-20042631D01*
X67018960Y-22859148D02*
X66976681Y-22883099D01*
X92724721Y-45638047D02*
X92694826Y-45599740D01*
X93202619Y-45957368D02*
X93156480Y-45942125D01*
X45138047Y-22775278D02*
X45099740Y-22805173D01*
X45359148Y-20481039D02*
X45383099Y-20523318D01*
X23305173Y-43400259D02*
X23333152Y-43439987D01*
X88509877Y-43000000D02*
X88558576Y-43001195D01*
X48666847Y-45560012D02*
X48640851Y-45518960D01*
X27111144Y-45924637D02*
X27066721Y-45904946D01*
X67305173Y-20400259D02*
X67333152Y-20439987D01*
X59000003Y-23012027D02*
X59000559Y-42993082D01*
X22509877Y-20000000D02*
X22558576Y-20001195D01*
X92724721Y-20361952D02*
X92756460Y-20325158D01*
X22797380Y-20042631D02*
X22843519Y-20057874D01*
X23333152Y-43439987D02*
X23359148Y-43481039D01*
X67060012Y-20166847D02*
X67099740Y-20194826D01*
X48981039Y-20140851D02*
X49023318Y-20116900D01*
X92789966Y-45710033D02*
X92756460Y-45674841D01*
X89404946Y-22433278D02*
X89383099Y-22476681D01*
X27066721Y-43095053D02*
X27111144Y-43075362D01*
X48724721Y-22638047D02*
X48694826Y-22599740D01*
X45495229Y-22107036D02*
X45489281Y-22155262D01*
X88888855Y-43075362D02*
X88933278Y-43095053D01*
X48694826Y-43400259D02*
X48724721Y-43361952D01*
X89383099Y-45476681D02*
X89359148Y-45518960D01*
X67383099Y-45476681D02*
X67359148Y-45518960D01*
X66655262Y-22989281D02*
X66607036Y-22995229D01*
X23210033Y-45710033D02*
X23174841Y-45743539D01*
X89498804Y-20941423D02*
X89500000Y-20990122D01*
X70694826Y-43400259D02*
X70724721Y-43361952D01*
X48519025Y-20796861D02*
X48529671Y-20749450D01*
X26510718Y-45155262D02*
X26504770Y-45107036D01*
X26529671Y-45250549D02*
X26519025Y-45203138D01*
X70557874Y-22343519D02*
X70542631Y-22297380D01*
X22607036Y-43004770D02*
X22655262Y-43010718D01*
X89138047Y-43224721D02*
X89174841Y-43256460D01*
X70724721Y-43361952D02*
X70756460Y-43325158D01*
X67498804Y-20941423D02*
X67500000Y-20990122D01*
X26500000Y-43990122D02*
X26501195Y-43941423D01*
X92501195Y-43941423D02*
X92504770Y-43892963D01*
X89275278Y-43361952D02*
X89305173Y-43400259D01*
X26529671Y-43749450D02*
X26542631Y-43702619D01*
X49392963Y-45995229D02*
X49344737Y-45989281D01*
X67470328Y-22250549D02*
X67457368Y-22297380D01*
X44888855Y-43075362D02*
X44933278Y-43095053D01*
X22703138Y-20019025D02*
X22750549Y-20029671D01*
X70500000Y-43990122D02*
X70501195Y-43941423D01*
X78987727Y-43000000D02*
X78994874Y-42998646D01*
X89424637Y-20611144D02*
X89442125Y-20656480D01*
X23138047Y-43224721D02*
X23174841Y-43256460D01*
X23243539Y-22674841D02*
X23210033Y-22710033D01*
X89099740Y-45805173D02*
X89060012Y-45833152D01*
X71023318Y-20116900D02*
X71066721Y-20095053D01*
X89210033Y-22710033D02*
X89174841Y-22743539D01*
X45210033Y-43289966D02*
X45243539Y-43325158D01*
X48981039Y-22859148D02*
X48939987Y-22833152D01*
X93156480Y-43057874D02*
X93202619Y-43042631D01*
X15019465Y-15805209D02*
X15005094Y-15902256D01*
X67495229Y-22107036D02*
X67489281Y-22155262D01*
X26825158Y-22743539D02*
X26789966Y-22710033D01*
X89275278Y-45638047D02*
X89243539Y-45674841D01*
X89500000Y-45009877D02*
X89498804Y-45058576D01*
X23275278Y-45638047D02*
X23243539Y-45674841D01*
X48501195Y-22058576D02*
X48500000Y-22009877D01*
X22797380Y-43042631D02*
X22843519Y-43057874D01*
X15000000Y-16012272D02*
X15000057Y-19990190D01*
X92724721Y-22638047D02*
X92694826Y-22599740D01*
X45498804Y-43941423D02*
X45500000Y-43990122D01*
X23480974Y-22203138D02*
X23470328Y-22250549D01*
X89489281Y-20844737D02*
X89495229Y-20892963D01*
X45500000Y-22009877D02*
X45498804Y-22058576D01*
X26756460Y-45674841D02*
X26724721Y-45638047D01*
X15454956Y-15162221D02*
X15434572Y-15175841D01*
X26575362Y-43611144D02*
X26595053Y-43566721D01*
X48575362Y-22388855D02*
X48557874Y-22343519D01*
X44655262Y-43010718D02*
X44703138Y-43019025D01*
X49023318Y-45883099D02*
X48981039Y-45859148D01*
X89305173Y-20400259D02*
X89333152Y-20439987D01*
X89480974Y-22203138D02*
X89470328Y-22250549D01*
X89457368Y-20702619D02*
X89470328Y-20749450D01*
X100837778Y-15454956D02*
X100824158Y-15434572D01*
X48542631Y-22297380D02*
X48529671Y-22250549D01*
X67480974Y-43796861D02*
X67489281Y-43844737D01*
X100290431Y-50956577D02*
X100382340Y-50923692D01*
X92640851Y-45518960D02*
X92616900Y-45476681D01*
X34994874Y-42998646D02*
X34999275Y-42993544D01*
X26981039Y-20140851D02*
X27023318Y-20116900D01*
X26861952Y-43224721D02*
X26900259Y-43194826D01*
X78999275Y-42993544D02*
X78999942Y-23009809D01*
X45424637Y-20611144D02*
X45442125Y-20656480D01*
X26519025Y-45203138D02*
X26510718Y-45155262D01*
X44703138Y-22980974D02*
X44655262Y-22989281D01*
X71296861Y-45980974D02*
X71249450Y-45970328D01*
X88509877Y-20000000D02*
X88558576Y-20001195D01*
X89480974Y-45203138D02*
X89470328Y-45250549D01*
X56999942Y-23009809D02*
X56996097Y-23002170D01*
X92542631Y-43702619D02*
X92557874Y-43656480D01*
X89305173Y-43400259D02*
X89333152Y-43439987D01*
X45495229Y-45107036D02*
X45489281Y-45155262D01*
X92981039Y-20140851D02*
X93023318Y-20116900D01*
X45275278Y-45638047D02*
X45243539Y-45674841D01*
X70666847Y-43439987D02*
X70694826Y-43400259D01*
X92575362Y-20611144D02*
X92595053Y-20566721D01*
X93344737Y-45989281D02*
X93296861Y-45980974D01*
X45500000Y-45009877D02*
X45498804Y-45058576D01*
X48510718Y-43844737D02*
X48519025Y-43796861D01*
X70519025Y-22203138D02*
X70510718Y-22155262D01*
X66843519Y-22942125D02*
X66797380Y-22957368D01*
X89138047Y-20224721D02*
X89174841Y-20256460D01*
X93490122Y-46000000D02*
X93441423Y-45998804D01*
X26510718Y-20844737D02*
X26519025Y-20796861D01*
X48616900Y-43523318D02*
X48640851Y-43481039D01*
X89018960Y-43140851D02*
X89060012Y-43166847D01*
X100982586Y-50182950D02*
X100994905Y-50097743D01*
X92756460Y-45674841D02*
X92724721Y-45638047D01*
X15356513Y-15235231D02*
X15292934Y-15293281D01*
X15175841Y-50565427D02*
X15227069Y-50634010D01*
X100959922Y-15721619D02*
X100952805Y-15698160D01*
X67495229Y-20892963D02*
X67498804Y-20941423D01*
X100824158Y-15434572D02*
X100772930Y-15365989D01*
X26504770Y-20892963D02*
X26510718Y-20844737D01*
X45500000Y-43990122D02*
X45500000Y-45009877D01*
X48501195Y-43941423D02*
X48504770Y-43892963D01*
X44509877Y-46000000D02*
X27490122Y-46000000D01*
X89018960Y-45859148D02*
X88976681Y-45883099D01*
X45404946Y-22433278D02*
X45383099Y-22476681D01*
X44509877Y-23000000D02*
X37012272Y-23000000D01*
X67480974Y-20796861D02*
X67489281Y-20844737D01*
X66976681Y-22883099D02*
X66933278Y-22904946D01*
X93392963Y-22995229D02*
X93344737Y-22989281D01*
X23404946Y-22433278D02*
X23383099Y-22476681D01*
X44750549Y-20029671D02*
X44797380Y-20042631D01*
X71066721Y-43095053D02*
X71111144Y-43075362D01*
X66843519Y-20057874D02*
X66888855Y-20075362D01*
X89060012Y-45833152D02*
X89018960Y-45859148D01*
X45243539Y-45674841D02*
X45210033Y-45710033D01*
X15444394Y-50831080D02*
X15518076Y-50875611D01*
X92694826Y-20400259D02*
X92724721Y-20361952D01*
X48825158Y-22743539D02*
X48789966Y-22710033D01*
X70501195Y-43941423D02*
X70504770Y-43892963D01*
X59006917Y-23000559D02*
X59003159Y-23002811D01*
X48519025Y-22203138D02*
X48510718Y-22155262D01*
X27441423Y-22998804D02*
X27392963Y-22995229D01*
X70825158Y-22743539D02*
X70789966Y-22710033D01*
X45470328Y-43749450D02*
X45480974Y-43796861D01*
X48575362Y-20611144D02*
X48595053Y-20566721D01*
X56996097Y-23002170D02*
X56987727Y-23000000D01*
X89442125Y-20656480D02*
X89457368Y-20702619D01*
X22843519Y-22942125D02*
X22797380Y-22957368D01*
X15698160Y-50952805D02*
X15793005Y-50977803D01*
X15012272Y-46000000D02*
X15003522Y-46002482D01*
X48616900Y-22476681D02*
X48595053Y-22433278D01*
X92542631Y-20702619D02*
X92557874Y-20656480D01*
X48616900Y-45476681D02*
X48595053Y-45433278D01*
X23359148Y-20481039D02*
X23383099Y-20523318D01*
X89275278Y-20361952D02*
X89305173Y-20400259D01*
X67498804Y-22058576D02*
X67495229Y-22107036D01*
X93392963Y-43004770D02*
X93441423Y-43001195D01*
X67442125Y-22343519D02*
X67424637Y-22388855D01*
X48861952Y-20224721D02*
X48900259Y-20194826D01*
X93111144Y-43075362D02*
X93156480Y-43057874D01*
X92756460Y-22674841D02*
X92724721Y-22638047D01*
X88750549Y-43029671D02*
X88797380Y-43042631D01*
X92519025Y-22203138D02*
X92510718Y-22155262D01*
X100995295Y-42998394D02*
X100999583Y-42992612D01*
X48789966Y-45710033D02*
X48756460Y-45674841D01*
X26557874Y-22343519D02*
X26542631Y-22297380D01*
X56999275Y-42993544D02*
X56999942Y-23009809D01*
X93023318Y-22883099D02*
X92981039Y-22859148D01*
X67442125Y-43656480D02*
X67457368Y-43702619D01*
X23174841Y-45743539D02*
X23138047Y-45775278D01*
X70557874Y-20656480D02*
X70575362Y-20611144D01*
X23498804Y-20941423D02*
X23500000Y-20990122D01*
X22888855Y-43075362D02*
X22933278Y-43095053D01*
X45275278Y-22638047D02*
X45243539Y-22674841D01*
X93344737Y-22989281D02*
X93296861Y-22980974D01*
X22976681Y-43116900D02*
X23018960Y-43140851D01*
X66797380Y-22957368D02*
X66750549Y-22970328D01*
X100460302Y-15112831D02*
X100382793Y-15076495D01*
X89457368Y-43702619D02*
X89470328Y-43749450D01*
X88933278Y-43095053D02*
X88976681Y-43116900D01*
X70900259Y-43194826D02*
X70939987Y-43166847D01*
X71344737Y-45989281D02*
X71296861Y-45980974D01*
X27249450Y-20029671D02*
X27296861Y-20019025D01*
X70557874Y-45343519D02*
X70542631Y-45297380D01*
X26861952Y-20224721D02*
X26900259Y-20194826D01*
X45210033Y-22710033D02*
X45174841Y-22743539D01*
X26616900Y-20523318D02*
X26640851Y-20481039D01*
X26666847Y-43439987D02*
X26694826Y-43400259D01*
X70575362Y-43611144D02*
X70595053Y-43566721D01*
X70616900Y-45476681D02*
X70595053Y-45433278D01*
X45498804Y-20941423D02*
X45500000Y-20990122D01*
X49202619Y-20042631D02*
X49249450Y-20029671D01*
X70861952Y-22775278D02*
X70825158Y-22743539D01*
X66558576Y-20001195D02*
X66607036Y-20004770D01*
X92595053Y-45433278D02*
X92575362Y-45388855D01*
X44976681Y-43116900D02*
X45018960Y-43140851D01*
X45060012Y-22833152D02*
X45018960Y-22859148D01*
X100996477Y-19997517D02*
X100999275Y-19993544D01*
X15914240Y-15004213D02*
X15817049Y-15017413D01*
X70825158Y-43256460D02*
X70861952Y-43224721D01*
X23099740Y-45805173D02*
X23060012Y-45833152D01*
X92724721Y-43361952D02*
X92756460Y-43325158D01*
X92900259Y-45805173D02*
X92861952Y-45775278D01*
X48500000Y-20990122D02*
X48501195Y-20941423D01*
X67210033Y-22710033D02*
X67174841Y-22743539D01*
X93066721Y-43095053D02*
X93111144Y-43075362D01*
X67018960Y-20140851D02*
X67060012Y-20166847D01*
X88843519Y-45942125D02*
X88797380Y-45957368D01*
X70575362Y-20611144D02*
X70595053Y-20566721D01*
X48640851Y-20481039D02*
X48666847Y-20439987D01*
X70900259Y-22805173D02*
X70861952Y-22775278D01*
X67333152Y-20439987D02*
X67359148Y-20481039D01*
X45138047Y-45775278D02*
X45099740Y-45805173D01*
X100301839Y-15047194D02*
X100278380Y-15040077D01*
X100980438Y-15804728D02*
X100959922Y-15721619D01*
X22509877Y-23000000D02*
X15012272Y-23000000D01*
X26900259Y-45805173D02*
X26861952Y-45775278D01*
X26557874Y-20656480D02*
X26575362Y-20611144D01*
X23442125Y-45343519D02*
X23424637Y-45388855D01*
X44558576Y-20001195D02*
X44607036Y-20004770D01*
X92861952Y-22775278D02*
X92825158Y-22743539D01*
X15005094Y-15902256D02*
X15000000Y-16012272D01*
X48981039Y-45859148D02*
X48939987Y-45833152D01*
X67470328Y-43749450D02*
X67480974Y-43796861D01*
X22750549Y-43029671D02*
X22797380Y-43042631D01*
X27490122Y-20000000D02*
X44509877Y-20000000D01*
X23305173Y-45599740D02*
X23275278Y-45638047D01*
X27249450Y-45970328D02*
X27202619Y-45957368D01*
X67457368Y-43702619D02*
X67470328Y-43749450D01*
X45174841Y-43256460D02*
X45210033Y-43289966D01*
X70900259Y-45805173D02*
X70861952Y-45775278D01*
X89060012Y-20166847D02*
X89099740Y-20194826D01*
X48595053Y-20566721D02*
X48616900Y-20523318D01*
X100987727Y-43000000D02*
X100995295Y-42998394D01*
X22933278Y-22904946D02*
X22888855Y-22924637D01*
X45060012Y-43166847D02*
X45099740Y-43194826D01*
X23383099Y-43523318D02*
X23404946Y-43566721D01*
X37000559Y-42993082D02*
X37005125Y-42998646D01*
X48900259Y-43194826D02*
X48939987Y-43166847D01*
X67489281Y-20844737D02*
X67495229Y-20892963D01*
X26501195Y-45058576D02*
X26500000Y-45009877D01*
X49296861Y-22980974D02*
X49249450Y-22970328D01*
X71156480Y-22942125D02*
X71111144Y-22924637D01*
X92640851Y-43481039D02*
X92666847Y-43439987D01*
X67404946Y-43566721D02*
X67424637Y-43611144D01*
X67495229Y-43892963D02*
X67498804Y-43941423D01*
X49156480Y-43057874D02*
X49202619Y-43042631D01*
X99987727Y-51000000D02*
X100085759Y-50995786D01*
X100923504Y-50382793D02*
X100952805Y-50301839D01*
X45305173Y-22599740D02*
X45275278Y-22638047D01*
X92575362Y-45388855D02*
X92557874Y-45343519D01*
X23470328Y-20749450D02*
X23480974Y-20796861D01*
X93296861Y-22980974D02*
X93249450Y-22970328D01*
X67424637Y-20611144D02*
X67442125Y-20656480D01*
X67243539Y-43325158D02*
X67275278Y-43361952D01*
X15004704Y-23001605D02*
X15000416Y-23007387D01*
X45480974Y-22203138D02*
X45470328Y-22250549D01*
X81012272Y-43000000D02*
X88509877Y-43000000D01*
X78994874Y-42998646D02*
X78999275Y-42993544D01*
X89018960Y-22859148D02*
X88976681Y-22883099D01*
X48510718Y-22155262D02*
X48504770Y-22107036D01*
X15292934Y-15293281D02*
X15227069Y-15365989D01*
X92557874Y-45343519D02*
X92542631Y-45297380D01*
X71392963Y-22995229D02*
X71344737Y-22989281D01*
X48595053Y-45433278D02*
X48575362Y-45388855D01*
X66558576Y-43001195D02*
X66607036Y-43004770D01*
X92939987Y-45833152D02*
X92900259Y-45805173D01*
X15709568Y-15043422D02*
X15617206Y-15076495D01*
X70504770Y-45107036D02*
X70501195Y-45058576D01*
X88655262Y-45989281D02*
X88607036Y-45995229D01*
X70900259Y-20194826D02*
X70939987Y-20166847D01*
X15040077Y-50278380D02*
X15047194Y-50301839D01*
X22703138Y-22980974D02*
X22655262Y-22989281D01*
X92529671Y-45250549D02*
X92519025Y-45203138D01*
X48756460Y-20325158D02*
X48789966Y-20289966D01*
X89210033Y-43289966D02*
X89243539Y-43325158D01*
X45018960Y-22859148D02*
X44976681Y-22883099D01*
X45470328Y-45250549D02*
X45457368Y-45297380D01*
X101000000Y-16012272D02*
X100995786Y-15914240D01*
X89442125Y-22343519D02*
X89424637Y-22388855D01*
X66976681Y-45883099D02*
X66933278Y-45904946D01*
X92504770Y-43892963D02*
X92510718Y-43844737D01*
X49490122Y-20000000D02*
X66509877Y-20000000D01*
X92666847Y-20439987D02*
X92694826Y-20400259D01*
X100994874Y-23001353D02*
X100987727Y-23000000D01*
X92500000Y-20990122D02*
X92501195Y-20941423D01*
X27392963Y-43004770D02*
X27441423Y-43001195D01*
X70939987Y-22833152D02*
X70900259Y-22805173D01*
X89480974Y-20796861D02*
X89489281Y-20844737D01*
X92500000Y-45009877D02*
X92500000Y-43990122D01*
X49296861Y-45980974D02*
X49249450Y-45970328D01*
X23500000Y-22009877D02*
X23498804Y-22058576D01*
X92529671Y-20749450D02*
X92542631Y-20702619D01*
X93296861Y-43019025D02*
X93344737Y-43010718D01*
X49392963Y-20004770D02*
X49441423Y-20001195D01*
X89495229Y-22107036D02*
X89489281Y-22155262D01*
X45333152Y-22560012D02*
X45305173Y-22599740D01*
X71202619Y-45957368D02*
X71156480Y-45942125D01*
X71441423Y-43001195D02*
X71490122Y-43000000D01*
X23243539Y-45674841D02*
X23210033Y-45710033D01*
X45174841Y-20256460D02*
X45210033Y-20289966D01*
X67210033Y-45710033D02*
X67174841Y-45743539D01*
X45060012Y-45833152D02*
X45018960Y-45859148D01*
X70529671Y-20749450D02*
X70542631Y-20702619D01*
X89305173Y-45599740D02*
X89275278Y-45638047D01*
X92519025Y-20796861D02*
X92529671Y-20749450D01*
X88558576Y-20001195D02*
X88607036Y-20004770D01*
X15112831Y-15539697D02*
X15071985Y-15628871D01*
X100460302Y-50887168D02*
X100481923Y-50875611D01*
X66607036Y-20004770D02*
X66655262Y-20010718D01*
X45359148Y-45518960D02*
X45333152Y-45560012D01*
X15000000Y-49987727D02*
X15004213Y-50085759D01*
X26724721Y-22638047D02*
X26694826Y-22599740D01*
X59003159Y-23002811D02*
X59000559Y-23006917D01*
X89359148Y-22518960D02*
X89333152Y-22560012D01*
X67099740Y-45805173D02*
X67060012Y-45833152D01*
X48510718Y-45155262D02*
X48504770Y-45107036D01*
X70640851Y-20481039D02*
X70666847Y-20439987D01*
X44843519Y-45942125D02*
X44797380Y-45957368D01*
X23210033Y-22710033D02*
X23174841Y-22743539D01*
X88655262Y-20010718D02*
X88703138Y-20019025D01*
X70825158Y-45743539D02*
X70789966Y-45710033D01*
X92557874Y-43656480D02*
X92575362Y-43611144D01*
X100565427Y-50824158D02*
X100634389Y-50772619D01*
X23383099Y-20523318D02*
X23404946Y-20566721D01*
X93344737Y-20010718D02*
X93392963Y-20004770D01*
X45442125Y-22343519D02*
X45424637Y-22388855D01*
X23243539Y-20325158D02*
X23275278Y-20361952D01*
X44558576Y-22998804D02*
X44509877Y-23000000D01*
X100764768Y-50643486D02*
X100780321Y-50624535D01*
X100481923Y-50875611D02*
X100565427Y-50824158D01*
X44509877Y-43000000D02*
X44558576Y-43001195D01*
X45333152Y-45560012D02*
X45305173Y-45599740D01*
X92900259Y-43194826D02*
X92939987Y-43166847D01*
X70981039Y-43140851D02*
X71023318Y-43116900D01*
X22797380Y-22957368D02*
X22750549Y-22970328D01*
X66655262Y-43010718D02*
X66703138Y-43019025D01*
X23489281Y-43844737D02*
X23495229Y-43892963D01*
X67498804Y-43941423D02*
X67500000Y-43990122D01*
X49202619Y-43042631D02*
X49249450Y-43029671D01*
X26501195Y-20941423D02*
X26504770Y-20892963D01*
X93296861Y-45980974D02*
X93249450Y-45970328D01*
X89099740Y-22805173D02*
X89060012Y-22833152D01*
X67359148Y-45518960D02*
X67333152Y-45560012D01*
X100772930Y-15365989D02*
X100715348Y-15301986D01*
X71202619Y-22957368D02*
X71156480Y-22942125D01*
X78996097Y-23002170D02*
X78987727Y-23000000D01*
X93066721Y-22904946D02*
X93023318Y-22883099D01*
X71111144Y-22924637D02*
X71066721Y-22904946D01*
X92900259Y-22805173D02*
X92861952Y-22775278D01*
X45495229Y-43892963D02*
X45498804Y-43941423D01*
X48519025Y-43796861D02*
X48529671Y-43749450D01*
X15793005Y-15022196D02*
X15709568Y-15043422D01*
X15124388Y-15518076D02*
X15112831Y-15539697D01*
X71023318Y-43116900D02*
X71066721Y-43095053D01*
X67359148Y-43481039D02*
X67383099Y-43523318D01*
X49023318Y-20116900D02*
X49066721Y-20095053D01*
X71023318Y-45883099D02*
X70981039Y-45859148D01*
X26724721Y-45638047D02*
X26694826Y-45599740D01*
X23424637Y-20611144D02*
X23442125Y-20656480D01*
X88888855Y-22924637D02*
X88843519Y-22942125D01*
X23489281Y-22155262D02*
X23480974Y-22203138D01*
X70756460Y-22674841D02*
X70724721Y-22638047D01*
X89383099Y-22476681D02*
X89359148Y-22518960D01*
X67457368Y-45297380D02*
X67442125Y-45343519D01*
X48861952Y-43224721D02*
X48900259Y-43194826D01*
X70939987Y-43166847D02*
X70981039Y-43140851D01*
X23495229Y-20892963D02*
X23498804Y-20941423D01*
X89424637Y-43611144D02*
X89442125Y-43656480D01*
X93392963Y-45995229D02*
X93344737Y-45989281D01*
X23470328Y-45250549D02*
X23457368Y-45297380D01*
X15284651Y-50698013D02*
X15301986Y-50715348D01*
X22703138Y-43019025D02*
X22750549Y-43029671D01*
X22797380Y-45957368D02*
X22750549Y-45970328D01*
X27023318Y-45883099D02*
X26981039Y-45859148D01*
X70542631Y-43702619D02*
X70557874Y-43656480D01*
X92694826Y-45599740D02*
X92666847Y-45560012D01*
X45442125Y-43656480D02*
X45457368Y-43702619D01*
X45099740Y-20194826D02*
X45138047Y-20224721D01*
X66797380Y-45957368D02*
X66750549Y-45970328D01*
X49111144Y-43075362D02*
X49156480Y-43057874D01*
X27296861Y-45980974D02*
X27249450Y-45970328D01*
X45480974Y-45203138D02*
X45470328Y-45250549D01*
X89333152Y-22560012D02*
X89305173Y-22599740D01*
X71392963Y-43004770D02*
X71441423Y-43001195D01*
X70504770Y-22107036D02*
X70501195Y-22058576D01*
X70529671Y-43749450D02*
X70542631Y-43702619D01*
X23500000Y-43990122D02*
X23500000Y-45009877D01*
X92595053Y-20566721D02*
X92616900Y-20523318D01*
X89174841Y-43256460D02*
X89210033Y-43289966D01*
X45210033Y-20289966D02*
X45243539Y-20325158D01*
X70861952Y-45775278D02*
X70825158Y-45743539D01*
X44797380Y-45957368D02*
X44750549Y-45970328D01*
X92694826Y-22599740D02*
X92666847Y-22560012D01*
X44888855Y-45924637D02*
X44843519Y-45942125D01*
X48557874Y-22343519D02*
X48542631Y-22297380D01*
X70504770Y-20892963D02*
X70510718Y-20844737D01*
X48640851Y-45518960D02*
X48616900Y-45476681D01*
X26981039Y-22859148D02*
X26939987Y-22833152D01*
X22976681Y-20116900D02*
X23018960Y-20140851D01*
X45138047Y-43224721D02*
X45174841Y-43256460D01*
X70724721Y-45638047D02*
X70694826Y-45599740D01*
X66558576Y-22998804D02*
X66509877Y-23000000D01*
X27490122Y-46000000D02*
X27441423Y-45998804D01*
X89489281Y-43844737D02*
X89495229Y-43892963D01*
X67060012Y-45833152D02*
X67018960Y-45859148D01*
X37003159Y-23002811D02*
X37000559Y-23006917D01*
X70724721Y-20361952D02*
X70756460Y-20325158D01*
X71344737Y-20010718D02*
X71392963Y-20004770D01*
X48939987Y-22833152D02*
X48900259Y-22805173D01*
X49023318Y-22883099D02*
X48981039Y-22859148D01*
X92825158Y-22743539D02*
X92789966Y-22710033D01*
X71066721Y-20095053D02*
X71111144Y-20075362D01*
X45500000Y-20990122D02*
X45500000Y-22009877D01*
X45174841Y-22743539D02*
X45138047Y-22775278D01*
X45060012Y-20166847D02*
X45099740Y-20194826D01*
X66976681Y-20116900D02*
X67018960Y-20140851D01*
X49296861Y-43019025D02*
X49344737Y-43010718D01*
X15528963Y-15118231D02*
X15454956Y-15162221D01*
X23359148Y-22518960D02*
X23333152Y-22560012D01*
X34996097Y-23002170D02*
X34987727Y-23000000D01*
X88888855Y-45924637D02*
X88843519Y-45942125D01*
X45498804Y-45058576D02*
X45495229Y-45107036D01*
X71441423Y-20001195D02*
X71490122Y-20000000D01*
X23424637Y-43611144D02*
X23442125Y-43656480D01*
X70557874Y-43656480D02*
X70575362Y-43611144D01*
X92694826Y-43400259D02*
X92724721Y-43361952D01*
X26616900Y-45476681D02*
X26595053Y-45433278D01*
X67457368Y-22297380D02*
X67442125Y-22343519D01*
X23099740Y-22805173D02*
X23060012Y-22833152D01*
X70519025Y-45203138D02*
X70510718Y-45155262D01*
X27156480Y-45942125D02*
X27111144Y-45924637D01*
X67210033Y-43289966D02*
X67243539Y-43325158D01*
X70756460Y-20325158D02*
X70789966Y-20289966D01*
X71156480Y-43057874D02*
X71202619Y-43042631D01*
X67275278Y-20361952D02*
X67305173Y-20400259D01*
X48756460Y-22674841D02*
X48724721Y-22638047D01*
X48939987Y-43166847D02*
X48981039Y-43140851D01*
X23275278Y-22638047D02*
X23243539Y-22674841D01*
X70981039Y-45859148D02*
X70939987Y-45833152D01*
X44750549Y-22970328D02*
X44703138Y-22980974D01*
X67498804Y-45058576D02*
X67495229Y-45107036D01*
X100999275Y-19993544D02*
X101000000Y-19987727D01*
X67099740Y-20194826D02*
X67138047Y-20224721D01*
X89333152Y-45560012D02*
X89305173Y-45599740D01*
X27156480Y-43057874D02*
X27202619Y-43042631D01*
X45424637Y-43611144D02*
X45442125Y-43656480D01*
X100780321Y-50624535D02*
X100831352Y-50555197D01*
X45489281Y-45155262D02*
X45480974Y-45203138D01*
X66509877Y-23000000D02*
X59012272Y-23000000D01*
X26575362Y-22388855D02*
X26557874Y-22343519D01*
X71111144Y-43075362D02*
X71156480Y-43057874D01*
X100952805Y-50301839D02*
X100977803Y-50206994D01*
X92981039Y-43140851D02*
X93023318Y-43116900D01*
X66655262Y-20010718D02*
X66703138Y-20019025D01*
X26500000Y-20990122D02*
X26501195Y-20941423D01*
X100110156Y-50993383D02*
X100195271Y-50980438D01*
X67383099Y-43523318D02*
X67404946Y-43566721D01*
X48825158Y-20256460D02*
X48861952Y-20224721D01*
X44843519Y-20057874D02*
X44888855Y-20075362D01*
X92640851Y-20481039D02*
X92666847Y-20439987D01*
X49156480Y-45942125D02*
X49111144Y-45924637D01*
X49392963Y-22995229D02*
X49344737Y-22989281D01*
X48557874Y-20656480D02*
X48575362Y-20611144D01*
X67489281Y-22155262D02*
X67480974Y-22203138D01*
X89243539Y-22674841D02*
X89210033Y-22710033D01*
X100831352Y-50555197D02*
X100881537Y-50471469D01*
X67174841Y-22743539D02*
X67138047Y-22775278D01*
X48694826Y-20400259D02*
X48724721Y-20361952D01*
X70789966Y-22710033D02*
X70756460Y-22674841D01*
X70575362Y-22388855D02*
X70557874Y-22343519D01*
X70510718Y-43844737D02*
X70519025Y-43796861D01*
X71296861Y-20019025D02*
X71344737Y-20010718D01*
X23138047Y-22775278D02*
X23099740Y-22805173D01*
X70666847Y-20439987D02*
X70694826Y-20400259D01*
X23099740Y-20194826D02*
X23138047Y-20224721D01*
X15168919Y-15444394D02*
X15124388Y-15518076D01*
X71111144Y-20075362D02*
X71156480Y-20057874D01*
X67333152Y-43439987D02*
X67359148Y-43481039D01*
X48900259Y-22805173D02*
X48861952Y-22775278D01*
X44843519Y-22942125D02*
X44797380Y-22957368D01*
X48557874Y-45343519D02*
X48542631Y-45297380D01*
X15539697Y-50887168D02*
X15617206Y-50923504D01*
X81003159Y-23002811D02*
X81000559Y-23006917D01*
X26900259Y-20194826D02*
X26939987Y-20166847D01*
X22703138Y-45980974D02*
X22655262Y-45989281D01*
X92789966Y-43289966D02*
X92825158Y-43256460D01*
X59012272Y-43000000D02*
X66509877Y-43000000D01*
X48789966Y-43289966D02*
X48825158Y-43256460D01*
X45457368Y-22297380D02*
X45442125Y-22343519D01*
X23500000Y-20990122D02*
X23500000Y-22009877D01*
X67500000Y-22009877D02*
X67498804Y-22058576D01*
X93249450Y-45970328D02*
X93202619Y-45957368D01*
X100481923Y-15124388D02*
X100460302Y-15112831D01*
X26900259Y-22805173D02*
X26861952Y-22775278D01*
X92557874Y-22343519D02*
X92542631Y-22297380D01*
X93156480Y-20057874D02*
X93202619Y-20042631D01*
X93490122Y-23000000D02*
X93441423Y-22998804D01*
X23480974Y-20796861D02*
X23489281Y-20844737D01*
X44976681Y-45883099D02*
X44933278Y-45904946D01*
X66703138Y-20019025D02*
X66750549Y-20029671D01*
X88797380Y-45957368D02*
X88750549Y-45970328D01*
X27111144Y-22924637D02*
X27066721Y-22904946D01*
X67500000Y-20990122D02*
X67500000Y-22009877D01*
X89424637Y-45388855D02*
X89404946Y-45433278D01*
X71490122Y-20000000D02*
X88509877Y-20000000D01*
X22843519Y-20057874D02*
X22888855Y-20075362D01*
X89359148Y-45518960D02*
X89333152Y-45560012D01*
X48939987Y-45833152D02*
X48900259Y-45805173D01*
X89489281Y-22155262D02*
X89480974Y-22203138D01*
X66750549Y-43029671D02*
X66797380Y-43042631D01*
X27490122Y-23000000D02*
X27441423Y-22998804D01*
X34987727Y-43000000D02*
X34994874Y-42998646D01*
X34999942Y-23009809D02*
X34996097Y-23002170D01*
X100634389Y-50772619D02*
X100698013Y-50715348D01*
X67457368Y-20702619D02*
X67470328Y-20749450D01*
X66797380Y-20042631D02*
X66843519Y-20057874D01*
X92501195Y-45058576D02*
X92500000Y-45009877D01*
X44655262Y-45989281D02*
X44607036Y-45995229D01*
X48529671Y-20749450D02*
X48542631Y-20702619D01*
X27066721Y-22904946D02*
X27023318Y-22883099D01*
X71490122Y-46000000D02*
X71441423Y-45998804D01*
X92500000Y-22009877D02*
X92500000Y-20990122D01*
X59000559Y-23006917D02*
X59000003Y-23012027D01*
X70666847Y-45560012D02*
X70640851Y-45518960D01*
X70724721Y-22638047D02*
X70694826Y-22599740D01*
X89404946Y-20566721D02*
X89424637Y-20611144D01*
X15434572Y-15175841D02*
X15356513Y-15235231D01*
X92939987Y-22833152D02*
X92900259Y-22805173D01*
X93441423Y-43001195D02*
X93490122Y-43000000D01*
X44703138Y-43019025D02*
X44750549Y-43029671D01*
X88607036Y-43004770D02*
X88655262Y-43010718D01*
X70981039Y-20140851D02*
X71023318Y-20116900D01*
X67243539Y-22674841D02*
X67210033Y-22710033D01*
X49156480Y-22942125D02*
X49111144Y-22924637D01*
X23018960Y-22859148D02*
X22976681Y-22883099D01*
X70510718Y-20844737D02*
X70519025Y-20796861D01*
X22750549Y-45970328D02*
X22703138Y-45980974D01*
X26616900Y-43523318D02*
X26640851Y-43481039D01*
X15005125Y-42998646D02*
X15012272Y-43000000D01*
X92542631Y-45297380D02*
X92529671Y-45250549D01*
X89060012Y-22833152D02*
X89018960Y-22859148D01*
X45470328Y-20749450D02*
X45480974Y-20796861D01*
X88976681Y-43116900D02*
X89018960Y-43140851D01*
X93249450Y-43029671D02*
X93296861Y-43019025D01*
X56987727Y-43000000D02*
X56994874Y-42998646D01*
X23457368Y-43702619D02*
X23470328Y-43749450D01*
X88797380Y-20042631D02*
X88843519Y-20057874D01*
X22509877Y-46000000D02*
X15012272Y-46000000D01*
X48640851Y-43481039D02*
X48666847Y-43439987D01*
X26756460Y-20325158D02*
X26789966Y-20289966D01*
X70595053Y-22433278D02*
X70575362Y-22388855D01*
X22655262Y-22989281D02*
X22607036Y-22995229D01*
X48504770Y-43892963D02*
X48510718Y-43844737D01*
X66888855Y-45924637D02*
X66843519Y-45942125D01*
X92504770Y-45107036D02*
X92501195Y-45058576D01*
X66509877Y-46000000D02*
X49490122Y-46000000D01*
X49202619Y-22957368D02*
X49156480Y-22942125D01*
X44607036Y-20004770D02*
X44655262Y-20010718D01*
X66797380Y-43042631D02*
X66843519Y-43057874D01*
X15817049Y-15017413D02*
X15793005Y-15022196D01*
X100999275Y-23006455D02*
X100994874Y-23001353D01*
X49344737Y-45989281D02*
X49296861Y-45980974D01*
X89243539Y-43325158D02*
X89275278Y-43361952D01*
X88558576Y-22998804D02*
X88509877Y-23000000D01*
X22933278Y-20095053D02*
X22976681Y-20116900D01*
X45442125Y-45343519D02*
X45424637Y-45388855D01*
X22655262Y-45989281D02*
X22607036Y-45995229D01*
X44607036Y-45995229D02*
X44558576Y-45998804D01*
X44888855Y-20075362D02*
X44933278Y-20095053D01*
X70825158Y-20256460D02*
X70861952Y-20224721D01*
X70542631Y-45297380D02*
X70529671Y-45250549D01*
X26666847Y-45560012D02*
X26640851Y-45518960D01*
X23495229Y-45107036D02*
X23489281Y-45155262D01*
X26724721Y-43361952D02*
X26756460Y-43325158D01*
X67500000Y-45009877D02*
X67498804Y-45058576D01*
X71156480Y-45942125D02*
X71111144Y-45924637D01*
X67305173Y-22599740D02*
X67275278Y-22638047D01*
X48500000Y-45009877D02*
X48500000Y-43990122D01*
X27202619Y-43042631D02*
X27249450Y-43029671D01*
X27249450Y-43029671D02*
X27296861Y-43019025D01*
X45383099Y-43523318D02*
X45404946Y-43566721D01*
X23498804Y-43941423D02*
X23500000Y-43990122D01*
X23489281Y-20844737D02*
X23495229Y-20892963D01*
X70542631Y-20702619D02*
X70557874Y-20656480D01*
X93441423Y-45998804D02*
X93392963Y-45995229D01*
X89470328Y-20749450D02*
X89480974Y-20796861D01*
X37000003Y-23012027D02*
X37000559Y-42993082D01*
X27111144Y-20075362D02*
X27156480Y-20057874D01*
X26666847Y-20439987D02*
X26694826Y-20400259D01*
X44797380Y-20042631D02*
X44843519Y-20057874D01*
X100715348Y-15301986D02*
X100698013Y-15284651D01*
X92595053Y-43566721D02*
X92616900Y-43523318D01*
X26595053Y-45433278D02*
X26575362Y-45388855D01*
X92666847Y-22560012D02*
X92640851Y-22518960D01*
X92519025Y-43796861D02*
X92529671Y-43749450D01*
X44933278Y-20095053D02*
X44976681Y-20116900D01*
X101000000Y-46012272D02*
X100999087Y-46006002D01*
X49156480Y-20057874D02*
X49202619Y-20042631D01*
X92789966Y-22710033D02*
X92756460Y-22674841D01*
X71249450Y-45970328D02*
X71202619Y-45957368D01*
X89383099Y-20523318D02*
X89404946Y-20566721D01*
X66655262Y-45989281D02*
X66607036Y-45995229D01*
X66933278Y-22904946D02*
X66888855Y-22924637D01*
X100195271Y-50980438D02*
X100290431Y-50956577D01*
X27392963Y-20004770D02*
X27441423Y-20001195D01*
X26981039Y-45859148D02*
X26939987Y-45833152D01*
X70510718Y-45155262D02*
X70504770Y-45107036D01*
X26504770Y-43892963D02*
X26510718Y-43844737D01*
X48861952Y-45775278D02*
X48825158Y-45743539D01*
X67174841Y-20256460D02*
X67210033Y-20289966D01*
X15012272Y-23000000D02*
X15004704Y-23001605D01*
X45495229Y-20892963D02*
X45498804Y-20941423D01*
X89383099Y-43523318D02*
X89404946Y-43566721D01*
X71392963Y-20004770D02*
X71441423Y-20001195D01*
X26789966Y-45710033D02*
X26756460Y-45674841D01*
X45457368Y-45297380D02*
X45442125Y-45343519D01*
X45305173Y-20400259D02*
X45333152Y-20439987D01*
X92825158Y-43256460D02*
X92861952Y-43224721D01*
X27156480Y-22942125D02*
X27111144Y-22924637D01*
X27202619Y-45957368D02*
X27156480Y-45942125D01*
X26529671Y-20749450D02*
X26542631Y-20702619D01*
X71441423Y-45998804D02*
X71392963Y-45995229D01*
X67275278Y-45638047D02*
X67243539Y-45674841D01*
X26542631Y-20702619D02*
X26557874Y-20656480D01*
X45383099Y-20523318D02*
X45404946Y-20566721D01*
X49490122Y-46000000D02*
X49441423Y-45998804D01*
X67243539Y-20325158D02*
X67275278Y-20361952D01*
X89495229Y-43892963D02*
X89498804Y-43941423D01*
X45480974Y-20796861D02*
X45489281Y-20844737D01*
X26640851Y-43481039D02*
X26666847Y-43439987D01*
X27392963Y-22995229D02*
X27344737Y-22989281D01*
X81000003Y-23012027D02*
X81000559Y-42993082D01*
X26694826Y-22599740D02*
X26666847Y-22560012D01*
X92939987Y-20166847D02*
X92981039Y-20140851D01*
X92616900Y-45476681D02*
X92595053Y-45433278D01*
X67424637Y-43611144D02*
X67442125Y-43656480D01*
X88655262Y-43010718D02*
X88703138Y-43019025D01*
X67404946Y-22433278D02*
X67383099Y-22476681D01*
X26557874Y-43656480D02*
X26575362Y-43611144D01*
X92504770Y-20892963D02*
X92510718Y-20844737D01*
X89359148Y-20481039D02*
X89383099Y-20523318D01*
X67018960Y-45859148D02*
X66976681Y-45883099D01*
X88750549Y-22970328D02*
X88703138Y-22980974D01*
X93344737Y-43010718D02*
X93392963Y-43004770D01*
X26789966Y-43289966D02*
X26825158Y-43256460D01*
X70756460Y-43325158D02*
X70789966Y-43289966D01*
X89018960Y-20140851D02*
X89060012Y-20166847D01*
X45333152Y-20439987D02*
X45359148Y-20481039D01*
X22888855Y-20075362D02*
X22933278Y-20095053D01*
X26500000Y-22009877D02*
X26500000Y-20990122D01*
X66843519Y-45942125D02*
X66797380Y-45957368D01*
X48825158Y-43256460D02*
X48861952Y-43224721D01*
X48724721Y-20361952D02*
X48756460Y-20325158D01*
X26542631Y-22297380D02*
X26529671Y-22250549D01*
X48724721Y-45638047D02*
X48694826Y-45599740D01*
X45138047Y-20224721D02*
X45174841Y-20256460D01*
X67480974Y-22203138D02*
X67470328Y-22250549D01*
X67305173Y-43400259D02*
X67333152Y-43439987D01*
X15227069Y-50634010D02*
X15284651Y-50698013D01*
X67275278Y-22638047D02*
X67243539Y-22674841D01*
X26501195Y-43941423D02*
X26504770Y-43892963D01*
X70666847Y-22560012D02*
X70640851Y-22518960D01*
X67138047Y-45775278D02*
X67099740Y-45805173D01*
X100995786Y-15914240D02*
X100993383Y-15889843D01*
X66933278Y-45904946D02*
X66888855Y-45924637D01*
X45305173Y-45599740D02*
X45275278Y-45638047D01*
X45305173Y-43400259D02*
X45333152Y-43439987D01*
X70640851Y-45518960D02*
X70616900Y-45476681D01*
X45018960Y-43140851D02*
X45060012Y-43166847D01*
X81005125Y-42998646D02*
X81012272Y-43000000D01*
X92666847Y-43439987D02*
X92694826Y-43400259D01*
X67383099Y-22476681D02*
X67359148Y-22518960D01*
X70595053Y-45433278D02*
X70575362Y-45388855D01*
X89495229Y-45107036D02*
X89489281Y-45155262D01*
X22750549Y-22970328D02*
X22703138Y-22980974D01*
X66607036Y-22995229D02*
X66558576Y-22998804D01*
X45480974Y-43796861D02*
X45489281Y-43844737D01*
X15012272Y-20000000D02*
X22509877Y-20000000D01*
X93296861Y-20019025D02*
X93344737Y-20010718D01*
X23383099Y-45476681D02*
X23359148Y-45518960D01*
X45099740Y-43194826D02*
X45138047Y-43224721D01*
X23305173Y-20400259D02*
X23333152Y-20439987D01*
X70595053Y-20566721D02*
X70616900Y-20523318D01*
X89480974Y-43796861D02*
X89489281Y-43844737D01*
X48529671Y-43749450D02*
X48542631Y-43702619D01*
X27490122Y-43000000D02*
X34987727Y-43000000D01*
X71066721Y-45904946D02*
X71023318Y-45883099D01*
X88843519Y-20057874D02*
X88888855Y-20075362D01*
X26694826Y-43400259D02*
X26724721Y-43361952D01*
X26510718Y-43844737D02*
X26519025Y-43796861D01*
X70519025Y-20796861D02*
X70529671Y-20749450D01*
X45383099Y-22476681D02*
X45359148Y-22518960D01*
X71249450Y-22970328D02*
X71202619Y-22957368D01*
X16012272Y-15000000D02*
X15914240Y-15004213D01*
X93111144Y-45924637D02*
X93066721Y-45904946D01*
X92501195Y-20941423D02*
X92504770Y-20892963D01*
X26789966Y-22710033D02*
X26756460Y-22674841D01*
X23210033Y-43289966D02*
X23243539Y-43325158D01*
X88607036Y-45995229D02*
X88558576Y-45998804D01*
X48501195Y-20941423D02*
X48504770Y-20892963D01*
X88703138Y-45980974D02*
X88655262Y-45989281D01*
X92575362Y-22388855D02*
X92557874Y-22343519D01*
X49441423Y-20001195D02*
X49490122Y-20000000D01*
X93023318Y-45883099D02*
X92981039Y-45859148D01*
X22607036Y-22995229D02*
X22558576Y-22998804D01*
X70694826Y-20400259D02*
X70724721Y-20361952D01*
X23442125Y-22343519D02*
X23424637Y-22388855D01*
X27344737Y-20010718D02*
X27392963Y-20004770D01*
X88607036Y-20004770D02*
X88655262Y-20010718D01*
X88933278Y-45904946D02*
X88888855Y-45924637D01*
X49023318Y-43116900D02*
X49066721Y-43095053D01*
X100987727Y-46000000D02*
X93490122Y-46000000D01*
X67404946Y-20566721D02*
X67424637Y-20611144D01*
X67099740Y-22805173D02*
X67060012Y-22833152D01*
X100999087Y-46006002D02*
X100995295Y-46001605D01*
X70789966Y-45710033D02*
X70756460Y-45674841D01*
X67305173Y-45599740D02*
X67275278Y-45638047D01*
X49202619Y-45957368D02*
X49156480Y-45942125D01*
X23470328Y-43749450D02*
X23480974Y-43796861D01*
X23060012Y-20166847D02*
X23099740Y-20194826D01*
X23018960Y-43140851D02*
X23060012Y-43166847D01*
X67404946Y-45433278D02*
X67383099Y-45476681D01*
X48575362Y-45388855D02*
X48557874Y-45343519D01*
X15118231Y-50471036D02*
X15162221Y-50545043D01*
X48694826Y-45599740D02*
X48666847Y-45560012D01*
X23060012Y-45833152D02*
X23018960Y-45859148D01*
X71441423Y-22998804D02*
X71392963Y-22995229D01*
X44703138Y-20019025D02*
X44750549Y-20029671D01*
X49441423Y-22998804D02*
X49392963Y-22995229D01*
X88509877Y-46000000D02*
X71490122Y-46000000D01*
X26939987Y-43166847D02*
X26981039Y-43140851D01*
X44558576Y-45998804D02*
X44509877Y-46000000D01*
X22655262Y-43010718D02*
X22703138Y-43019025D01*
X88843519Y-22942125D02*
X88797380Y-22957368D01*
X23442125Y-20656480D02*
X23457368Y-20702619D01*
X70529671Y-22250549D02*
X70519025Y-22203138D01*
X23480974Y-45203138D02*
X23470328Y-45250549D01*
X23333152Y-20439987D02*
X23359148Y-20481039D01*
X23457368Y-20702619D02*
X23470328Y-20749450D01*
X22888855Y-22924637D02*
X22843519Y-22942125D01*
X15000416Y-23007387D02*
X15000724Y-42993544D01*
X67442125Y-45343519D02*
X67424637Y-45388855D01*
X92981039Y-22859148D02*
X92939987Y-22833152D01*
X71202619Y-43042631D02*
X71249450Y-43029671D01*
X81000559Y-23006917D02*
X81000003Y-23012027D01*
X45359148Y-43481039D02*
X45383099Y-43523318D01*
X26756460Y-22674841D02*
X26724721Y-22638047D01*
X45018960Y-45859148D02*
X44976681Y-45883099D01*
X100994905Y-50097743D02*
X101000000Y-49987727D01*
X88976681Y-45883099D02*
X88933278Y-45904946D01*
X45424637Y-45388855D02*
X45404946Y-45433278D01*
X93441423Y-20001195D02*
X93490122Y-20000000D01*
X49490122Y-43000000D02*
X56987727Y-43000000D01*
X45018960Y-20140851D02*
X45060012Y-20166847D01*
X26510718Y-22155262D02*
X26504770Y-22107036D01*
X26519025Y-43796861D02*
X26529671Y-43749450D01*
X100993383Y-15889843D02*
X100980438Y-15804728D01*
X89243539Y-20325158D02*
X89275278Y-20361952D01*
X45359148Y-22518960D02*
X45333152Y-22560012D01*
X67470328Y-45250549D02*
X67457368Y-45297380D01*
X56987727Y-23000000D02*
X49490122Y-23000000D01*
X49066721Y-43095053D02*
X49111144Y-43075362D01*
X66888855Y-20075362D02*
X66933278Y-20095053D01*
X67099740Y-43194826D02*
X67138047Y-43224721D01*
X22558576Y-45998804D02*
X22509877Y-46000000D01*
X15902256Y-50994905D02*
X16012272Y-51000000D01*
X92789966Y-20289966D02*
X92825158Y-20256460D01*
X26595053Y-20566721D02*
X26616900Y-20523318D01*
X92981039Y-45859148D02*
X92939987Y-45833152D01*
X92595053Y-22433278D02*
X92575362Y-22388855D01*
X45457368Y-43702619D02*
X45470328Y-43749450D01*
X59000559Y-42993082D02*
X59005125Y-42998646D01*
X44750549Y-45970328D02*
X44703138Y-45980974D01*
X89275278Y-22638047D02*
X89243539Y-22674841D01*
X26595053Y-43566721D02*
X26616900Y-43523318D01*
X89333152Y-43439987D02*
X89359148Y-43481039D01*
X15793005Y-50977803D02*
X15817049Y-50982586D01*
X22888855Y-45924637D02*
X22843519Y-45942125D01*
X89470328Y-45250549D02*
X89457368Y-45297380D01*
X89138047Y-22775278D02*
X89099740Y-22805173D01*
X89174841Y-45743539D02*
X89138047Y-45775278D01*
X44655262Y-22989281D02*
X44607036Y-22995229D01*
X27156480Y-20057874D02*
X27202619Y-20042631D01*
X26694826Y-45599740D02*
X26666847Y-45560012D01*
X100278380Y-15040077D02*
X100182950Y-15017413D01*
M02*
