%TF.GenerationSoftware,KiCad,Pcbnew,(6.0.4)*%
%TF.CreationDate,2022-05-26T12:18:36+02:00*%
%TF.ProjectId,SK6805EC15_Matrix,534b3638-3035-4454-9331-355f4d617472,rev?*%
%TF.SameCoordinates,Original*%
%TF.FileFunction,Legend,Top*%
%TF.FilePolarity,Positive*%
%FSLAX46Y46*%
G04 Gerber Fmt 4.6, Leading zero omitted, Abs format (unit mm)*
G04 Created by KiCad (PCBNEW (6.0.4)) date 2022-05-26 12:18:36*
%MOMM*%
%LPD*%
G01*
G04 APERTURE LIST*
%ADD10C,0.150000*%
%ADD11C,0.100000*%
G04 APERTURE END LIST*
D10*
%TO.C,*%
D11*
%TO.C,D59*%
X143800000Y-106650000D02*
X143150000Y-106650000D01*
X143150000Y-106650000D02*
X143150000Y-107300000D01*
%TO.C,D54*%
X143150000Y-105850000D02*
X143800000Y-105850000D01*
X143150000Y-105200000D02*
X143150000Y-105850000D01*
%TO.C,D15*%
X133800000Y-91650000D02*
X133150000Y-91650000D01*
X133150000Y-91650000D02*
X133150000Y-92300000D01*
%TO.C,D3*%
X135650000Y-90850000D02*
X136300000Y-90850000D01*
X135650000Y-90200000D02*
X135650000Y-90850000D01*
%TO.C,D47*%
X133800000Y-101650000D02*
X133150000Y-101650000D01*
X133150000Y-101650000D02*
X133150000Y-102300000D01*
%TO.C,D23*%
X145650000Y-95200000D02*
X145650000Y-95850000D01*
X145650000Y-95850000D02*
X146300000Y-95850000D01*
%TO.C,D26*%
X146300000Y-96550000D02*
X145650000Y-96550000D01*
X145650000Y-96550000D02*
X145650000Y-97200000D01*
%TO.C,D56*%
X148150000Y-105850000D02*
X148800000Y-105850000D01*
X148150000Y-105200000D02*
X148150000Y-105850000D01*
%TO.C,D55*%
X145650000Y-105850000D02*
X146300000Y-105850000D01*
X145650000Y-105200000D02*
X145650000Y-105850000D01*
%TO.C,D45*%
X138800000Y-101650000D02*
X138150000Y-101650000D01*
X138150000Y-101650000D02*
X138150000Y-102300000D01*
%TO.C,D32*%
X130650000Y-96550000D02*
X130650000Y-97200000D01*
X131300000Y-96550000D02*
X130650000Y-96550000D01*
%TO.C,D35*%
X135650000Y-100200000D02*
X135650000Y-100850000D01*
X135650000Y-100850000D02*
X136300000Y-100850000D01*
%TO.C,D44*%
X140650000Y-101650000D02*
X140650000Y-102300000D01*
X141300000Y-101650000D02*
X140650000Y-101650000D01*
%TO.C,D1*%
X130650000Y-90200000D02*
X130650000Y-90850000D01*
X130650000Y-90850000D02*
X131300000Y-90850000D01*
%TO.C,D20*%
X138150000Y-95200000D02*
X138150000Y-95850000D01*
X138150000Y-95850000D02*
X138800000Y-95850000D01*
%TO.C,D58*%
X146300000Y-106650000D02*
X145650000Y-106650000D01*
X145650000Y-106650000D02*
X145650000Y-107300000D01*
%TO.C,D63*%
X133150000Y-106650000D02*
X133150000Y-107300000D01*
X133800000Y-106650000D02*
X133150000Y-106650000D01*
%TO.C,D40*%
X148150000Y-100200000D02*
X148150000Y-100850000D01*
X148150000Y-100850000D02*
X148800000Y-100850000D01*
%TO.C,D62*%
X135650000Y-106650000D02*
X135650000Y-107300000D01*
X136300000Y-106650000D02*
X135650000Y-106650000D01*
%TO.C,D64*%
X131300000Y-106650000D02*
X130650000Y-106650000D01*
X130650000Y-106650000D02*
X130650000Y-107300000D01*
%TO.C,D43*%
X143800000Y-101650000D02*
X143150000Y-101650000D01*
X143150000Y-101650000D02*
X143150000Y-102300000D01*
%TO.C,D49*%
X130650000Y-105200000D02*
X130650000Y-105850000D01*
X130650000Y-105850000D02*
X131300000Y-105850000D01*
%TO.C,D18*%
X133150000Y-95800000D02*
X133800000Y-95800000D01*
X133150000Y-95150000D02*
X133150000Y-95800000D01*
%TO.C,D39*%
X145650000Y-100200000D02*
X145650000Y-100850000D01*
X145650000Y-100850000D02*
X146300000Y-100850000D01*
%TO.C,D37*%
X140650000Y-100200000D02*
X140650000Y-100850000D01*
X140650000Y-100850000D02*
X141300000Y-100850000D01*
%TO.C,D42*%
X145650000Y-101650000D02*
X145650000Y-102300000D01*
X146300000Y-101650000D02*
X145650000Y-101650000D01*
%TO.C,D61*%
X138800000Y-106650000D02*
X138150000Y-106650000D01*
X138150000Y-106650000D02*
X138150000Y-107300000D01*
%TO.C,D5*%
X140650000Y-90200000D02*
X140650000Y-90850000D01*
X140650000Y-90850000D02*
X141300000Y-90850000D01*
%TO.C,D28*%
X140650000Y-96550000D02*
X140650000Y-97200000D01*
X141300000Y-96550000D02*
X140650000Y-96550000D01*
%TO.C,D27*%
X143800000Y-96550000D02*
X143150000Y-96550000D01*
X143150000Y-96550000D02*
X143150000Y-97200000D01*
%TO.C,D19*%
X135650000Y-95850000D02*
X136300000Y-95850000D01*
X135650000Y-95200000D02*
X135650000Y-95850000D01*
%TO.C,D57*%
X148150000Y-106650000D02*
X148150000Y-107300000D01*
X148800000Y-106650000D02*
X148150000Y-106650000D01*
%TO.C,D30*%
X135650000Y-96550000D02*
X135650000Y-97200000D01*
X136300000Y-96550000D02*
X135650000Y-96550000D01*
%TO.C,D2*%
X133150000Y-90200000D02*
X133150000Y-90850000D01*
X133150000Y-90850000D02*
X133800000Y-90850000D01*
%TO.C,D16*%
X130650000Y-91650000D02*
X130650000Y-92300000D01*
X131300000Y-91650000D02*
X130650000Y-91650000D01*
%TO.C,D53*%
X140650000Y-105200000D02*
X140650000Y-105850000D01*
X140650000Y-105850000D02*
X141300000Y-105850000D01*
%TO.C,D11*%
X143150000Y-91650000D02*
X143150000Y-92300000D01*
X143800000Y-91650000D02*
X143150000Y-91650000D01*
%TO.C,D60*%
X140650000Y-106650000D02*
X140650000Y-107300000D01*
X141300000Y-106650000D02*
X140650000Y-106650000D01*
%TO.C,D34*%
X133150000Y-100200000D02*
X133150000Y-100850000D01*
X133150000Y-100850000D02*
X133800000Y-100850000D01*
%TO.C,D31*%
X133150000Y-96550000D02*
X133150000Y-97200000D01*
X133800000Y-96550000D02*
X133150000Y-96550000D01*
%TO.C,D29*%
X138800000Y-96550000D02*
X138150000Y-96550000D01*
X138150000Y-96550000D02*
X138150000Y-97200000D01*
%TO.C,D36*%
X138150000Y-100200000D02*
X138150000Y-100850000D01*
X138150000Y-100850000D02*
X138800000Y-100850000D01*
%TO.C,D4*%
X138150000Y-90200000D02*
X138150000Y-90850000D01*
X138150000Y-90850000D02*
X138800000Y-90850000D01*
%TO.C,D12*%
X141300000Y-91650000D02*
X140650000Y-91650000D01*
X140650000Y-91650000D02*
X140650000Y-92300000D01*
%TO.C,D7*%
X145650000Y-90850000D02*
X146300000Y-90850000D01*
X145650000Y-90200000D02*
X145650000Y-90850000D01*
%TO.C,D6*%
X143150000Y-90200000D02*
X143150000Y-90850000D01*
X143150000Y-90850000D02*
X143800000Y-90850000D01*
%TO.C,D21*%
X140650000Y-95850000D02*
X141300000Y-95850000D01*
X140650000Y-95200000D02*
X140650000Y-95850000D01*
%TO.C,D51*%
X135650000Y-105200000D02*
X135650000Y-105850000D01*
X135650000Y-105850000D02*
X136300000Y-105850000D01*
%TO.C,D14*%
X136300000Y-91650000D02*
X135650000Y-91650000D01*
X135650000Y-91650000D02*
X135650000Y-92300000D01*
%TO.C,D24*%
X148150000Y-95200000D02*
X148150000Y-95850000D01*
X148150000Y-95850000D02*
X148800000Y-95850000D01*
%TO.C,D13*%
X138800000Y-91650000D02*
X138150000Y-91650000D01*
X138150000Y-91650000D02*
X138150000Y-92300000D01*
%TO.C,D8*%
X148150000Y-90200000D02*
X148150000Y-90850000D01*
X148150000Y-90850000D02*
X148800000Y-90850000D01*
%TO.C,D10*%
X146300000Y-91650000D02*
X145650000Y-91650000D01*
X145650000Y-91650000D02*
X145650000Y-92300000D01*
%TO.C,D48*%
X130650000Y-101650000D02*
X130650000Y-102300000D01*
X131300000Y-101650000D02*
X130650000Y-101650000D01*
%TO.C,D25*%
X148800000Y-96550000D02*
X148150000Y-96550000D01*
X148150000Y-96550000D02*
X148150000Y-97200000D01*
%TO.C,D33*%
X130650000Y-100200000D02*
X130650000Y-100850000D01*
X130650000Y-100850000D02*
X131300000Y-100850000D01*
%TO.C,D50*%
X133150000Y-105200000D02*
X133150000Y-105850000D01*
X133150000Y-105850000D02*
X133800000Y-105850000D01*
%TO.C,D9*%
X148800000Y-91650000D02*
X148150000Y-91650000D01*
X148150000Y-91650000D02*
X148150000Y-92300000D01*
%TO.C,D17*%
X130650000Y-95850000D02*
X131300000Y-95850000D01*
X130650000Y-95200000D02*
X130650000Y-95850000D01*
%TO.C,D38*%
X143150000Y-100200000D02*
X143150000Y-100850000D01*
X143150000Y-100850000D02*
X143800000Y-100850000D01*
%TO.C,D46*%
X136300000Y-101650000D02*
X135650000Y-101650000D01*
X135650000Y-101650000D02*
X135650000Y-102300000D01*
%TO.C,D22*%
X143150000Y-95850000D02*
X143800000Y-95850000D01*
X143150000Y-95200000D02*
X143150000Y-95850000D01*
%TO.C,D52*%
X138150000Y-105200000D02*
X138150000Y-105850000D01*
X138150000Y-105850000D02*
X138800000Y-105850000D01*
%TO.C,D41*%
X148150000Y-101650000D02*
X148150000Y-102300000D01*
X148800000Y-101650000D02*
X148150000Y-101650000D01*
%TD*%
M02*
