%TF.GenerationSoftware,KiCad,Pcbnew,(6.0.4)*%
%TF.CreationDate,2022-05-26T12:18:36+02:00*%
%TF.ProjectId,SK6805EC15_Matrix,534b3638-3035-4454-9331-355f4d617472,rev?*%
%TF.SameCoordinates,Original*%
%TF.FileFunction,Copper,L2,Bot*%
%TF.FilePolarity,Positive*%
%FSLAX46Y46*%
G04 Gerber Fmt 4.6, Leading zero omitted, Abs format (unit mm)*
G04 Created by KiCad (PCBNEW (6.0.4)) date 2022-05-26 12:18:36*
%MOMM*%
%LPD*%
G01*
G04 APERTURE LIST*
%TA.AperFunction,SMDPad,CuDef*%
%ADD10R,5.080000X2.540000*%
%TD*%
%TA.AperFunction,ViaPad*%
%ADD11C,0.600000*%
%TD*%
%TA.AperFunction,ViaPad*%
%ADD12C,0.500000*%
%TD*%
%TA.AperFunction,Conductor*%
%ADD13C,0.250000*%
%TD*%
%TA.AperFunction,Conductor*%
%ADD14C,0.500000*%
%TD*%
G04 APERTURE END LIST*
D10*
%TO.P,,1*%
%TO.N,DIN*%
X132500000Y-99000000D03*
%TD*%
%TO.P,,1*%
%TO.N,+5V*%
X147500000Y-95500000D03*
%TD*%
%TO.P,,1*%
%TO.N,+5V*%
X132500000Y-95500000D03*
%TD*%
%TO.P,,1*%
%TO.N,GND*%
X147500000Y-102500000D03*
%TD*%
%TO.P,,1*%
%TO.N,DOUT*%
X147500000Y-99000000D03*
%TD*%
%TO.P,,1*%
%TO.N,GND*%
X132500000Y-102500000D03*
%TD*%
D11*
%TO.N,GND*%
X134450000Y-93700000D03*
X142750000Y-108500000D03*
X139450000Y-93750000D03*
X147600000Y-89500000D03*
X132750000Y-108500000D03*
X141950000Y-98700000D03*
X145100000Y-89500000D03*
X145250000Y-108500000D03*
X144450000Y-93700000D03*
X147750000Y-108500000D03*
X135250000Y-108500000D03*
X144450000Y-98700000D03*
X143550000Y-103750000D03*
X137600000Y-89500000D03*
X139450000Y-103750000D03*
D12*
X149700000Y-89300000D03*
D11*
X137000000Y-98700000D03*
X149450000Y-93700000D03*
X146350000Y-93700000D03*
X136950000Y-93750000D03*
X140100000Y-89500000D03*
X131900000Y-93700000D03*
X132600000Y-89500000D03*
X139450000Y-98700000D03*
X137750000Y-108500000D03*
X135100000Y-89500000D03*
X140250000Y-108500000D03*
X141950000Y-103700000D03*
X144450000Y-103750000D03*
X136950000Y-103750000D03*
X141950000Y-93750000D03*
X135650000Y-103750000D03*
X142600000Y-89500000D03*
%TO.N,DIN*%
X130325000Y-97400000D03*
%TO.N,+5V*%
X136050000Y-96200000D03*
X133550000Y-91200000D03*
X143550000Y-91200000D03*
X143550000Y-96200000D03*
X136050000Y-91200000D03*
X138550000Y-101200000D03*
X138550000Y-106200000D03*
X138550000Y-91200000D03*
X146050000Y-91200000D03*
%TO.N,DOUT*%
X130400000Y-107950000D03*
%TD*%
D13*
%TO.N,DIN*%
X131125000Y-99000000D02*
X130325000Y-98200000D01*
X132500000Y-99000000D02*
X130950000Y-99000000D01*
X130325000Y-98200000D02*
X130325000Y-97400000D01*
X130950000Y-99000000D02*
X130350000Y-98400000D01*
X132500000Y-99000000D02*
X131125000Y-99000000D01*
D14*
%TO.N,+5V*%
X132500000Y-95500000D02*
X135350000Y-95500000D01*
X133550000Y-91200000D02*
X138550000Y-91200000D01*
X138550000Y-101200000D02*
X138550000Y-106200000D01*
X135350000Y-95500000D02*
X136050000Y-96200000D01*
X132750000Y-92000000D02*
X132750000Y-95250000D01*
X144250000Y-95500000D02*
X143550000Y-96200000D01*
X147500000Y-95500000D02*
X147500000Y-92650000D01*
X138550000Y-98700000D02*
X138550000Y-101200000D01*
X136050000Y-96200000D02*
X138550000Y-98700000D01*
D13*
X132750000Y-95250000D02*
X132500000Y-95500000D01*
D14*
X147500000Y-92650000D02*
X146050000Y-91200000D01*
X133550000Y-91200000D02*
X132750000Y-92000000D01*
X138550000Y-91200000D02*
X143550000Y-91200000D01*
X147500000Y-95500000D02*
X144250000Y-95500000D01*
D13*
%TO.N,DOUT*%
X143775000Y-97950000D02*
X142725000Y-99000000D01*
X131050000Y-107300000D02*
X130400000Y-107950000D01*
X142725000Y-99000000D02*
X142725000Y-106150000D01*
X141575000Y-107300000D02*
X131050000Y-107300000D01*
X146450000Y-97950000D02*
X147500000Y-99000000D01*
X142725000Y-106150000D02*
X141575000Y-107300000D01*
X143775000Y-97950000D02*
X146450000Y-97950000D01*
%TD*%
%TA.AperFunction,Conductor*%
%TO.N,GND*%
G36*
X144701621Y-98295502D02*
G01*
X144748114Y-98349158D01*
X144759500Y-98401500D01*
X144759500Y-100289748D01*
X144771133Y-100348231D01*
X144815448Y-100414552D01*
X144881769Y-100458867D01*
X144893938Y-100461288D01*
X144893939Y-100461288D01*
X144934184Y-100469293D01*
X144940252Y-100470500D01*
X149745500Y-100470500D01*
X149813621Y-100490502D01*
X149860114Y-100544158D01*
X149871500Y-100596500D01*
X149871500Y-100850000D01*
X149851498Y-100918121D01*
X149797842Y-100964614D01*
X149745500Y-100976000D01*
X147645115Y-100976000D01*
X147629876Y-100980475D01*
X147628671Y-100981865D01*
X147627000Y-100989548D01*
X147627000Y-104005884D01*
X147631475Y-104021123D01*
X147632865Y-104022328D01*
X147640548Y-104023999D01*
X149745500Y-104023999D01*
X149813621Y-104044001D01*
X149860114Y-104097657D01*
X149871500Y-104149999D01*
X149871500Y-108745500D01*
X149851498Y-108813621D01*
X149797842Y-108860114D01*
X149745500Y-108871500D01*
X130254500Y-108871500D01*
X130186379Y-108851498D01*
X130139886Y-108797842D01*
X130128500Y-108745500D01*
X130128500Y-108560948D01*
X130148502Y-108492827D01*
X130202158Y-108446334D01*
X130272432Y-108436230D01*
X130292069Y-108440679D01*
X130319157Y-108449142D01*
X130328129Y-108449306D01*
X130328132Y-108449307D01*
X130393463Y-108450504D01*
X130462499Y-108451770D01*
X130471533Y-108449307D01*
X130592158Y-108416421D01*
X130592160Y-108416420D01*
X130600817Y-108414060D01*
X130722991Y-108339045D01*
X130819200Y-108232754D01*
X130881710Y-108103733D01*
X130905496Y-107962354D01*
X130905581Y-107955403D01*
X130905810Y-107954658D01*
X130905991Y-107952637D01*
X130906418Y-107952675D01*
X130926415Y-107887532D01*
X130942477Y-107867849D01*
X131147921Y-107662405D01*
X131210233Y-107628379D01*
X131237016Y-107625500D01*
X141555290Y-107625500D01*
X141566272Y-107625980D01*
X141592820Y-107628303D01*
X141592822Y-107628303D01*
X141603807Y-107629264D01*
X141640215Y-107619508D01*
X141650942Y-107617130D01*
X141654301Y-107616538D01*
X141688045Y-107610588D01*
X141697590Y-107605077D01*
X141700866Y-107603885D01*
X141704034Y-107602408D01*
X141714684Y-107599554D01*
X141745544Y-107577945D01*
X141754815Y-107572039D01*
X141777906Y-107558707D01*
X141787455Y-107553194D01*
X141811685Y-107524317D01*
X141819111Y-107516215D01*
X142941215Y-106394111D01*
X142949319Y-106386684D01*
X142969749Y-106369541D01*
X142978194Y-106362455D01*
X142993480Y-106335979D01*
X142997039Y-106329815D01*
X143002945Y-106320544D01*
X143018230Y-106298715D01*
X143024554Y-106289684D01*
X143027408Y-106279034D01*
X143028885Y-106275866D01*
X143030077Y-106272590D01*
X143035588Y-106263045D01*
X143042130Y-106225942D01*
X143044509Y-106215210D01*
X143054264Y-106178807D01*
X143050979Y-106141257D01*
X143050500Y-106130276D01*
X143050500Y-103788828D01*
X144706001Y-103788828D01*
X144707209Y-103801088D01*
X144718315Y-103856931D01*
X144727633Y-103879427D01*
X144769983Y-103942808D01*
X144787192Y-103960017D01*
X144850575Y-104002368D01*
X144873066Y-104011684D01*
X144928915Y-104022793D01*
X144941170Y-104024000D01*
X147354885Y-104024000D01*
X147370124Y-104019525D01*
X147371329Y-104018135D01*
X147373000Y-104010452D01*
X147373000Y-102645115D01*
X147368525Y-102629876D01*
X147367135Y-102628671D01*
X147359452Y-102627000D01*
X144724116Y-102627000D01*
X144708877Y-102631475D01*
X144707672Y-102632865D01*
X144706001Y-102640548D01*
X144706001Y-103788828D01*
X143050500Y-103788828D01*
X143050500Y-102354885D01*
X144706000Y-102354885D01*
X144710475Y-102370124D01*
X144711865Y-102371329D01*
X144719548Y-102373000D01*
X147354885Y-102373000D01*
X147370124Y-102368525D01*
X147371329Y-102367135D01*
X147373000Y-102359452D01*
X147373000Y-100994116D01*
X147368525Y-100978877D01*
X147367135Y-100977672D01*
X147359452Y-100976001D01*
X144941172Y-100976001D01*
X144928912Y-100977209D01*
X144873069Y-100988315D01*
X144850573Y-100997633D01*
X144787192Y-101039983D01*
X144769983Y-101057192D01*
X144727632Y-101120575D01*
X144718316Y-101143066D01*
X144707207Y-101198915D01*
X144706000Y-101211170D01*
X144706000Y-102354885D01*
X143050500Y-102354885D01*
X143050500Y-99187017D01*
X143070502Y-99118896D01*
X143087405Y-99097921D01*
X143872923Y-98312404D01*
X143935235Y-98278379D01*
X143962018Y-98275500D01*
X144633500Y-98275500D01*
X144701621Y-98295502D01*
G37*
%TD.AperFunction*%
%TA.AperFunction,Conductor*%
G36*
X149813621Y-89148502D02*
G01*
X149860114Y-89202158D01*
X149871500Y-89254500D01*
X149871500Y-93903500D01*
X149851498Y-93971621D01*
X149797842Y-94018114D01*
X149745500Y-94029500D01*
X148076500Y-94029500D01*
X148008379Y-94009498D01*
X147961886Y-93955842D01*
X147950500Y-93903500D01*
X147950500Y-92684220D01*
X147951373Y-92669411D01*
X147954257Y-92645043D01*
X147955364Y-92635690D01*
X147953672Y-92626426D01*
X147953672Y-92626422D01*
X147944827Y-92577989D01*
X147944178Y-92574088D01*
X147936851Y-92525355D01*
X147936849Y-92525347D01*
X147935449Y-92516038D01*
X147932323Y-92509528D01*
X147931026Y-92502427D01*
X147903982Y-92450363D01*
X147902214Y-92446825D01*
X147880886Y-92402411D01*
X147876809Y-92393921D01*
X147871922Y-92388635D01*
X147871895Y-92388595D01*
X147868580Y-92382212D01*
X147864275Y-92377172D01*
X147827048Y-92339945D01*
X147823618Y-92336379D01*
X147791246Y-92301359D01*
X147784854Y-92294444D01*
X147778495Y-92290751D01*
X147772337Y-92285234D01*
X146543254Y-91056151D01*
X146517648Y-91019207D01*
X146479701Y-90935746D01*
X146479699Y-90935743D01*
X146475984Y-90927572D01*
X146457598Y-90906234D01*
X146388260Y-90825763D01*
X146388257Y-90825760D01*
X146382400Y-90818963D01*
X146262095Y-90740985D01*
X146124739Y-90699907D01*
X146115763Y-90699852D01*
X146115762Y-90699852D01*
X146055555Y-90699484D01*
X145981376Y-90699031D01*
X145843529Y-90738428D01*
X145722280Y-90814930D01*
X145627377Y-90922388D01*
X145566447Y-91052163D01*
X145544391Y-91193823D01*
X145545555Y-91202725D01*
X145545555Y-91202728D01*
X145546814Y-91212354D01*
X145562980Y-91335979D01*
X145620720Y-91467203D01*
X145626497Y-91474076D01*
X145626498Y-91474077D01*
X145633792Y-91482754D01*
X145712970Y-91576948D01*
X145832313Y-91656390D01*
X145855479Y-91663628D01*
X145856492Y-91663944D01*
X145908013Y-91695116D01*
X147012595Y-92799698D01*
X147046621Y-92862010D01*
X147049500Y-92888793D01*
X147049500Y-93903500D01*
X147029498Y-93971621D01*
X146975842Y-94018114D01*
X146923500Y-94029500D01*
X144940252Y-94029500D01*
X144934184Y-94030707D01*
X144893939Y-94038712D01*
X144893938Y-94038712D01*
X144881769Y-94041133D01*
X144815448Y-94085448D01*
X144771133Y-94151769D01*
X144759500Y-94210252D01*
X144759500Y-94923500D01*
X144739498Y-94991621D01*
X144685842Y-95038114D01*
X144633500Y-95049500D01*
X144284219Y-95049500D01*
X144269410Y-95048627D01*
X144245042Y-95045743D01*
X144235689Y-95044636D01*
X144226425Y-95046328D01*
X144226423Y-95046328D01*
X144177988Y-95055174D01*
X144174084Y-95055824D01*
X144125348Y-95063151D01*
X144125346Y-95063152D01*
X144116038Y-95064551D01*
X144109525Y-95067678D01*
X144102426Y-95068975D01*
X144094067Y-95073317D01*
X144050363Y-95096018D01*
X144046825Y-95097786D01*
X144036051Y-95102960D01*
X143993921Y-95123191D01*
X143988636Y-95128076D01*
X143988589Y-95128108D01*
X143982211Y-95131421D01*
X143977172Y-95135725D01*
X143939945Y-95172952D01*
X143936380Y-95176381D01*
X143894444Y-95215146D01*
X143890751Y-95221505D01*
X143885234Y-95227663D01*
X143409934Y-95702963D01*
X143360298Y-95732174D01*
X143360353Y-95732297D01*
X143359248Y-95732791D01*
X143355468Y-95735016D01*
X143343529Y-95738428D01*
X143222280Y-95814930D01*
X143127377Y-95922388D01*
X143066447Y-96052163D01*
X143044391Y-96193823D01*
X143045555Y-96202725D01*
X143045555Y-96202728D01*
X143050782Y-96242698D01*
X143062980Y-96335979D01*
X143120720Y-96467203D01*
X143126497Y-96474076D01*
X143126498Y-96474077D01*
X143133792Y-96482754D01*
X143212970Y-96576948D01*
X143332313Y-96656390D01*
X143469157Y-96699142D01*
X143478129Y-96699306D01*
X143478132Y-96699307D01*
X143543463Y-96700504D01*
X143612499Y-96701770D01*
X143621533Y-96699307D01*
X143742158Y-96666421D01*
X143742160Y-96666420D01*
X143750817Y-96664060D01*
X143872991Y-96589045D01*
X143969200Y-96482754D01*
X144020883Y-96376080D01*
X144045180Y-96341923D01*
X144399698Y-95987405D01*
X144462010Y-95953379D01*
X144488793Y-95950500D01*
X144633500Y-95950500D01*
X144701621Y-95970502D01*
X144748114Y-96024158D01*
X144759500Y-96076500D01*
X144759500Y-96789748D01*
X144771133Y-96848231D01*
X144815448Y-96914552D01*
X144881769Y-96958867D01*
X144893938Y-96961288D01*
X144893939Y-96961288D01*
X144934184Y-96969293D01*
X144940252Y-96970500D01*
X149745500Y-96970500D01*
X149813621Y-96990502D01*
X149860114Y-97044158D01*
X149871500Y-97096500D01*
X149871500Y-97403500D01*
X149851498Y-97471621D01*
X149797842Y-97518114D01*
X149745500Y-97529500D01*
X144940252Y-97529500D01*
X144934184Y-97530707D01*
X144893939Y-97538712D01*
X144893938Y-97538712D01*
X144881769Y-97541133D01*
X144815448Y-97585448D01*
X144812456Y-97589925D01*
X144754416Y-97621620D01*
X144727629Y-97624500D01*
X143794713Y-97624500D01*
X143783732Y-97624021D01*
X143757170Y-97621697D01*
X143757168Y-97621697D01*
X143746193Y-97620737D01*
X143709783Y-97630492D01*
X143699076Y-97632866D01*
X143661955Y-97639412D01*
X143652411Y-97644922D01*
X143649135Y-97646114D01*
X143645964Y-97647593D01*
X143635316Y-97650446D01*
X143626287Y-97656768D01*
X143604449Y-97672059D01*
X143595179Y-97677964D01*
X143572092Y-97691293D01*
X143572088Y-97691296D01*
X143562545Y-97696806D01*
X143546071Y-97716439D01*
X143538320Y-97725676D01*
X143530894Y-97733779D01*
X142508784Y-98755890D01*
X142500681Y-98763316D01*
X142471806Y-98787545D01*
X142466293Y-98797094D01*
X142452961Y-98820185D01*
X142447055Y-98829456D01*
X142425446Y-98860316D01*
X142422592Y-98870966D01*
X142421115Y-98874134D01*
X142419923Y-98877410D01*
X142414412Y-98886955D01*
X142408462Y-98920699D01*
X142407870Y-98924058D01*
X142405492Y-98934785D01*
X142395736Y-98971193D01*
X142396697Y-98982178D01*
X142396697Y-98982180D01*
X142399020Y-99008728D01*
X142399500Y-99019710D01*
X142399500Y-105962984D01*
X142379498Y-106031105D01*
X142362595Y-106052079D01*
X141477079Y-106937595D01*
X141414767Y-106971621D01*
X141387984Y-106974500D01*
X131069710Y-106974500D01*
X131058728Y-106974020D01*
X131032180Y-106971697D01*
X131032178Y-106971697D01*
X131021193Y-106970736D01*
X130984785Y-106980492D01*
X130974058Y-106982870D01*
X130970699Y-106983462D01*
X130936955Y-106989412D01*
X130927410Y-106994923D01*
X130924134Y-106996115D01*
X130920966Y-106997592D01*
X130910316Y-107000446D01*
X130901285Y-107006770D01*
X130879456Y-107022055D01*
X130870185Y-107027961D01*
X130847094Y-107041293D01*
X130837545Y-107046806D01*
X130830459Y-107055251D01*
X130813315Y-107075682D01*
X130805889Y-107083785D01*
X130477204Y-107412470D01*
X130414892Y-107446496D01*
X130387339Y-107449373D01*
X130361235Y-107449214D01*
X130331376Y-107449031D01*
X130289123Y-107461107D01*
X130218129Y-107460593D01*
X130158682Y-107421779D01*
X130129656Y-107356987D01*
X130128500Y-107339957D01*
X130128500Y-104150000D01*
X130148502Y-104081879D01*
X130202158Y-104035386D01*
X130254500Y-104024000D01*
X132354885Y-104024000D01*
X132370124Y-104019525D01*
X132371329Y-104018135D01*
X132373000Y-104010452D01*
X132373000Y-104005884D01*
X132627000Y-104005884D01*
X132631475Y-104021123D01*
X132632865Y-104022328D01*
X132640548Y-104023999D01*
X135058828Y-104023999D01*
X135071088Y-104022791D01*
X135126931Y-104011685D01*
X135149427Y-104002367D01*
X135212808Y-103960017D01*
X135230017Y-103942808D01*
X135272368Y-103879425D01*
X135281684Y-103856934D01*
X135292793Y-103801085D01*
X135294000Y-103788830D01*
X135294000Y-102645115D01*
X135289525Y-102629876D01*
X135288135Y-102628671D01*
X135280452Y-102627000D01*
X132645115Y-102627000D01*
X132629876Y-102631475D01*
X132628671Y-102632865D01*
X132627000Y-102640548D01*
X132627000Y-104005884D01*
X132373000Y-104005884D01*
X132373000Y-102354885D01*
X132627000Y-102354885D01*
X132631475Y-102370124D01*
X132632865Y-102371329D01*
X132640548Y-102373000D01*
X135275884Y-102373000D01*
X135291123Y-102368525D01*
X135292328Y-102367135D01*
X135293999Y-102359452D01*
X135293999Y-101211172D01*
X135292791Y-101198912D01*
X135281685Y-101143069D01*
X135272367Y-101120573D01*
X135230017Y-101057192D01*
X135212808Y-101039983D01*
X135149425Y-100997632D01*
X135126934Y-100988316D01*
X135071085Y-100977207D01*
X135058830Y-100976000D01*
X132645115Y-100976000D01*
X132629876Y-100980475D01*
X132628671Y-100981865D01*
X132627000Y-100989548D01*
X132627000Y-102354885D01*
X132373000Y-102354885D01*
X132373000Y-100994116D01*
X132368525Y-100978877D01*
X132367135Y-100977672D01*
X132359452Y-100976001D01*
X130254500Y-100976001D01*
X130186379Y-100955999D01*
X130139886Y-100902343D01*
X130128500Y-100850001D01*
X130128500Y-100596500D01*
X130148502Y-100528379D01*
X130202158Y-100481886D01*
X130254500Y-100470500D01*
X135059748Y-100470500D01*
X135065816Y-100469293D01*
X135106061Y-100461288D01*
X135106062Y-100461288D01*
X135118231Y-100458867D01*
X135184552Y-100414552D01*
X135228867Y-100348231D01*
X135240500Y-100289748D01*
X135240500Y-97710252D01*
X135228867Y-97651769D01*
X135184552Y-97585448D01*
X135118231Y-97541133D01*
X135106062Y-97538712D01*
X135106061Y-97538712D01*
X135065816Y-97530707D01*
X135059748Y-97529500D01*
X130956614Y-97529500D01*
X130888493Y-97509498D01*
X130842000Y-97455842D01*
X130832246Y-97409644D01*
X130830905Y-97409731D01*
X130830588Y-97404860D01*
X130830647Y-97400000D01*
X130810323Y-97258082D01*
X130760568Y-97148651D01*
X130750582Y-97078360D01*
X130780182Y-97013829D01*
X130839972Y-96975545D01*
X130875269Y-96970500D01*
X135059748Y-96970500D01*
X135065816Y-96969293D01*
X135106061Y-96961288D01*
X135106062Y-96961288D01*
X135118231Y-96958867D01*
X135184552Y-96914552D01*
X135228867Y-96848231D01*
X135240500Y-96789748D01*
X135240500Y-96331793D01*
X135260502Y-96263672D01*
X135314158Y-96217179D01*
X135384432Y-96207075D01*
X135449012Y-96236569D01*
X135455595Y-96242698D01*
X135557347Y-96344450D01*
X135583581Y-96382799D01*
X135620720Y-96467203D01*
X135626497Y-96474076D01*
X135626498Y-96474077D01*
X135633792Y-96482754D01*
X135712970Y-96576948D01*
X135832313Y-96656390D01*
X135855479Y-96663628D01*
X135856492Y-96663944D01*
X135908013Y-96695116D01*
X138062595Y-98849698D01*
X138096621Y-98912010D01*
X138099500Y-98938793D01*
X138099500Y-100953656D01*
X138087555Y-101007205D01*
X138066447Y-101052163D01*
X138065066Y-101061035D01*
X138052294Y-101143066D01*
X138044391Y-101193823D01*
X138045555Y-101202725D01*
X138045555Y-101202728D01*
X138046814Y-101212354D01*
X138062980Y-101335979D01*
X138066597Y-101344199D01*
X138088829Y-101394725D01*
X138099500Y-101445471D01*
X138099500Y-105953656D01*
X138087555Y-106007205D01*
X138066447Y-106052163D01*
X138065066Y-106061035D01*
X138046729Y-106178807D01*
X138044391Y-106193823D01*
X138045555Y-106202725D01*
X138045555Y-106202728D01*
X138048591Y-106225942D01*
X138062980Y-106335979D01*
X138120720Y-106467203D01*
X138126497Y-106474076D01*
X138126498Y-106474077D01*
X138133792Y-106482754D01*
X138212970Y-106576948D01*
X138332313Y-106656390D01*
X138469157Y-106699142D01*
X138478129Y-106699306D01*
X138478132Y-106699307D01*
X138543463Y-106700504D01*
X138612499Y-106701770D01*
X138621533Y-106699307D01*
X138742158Y-106666421D01*
X138742160Y-106666420D01*
X138750817Y-106664060D01*
X138872991Y-106589045D01*
X138969200Y-106482754D01*
X139014035Y-106390214D01*
X139027795Y-106361814D01*
X139027795Y-106361813D01*
X139031710Y-106353733D01*
X139055496Y-106212354D01*
X139055647Y-106200000D01*
X139035323Y-106058082D01*
X139023058Y-106031105D01*
X139011799Y-106006343D01*
X139000500Y-105954192D01*
X139000500Y-101447066D01*
X139013106Y-101392132D01*
X139031710Y-101353733D01*
X139055496Y-101212354D01*
X139055647Y-101200000D01*
X139035323Y-101058082D01*
X139011799Y-101006343D01*
X139000500Y-100954192D01*
X139000500Y-98734220D01*
X139001373Y-98719411D01*
X139004257Y-98695043D01*
X139005364Y-98685690D01*
X138994828Y-98627999D01*
X138994178Y-98624096D01*
X138986850Y-98575355D01*
X138986850Y-98575354D01*
X138985449Y-98566038D01*
X138982321Y-98559525D01*
X138981025Y-98552427D01*
X138953975Y-98500353D01*
X138952225Y-98496850D01*
X138930885Y-98452410D01*
X138926809Y-98443921D01*
X138921923Y-98438635D01*
X138921890Y-98438587D01*
X138918579Y-98432212D01*
X138914275Y-98427172D01*
X138877048Y-98389945D01*
X138873618Y-98386379D01*
X138841246Y-98351359D01*
X138834854Y-98344444D01*
X138828495Y-98340751D01*
X138822337Y-98335234D01*
X136543254Y-96056151D01*
X136517648Y-96019207D01*
X136479701Y-95935746D01*
X136479699Y-95935743D01*
X136475984Y-95927572D01*
X136457598Y-95906234D01*
X136388260Y-95825763D01*
X136388257Y-95825760D01*
X136382400Y-95818963D01*
X136262095Y-95740985D01*
X136244066Y-95735593D01*
X136191075Y-95703972D01*
X135692753Y-95205650D01*
X135682899Y-95194561D01*
X135667707Y-95175291D01*
X135667705Y-95175289D01*
X135661872Y-95167890D01*
X135654125Y-95162535D01*
X135654123Y-95162534D01*
X135617875Y-95137482D01*
X135613615Y-95134538D01*
X135610403Y-95132243D01*
X135604785Y-95128093D01*
X135563184Y-95097366D01*
X135556368Y-95094973D01*
X135550431Y-95090869D01*
X135541451Y-95088029D01*
X135541449Y-95088028D01*
X135521283Y-95081650D01*
X135494481Y-95073174D01*
X135490750Y-95071929D01*
X135444263Y-95055604D01*
X135444261Y-95055604D01*
X135435369Y-95052481D01*
X135428181Y-95052199D01*
X135428122Y-95052188D01*
X135421270Y-95050020D01*
X135414663Y-95049500D01*
X135366500Y-95049500D01*
X135298379Y-95029498D01*
X135251886Y-94975842D01*
X135240500Y-94923500D01*
X135240500Y-94210252D01*
X135228867Y-94151769D01*
X135184552Y-94085448D01*
X135118231Y-94041133D01*
X135106062Y-94038712D01*
X135106061Y-94038712D01*
X135065816Y-94030707D01*
X135059748Y-94029500D01*
X133326500Y-94029500D01*
X133258379Y-94009498D01*
X133211886Y-93955842D01*
X133200500Y-93903500D01*
X133200500Y-92238793D01*
X133220502Y-92170672D01*
X133237405Y-92149698D01*
X133688968Y-91698135D01*
X133734636Y-91671636D01*
X133733921Y-91669984D01*
X133742153Y-91666422D01*
X133750817Y-91664060D01*
X133756547Y-91660542D01*
X133805042Y-91650500D01*
X135794411Y-91650500D01*
X135831528Y-91658902D01*
X135832313Y-91656390D01*
X135969157Y-91699142D01*
X135978129Y-91699306D01*
X135978132Y-91699307D01*
X136043463Y-91700504D01*
X136112499Y-91701770D01*
X136121533Y-91699307D01*
X136242155Y-91666422D01*
X136242158Y-91666421D01*
X136250817Y-91664060D01*
X136256546Y-91660542D01*
X136305042Y-91650500D01*
X138294411Y-91650500D01*
X138331528Y-91658902D01*
X138332313Y-91656390D01*
X138469157Y-91699142D01*
X138478129Y-91699306D01*
X138478132Y-91699307D01*
X138543463Y-91700504D01*
X138612499Y-91701770D01*
X138621533Y-91699307D01*
X138742155Y-91666422D01*
X138742158Y-91666421D01*
X138750817Y-91664060D01*
X138756546Y-91660542D01*
X138805042Y-91650500D01*
X143294411Y-91650500D01*
X143331528Y-91658902D01*
X143332313Y-91656390D01*
X143469157Y-91699142D01*
X143478129Y-91699306D01*
X143478132Y-91699307D01*
X143543463Y-91700504D01*
X143612499Y-91701770D01*
X143621533Y-91699307D01*
X143742158Y-91666421D01*
X143742160Y-91666420D01*
X143750817Y-91664060D01*
X143872991Y-91589045D01*
X143969200Y-91482754D01*
X144031710Y-91353733D01*
X144055496Y-91212354D01*
X144055647Y-91200000D01*
X144035323Y-91058082D01*
X144027736Y-91041394D01*
X143979700Y-90935746D01*
X143975984Y-90927572D01*
X143957598Y-90906234D01*
X143888260Y-90825763D01*
X143888257Y-90825760D01*
X143882400Y-90818963D01*
X143762095Y-90740985D01*
X143624739Y-90699907D01*
X143615763Y-90699852D01*
X143615762Y-90699852D01*
X143555555Y-90699484D01*
X143481376Y-90699031D01*
X143343529Y-90738428D01*
X143341824Y-90739504D01*
X143294996Y-90749500D01*
X138805192Y-90749500D01*
X138762364Y-90740084D01*
X138762095Y-90740985D01*
X138624739Y-90699907D01*
X138615763Y-90699852D01*
X138615762Y-90699852D01*
X138555555Y-90699484D01*
X138481376Y-90699031D01*
X138343529Y-90738428D01*
X138341824Y-90739504D01*
X138294996Y-90749500D01*
X136305192Y-90749500D01*
X136262364Y-90740084D01*
X136262095Y-90740985D01*
X136124739Y-90699907D01*
X136115763Y-90699852D01*
X136115762Y-90699852D01*
X136055555Y-90699484D01*
X135981376Y-90699031D01*
X135843529Y-90738428D01*
X135841824Y-90739504D01*
X135794996Y-90749500D01*
X133805192Y-90749500D01*
X133762364Y-90740084D01*
X133762095Y-90740985D01*
X133624739Y-90699907D01*
X133615763Y-90699852D01*
X133615762Y-90699852D01*
X133555555Y-90699484D01*
X133481376Y-90699031D01*
X133343529Y-90738428D01*
X133222280Y-90814930D01*
X133127377Y-90922388D01*
X133081920Y-91019207D01*
X133080872Y-91021439D01*
X133055912Y-91056985D01*
X132455650Y-91657247D01*
X132444561Y-91667101D01*
X132425291Y-91682293D01*
X132425289Y-91682295D01*
X132417890Y-91688128D01*
X132412535Y-91695875D01*
X132412534Y-91695877D01*
X132384545Y-91736375D01*
X132382250Y-91739587D01*
X132347366Y-91786816D01*
X132344973Y-91793632D01*
X132340869Y-91799569D01*
X132338029Y-91808549D01*
X132338028Y-91808551D01*
X132323182Y-91855495D01*
X132321929Y-91859250D01*
X132302481Y-91914631D01*
X132302199Y-91921819D01*
X132302188Y-91921878D01*
X132300020Y-91928730D01*
X132299500Y-91935337D01*
X132299500Y-91988016D01*
X132299403Y-91992962D01*
X132297162Y-92049994D01*
X132299046Y-92057100D01*
X132299500Y-92065347D01*
X132299500Y-93903500D01*
X132279498Y-93971621D01*
X132225842Y-94018114D01*
X132173500Y-94029500D01*
X130254500Y-94029500D01*
X130186379Y-94009498D01*
X130139886Y-93955842D01*
X130128500Y-93903500D01*
X130128500Y-89254500D01*
X130148502Y-89186379D01*
X130202158Y-89139886D01*
X130254500Y-89128500D01*
X149745500Y-89128500D01*
X149813621Y-89148502D01*
G37*
%TD.AperFunction*%
%TD*%
M02*
