%TF.GenerationSoftware,KiCad,Pcbnew,(6.0.4)*%
%TF.CreationDate,2022-05-26T12:18:36+02:00*%
%TF.ProjectId,SK6805EC15_Matrix,534b3638-3035-4454-9331-355f4d617472,rev?*%
%TF.SameCoordinates,Original*%
%TF.FileFunction,Copper,L1,Top*%
%TF.FilePolarity,Positive*%
%FSLAX46Y46*%
G04 Gerber Fmt 4.6, Leading zero omitted, Abs format (unit mm)*
G04 Created by KiCad (PCBNEW (6.0.4)) date 2022-05-26 12:18:36*
%MOMM*%
%LPD*%
G01*
G04 APERTURE LIST*
%TA.AperFunction,SMDPad,CuDef*%
%ADD10R,0.500000X0.500000*%
%TD*%
%TA.AperFunction,ViaPad*%
%ADD11C,0.600000*%
%TD*%
%TA.AperFunction,ViaPad*%
%ADD12C,0.500000*%
%TD*%
%TA.AperFunction,Conductor*%
%ADD13C,0.250000*%
%TD*%
%TA.AperFunction,Conductor*%
%ADD14C,0.400000*%
%TD*%
G04 APERTURE END LIST*
D10*
%TO.P,D59,1,DOUT*%
%TO.N,Net-(D59-Pad1)*%
X143550000Y-107950000D03*
%TO.P,D59,2,VSS*%
%TO.N,GND*%
X144450000Y-107950000D03*
%TO.P,D59,3,DIN*%
%TO.N,Net-(D58-Pad1)*%
X144450000Y-107050000D03*
%TO.P,D59,4,VDD*%
%TO.N,+5V*%
X143550000Y-107050000D03*
%TD*%
%TO.P,D54,1,DOUT*%
%TO.N,Net-(D54-Pad1)*%
X144450000Y-105450000D03*
%TO.P,D54,2,VSS*%
%TO.N,GND*%
X144450000Y-104550000D03*
%TO.P,D54,3,DIN*%
%TO.N,Net-(D53-Pad1)*%
X143550000Y-104550000D03*
%TO.P,D54,4,VDD*%
%TO.N,+5V*%
X143550000Y-105450000D03*
%TD*%
%TO.P,D15,1,DOUT*%
%TO.N,Net-(D15-Pad1)*%
X133550000Y-92950000D03*
%TO.P,D15,2,VSS*%
%TO.N,GND*%
X134450000Y-92950000D03*
%TO.P,D15,3,DIN*%
%TO.N,Net-(D14-Pad1)*%
X134450000Y-92050000D03*
%TO.P,D15,4,VDD*%
%TO.N,+5V*%
X133550000Y-92050000D03*
%TD*%
%TO.P,D3,1,DOUT*%
%TO.N,Net-(D3-Pad1)*%
X136950000Y-90450000D03*
%TO.P,D3,2,VSS*%
%TO.N,GND*%
X136950000Y-89550000D03*
%TO.P,D3,3,DIN*%
%TO.N,Net-(D2-Pad1)*%
X136050000Y-89550000D03*
%TO.P,D3,4,VDD*%
%TO.N,+5V*%
X136050000Y-90450000D03*
%TD*%
%TO.P,D47,1,DOUT*%
%TO.N,Net-(D47-Pad1)*%
X133550000Y-102950000D03*
%TO.P,D47,2,VSS*%
%TO.N,GND*%
X134450000Y-102950000D03*
%TO.P,D47,3,DIN*%
%TO.N,Net-(D46-Pad1)*%
X134450000Y-102050000D03*
%TO.P,D47,4,VDD*%
%TO.N,+5V*%
X133550000Y-102050000D03*
%TD*%
%TO.P,D23,1,DOUT*%
%TO.N,Net-(D23-Pad1)*%
X146950000Y-95450000D03*
%TO.P,D23,2,VSS*%
%TO.N,GND*%
X146950000Y-94550000D03*
%TO.P,D23,3,DIN*%
%TO.N,Net-(D22-Pad1)*%
X146050000Y-94550000D03*
%TO.P,D23,4,VDD*%
%TO.N,+5V*%
X146050000Y-95450000D03*
%TD*%
%TO.P,D26,1,DOUT*%
%TO.N,Net-(D26-Pad1)*%
X146050000Y-97850000D03*
%TO.P,D26,2,VSS*%
%TO.N,GND*%
X146950000Y-97850000D03*
%TO.P,D26,3,DIN*%
%TO.N,Net-(D25-Pad1)*%
X146950000Y-96950000D03*
%TO.P,D26,4,VDD*%
%TO.N,+5V*%
X146050000Y-96950000D03*
%TD*%
%TO.P,D56,1,DOUT*%
%TO.N,Net-(D56-Pad1)*%
X149450000Y-105450000D03*
%TO.P,D56,2,VSS*%
%TO.N,GND*%
X149450000Y-104550000D03*
%TO.P,D56,3,DIN*%
%TO.N,Net-(D55-Pad1)*%
X148550000Y-104550000D03*
%TO.P,D56,4,VDD*%
%TO.N,+5V*%
X148550000Y-105450000D03*
%TD*%
%TO.P,D55,1,DOUT*%
%TO.N,Net-(D55-Pad1)*%
X146950000Y-105450000D03*
%TO.P,D55,2,VSS*%
%TO.N,GND*%
X146950000Y-104550000D03*
%TO.P,D55,3,DIN*%
%TO.N,Net-(D54-Pad1)*%
X146050000Y-104550000D03*
%TO.P,D55,4,VDD*%
%TO.N,+5V*%
X146050000Y-105450000D03*
%TD*%
%TO.P,D45,1,DOUT*%
%TO.N,Net-(D45-Pad1)*%
X138550000Y-102950000D03*
%TO.P,D45,2,VSS*%
%TO.N,GND*%
X139450000Y-102950000D03*
%TO.P,D45,3,DIN*%
%TO.N,Net-(D44-Pad1)*%
X139450000Y-102050000D03*
%TO.P,D45,4,VDD*%
%TO.N,+5V*%
X138550000Y-102050000D03*
%TD*%
%TO.P,D32,1,DOUT*%
%TO.N,Net-(D32-Pad1)*%
X131050000Y-97850000D03*
%TO.P,D32,2,VSS*%
%TO.N,GND*%
X131950000Y-97850000D03*
%TO.P,D32,3,DIN*%
%TO.N,Net-(D31-Pad1)*%
X131950000Y-96950000D03*
%TO.P,D32,4,VDD*%
%TO.N,+5V*%
X131050000Y-96950000D03*
%TD*%
%TO.P,D35,1,DOUT*%
%TO.N,Net-(D35-Pad1)*%
X136950000Y-100450000D03*
%TO.P,D35,2,VSS*%
%TO.N,GND*%
X136950000Y-99550000D03*
%TO.P,D35,3,DIN*%
%TO.N,Net-(D34-Pad1)*%
X136050000Y-99550000D03*
%TO.P,D35,4,VDD*%
%TO.N,+5V*%
X136050000Y-100450000D03*
%TD*%
%TO.P,D44,1,DOUT*%
%TO.N,Net-(D44-Pad1)*%
X141050000Y-102950000D03*
%TO.P,D44,2,VSS*%
%TO.N,GND*%
X141950000Y-102950000D03*
%TO.P,D44,3,DIN*%
%TO.N,Net-(D43-Pad1)*%
X141950000Y-102050000D03*
%TO.P,D44,4,VDD*%
%TO.N,+5V*%
X141050000Y-102050000D03*
%TD*%
%TO.P,D1,1,DOUT*%
%TO.N,Net-(D1-Pad1)*%
X131950000Y-90450000D03*
%TO.P,D1,2,VSS*%
%TO.N,GND*%
X131950000Y-89550000D03*
%TO.P,D1,3,DIN*%
%TO.N,DIN*%
X131050000Y-89550000D03*
%TO.P,D1,4,VDD*%
%TO.N,+5V*%
X131050000Y-90450000D03*
%TD*%
%TO.P,D20,1,DOUT*%
%TO.N,Net-(D20-Pad1)*%
X139450000Y-95450000D03*
%TO.P,D20,2,VSS*%
%TO.N,GND*%
X139450000Y-94550000D03*
%TO.P,D20,3,DIN*%
%TO.N,Net-(D19-Pad1)*%
X138550000Y-94550000D03*
%TO.P,D20,4,VDD*%
%TO.N,+5V*%
X138550000Y-95450000D03*
%TD*%
%TO.P,D58,1,DOUT*%
%TO.N,Net-(D58-Pad1)*%
X146050000Y-107950000D03*
%TO.P,D58,2,VSS*%
%TO.N,GND*%
X146950000Y-107950000D03*
%TO.P,D58,3,DIN*%
%TO.N,Net-(D57-Pad1)*%
X146950000Y-107050000D03*
%TO.P,D58,4,VDD*%
%TO.N,+5V*%
X146050000Y-107050000D03*
%TD*%
%TO.P,D63,1,DOUT*%
%TO.N,Net-(D63-Pad1)*%
X133550000Y-107950000D03*
%TO.P,D63,2,VSS*%
%TO.N,GND*%
X134450000Y-107950000D03*
%TO.P,D63,3,DIN*%
%TO.N,Net-(D62-Pad1)*%
X134450000Y-107050000D03*
%TO.P,D63,4,VDD*%
%TO.N,+5V*%
X133550000Y-107050000D03*
%TD*%
%TO.P,D40,1,DOUT*%
%TO.N,Net-(D40-Pad1)*%
X149450000Y-100450000D03*
%TO.P,D40,2,VSS*%
%TO.N,GND*%
X149450000Y-99550000D03*
%TO.P,D40,3,DIN*%
%TO.N,Net-(D39-Pad1)*%
X148550000Y-99550000D03*
%TO.P,D40,4,VDD*%
%TO.N,+5V*%
X148550000Y-100450000D03*
%TD*%
%TO.P,D62,1,DOUT*%
%TO.N,Net-(D62-Pad1)*%
X136050000Y-107950000D03*
%TO.P,D62,2,VSS*%
%TO.N,GND*%
X136950000Y-107950000D03*
%TO.P,D62,3,DIN*%
%TO.N,Net-(D61-Pad1)*%
X136950000Y-107050000D03*
%TO.P,D62,4,VDD*%
%TO.N,+5V*%
X136050000Y-107050000D03*
%TD*%
%TO.P,D64,1,DOUT*%
%TO.N,DOUT*%
X131050000Y-107950000D03*
%TO.P,D64,2,VSS*%
%TO.N,GND*%
X131950000Y-107950000D03*
%TO.P,D64,3,DIN*%
%TO.N,Net-(D63-Pad1)*%
X131950000Y-107050000D03*
%TO.P,D64,4,VDD*%
%TO.N,+5V*%
X131050000Y-107050000D03*
%TD*%
%TO.P,D43,1,DOUT*%
%TO.N,Net-(D43-Pad1)*%
X143550000Y-102950000D03*
%TO.P,D43,2,VSS*%
%TO.N,GND*%
X144450000Y-102950000D03*
%TO.P,D43,3,DIN*%
%TO.N,Net-(D42-Pad1)*%
X144450000Y-102050000D03*
%TO.P,D43,4,VDD*%
%TO.N,+5V*%
X143550000Y-102050000D03*
%TD*%
%TO.P,D49,1,DOUT*%
%TO.N,Net-(D49-Pad1)*%
X131950000Y-105450000D03*
%TO.P,D49,2,VSS*%
%TO.N,GND*%
X131950000Y-104550000D03*
%TO.P,D49,3,DIN*%
%TO.N,Net-(D48-Pad1)*%
X131050000Y-104550000D03*
%TO.P,D49,4,VDD*%
%TO.N,+5V*%
X131050000Y-105450000D03*
%TD*%
%TO.P,D18,1,DOUT*%
%TO.N,Net-(D18-Pad1)*%
X134450000Y-95400000D03*
%TO.P,D18,2,VSS*%
%TO.N,GND*%
X134450000Y-94500000D03*
%TO.P,D18,3,DIN*%
%TO.N,Net-(D17-Pad1)*%
X133550000Y-94500000D03*
%TO.P,D18,4,VDD*%
%TO.N,+5V*%
X133550000Y-95400000D03*
%TD*%
%TO.P,D39,1,DOUT*%
%TO.N,Net-(D39-Pad1)*%
X146950000Y-100450000D03*
%TO.P,D39,2,VSS*%
%TO.N,GND*%
X146950000Y-99550000D03*
%TO.P,D39,3,DIN*%
%TO.N,Net-(D38-Pad1)*%
X146050000Y-99550000D03*
%TO.P,D39,4,VDD*%
%TO.N,+5V*%
X146050000Y-100450000D03*
%TD*%
%TO.P,D37,1,DOUT*%
%TO.N,Net-(D37-Pad1)*%
X141950000Y-100450000D03*
%TO.P,D37,2,VSS*%
%TO.N,GND*%
X141950000Y-99550000D03*
%TO.P,D37,3,DIN*%
%TO.N,Net-(D36-Pad1)*%
X141050000Y-99550000D03*
%TO.P,D37,4,VDD*%
%TO.N,+5V*%
X141050000Y-100450000D03*
%TD*%
%TO.P,D42,1,DOUT*%
%TO.N,Net-(D42-Pad1)*%
X146050000Y-102950000D03*
%TO.P,D42,2,VSS*%
%TO.N,GND*%
X146950000Y-102950000D03*
%TO.P,D42,3,DIN*%
%TO.N,Net-(D41-Pad1)*%
X146950000Y-102050000D03*
%TO.P,D42,4,VDD*%
%TO.N,+5V*%
X146050000Y-102050000D03*
%TD*%
%TO.P,D61,1,DOUT*%
%TO.N,Net-(D61-Pad1)*%
X138550000Y-107950000D03*
%TO.P,D61,2,VSS*%
%TO.N,GND*%
X139450000Y-107950000D03*
%TO.P,D61,3,DIN*%
%TO.N,Net-(D60-Pad1)*%
X139450000Y-107050000D03*
%TO.P,D61,4,VDD*%
%TO.N,+5V*%
X138550000Y-107050000D03*
%TD*%
%TO.P,D5,1,DOUT*%
%TO.N,Net-(D5-Pad1)*%
X141950000Y-90450000D03*
%TO.P,D5,2,VSS*%
%TO.N,GND*%
X141950000Y-89550000D03*
%TO.P,D5,3,DIN*%
%TO.N,Net-(D4-Pad1)*%
X141050000Y-89550000D03*
%TO.P,D5,4,VDD*%
%TO.N,+5V*%
X141050000Y-90450000D03*
%TD*%
%TO.P,D28,1,DOUT*%
%TO.N,Net-(D28-Pad1)*%
X141050000Y-97850000D03*
%TO.P,D28,2,VSS*%
%TO.N,GND*%
X141950000Y-97850000D03*
%TO.P,D28,3,DIN*%
%TO.N,Net-(D27-Pad1)*%
X141950000Y-96950000D03*
%TO.P,D28,4,VDD*%
%TO.N,+5V*%
X141050000Y-96950000D03*
%TD*%
%TO.P,D27,1,DOUT*%
%TO.N,Net-(D27-Pad1)*%
X143550000Y-97850000D03*
%TO.P,D27,2,VSS*%
%TO.N,GND*%
X144450000Y-97850000D03*
%TO.P,D27,3,DIN*%
%TO.N,Net-(D26-Pad1)*%
X144450000Y-96950000D03*
%TO.P,D27,4,VDD*%
%TO.N,+5V*%
X143550000Y-96950000D03*
%TD*%
%TO.P,D19,1,DOUT*%
%TO.N,Net-(D19-Pad1)*%
X136950000Y-95450000D03*
%TO.P,D19,2,VSS*%
%TO.N,GND*%
X136950000Y-94550000D03*
%TO.P,D19,3,DIN*%
%TO.N,Net-(D18-Pad1)*%
X136050000Y-94550000D03*
%TO.P,D19,4,VDD*%
%TO.N,+5V*%
X136050000Y-95450000D03*
%TD*%
%TO.P,D57,1,DOUT*%
%TO.N,Net-(D57-Pad1)*%
X148550000Y-107950000D03*
%TO.P,D57,2,VSS*%
%TO.N,GND*%
X149450000Y-107950000D03*
%TO.P,D57,3,DIN*%
%TO.N,Net-(D56-Pad1)*%
X149450000Y-107050000D03*
%TO.P,D57,4,VDD*%
%TO.N,+5V*%
X148550000Y-107050000D03*
%TD*%
%TO.P,D30,1,DOUT*%
%TO.N,Net-(D30-Pad1)*%
X136050000Y-97850000D03*
%TO.P,D30,2,VSS*%
%TO.N,GND*%
X136950000Y-97850000D03*
%TO.P,D30,3,DIN*%
%TO.N,Net-(D29-Pad1)*%
X136950000Y-96950000D03*
%TO.P,D30,4,VDD*%
%TO.N,+5V*%
X136050000Y-96950000D03*
%TD*%
%TO.P,D2,1,DOUT*%
%TO.N,Net-(D2-Pad1)*%
X134450000Y-90450000D03*
%TO.P,D2,2,VSS*%
%TO.N,GND*%
X134450000Y-89550000D03*
%TO.P,D2,3,DIN*%
%TO.N,Net-(D1-Pad1)*%
X133550000Y-89550000D03*
%TO.P,D2,4,VDD*%
%TO.N,+5V*%
X133550000Y-90450000D03*
%TD*%
%TO.P,D16,1,DOUT*%
%TO.N,Net-(D16-Pad1)*%
X131050000Y-92950000D03*
%TO.P,D16,2,VSS*%
%TO.N,GND*%
X131950000Y-92950000D03*
%TO.P,D16,3,DIN*%
%TO.N,Net-(D15-Pad1)*%
X131950000Y-92050000D03*
%TO.P,D16,4,VDD*%
%TO.N,+5V*%
X131050000Y-92050000D03*
%TD*%
%TO.P,D53,1,DOUT*%
%TO.N,Net-(D53-Pad1)*%
X141950000Y-105450000D03*
%TO.P,D53,2,VSS*%
%TO.N,GND*%
X141950000Y-104550000D03*
%TO.P,D53,3,DIN*%
%TO.N,Net-(D52-Pad1)*%
X141050000Y-104550000D03*
%TO.P,D53,4,VDD*%
%TO.N,+5V*%
X141050000Y-105450000D03*
%TD*%
%TO.P,D11,1,DOUT*%
%TO.N,Net-(D11-Pad1)*%
X143550000Y-92950000D03*
%TO.P,D11,2,VSS*%
%TO.N,GND*%
X144450000Y-92950000D03*
%TO.P,D11,3,DIN*%
%TO.N,Net-(D10-Pad1)*%
X144450000Y-92050000D03*
%TO.P,D11,4,VDD*%
%TO.N,+5V*%
X143550000Y-92050000D03*
%TD*%
%TO.P,D60,1,DOUT*%
%TO.N,Net-(D60-Pad1)*%
X141050000Y-107950000D03*
%TO.P,D60,2,VSS*%
%TO.N,GND*%
X141950000Y-107950000D03*
%TO.P,D60,3,DIN*%
%TO.N,Net-(D59-Pad1)*%
X141950000Y-107050000D03*
%TO.P,D60,4,VDD*%
%TO.N,+5V*%
X141050000Y-107050000D03*
%TD*%
%TO.P,D34,1,DOUT*%
%TO.N,Net-(D34-Pad1)*%
X134450000Y-100450000D03*
%TO.P,D34,2,VSS*%
%TO.N,GND*%
X134450000Y-99550000D03*
%TO.P,D34,3,DIN*%
%TO.N,Net-(D33-Pad1)*%
X133550000Y-99550000D03*
%TO.P,D34,4,VDD*%
%TO.N,+5V*%
X133550000Y-100450000D03*
%TD*%
%TO.P,D31,1,DOUT*%
%TO.N,Net-(D31-Pad1)*%
X133550000Y-97850000D03*
%TO.P,D31,2,VSS*%
%TO.N,GND*%
X134450000Y-97850000D03*
%TO.P,D31,3,DIN*%
%TO.N,Net-(D30-Pad1)*%
X134450000Y-96950000D03*
%TO.P,D31,4,VDD*%
%TO.N,+5V*%
X133550000Y-96950000D03*
%TD*%
%TO.P,D29,1,DOUT*%
%TO.N,Net-(D29-Pad1)*%
X138550000Y-97850000D03*
%TO.P,D29,2,VSS*%
%TO.N,GND*%
X139450000Y-97850000D03*
%TO.P,D29,3,DIN*%
%TO.N,Net-(D28-Pad1)*%
X139450000Y-96950000D03*
%TO.P,D29,4,VDD*%
%TO.N,+5V*%
X138550000Y-96950000D03*
%TD*%
%TO.P,D36,1,DOUT*%
%TO.N,Net-(D36-Pad1)*%
X139450000Y-100450000D03*
%TO.P,D36,2,VSS*%
%TO.N,GND*%
X139450000Y-99550000D03*
%TO.P,D36,3,DIN*%
%TO.N,Net-(D35-Pad1)*%
X138550000Y-99550000D03*
%TO.P,D36,4,VDD*%
%TO.N,+5V*%
X138550000Y-100450000D03*
%TD*%
%TO.P,D4,1,DOUT*%
%TO.N,Net-(D4-Pad1)*%
X139450000Y-90450000D03*
%TO.P,D4,2,VSS*%
%TO.N,GND*%
X139450000Y-89550000D03*
%TO.P,D4,3,DIN*%
%TO.N,Net-(D3-Pad1)*%
X138550000Y-89550000D03*
%TO.P,D4,4,VDD*%
%TO.N,+5V*%
X138550000Y-90450000D03*
%TD*%
%TO.P,D12,1,DOUT*%
%TO.N,Net-(D12-Pad1)*%
X141050000Y-92950000D03*
%TO.P,D12,2,VSS*%
%TO.N,GND*%
X141950000Y-92950000D03*
%TO.P,D12,3,DIN*%
%TO.N,Net-(D11-Pad1)*%
X141950000Y-92050000D03*
%TO.P,D12,4,VDD*%
%TO.N,+5V*%
X141050000Y-92050000D03*
%TD*%
%TO.P,D7,1,DOUT*%
%TO.N,Net-(D7-Pad1)*%
X146950000Y-90450000D03*
%TO.P,D7,2,VSS*%
%TO.N,GND*%
X146950000Y-89550000D03*
%TO.P,D7,3,DIN*%
%TO.N,Net-(D6-Pad1)*%
X146050000Y-89550000D03*
%TO.P,D7,4,VDD*%
%TO.N,+5V*%
X146050000Y-90450000D03*
%TD*%
%TO.P,D6,1,DOUT*%
%TO.N,Net-(D6-Pad1)*%
X144450000Y-90450000D03*
%TO.P,D6,2,VSS*%
%TO.N,GND*%
X144450000Y-89550000D03*
%TO.P,D6,3,DIN*%
%TO.N,Net-(D5-Pad1)*%
X143550000Y-89550000D03*
%TO.P,D6,4,VDD*%
%TO.N,+5V*%
X143550000Y-90450000D03*
%TD*%
%TO.P,D21,1,DOUT*%
%TO.N,Net-(D21-Pad1)*%
X141950000Y-95450000D03*
%TO.P,D21,2,VSS*%
%TO.N,GND*%
X141950000Y-94550000D03*
%TO.P,D21,3,DIN*%
%TO.N,Net-(D20-Pad1)*%
X141050000Y-94550000D03*
%TO.P,D21,4,VDD*%
%TO.N,+5V*%
X141050000Y-95450000D03*
%TD*%
%TO.P,D51,1,DOUT*%
%TO.N,Net-(D51-Pad1)*%
X136950000Y-105450000D03*
%TO.P,D51,2,VSS*%
%TO.N,GND*%
X136950000Y-104550000D03*
%TO.P,D51,3,DIN*%
%TO.N,Net-(D50-Pad1)*%
X136050000Y-104550000D03*
%TO.P,D51,4,VDD*%
%TO.N,+5V*%
X136050000Y-105450000D03*
%TD*%
%TO.P,D14,1,DOUT*%
%TO.N,Net-(D14-Pad1)*%
X136050000Y-92950000D03*
%TO.P,D14,2,VSS*%
%TO.N,GND*%
X136950000Y-92950000D03*
%TO.P,D14,3,DIN*%
%TO.N,Net-(D13-Pad1)*%
X136950000Y-92050000D03*
%TO.P,D14,4,VDD*%
%TO.N,+5V*%
X136050000Y-92050000D03*
%TD*%
%TO.P,D24,1,DOUT*%
%TO.N,Net-(D24-Pad1)*%
X149450000Y-95450000D03*
%TO.P,D24,2,VSS*%
%TO.N,GND*%
X149450000Y-94550000D03*
%TO.P,D24,3,DIN*%
%TO.N,Net-(D23-Pad1)*%
X148550000Y-94550000D03*
%TO.P,D24,4,VDD*%
%TO.N,+5V*%
X148550000Y-95450000D03*
%TD*%
%TO.P,D13,1,DOUT*%
%TO.N,Net-(D13-Pad1)*%
X138550000Y-92950000D03*
%TO.P,D13,2,VSS*%
%TO.N,GND*%
X139450000Y-92950000D03*
%TO.P,D13,3,DIN*%
%TO.N,Net-(D12-Pad1)*%
X139450000Y-92050000D03*
%TO.P,D13,4,VDD*%
%TO.N,+5V*%
X138550000Y-92050000D03*
%TD*%
%TO.P,D8,1,DOUT*%
%TO.N,Net-(D8-Pad1)*%
X149450000Y-90450000D03*
%TO.P,D8,2,VSS*%
%TO.N,GND*%
X149450000Y-89550000D03*
%TO.P,D8,3,DIN*%
%TO.N,Net-(D7-Pad1)*%
X148550000Y-89550000D03*
%TO.P,D8,4,VDD*%
%TO.N,+5V*%
X148550000Y-90450000D03*
%TD*%
%TO.P,D10,1,DOUT*%
%TO.N,Net-(D10-Pad1)*%
X146050000Y-92950000D03*
%TO.P,D10,2,VSS*%
%TO.N,GND*%
X146950000Y-92950000D03*
%TO.P,D10,3,DIN*%
%TO.N,Net-(D10-Pad3)*%
X146950000Y-92050000D03*
%TO.P,D10,4,VDD*%
%TO.N,+5V*%
X146050000Y-92050000D03*
%TD*%
%TO.P,D48,1,DOUT*%
%TO.N,Net-(D48-Pad1)*%
X131050000Y-102950000D03*
%TO.P,D48,2,VSS*%
%TO.N,GND*%
X131950000Y-102950000D03*
%TO.P,D48,3,DIN*%
%TO.N,Net-(D47-Pad1)*%
X131950000Y-102050000D03*
%TO.P,D48,4,VDD*%
%TO.N,+5V*%
X131050000Y-102050000D03*
%TD*%
%TO.P,D25,1,DOUT*%
%TO.N,Net-(D25-Pad1)*%
X148550000Y-97850000D03*
%TO.P,D25,2,VSS*%
%TO.N,GND*%
X149450000Y-97850000D03*
%TO.P,D25,3,DIN*%
%TO.N,Net-(D24-Pad1)*%
X149450000Y-96950000D03*
%TO.P,D25,4,VDD*%
%TO.N,+5V*%
X148550000Y-96950000D03*
%TD*%
%TO.P,D33,1,DOUT*%
%TO.N,Net-(D33-Pad1)*%
X131950000Y-100450000D03*
%TO.P,D33,2,VSS*%
%TO.N,GND*%
X131950000Y-99550000D03*
%TO.P,D33,3,DIN*%
%TO.N,Net-(D32-Pad1)*%
X131050000Y-99550000D03*
%TO.P,D33,4,VDD*%
%TO.N,+5V*%
X131050000Y-100450000D03*
%TD*%
%TO.P,D50,1,DOUT*%
%TO.N,Net-(D50-Pad1)*%
X134450000Y-105450000D03*
%TO.P,D50,2,VSS*%
%TO.N,GND*%
X134450000Y-104550000D03*
%TO.P,D50,3,DIN*%
%TO.N,Net-(D49-Pad1)*%
X133550000Y-104550000D03*
%TO.P,D50,4,VDD*%
%TO.N,+5V*%
X133550000Y-105450000D03*
%TD*%
%TO.P,D9,1,DOUT*%
%TO.N,Net-(D10-Pad3)*%
X148550000Y-92950000D03*
%TO.P,D9,2,VSS*%
%TO.N,GND*%
X149450000Y-92950000D03*
%TO.P,D9,3,DIN*%
%TO.N,Net-(D8-Pad1)*%
X149450000Y-92050000D03*
%TO.P,D9,4,VDD*%
%TO.N,+5V*%
X148550000Y-92050000D03*
%TD*%
%TO.P,D17,1,DOUT*%
%TO.N,Net-(D17-Pad1)*%
X131950000Y-95450000D03*
%TO.P,D17,2,VSS*%
%TO.N,GND*%
X131950000Y-94550000D03*
%TO.P,D17,3,DIN*%
%TO.N,Net-(D16-Pad1)*%
X131050000Y-94550000D03*
%TO.P,D17,4,VDD*%
%TO.N,+5V*%
X131050000Y-95450000D03*
%TD*%
%TO.P,D38,1,DOUT*%
%TO.N,Net-(D38-Pad1)*%
X144450000Y-100450000D03*
%TO.P,D38,2,VSS*%
%TO.N,GND*%
X144450000Y-99550000D03*
%TO.P,D38,3,DIN*%
%TO.N,Net-(D37-Pad1)*%
X143550000Y-99550000D03*
%TO.P,D38,4,VDD*%
%TO.N,+5V*%
X143550000Y-100450000D03*
%TD*%
%TO.P,D46,1,DOUT*%
%TO.N,Net-(D46-Pad1)*%
X136050000Y-102950000D03*
%TO.P,D46,2,VSS*%
%TO.N,GND*%
X136950000Y-102950000D03*
%TO.P,D46,3,DIN*%
%TO.N,Net-(D45-Pad1)*%
X136950000Y-102050000D03*
%TO.P,D46,4,VDD*%
%TO.N,+5V*%
X136050000Y-102050000D03*
%TD*%
%TO.P,D22,1,DOUT*%
%TO.N,Net-(D22-Pad1)*%
X144450000Y-95450000D03*
%TO.P,D22,2,VSS*%
%TO.N,GND*%
X144450000Y-94550000D03*
%TO.P,D22,3,DIN*%
%TO.N,Net-(D21-Pad1)*%
X143550000Y-94550000D03*
%TO.P,D22,4,VDD*%
%TO.N,+5V*%
X143550000Y-95450000D03*
%TD*%
%TO.P,D52,1,DOUT*%
%TO.N,Net-(D52-Pad1)*%
X139450000Y-105450000D03*
%TO.P,D52,2,VSS*%
%TO.N,GND*%
X139450000Y-104550000D03*
%TO.P,D52,3,DIN*%
%TO.N,Net-(D51-Pad1)*%
X138550000Y-104550000D03*
%TO.P,D52,4,VDD*%
%TO.N,+5V*%
X138550000Y-105450000D03*
%TD*%
%TO.P,D41,1,DOUT*%
%TO.N,Net-(D41-Pad1)*%
X148550000Y-102950000D03*
%TO.P,D41,2,VSS*%
%TO.N,GND*%
X149450000Y-102950000D03*
%TO.P,D41,3,DIN*%
%TO.N,Net-(D40-Pad1)*%
X149450000Y-102050000D03*
%TO.P,D41,4,VDD*%
%TO.N,+5V*%
X148550000Y-102050000D03*
%TD*%
D11*
%TO.N,GND*%
X134450000Y-93700000D03*
X142750000Y-108500000D03*
X139450000Y-93750000D03*
X147600000Y-89500000D03*
X132750000Y-108500000D03*
X141950000Y-98700000D03*
X145100000Y-89500000D03*
X145250000Y-108500000D03*
X144450000Y-93700000D03*
X147750000Y-108500000D03*
X135250000Y-108500000D03*
X144450000Y-98700000D03*
X143550000Y-103750000D03*
X137600000Y-89500000D03*
X139450000Y-103750000D03*
D12*
X149700000Y-89300000D03*
D11*
X137000000Y-98700000D03*
X149450000Y-93700000D03*
X146350000Y-93700000D03*
X136950000Y-93750000D03*
X140100000Y-89500000D03*
X131900000Y-93700000D03*
X132600000Y-89500000D03*
X139450000Y-98700000D03*
X137750000Y-108500000D03*
X135100000Y-89500000D03*
X140250000Y-108500000D03*
X141950000Y-103700000D03*
X144450000Y-103750000D03*
X136950000Y-103750000D03*
X141950000Y-93750000D03*
X135650000Y-103750000D03*
X142600000Y-89500000D03*
%TO.N,DIN*%
X130325000Y-97400000D03*
%TO.N,+5V*%
X136050000Y-96200000D03*
X133550000Y-91200000D03*
X143550000Y-91200000D03*
X143550000Y-96200000D03*
X136050000Y-91200000D03*
X138550000Y-101200000D03*
X138550000Y-106200000D03*
X138550000Y-91200000D03*
X146050000Y-91200000D03*
%TO.N,DOUT*%
X130400000Y-107950000D03*
%TD*%
D13*
%TO.N,Net-(D1-Pad1)*%
X133433193Y-89550000D02*
X133550000Y-89550000D01*
X132533193Y-90450000D02*
X133433193Y-89550000D01*
X131950000Y-90450000D02*
X132533193Y-90450000D01*
%TO.N,GND*%
X147600000Y-89500000D02*
X147600000Y-89400000D01*
%TO.N,DIN*%
X130325000Y-90025978D02*
X130800978Y-89550000D01*
X130800978Y-89550000D02*
X131050000Y-89550000D01*
X130325000Y-97400000D02*
X130325000Y-90025978D01*
%TO.N,+5V*%
X148550000Y-101200000D02*
X148550000Y-102050000D01*
X131050000Y-101200000D02*
X131050000Y-102050000D01*
X136050000Y-101200000D02*
X136050000Y-102050000D01*
X133550000Y-91200000D02*
X133550000Y-92050000D01*
X138550000Y-96200000D02*
X138550000Y-96950000D01*
X133550000Y-95400000D02*
X133550000Y-96950000D01*
D14*
X148550000Y-96200000D02*
X131050000Y-96200000D01*
D13*
X141050000Y-95450000D02*
X141050000Y-96950000D01*
X131050000Y-100450000D02*
X131050000Y-101200000D01*
X143550000Y-100450000D02*
X143550000Y-102050000D01*
X146050000Y-105450000D02*
X146050000Y-107050000D01*
X138550000Y-107050000D02*
X138550000Y-105450000D01*
D14*
X146050000Y-106200000D02*
X148550000Y-106200000D01*
D13*
X146050000Y-90450000D02*
X146050000Y-92050000D01*
X146050000Y-100450000D02*
X146050000Y-102050000D01*
X136050000Y-95450000D02*
X136050000Y-96200000D01*
X136050000Y-106200000D02*
X136050000Y-107050000D01*
X131050000Y-91200000D02*
X131050000Y-92050000D01*
X138550000Y-90450000D02*
X138550000Y-92050000D01*
X141050000Y-105450000D02*
X141050000Y-106200000D01*
X141050000Y-106200000D02*
X141050000Y-107050000D01*
D14*
X143550000Y-91200000D02*
X146050000Y-91200000D01*
D13*
X131050000Y-90450000D02*
X131050000Y-91200000D01*
X143550000Y-90450000D02*
X143550000Y-92050000D01*
X131050000Y-96200000D02*
X131050000Y-96950000D01*
D14*
X131050000Y-106200000D02*
X146050000Y-106200000D01*
X146050000Y-91200000D02*
X148550000Y-91200000D01*
D13*
X131050000Y-105450000D02*
X131050000Y-106200000D01*
X133550000Y-107050000D02*
X133550000Y-105450000D01*
X143550000Y-95450000D02*
X143550000Y-96200000D01*
X148550000Y-91200000D02*
X148550000Y-92050000D01*
X148550000Y-106200000D02*
X148550000Y-105450000D01*
X136050000Y-91200000D02*
X136050000Y-91250000D01*
X148550000Y-95450000D02*
X148550000Y-96200000D01*
X148550000Y-96200000D02*
X148550000Y-96950000D01*
X138550000Y-95450000D02*
X138550000Y-96200000D01*
X133550000Y-90450000D02*
X133550000Y-91200000D01*
X133550000Y-102050000D02*
X133550000Y-100450000D01*
X146050000Y-95450000D02*
X146050000Y-96950000D01*
X136050000Y-100450000D02*
X136050000Y-101200000D01*
X136050000Y-96200000D02*
X136050000Y-96950000D01*
X138550000Y-100450000D02*
X138550000Y-102050000D01*
X131050000Y-95450000D02*
X131050000Y-96200000D01*
X148550000Y-100450000D02*
X148550000Y-101200000D01*
X136050000Y-91250000D02*
X136050000Y-92050000D01*
D14*
X131050000Y-101200000D02*
X148550000Y-101200000D01*
D13*
X131050000Y-106200000D02*
X131050000Y-107050000D01*
X136050000Y-105450000D02*
X136050000Y-106200000D01*
X136050000Y-90450000D02*
X136050000Y-91200000D01*
X148550000Y-107050000D02*
X148550000Y-106200000D01*
X148550000Y-90450000D02*
X148550000Y-91200000D01*
D14*
X131050000Y-91200000D02*
X143550000Y-91200000D01*
D13*
X143550000Y-105450000D02*
X143550000Y-107050000D01*
X143550000Y-96200000D02*
X143550000Y-96950000D01*
X141050000Y-100450000D02*
X141050000Y-102050000D01*
X141050000Y-90450000D02*
X141050000Y-92050000D01*
%TO.N,Net-(D2-Pad1)*%
X135933193Y-89550000D02*
X136050000Y-89550000D01*
X134450000Y-90450000D02*
X135033193Y-90450000D01*
X135033193Y-90450000D02*
X135933193Y-89550000D01*
%TO.N,Net-(D3-Pad1)*%
X137533193Y-90450000D02*
X138433193Y-89550000D01*
X136950000Y-90450000D02*
X137533193Y-90450000D01*
X138433193Y-89550000D02*
X138550000Y-89550000D01*
%TO.N,Net-(D4-Pad1)*%
X140033193Y-90450000D02*
X140933193Y-89550000D01*
X139450000Y-90450000D02*
X140033193Y-90450000D01*
X140933193Y-89550000D02*
X141050000Y-89550000D01*
%TO.N,Net-(D5-Pad1)*%
X143433193Y-89550000D02*
X143550000Y-89550000D01*
X141950000Y-90450000D02*
X142533193Y-90450000D01*
X142533193Y-90450000D02*
X143433193Y-89550000D01*
%TO.N,Net-(D6-Pad1)*%
X145033193Y-90450000D02*
X145933193Y-89550000D01*
X144450000Y-90450000D02*
X145033193Y-90450000D01*
X145933193Y-89550000D02*
X146050000Y-89550000D01*
%TO.N,Net-(D7-Pad1)*%
X147533193Y-90450000D02*
X148433193Y-89550000D01*
X148433193Y-89550000D02*
X148550000Y-89550000D01*
X146950000Y-90450000D02*
X147533193Y-90450000D01*
%TO.N,Net-(D8-Pad1)*%
X149450000Y-90450000D02*
X149450000Y-92050000D01*
%TO.N,Net-(D10-Pad3)*%
X147450000Y-92050000D02*
X148350000Y-92950000D01*
X148350000Y-92950000D02*
X148550000Y-92950000D01*
X146950000Y-92050000D02*
X147450000Y-92050000D01*
%TO.N,Net-(D10-Pad1)*%
X145850000Y-92950000D02*
X146050000Y-92950000D01*
X144450000Y-92050000D02*
X144950000Y-92050000D01*
X144950000Y-92050000D02*
X145850000Y-92950000D01*
%TO.N,Net-(D11-Pad1)*%
X141950000Y-92050000D02*
X142450000Y-92050000D01*
X142450000Y-92050000D02*
X143350000Y-92950000D01*
X143350000Y-92950000D02*
X143550000Y-92950000D01*
%TO.N,Net-(D12-Pad1)*%
X139950000Y-92050000D02*
X140850000Y-92950000D01*
X140850000Y-92950000D02*
X141050000Y-92950000D01*
X139450000Y-92050000D02*
X139950000Y-92050000D01*
%TO.N,Net-(D13-Pad1)*%
X136950000Y-92050000D02*
X137450000Y-92050000D01*
X137450000Y-92050000D02*
X138350000Y-92950000D01*
X138350000Y-92950000D02*
X138550000Y-92950000D01*
%TO.N,Net-(D14-Pad1)*%
X135850000Y-92950000D02*
X136050000Y-92950000D01*
X134450000Y-92050000D02*
X134950000Y-92050000D01*
X134950000Y-92050000D02*
X135850000Y-92950000D01*
%TO.N,Net-(D15-Pad1)*%
X132450000Y-92050000D02*
X133350000Y-92950000D01*
X133350000Y-92950000D02*
X133550000Y-92950000D01*
X131950000Y-92050000D02*
X132450000Y-92050000D01*
%TO.N,Net-(D16-Pad1)*%
X131050000Y-92950000D02*
X131050000Y-94550000D01*
%TO.N,Net-(D17-Pad1)*%
X132450000Y-95450000D02*
X133400000Y-94500000D01*
X133400000Y-94500000D02*
X133550000Y-94500000D01*
X131950000Y-95450000D02*
X132450000Y-95450000D01*
%TO.N,Net-(D18-Pad1)*%
X134950000Y-95400000D02*
X135800000Y-94550000D01*
X135800000Y-94550000D02*
X136050000Y-94550000D01*
X134450000Y-95400000D02*
X134950000Y-95400000D01*
%TO.N,Net-(D19-Pad1)*%
X136950000Y-95450000D02*
X137450000Y-95450000D01*
X137450000Y-95450000D02*
X138350000Y-94550000D01*
X138350000Y-94550000D02*
X138550000Y-94550000D01*
%TO.N,Net-(D20-Pad1)*%
X139950000Y-95450000D02*
X140850000Y-94550000D01*
X139450000Y-95450000D02*
X139950000Y-95450000D01*
X140850000Y-94550000D02*
X141050000Y-94550000D01*
%TO.N,Net-(D21-Pad1)*%
X141950000Y-95450000D02*
X142450000Y-95450000D01*
X143350000Y-94550000D02*
X143550000Y-94550000D01*
X142450000Y-95450000D02*
X143350000Y-94550000D01*
%TO.N,Net-(D22-Pad1)*%
X145850000Y-94550000D02*
X146050000Y-94550000D01*
X144950000Y-95450000D02*
X145850000Y-94550000D01*
X144450000Y-95450000D02*
X144950000Y-95450000D01*
%TO.N,Net-(D23-Pad1)*%
X146950000Y-95450000D02*
X147450000Y-95450000D01*
X147450000Y-95450000D02*
X148350000Y-94550000D01*
X148350000Y-94550000D02*
X148550000Y-94550000D01*
%TO.N,Net-(D24-Pad1)*%
X149450000Y-95450000D02*
X149450000Y-96950000D01*
%TO.N,Net-(D25-Pad1)*%
X147450000Y-96950000D02*
X148350000Y-97850000D01*
X148350000Y-97850000D02*
X148550000Y-97850000D01*
X146950000Y-96950000D02*
X147450000Y-96950000D01*
%TO.N,Net-(D26-Pad1)*%
X144450000Y-96950000D02*
X144950000Y-96950000D01*
X144950000Y-96950000D02*
X145850000Y-97850000D01*
X145850000Y-97850000D02*
X146050000Y-97850000D01*
%TO.N,Net-(D27-Pad1)*%
X142450000Y-96950000D02*
X143350000Y-97850000D01*
X143350000Y-97850000D02*
X143550000Y-97850000D01*
X141950000Y-96950000D02*
X142450000Y-96950000D01*
%TO.N,Net-(D28-Pad1)*%
X139500000Y-97000000D02*
X140000000Y-97000000D01*
X140850000Y-97850000D02*
X141050000Y-97850000D01*
X140000000Y-97000000D02*
X140850000Y-97850000D01*
%TO.N,Net-(D29-Pad1)*%
X138350000Y-97850000D02*
X138550000Y-97850000D01*
X137450000Y-96950000D02*
X138350000Y-97850000D01*
X136950000Y-96950000D02*
X137450000Y-96950000D01*
%TO.N,Net-(D30-Pad1)*%
X135850000Y-97850000D02*
X136050000Y-97850000D01*
X134950000Y-96950000D02*
X135850000Y-97850000D01*
X134450000Y-96950000D02*
X134950000Y-96950000D01*
%TO.N,Net-(D31-Pad1)*%
X133350000Y-97850000D02*
X133550000Y-97850000D01*
X132450000Y-96950000D02*
X133350000Y-97850000D01*
X131950000Y-96950000D02*
X132450000Y-96950000D01*
%TO.N,Net-(D32-Pad1)*%
X131050000Y-97850000D02*
X131050000Y-99550000D01*
%TO.N,Net-(D33-Pad1)*%
X133350000Y-99550000D02*
X133550000Y-99550000D01*
X132450000Y-100450000D02*
X133350000Y-99550000D01*
X131950000Y-100450000D02*
X132450000Y-100450000D01*
%TO.N,Net-(D34-Pad1)*%
X134450000Y-100450000D02*
X134950000Y-100450000D01*
X134950000Y-100450000D02*
X135850000Y-99550000D01*
X135850000Y-99550000D02*
X136050000Y-99550000D01*
%TO.N,Net-(D35-Pad1)*%
X136950000Y-100450000D02*
X137450000Y-100450000D01*
X138350000Y-99550000D02*
X138550000Y-99550000D01*
X137450000Y-100450000D02*
X138350000Y-99550000D01*
%TO.N,Net-(D36-Pad1)*%
X140850000Y-99550000D02*
X141050000Y-99550000D01*
X139450000Y-100450000D02*
X139950000Y-100450000D01*
X139950000Y-100450000D02*
X140850000Y-99550000D01*
%TO.N,Net-(D37-Pad1)*%
X141950000Y-100450000D02*
X142450000Y-100450000D01*
X143350000Y-99550000D02*
X143550000Y-99550000D01*
X142450000Y-100450000D02*
X143350000Y-99550000D01*
%TO.N,Net-(D38-Pad1)*%
X144950000Y-100450000D02*
X145850000Y-99550000D01*
X145850000Y-99550000D02*
X146050000Y-99550000D01*
X144450000Y-100450000D02*
X144950000Y-100450000D01*
%TO.N,Net-(D39-Pad1)*%
X146950000Y-100450000D02*
X147450000Y-100450000D01*
X148350000Y-99550000D02*
X148550000Y-99550000D01*
X147450000Y-100450000D02*
X148350000Y-99550000D01*
%TO.N,Net-(D40-Pad1)*%
X149450000Y-100450000D02*
X149450000Y-102050000D01*
%TO.N,Net-(D41-Pad1)*%
X148350000Y-102950000D02*
X148550000Y-102950000D01*
X146950000Y-102050000D02*
X147450000Y-102050000D01*
X147450000Y-102050000D02*
X148350000Y-102950000D01*
%TO.N,Net-(D42-Pad1)*%
X144450000Y-102050000D02*
X144950000Y-102050000D01*
X144950000Y-102050000D02*
X145850000Y-102950000D01*
X145850000Y-102950000D02*
X146050000Y-102950000D01*
%TO.N,Net-(D43-Pad1)*%
X142450000Y-102050000D02*
X143350000Y-102950000D01*
X141950000Y-102050000D02*
X142450000Y-102050000D01*
X143350000Y-102950000D02*
X143550000Y-102950000D01*
%TO.N,Net-(D44-Pad1)*%
X140850000Y-102950000D02*
X141050000Y-102950000D01*
X139450000Y-102050000D02*
X139950000Y-102050000D01*
X139950000Y-102050000D02*
X140850000Y-102950000D01*
%TO.N,Net-(D45-Pad1)*%
X137450000Y-102050000D02*
X138350000Y-102950000D01*
X138350000Y-102950000D02*
X138550000Y-102950000D01*
X136950000Y-102050000D02*
X137450000Y-102050000D01*
%TO.N,Net-(D46-Pad1)*%
X135850000Y-102950000D02*
X136050000Y-102950000D01*
X134450000Y-102050000D02*
X134950000Y-102050000D01*
X134950000Y-102050000D02*
X135850000Y-102950000D01*
%TO.N,Net-(D47-Pad1)*%
X133350000Y-102950000D02*
X133550000Y-102950000D01*
X132450000Y-102050000D02*
X133350000Y-102950000D01*
X131950000Y-102050000D02*
X132450000Y-102050000D01*
%TO.N,Net-(D48-Pad1)*%
X131050000Y-102950000D02*
X131050000Y-104550000D01*
%TO.N,Net-(D49-Pad1)*%
X132450000Y-105450000D02*
X133350000Y-104550000D01*
X133350000Y-104550000D02*
X133550000Y-104550000D01*
X131950000Y-105450000D02*
X132450000Y-105450000D01*
%TO.N,Net-(D50-Pad1)*%
X134450000Y-105450000D02*
X134950000Y-105450000D01*
X134950000Y-105450000D02*
X135850000Y-104550000D01*
X135850000Y-104550000D02*
X136050000Y-104550000D01*
%TO.N,Net-(D51-Pad1)*%
X136950000Y-105450000D02*
X137450000Y-105450000D01*
X138350000Y-104550000D02*
X138550000Y-104550000D01*
X137450000Y-105450000D02*
X138350000Y-104550000D01*
%TO.N,Net-(D52-Pad1)*%
X139450000Y-105450000D02*
X139950000Y-105450000D01*
X139950000Y-105450000D02*
X140850000Y-104550000D01*
X140850000Y-104550000D02*
X141050000Y-104550000D01*
%TO.N,Net-(D53-Pad1)*%
X143350000Y-104550000D02*
X143550000Y-104550000D01*
X142450000Y-105450000D02*
X143350000Y-104550000D01*
X141950000Y-105450000D02*
X142450000Y-105450000D01*
%TO.N,Net-(D54-Pad1)*%
X144950000Y-105450000D02*
X145850000Y-104550000D01*
X145900000Y-104500000D02*
X146000000Y-104500000D01*
X144450000Y-105450000D02*
X144950000Y-105450000D01*
X145850000Y-104550000D02*
X146050000Y-104550000D01*
%TO.N,Net-(D55-Pad1)*%
X147450000Y-105450000D02*
X148350000Y-104550000D01*
X146950000Y-105450000D02*
X147450000Y-105450000D01*
X148350000Y-104550000D02*
X148550000Y-104550000D01*
%TO.N,Net-(D56-Pad1)*%
X149450000Y-105450000D02*
X149450000Y-107050000D01*
%TO.N,Net-(D57-Pad1)*%
X147450000Y-107050000D02*
X148350000Y-107950000D01*
X148350000Y-107950000D02*
X148550000Y-107950000D01*
X146950000Y-107050000D02*
X147450000Y-107050000D01*
%TO.N,Net-(D58-Pad1)*%
X144450000Y-107050000D02*
X144950000Y-107050000D01*
X144950000Y-107050000D02*
X145850000Y-107950000D01*
X145850000Y-107950000D02*
X146050000Y-107950000D01*
%TO.N,Net-(D59-Pad1)*%
X143350000Y-107950000D02*
X143550000Y-107950000D01*
X142450000Y-107050000D02*
X143350000Y-107950000D01*
X141950000Y-107050000D02*
X142450000Y-107050000D01*
%TO.N,Net-(D60-Pad1)*%
X140850000Y-107950000D02*
X141050000Y-107950000D01*
X139950000Y-107050000D02*
X140850000Y-107950000D01*
X139450000Y-107050000D02*
X139950000Y-107050000D01*
%TO.N,Net-(D61-Pad1)*%
X137450000Y-107050000D02*
X138350000Y-107950000D01*
X138350000Y-107950000D02*
X138550000Y-107950000D01*
X136950000Y-107050000D02*
X137450000Y-107050000D01*
%TO.N,Net-(D62-Pad1)*%
X134950000Y-107050000D02*
X135850000Y-107950000D01*
X135850000Y-107950000D02*
X136050000Y-107950000D01*
X134450000Y-107050000D02*
X134950000Y-107050000D01*
%TO.N,Net-(D63-Pad1)*%
X133350000Y-107950000D02*
X133550000Y-107950000D01*
X132450000Y-107050000D02*
X133350000Y-107950000D01*
X131950000Y-107050000D02*
X132450000Y-107050000D01*
%TO.N,DOUT*%
X130400000Y-107950000D02*
X131050000Y-107950000D01*
%TD*%
%TA.AperFunction,Conductor*%
%TO.N,GND*%
G36*
X147662511Y-107723292D02*
G01*
X147669089Y-107729415D01*
X147888673Y-107949000D01*
X148062596Y-108122923D01*
X148096621Y-108185235D01*
X148099500Y-108212018D01*
X148099500Y-108219748D01*
X148111133Y-108278231D01*
X148118026Y-108288547D01*
X148134137Y-108312658D01*
X148155448Y-108344552D01*
X148221769Y-108388867D01*
X148233938Y-108391288D01*
X148233939Y-108391288D01*
X148274184Y-108399293D01*
X148280252Y-108400500D01*
X148819748Y-108400500D01*
X148825816Y-108399293D01*
X148866061Y-108391288D01*
X148866062Y-108391288D01*
X148878231Y-108388867D01*
X148888547Y-108381974D01*
X148900017Y-108377223D01*
X148901314Y-108380355D01*
X148949597Y-108365235D01*
X149021852Y-108386450D01*
X149090572Y-108432367D01*
X149113066Y-108441684D01*
X149168915Y-108452793D01*
X149181170Y-108454000D01*
X149304885Y-108454000D01*
X149320124Y-108449525D01*
X149321329Y-108448135D01*
X149323000Y-108440452D01*
X149323000Y-107949000D01*
X149343002Y-107880879D01*
X149396658Y-107834386D01*
X149449000Y-107823000D01*
X149451000Y-107823000D01*
X149519121Y-107843002D01*
X149565614Y-107896658D01*
X149577000Y-107949000D01*
X149577000Y-108435884D01*
X149581475Y-108451123D01*
X149582865Y-108452328D01*
X149590548Y-108453999D01*
X149718824Y-108453999D01*
X149733147Y-108452588D01*
X149802900Y-108465815D01*
X149854430Y-108514654D01*
X149871500Y-108577981D01*
X149871500Y-108745500D01*
X149851498Y-108813621D01*
X149797842Y-108860114D01*
X149745500Y-108871500D01*
X130254500Y-108871500D01*
X130186379Y-108851498D01*
X130139886Y-108797842D01*
X130128500Y-108745500D01*
X130128500Y-108560948D01*
X130148502Y-108492827D01*
X130202158Y-108446334D01*
X130272432Y-108436230D01*
X130292069Y-108440679D01*
X130319157Y-108449142D01*
X130328129Y-108449306D01*
X130328132Y-108449307D01*
X130393463Y-108450504D01*
X130462499Y-108451770D01*
X130471533Y-108449307D01*
X130592158Y-108416421D01*
X130592160Y-108416420D01*
X130600817Y-108414060D01*
X130621824Y-108401161D01*
X130690340Y-108382564D01*
X130721715Y-108389141D01*
X130721769Y-108388867D01*
X130780252Y-108400500D01*
X131319748Y-108400500D01*
X131325816Y-108399293D01*
X131366061Y-108391288D01*
X131366062Y-108391288D01*
X131378231Y-108388867D01*
X131388547Y-108381974D01*
X131400017Y-108377223D01*
X131401314Y-108380355D01*
X131449597Y-108365235D01*
X131521852Y-108386450D01*
X131590572Y-108432367D01*
X131613066Y-108441684D01*
X131668915Y-108452793D01*
X131681170Y-108454000D01*
X131804885Y-108454000D01*
X131820124Y-108449525D01*
X131821329Y-108448135D01*
X131823000Y-108440452D01*
X131823000Y-108435884D01*
X132077000Y-108435884D01*
X132081475Y-108451123D01*
X132082865Y-108452328D01*
X132090548Y-108453999D01*
X132218828Y-108453999D01*
X132231088Y-108452791D01*
X132286931Y-108441685D01*
X132309427Y-108432367D01*
X132372808Y-108390017D01*
X132390017Y-108372808D01*
X132432368Y-108309425D01*
X132441684Y-108286934D01*
X132452793Y-108231085D01*
X132454000Y-108218830D01*
X132454000Y-108095115D01*
X132449525Y-108079876D01*
X132448135Y-108078671D01*
X132440452Y-108077000D01*
X132095115Y-108077000D01*
X132079876Y-108081475D01*
X132078671Y-108082865D01*
X132077000Y-108090548D01*
X132077000Y-108435884D01*
X131823000Y-108435884D01*
X131823000Y-107949000D01*
X131843002Y-107880879D01*
X131896658Y-107834386D01*
X131949000Y-107823000D01*
X132435884Y-107823000D01*
X132451123Y-107818525D01*
X132452328Y-107817135D01*
X132456878Y-107796217D01*
X132460326Y-107796967D01*
X132474001Y-107750395D01*
X132527657Y-107703902D01*
X132597931Y-107693798D01*
X132662511Y-107723292D01*
X132669089Y-107729415D01*
X132888673Y-107949000D01*
X133062596Y-108122923D01*
X133096621Y-108185235D01*
X133099500Y-108212018D01*
X133099500Y-108219748D01*
X133111133Y-108278231D01*
X133118026Y-108288547D01*
X133134137Y-108312658D01*
X133155448Y-108344552D01*
X133221769Y-108388867D01*
X133233938Y-108391288D01*
X133233939Y-108391288D01*
X133274184Y-108399293D01*
X133280252Y-108400500D01*
X133819748Y-108400500D01*
X133825816Y-108399293D01*
X133866061Y-108391288D01*
X133866062Y-108391288D01*
X133878231Y-108388867D01*
X133888547Y-108381974D01*
X133900017Y-108377223D01*
X133901314Y-108380355D01*
X133949597Y-108365235D01*
X134021852Y-108386450D01*
X134090572Y-108432367D01*
X134113066Y-108441684D01*
X134168915Y-108452793D01*
X134181170Y-108454000D01*
X134304885Y-108454000D01*
X134320124Y-108449525D01*
X134321329Y-108448135D01*
X134323000Y-108440452D01*
X134323000Y-108435884D01*
X134577000Y-108435884D01*
X134581475Y-108451123D01*
X134582865Y-108452328D01*
X134590548Y-108453999D01*
X134718828Y-108453999D01*
X134731088Y-108452791D01*
X134786931Y-108441685D01*
X134809427Y-108432367D01*
X134872808Y-108390017D01*
X134890017Y-108372808D01*
X134932368Y-108309425D01*
X134941684Y-108286934D01*
X134952793Y-108231085D01*
X134954000Y-108218830D01*
X134954000Y-108095115D01*
X134949525Y-108079876D01*
X134948135Y-108078671D01*
X134940452Y-108077000D01*
X134595115Y-108077000D01*
X134579876Y-108081475D01*
X134578671Y-108082865D01*
X134577000Y-108090548D01*
X134577000Y-108435884D01*
X134323000Y-108435884D01*
X134323000Y-107949000D01*
X134343002Y-107880879D01*
X134396658Y-107834386D01*
X134449000Y-107823000D01*
X134935884Y-107823000D01*
X134951123Y-107818525D01*
X134952328Y-107817135D01*
X134956878Y-107796217D01*
X134960326Y-107796967D01*
X134974001Y-107750395D01*
X135027657Y-107703902D01*
X135097931Y-107693798D01*
X135162511Y-107723292D01*
X135169089Y-107729415D01*
X135388673Y-107949000D01*
X135562596Y-108122923D01*
X135596621Y-108185235D01*
X135599500Y-108212018D01*
X135599500Y-108219748D01*
X135611133Y-108278231D01*
X135618026Y-108288547D01*
X135634137Y-108312658D01*
X135655448Y-108344552D01*
X135721769Y-108388867D01*
X135733938Y-108391288D01*
X135733939Y-108391288D01*
X135774184Y-108399293D01*
X135780252Y-108400500D01*
X136319748Y-108400500D01*
X136325816Y-108399293D01*
X136366061Y-108391288D01*
X136366062Y-108391288D01*
X136378231Y-108388867D01*
X136388547Y-108381974D01*
X136400017Y-108377223D01*
X136401314Y-108380355D01*
X136449597Y-108365235D01*
X136521852Y-108386450D01*
X136590572Y-108432367D01*
X136613066Y-108441684D01*
X136668915Y-108452793D01*
X136681170Y-108454000D01*
X136804885Y-108454000D01*
X136820124Y-108449525D01*
X136821329Y-108448135D01*
X136823000Y-108440452D01*
X136823000Y-108435884D01*
X137077000Y-108435884D01*
X137081475Y-108451123D01*
X137082865Y-108452328D01*
X137090548Y-108453999D01*
X137218828Y-108453999D01*
X137231088Y-108452791D01*
X137286931Y-108441685D01*
X137309427Y-108432367D01*
X137372808Y-108390017D01*
X137390017Y-108372808D01*
X137432368Y-108309425D01*
X137441684Y-108286934D01*
X137452793Y-108231085D01*
X137454000Y-108218830D01*
X137454000Y-108095115D01*
X137449525Y-108079876D01*
X137448135Y-108078671D01*
X137440452Y-108077000D01*
X137095115Y-108077000D01*
X137079876Y-108081475D01*
X137078671Y-108082865D01*
X137077000Y-108090548D01*
X137077000Y-108435884D01*
X136823000Y-108435884D01*
X136823000Y-107949000D01*
X136843002Y-107880879D01*
X136896658Y-107834386D01*
X136949000Y-107823000D01*
X137435884Y-107823000D01*
X137451123Y-107818525D01*
X137452328Y-107817135D01*
X137456878Y-107796217D01*
X137460326Y-107796967D01*
X137474001Y-107750395D01*
X137527657Y-107703902D01*
X137597931Y-107693798D01*
X137662511Y-107723292D01*
X137669089Y-107729415D01*
X137888673Y-107949000D01*
X138062596Y-108122923D01*
X138096621Y-108185235D01*
X138099500Y-108212018D01*
X138099500Y-108219748D01*
X138111133Y-108278231D01*
X138118026Y-108288547D01*
X138134137Y-108312658D01*
X138155448Y-108344552D01*
X138221769Y-108388867D01*
X138233938Y-108391288D01*
X138233939Y-108391288D01*
X138274184Y-108399293D01*
X138280252Y-108400500D01*
X138819748Y-108400500D01*
X138825816Y-108399293D01*
X138866061Y-108391288D01*
X138866062Y-108391288D01*
X138878231Y-108388867D01*
X138888547Y-108381974D01*
X138900017Y-108377223D01*
X138901314Y-108380355D01*
X138949597Y-108365235D01*
X139021852Y-108386450D01*
X139090572Y-108432367D01*
X139113066Y-108441684D01*
X139168915Y-108452793D01*
X139181170Y-108454000D01*
X139304885Y-108454000D01*
X139320124Y-108449525D01*
X139321329Y-108448135D01*
X139323000Y-108440452D01*
X139323000Y-108435884D01*
X139577000Y-108435884D01*
X139581475Y-108451123D01*
X139582865Y-108452328D01*
X139590548Y-108453999D01*
X139718828Y-108453999D01*
X139731088Y-108452791D01*
X139786931Y-108441685D01*
X139809427Y-108432367D01*
X139872808Y-108390017D01*
X139890017Y-108372808D01*
X139932368Y-108309425D01*
X139941684Y-108286934D01*
X139952793Y-108231085D01*
X139954000Y-108218830D01*
X139954000Y-108095115D01*
X139949525Y-108079876D01*
X139948135Y-108078671D01*
X139940452Y-108077000D01*
X139595115Y-108077000D01*
X139579876Y-108081475D01*
X139578671Y-108082865D01*
X139577000Y-108090548D01*
X139577000Y-108435884D01*
X139323000Y-108435884D01*
X139323000Y-107949000D01*
X139343002Y-107880879D01*
X139396658Y-107834386D01*
X139449000Y-107823000D01*
X139935884Y-107823000D01*
X139951123Y-107818525D01*
X139952328Y-107817135D01*
X139956878Y-107796217D01*
X139960326Y-107796967D01*
X139974001Y-107750395D01*
X140027657Y-107703902D01*
X140097931Y-107693798D01*
X140162511Y-107723292D01*
X140169089Y-107729415D01*
X140388673Y-107949000D01*
X140562596Y-108122923D01*
X140596621Y-108185235D01*
X140599500Y-108212018D01*
X140599500Y-108219748D01*
X140611133Y-108278231D01*
X140618026Y-108288547D01*
X140634137Y-108312658D01*
X140655448Y-108344552D01*
X140721769Y-108388867D01*
X140733938Y-108391288D01*
X140733939Y-108391288D01*
X140774184Y-108399293D01*
X140780252Y-108400500D01*
X141319748Y-108400500D01*
X141325816Y-108399293D01*
X141366061Y-108391288D01*
X141366062Y-108391288D01*
X141378231Y-108388867D01*
X141388547Y-108381974D01*
X141400017Y-108377223D01*
X141401314Y-108380355D01*
X141449597Y-108365235D01*
X141521852Y-108386450D01*
X141590572Y-108432367D01*
X141613066Y-108441684D01*
X141668915Y-108452793D01*
X141681170Y-108454000D01*
X141804885Y-108454000D01*
X141820124Y-108449525D01*
X141821329Y-108448135D01*
X141823000Y-108440452D01*
X141823000Y-108435884D01*
X142077000Y-108435884D01*
X142081475Y-108451123D01*
X142082865Y-108452328D01*
X142090548Y-108453999D01*
X142218828Y-108453999D01*
X142231088Y-108452791D01*
X142286931Y-108441685D01*
X142309427Y-108432367D01*
X142372808Y-108390017D01*
X142390017Y-108372808D01*
X142432368Y-108309425D01*
X142441684Y-108286934D01*
X142452793Y-108231085D01*
X142454000Y-108218830D01*
X142454000Y-108095115D01*
X142449525Y-108079876D01*
X142448135Y-108078671D01*
X142440452Y-108077000D01*
X142095115Y-108077000D01*
X142079876Y-108081475D01*
X142078671Y-108082865D01*
X142077000Y-108090548D01*
X142077000Y-108435884D01*
X141823000Y-108435884D01*
X141823000Y-107949000D01*
X141843002Y-107880879D01*
X141896658Y-107834386D01*
X141949000Y-107823000D01*
X142435884Y-107823000D01*
X142451123Y-107818525D01*
X142452328Y-107817135D01*
X142456878Y-107796217D01*
X142460326Y-107796967D01*
X142474001Y-107750395D01*
X142527657Y-107703902D01*
X142597931Y-107693798D01*
X142662511Y-107723292D01*
X142669089Y-107729415D01*
X142888673Y-107949000D01*
X143062596Y-108122923D01*
X143096621Y-108185235D01*
X143099500Y-108212018D01*
X143099500Y-108219748D01*
X143111133Y-108278231D01*
X143118026Y-108288547D01*
X143134137Y-108312658D01*
X143155448Y-108344552D01*
X143221769Y-108388867D01*
X143233938Y-108391288D01*
X143233939Y-108391288D01*
X143274184Y-108399293D01*
X143280252Y-108400500D01*
X143819748Y-108400500D01*
X143825816Y-108399293D01*
X143866061Y-108391288D01*
X143866062Y-108391288D01*
X143878231Y-108388867D01*
X143888547Y-108381974D01*
X143900017Y-108377223D01*
X143901314Y-108380355D01*
X143949597Y-108365235D01*
X144021852Y-108386450D01*
X144090572Y-108432367D01*
X144113066Y-108441684D01*
X144168915Y-108452793D01*
X144181170Y-108454000D01*
X144304885Y-108454000D01*
X144320124Y-108449525D01*
X144321329Y-108448135D01*
X144323000Y-108440452D01*
X144323000Y-108435884D01*
X144577000Y-108435884D01*
X144581475Y-108451123D01*
X144582865Y-108452328D01*
X144590548Y-108453999D01*
X144718828Y-108453999D01*
X144731088Y-108452791D01*
X144786931Y-108441685D01*
X144809427Y-108432367D01*
X144872808Y-108390017D01*
X144890017Y-108372808D01*
X144932368Y-108309425D01*
X144941684Y-108286934D01*
X144952793Y-108231085D01*
X144954000Y-108218830D01*
X144954000Y-108095115D01*
X144949525Y-108079876D01*
X144948135Y-108078671D01*
X144940452Y-108077000D01*
X144595115Y-108077000D01*
X144579876Y-108081475D01*
X144578671Y-108082865D01*
X144577000Y-108090548D01*
X144577000Y-108435884D01*
X144323000Y-108435884D01*
X144323000Y-107949000D01*
X144343002Y-107880879D01*
X144396658Y-107834386D01*
X144449000Y-107823000D01*
X144935884Y-107823000D01*
X144951123Y-107818525D01*
X144952328Y-107817135D01*
X144956878Y-107796217D01*
X144960326Y-107796967D01*
X144974001Y-107750395D01*
X145027657Y-107703902D01*
X145097931Y-107693798D01*
X145162511Y-107723292D01*
X145169089Y-107729415D01*
X145388673Y-107949000D01*
X145562596Y-108122923D01*
X145596621Y-108185235D01*
X145599500Y-108212018D01*
X145599500Y-108219748D01*
X145611133Y-108278231D01*
X145618026Y-108288547D01*
X145634137Y-108312658D01*
X145655448Y-108344552D01*
X145721769Y-108388867D01*
X145733938Y-108391288D01*
X145733939Y-108391288D01*
X145774184Y-108399293D01*
X145780252Y-108400500D01*
X146319748Y-108400500D01*
X146325816Y-108399293D01*
X146366061Y-108391288D01*
X146366062Y-108391288D01*
X146378231Y-108388867D01*
X146388547Y-108381974D01*
X146400017Y-108377223D01*
X146401314Y-108380355D01*
X146449597Y-108365235D01*
X146521852Y-108386450D01*
X146590572Y-108432367D01*
X146613066Y-108441684D01*
X146668915Y-108452793D01*
X146681170Y-108454000D01*
X146804885Y-108454000D01*
X146820124Y-108449525D01*
X146821329Y-108448135D01*
X146823000Y-108440452D01*
X146823000Y-108435884D01*
X147077000Y-108435884D01*
X147081475Y-108451123D01*
X147082865Y-108452328D01*
X147090548Y-108453999D01*
X147218828Y-108453999D01*
X147231088Y-108452791D01*
X147286931Y-108441685D01*
X147309427Y-108432367D01*
X147372808Y-108390017D01*
X147390017Y-108372808D01*
X147432368Y-108309425D01*
X147441684Y-108286934D01*
X147452793Y-108231085D01*
X147454000Y-108218830D01*
X147454000Y-108095115D01*
X147449525Y-108079876D01*
X147448135Y-108078671D01*
X147440452Y-108077000D01*
X147095115Y-108077000D01*
X147079876Y-108081475D01*
X147078671Y-108082865D01*
X147077000Y-108090548D01*
X147077000Y-108435884D01*
X146823000Y-108435884D01*
X146823000Y-107949000D01*
X146843002Y-107880879D01*
X146896658Y-107834386D01*
X146949000Y-107823000D01*
X147435884Y-107823000D01*
X147451123Y-107818525D01*
X147452328Y-107817135D01*
X147456878Y-107796217D01*
X147460326Y-107796967D01*
X147474001Y-107750395D01*
X147527657Y-107703902D01*
X147597931Y-107693798D01*
X147662511Y-107723292D01*
G37*
%TD.AperFunction*%
%TA.AperFunction,Conductor*%
G36*
X147662511Y-102723292D02*
G01*
X147669089Y-102729415D01*
X147888673Y-102949000D01*
X148062596Y-103122923D01*
X148096621Y-103185235D01*
X148099500Y-103212018D01*
X148099500Y-103219748D01*
X148111133Y-103278231D01*
X148118026Y-103288547D01*
X148134137Y-103312658D01*
X148155448Y-103344552D01*
X148221769Y-103388867D01*
X148233938Y-103391288D01*
X148233939Y-103391288D01*
X148274184Y-103399293D01*
X148280252Y-103400500D01*
X148819748Y-103400500D01*
X148825816Y-103399293D01*
X148866061Y-103391288D01*
X148866062Y-103391288D01*
X148878231Y-103388867D01*
X148888547Y-103381974D01*
X148900017Y-103377223D01*
X148901314Y-103380355D01*
X148949597Y-103365235D01*
X149021852Y-103386450D01*
X149090572Y-103432367D01*
X149113066Y-103441684D01*
X149168915Y-103452793D01*
X149181170Y-103454000D01*
X149304885Y-103454000D01*
X149320124Y-103449525D01*
X149321329Y-103448135D01*
X149323000Y-103440452D01*
X149323000Y-102949000D01*
X149343002Y-102880879D01*
X149396658Y-102834386D01*
X149449000Y-102823000D01*
X149451000Y-102823000D01*
X149519121Y-102843002D01*
X149565614Y-102896658D01*
X149577000Y-102949000D01*
X149577000Y-103435884D01*
X149581475Y-103451123D01*
X149582865Y-103452328D01*
X149590548Y-103453999D01*
X149718824Y-103453999D01*
X149733147Y-103452588D01*
X149802900Y-103465815D01*
X149854430Y-103514654D01*
X149871500Y-103577981D01*
X149871500Y-103922017D01*
X149851498Y-103990138D01*
X149797842Y-104036631D01*
X149733152Y-104047411D01*
X149718823Y-104046000D01*
X149595115Y-104046000D01*
X149579876Y-104050475D01*
X149578671Y-104051865D01*
X149577000Y-104059548D01*
X149577000Y-104551000D01*
X149556998Y-104619121D01*
X149503342Y-104665614D01*
X149451000Y-104677000D01*
X149449000Y-104677000D01*
X149380879Y-104656998D01*
X149334386Y-104603342D01*
X149323000Y-104551000D01*
X149323000Y-104064116D01*
X149318525Y-104048877D01*
X149317135Y-104047672D01*
X149309452Y-104046001D01*
X149181172Y-104046001D01*
X149168912Y-104047209D01*
X149113069Y-104058315D01*
X149090570Y-104067634D01*
X149021852Y-104113550D01*
X148954099Y-104134765D01*
X148901455Y-104119306D01*
X148900017Y-104122777D01*
X148888547Y-104118026D01*
X148878231Y-104111133D01*
X148866062Y-104108712D01*
X148866061Y-104108712D01*
X148825816Y-104100707D01*
X148819748Y-104099500D01*
X148280252Y-104099500D01*
X148274184Y-104100707D01*
X148233939Y-104108712D01*
X148233938Y-104108712D01*
X148221769Y-104111133D01*
X148155448Y-104155448D01*
X148111133Y-104221769D01*
X148099500Y-104280252D01*
X148099500Y-104287982D01*
X148099271Y-104288761D01*
X148098893Y-104292602D01*
X148098165Y-104292530D01*
X148079498Y-104356103D01*
X148062596Y-104377077D01*
X147759798Y-104679876D01*
X147669096Y-104770578D01*
X147606783Y-104804603D01*
X147535968Y-104799539D01*
X147479132Y-104756992D01*
X147462198Y-104711590D01*
X147459104Y-104712498D01*
X147449525Y-104679876D01*
X147448135Y-104678671D01*
X147440452Y-104677000D01*
X146949000Y-104677000D01*
X146880879Y-104656998D01*
X146834386Y-104603342D01*
X146823000Y-104551000D01*
X146823000Y-104404885D01*
X147077000Y-104404885D01*
X147081475Y-104420124D01*
X147082865Y-104421329D01*
X147090548Y-104423000D01*
X147435884Y-104423000D01*
X147451123Y-104418525D01*
X147452328Y-104417135D01*
X147453999Y-104409452D01*
X147453999Y-104281172D01*
X147452791Y-104268912D01*
X147441685Y-104213069D01*
X147432367Y-104190573D01*
X147390017Y-104127192D01*
X147372808Y-104109983D01*
X147309425Y-104067632D01*
X147286934Y-104058316D01*
X147231085Y-104047207D01*
X147218830Y-104046000D01*
X147095115Y-104046000D01*
X147079876Y-104050475D01*
X147078671Y-104051865D01*
X147077000Y-104059548D01*
X147077000Y-104404885D01*
X146823000Y-104404885D01*
X146823000Y-104064116D01*
X146818525Y-104048877D01*
X146817135Y-104047672D01*
X146809452Y-104046001D01*
X146681172Y-104046001D01*
X146668912Y-104047209D01*
X146613069Y-104058315D01*
X146590570Y-104067634D01*
X146521852Y-104113550D01*
X146454099Y-104134765D01*
X146401455Y-104119306D01*
X146400017Y-104122777D01*
X146388547Y-104118026D01*
X146378231Y-104111133D01*
X146366062Y-104108712D01*
X146366061Y-104108712D01*
X146325816Y-104100707D01*
X146319748Y-104099500D01*
X145780252Y-104099500D01*
X145774184Y-104100707D01*
X145733939Y-104108712D01*
X145733938Y-104108712D01*
X145721769Y-104111133D01*
X145655448Y-104155448D01*
X145611133Y-104221769D01*
X145599500Y-104280252D01*
X145599500Y-104287982D01*
X145599271Y-104288761D01*
X145598893Y-104292602D01*
X145598165Y-104292530D01*
X145579498Y-104356103D01*
X145562596Y-104377077D01*
X145259798Y-104679876D01*
X145169096Y-104770578D01*
X145106783Y-104804603D01*
X145035968Y-104799539D01*
X144979132Y-104756992D01*
X144962198Y-104711590D01*
X144959104Y-104712498D01*
X144949525Y-104679876D01*
X144948135Y-104678671D01*
X144940452Y-104677000D01*
X144449000Y-104677000D01*
X144380879Y-104656998D01*
X144334386Y-104603342D01*
X144323000Y-104551000D01*
X144323000Y-104404885D01*
X144577000Y-104404885D01*
X144581475Y-104420124D01*
X144582865Y-104421329D01*
X144590548Y-104423000D01*
X144935884Y-104423000D01*
X144951123Y-104418525D01*
X144952328Y-104417135D01*
X144953999Y-104409452D01*
X144953999Y-104281172D01*
X144952791Y-104268912D01*
X144941685Y-104213069D01*
X144932367Y-104190573D01*
X144890017Y-104127192D01*
X144872808Y-104109983D01*
X144809425Y-104067632D01*
X144786934Y-104058316D01*
X144731085Y-104047207D01*
X144718830Y-104046000D01*
X144595115Y-104046000D01*
X144579876Y-104050475D01*
X144578671Y-104051865D01*
X144577000Y-104059548D01*
X144577000Y-104404885D01*
X144323000Y-104404885D01*
X144323000Y-104064116D01*
X144318525Y-104048877D01*
X144317135Y-104047672D01*
X144309452Y-104046001D01*
X144181172Y-104046001D01*
X144168912Y-104047209D01*
X144113069Y-104058315D01*
X144090570Y-104067634D01*
X144021852Y-104113550D01*
X143954099Y-104134765D01*
X143901455Y-104119306D01*
X143900017Y-104122777D01*
X143888547Y-104118026D01*
X143878231Y-104111133D01*
X143866062Y-104108712D01*
X143866061Y-104108712D01*
X143825816Y-104100707D01*
X143819748Y-104099500D01*
X143280252Y-104099500D01*
X143274184Y-104100707D01*
X143233939Y-104108712D01*
X143233938Y-104108712D01*
X143221769Y-104111133D01*
X143155448Y-104155448D01*
X143111133Y-104221769D01*
X143099500Y-104280252D01*
X143099500Y-104287982D01*
X143099271Y-104288761D01*
X143098893Y-104292602D01*
X143098165Y-104292530D01*
X143079498Y-104356103D01*
X143062596Y-104377077D01*
X142759798Y-104679876D01*
X142669096Y-104770578D01*
X142606783Y-104804603D01*
X142535968Y-104799539D01*
X142479132Y-104756992D01*
X142462198Y-104711590D01*
X142459104Y-104712498D01*
X142449525Y-104679876D01*
X142448135Y-104678671D01*
X142440452Y-104677000D01*
X141949000Y-104677000D01*
X141880879Y-104656998D01*
X141834386Y-104603342D01*
X141823000Y-104551000D01*
X141823000Y-104404885D01*
X142077000Y-104404885D01*
X142081475Y-104420124D01*
X142082865Y-104421329D01*
X142090548Y-104423000D01*
X142435884Y-104423000D01*
X142451123Y-104418525D01*
X142452328Y-104417135D01*
X142453999Y-104409452D01*
X142453999Y-104281172D01*
X142452791Y-104268912D01*
X142441685Y-104213069D01*
X142432367Y-104190573D01*
X142390017Y-104127192D01*
X142372808Y-104109983D01*
X142309425Y-104067632D01*
X142286934Y-104058316D01*
X142231085Y-104047207D01*
X142218830Y-104046000D01*
X142095115Y-104046000D01*
X142079876Y-104050475D01*
X142078671Y-104051865D01*
X142077000Y-104059548D01*
X142077000Y-104404885D01*
X141823000Y-104404885D01*
X141823000Y-104064116D01*
X141818525Y-104048877D01*
X141817135Y-104047672D01*
X141809452Y-104046001D01*
X141681172Y-104046001D01*
X141668912Y-104047209D01*
X141613069Y-104058315D01*
X141590570Y-104067634D01*
X141521852Y-104113550D01*
X141454099Y-104134765D01*
X141401455Y-104119306D01*
X141400017Y-104122777D01*
X141388547Y-104118026D01*
X141378231Y-104111133D01*
X141366062Y-104108712D01*
X141366061Y-104108712D01*
X141325816Y-104100707D01*
X141319748Y-104099500D01*
X140780252Y-104099500D01*
X140774184Y-104100707D01*
X140733939Y-104108712D01*
X140733938Y-104108712D01*
X140721769Y-104111133D01*
X140655448Y-104155448D01*
X140611133Y-104221769D01*
X140599500Y-104280252D01*
X140599500Y-104287982D01*
X140599271Y-104288761D01*
X140598893Y-104292602D01*
X140598165Y-104292530D01*
X140579498Y-104356103D01*
X140562596Y-104377077D01*
X140259798Y-104679876D01*
X140169096Y-104770578D01*
X140106783Y-104804603D01*
X140035968Y-104799539D01*
X139979132Y-104756992D01*
X139962198Y-104711590D01*
X139959104Y-104712498D01*
X139949525Y-104679876D01*
X139948135Y-104678671D01*
X139940452Y-104677000D01*
X139449000Y-104677000D01*
X139380879Y-104656998D01*
X139334386Y-104603342D01*
X139323000Y-104551000D01*
X139323000Y-104404885D01*
X139577000Y-104404885D01*
X139581475Y-104420124D01*
X139582865Y-104421329D01*
X139590548Y-104423000D01*
X139935884Y-104423000D01*
X139951123Y-104418525D01*
X139952328Y-104417135D01*
X139953999Y-104409452D01*
X139953999Y-104281172D01*
X139952791Y-104268912D01*
X139941685Y-104213069D01*
X139932367Y-104190573D01*
X139890017Y-104127192D01*
X139872808Y-104109983D01*
X139809425Y-104067632D01*
X139786934Y-104058316D01*
X139731085Y-104047207D01*
X139718830Y-104046000D01*
X139595115Y-104046000D01*
X139579876Y-104050475D01*
X139578671Y-104051865D01*
X139577000Y-104059548D01*
X139577000Y-104404885D01*
X139323000Y-104404885D01*
X139323000Y-104064116D01*
X139318525Y-104048877D01*
X139317135Y-104047672D01*
X139309452Y-104046001D01*
X139181172Y-104046001D01*
X139168912Y-104047209D01*
X139113069Y-104058315D01*
X139090570Y-104067634D01*
X139021852Y-104113550D01*
X138954099Y-104134765D01*
X138901455Y-104119306D01*
X138900017Y-104122777D01*
X138888547Y-104118026D01*
X138878231Y-104111133D01*
X138866062Y-104108712D01*
X138866061Y-104108712D01*
X138825816Y-104100707D01*
X138819748Y-104099500D01*
X138280252Y-104099500D01*
X138274184Y-104100707D01*
X138233939Y-104108712D01*
X138233938Y-104108712D01*
X138221769Y-104111133D01*
X138155448Y-104155448D01*
X138111133Y-104221769D01*
X138099500Y-104280252D01*
X138099500Y-104287982D01*
X138099271Y-104288761D01*
X138098893Y-104292602D01*
X138098165Y-104292530D01*
X138079498Y-104356103D01*
X138062596Y-104377077D01*
X137759798Y-104679876D01*
X137669096Y-104770578D01*
X137606783Y-104804603D01*
X137535968Y-104799539D01*
X137479132Y-104756992D01*
X137462198Y-104711590D01*
X137459104Y-104712498D01*
X137449525Y-104679876D01*
X137448135Y-104678671D01*
X137440452Y-104677000D01*
X136949000Y-104677000D01*
X136880879Y-104656998D01*
X136834386Y-104603342D01*
X136823000Y-104551000D01*
X136823000Y-104404885D01*
X137077000Y-104404885D01*
X137081475Y-104420124D01*
X137082865Y-104421329D01*
X137090548Y-104423000D01*
X137435884Y-104423000D01*
X137451123Y-104418525D01*
X137452328Y-104417135D01*
X137453999Y-104409452D01*
X137453999Y-104281172D01*
X137452791Y-104268912D01*
X137441685Y-104213069D01*
X137432367Y-104190573D01*
X137390017Y-104127192D01*
X137372808Y-104109983D01*
X137309425Y-104067632D01*
X137286934Y-104058316D01*
X137231085Y-104047207D01*
X137218830Y-104046000D01*
X137095115Y-104046000D01*
X137079876Y-104050475D01*
X137078671Y-104051865D01*
X137077000Y-104059548D01*
X137077000Y-104404885D01*
X136823000Y-104404885D01*
X136823000Y-104064116D01*
X136818525Y-104048877D01*
X136817135Y-104047672D01*
X136809452Y-104046001D01*
X136681172Y-104046001D01*
X136668912Y-104047209D01*
X136613069Y-104058315D01*
X136590570Y-104067634D01*
X136521852Y-104113550D01*
X136454099Y-104134765D01*
X136401455Y-104119306D01*
X136400017Y-104122777D01*
X136388547Y-104118026D01*
X136378231Y-104111133D01*
X136366062Y-104108712D01*
X136366061Y-104108712D01*
X136325816Y-104100707D01*
X136319748Y-104099500D01*
X135780252Y-104099500D01*
X135774184Y-104100707D01*
X135733939Y-104108712D01*
X135733938Y-104108712D01*
X135721769Y-104111133D01*
X135655448Y-104155448D01*
X135611133Y-104221769D01*
X135599500Y-104280252D01*
X135599500Y-104287982D01*
X135599271Y-104288761D01*
X135598893Y-104292602D01*
X135598165Y-104292530D01*
X135579498Y-104356103D01*
X135562596Y-104377077D01*
X135259798Y-104679876D01*
X135169096Y-104770578D01*
X135106783Y-104804603D01*
X135035968Y-104799539D01*
X134979132Y-104756992D01*
X134962198Y-104711590D01*
X134959104Y-104712498D01*
X134949525Y-104679876D01*
X134948135Y-104678671D01*
X134940452Y-104677000D01*
X134449000Y-104677000D01*
X134380879Y-104656998D01*
X134334386Y-104603342D01*
X134323000Y-104551000D01*
X134323000Y-104404885D01*
X134577000Y-104404885D01*
X134581475Y-104420124D01*
X134582865Y-104421329D01*
X134590548Y-104423000D01*
X134935884Y-104423000D01*
X134951123Y-104418525D01*
X134952328Y-104417135D01*
X134953999Y-104409452D01*
X134953999Y-104281172D01*
X134952791Y-104268912D01*
X134941685Y-104213069D01*
X134932367Y-104190573D01*
X134890017Y-104127192D01*
X134872808Y-104109983D01*
X134809425Y-104067632D01*
X134786934Y-104058316D01*
X134731085Y-104047207D01*
X134718830Y-104046000D01*
X134595115Y-104046000D01*
X134579876Y-104050475D01*
X134578671Y-104051865D01*
X134577000Y-104059548D01*
X134577000Y-104404885D01*
X134323000Y-104404885D01*
X134323000Y-104064116D01*
X134318525Y-104048877D01*
X134317135Y-104047672D01*
X134309452Y-104046001D01*
X134181172Y-104046001D01*
X134168912Y-104047209D01*
X134113069Y-104058315D01*
X134090570Y-104067634D01*
X134021852Y-104113550D01*
X133954099Y-104134765D01*
X133901455Y-104119306D01*
X133900017Y-104122777D01*
X133888547Y-104118026D01*
X133878231Y-104111133D01*
X133866062Y-104108712D01*
X133866061Y-104108712D01*
X133825816Y-104100707D01*
X133819748Y-104099500D01*
X133280252Y-104099500D01*
X133274184Y-104100707D01*
X133233939Y-104108712D01*
X133233938Y-104108712D01*
X133221769Y-104111133D01*
X133155448Y-104155448D01*
X133111133Y-104221769D01*
X133099500Y-104280252D01*
X133099500Y-104287982D01*
X133099271Y-104288761D01*
X133098893Y-104292602D01*
X133098165Y-104292530D01*
X133079498Y-104356103D01*
X133062596Y-104377077D01*
X132759798Y-104679876D01*
X132669096Y-104770578D01*
X132606783Y-104804603D01*
X132535968Y-104799539D01*
X132479132Y-104756992D01*
X132462198Y-104711590D01*
X132459104Y-104712498D01*
X132449525Y-104679876D01*
X132448135Y-104678671D01*
X132440452Y-104677000D01*
X131949000Y-104677000D01*
X131880879Y-104656998D01*
X131834386Y-104603342D01*
X131823000Y-104551000D01*
X131823000Y-104404885D01*
X132077000Y-104404885D01*
X132081475Y-104420124D01*
X132082865Y-104421329D01*
X132090548Y-104423000D01*
X132435884Y-104423000D01*
X132451123Y-104418525D01*
X132452328Y-104417135D01*
X132453999Y-104409452D01*
X132453999Y-104281172D01*
X132452791Y-104268912D01*
X132441685Y-104213069D01*
X132432367Y-104190573D01*
X132390017Y-104127192D01*
X132372808Y-104109983D01*
X132309425Y-104067632D01*
X132286934Y-104058316D01*
X132231085Y-104047207D01*
X132218830Y-104046000D01*
X132095115Y-104046000D01*
X132079876Y-104050475D01*
X132078671Y-104051865D01*
X132077000Y-104059548D01*
X132077000Y-104404885D01*
X131823000Y-104404885D01*
X131823000Y-104064116D01*
X131818525Y-104048877D01*
X131817135Y-104047672D01*
X131809452Y-104046001D01*
X131681172Y-104046001D01*
X131668912Y-104047209D01*
X131613069Y-104058315D01*
X131590573Y-104067633D01*
X131571502Y-104080376D01*
X131503749Y-104101591D01*
X131435282Y-104082808D01*
X131387839Y-104029990D01*
X131375500Y-103975611D01*
X131375500Y-103524389D01*
X131395502Y-103456268D01*
X131449158Y-103409775D01*
X131519432Y-103399671D01*
X131571502Y-103419624D01*
X131590574Y-103432368D01*
X131613066Y-103441684D01*
X131668915Y-103452793D01*
X131681170Y-103454000D01*
X131804885Y-103454000D01*
X131820124Y-103449525D01*
X131821329Y-103448135D01*
X131823000Y-103440452D01*
X131823000Y-103435884D01*
X132077000Y-103435884D01*
X132081475Y-103451123D01*
X132082865Y-103452328D01*
X132090548Y-103453999D01*
X132218828Y-103453999D01*
X132231088Y-103452791D01*
X132286931Y-103441685D01*
X132309427Y-103432367D01*
X132372808Y-103390017D01*
X132390017Y-103372808D01*
X132432368Y-103309425D01*
X132441684Y-103286934D01*
X132452793Y-103231085D01*
X132454000Y-103218830D01*
X132454000Y-103095115D01*
X132449525Y-103079876D01*
X132448135Y-103078671D01*
X132440452Y-103077000D01*
X132095115Y-103077000D01*
X132079876Y-103081475D01*
X132078671Y-103082865D01*
X132077000Y-103090548D01*
X132077000Y-103435884D01*
X131823000Y-103435884D01*
X131823000Y-102949000D01*
X131843002Y-102880879D01*
X131896658Y-102834386D01*
X131949000Y-102823000D01*
X132435884Y-102823000D01*
X132451123Y-102818525D01*
X132452328Y-102817135D01*
X132456878Y-102796217D01*
X132460326Y-102796967D01*
X132474001Y-102750395D01*
X132527657Y-102703902D01*
X132597931Y-102693798D01*
X132662511Y-102723292D01*
X132669089Y-102729415D01*
X132888673Y-102949000D01*
X133062596Y-103122923D01*
X133096621Y-103185235D01*
X133099500Y-103212018D01*
X133099500Y-103219748D01*
X133111133Y-103278231D01*
X133118026Y-103288547D01*
X133134137Y-103312658D01*
X133155448Y-103344552D01*
X133221769Y-103388867D01*
X133233938Y-103391288D01*
X133233939Y-103391288D01*
X133274184Y-103399293D01*
X133280252Y-103400500D01*
X133819748Y-103400500D01*
X133825816Y-103399293D01*
X133866061Y-103391288D01*
X133866062Y-103391288D01*
X133878231Y-103388867D01*
X133888547Y-103381974D01*
X133900017Y-103377223D01*
X133901314Y-103380355D01*
X133949597Y-103365235D01*
X134021852Y-103386450D01*
X134090572Y-103432367D01*
X134113066Y-103441684D01*
X134168915Y-103452793D01*
X134181170Y-103454000D01*
X134304885Y-103454000D01*
X134320124Y-103449525D01*
X134321329Y-103448135D01*
X134323000Y-103440452D01*
X134323000Y-103435884D01*
X134577000Y-103435884D01*
X134581475Y-103451123D01*
X134582865Y-103452328D01*
X134590548Y-103453999D01*
X134718828Y-103453999D01*
X134731088Y-103452791D01*
X134786931Y-103441685D01*
X134809427Y-103432367D01*
X134872808Y-103390017D01*
X134890017Y-103372808D01*
X134932368Y-103309425D01*
X134941684Y-103286934D01*
X134952793Y-103231085D01*
X134954000Y-103218830D01*
X134954000Y-103095115D01*
X134949525Y-103079876D01*
X134948135Y-103078671D01*
X134940452Y-103077000D01*
X134595115Y-103077000D01*
X134579876Y-103081475D01*
X134578671Y-103082865D01*
X134577000Y-103090548D01*
X134577000Y-103435884D01*
X134323000Y-103435884D01*
X134323000Y-102949000D01*
X134343002Y-102880879D01*
X134396658Y-102834386D01*
X134449000Y-102823000D01*
X134935884Y-102823000D01*
X134951123Y-102818525D01*
X134952328Y-102817135D01*
X134956878Y-102796217D01*
X134960326Y-102796967D01*
X134974001Y-102750395D01*
X135027657Y-102703902D01*
X135097931Y-102693798D01*
X135162511Y-102723292D01*
X135169089Y-102729415D01*
X135388673Y-102949000D01*
X135562596Y-103122923D01*
X135596621Y-103185235D01*
X135599500Y-103212018D01*
X135599500Y-103219748D01*
X135611133Y-103278231D01*
X135618026Y-103288547D01*
X135634137Y-103312658D01*
X135655448Y-103344552D01*
X135721769Y-103388867D01*
X135733938Y-103391288D01*
X135733939Y-103391288D01*
X135774184Y-103399293D01*
X135780252Y-103400500D01*
X136319748Y-103400500D01*
X136325816Y-103399293D01*
X136366061Y-103391288D01*
X136366062Y-103391288D01*
X136378231Y-103388867D01*
X136388547Y-103381974D01*
X136400017Y-103377223D01*
X136401314Y-103380355D01*
X136449597Y-103365235D01*
X136521852Y-103386450D01*
X136590572Y-103432367D01*
X136613066Y-103441684D01*
X136668915Y-103452793D01*
X136681170Y-103454000D01*
X136804885Y-103454000D01*
X136820124Y-103449525D01*
X136821329Y-103448135D01*
X136823000Y-103440452D01*
X136823000Y-103435884D01*
X137077000Y-103435884D01*
X137081475Y-103451123D01*
X137082865Y-103452328D01*
X137090548Y-103453999D01*
X137218828Y-103453999D01*
X137231088Y-103452791D01*
X137286931Y-103441685D01*
X137309427Y-103432367D01*
X137372808Y-103390017D01*
X137390017Y-103372808D01*
X137432368Y-103309425D01*
X137441684Y-103286934D01*
X137452793Y-103231085D01*
X137454000Y-103218830D01*
X137454000Y-103095115D01*
X137449525Y-103079876D01*
X137448135Y-103078671D01*
X137440452Y-103077000D01*
X137095115Y-103077000D01*
X137079876Y-103081475D01*
X137078671Y-103082865D01*
X137077000Y-103090548D01*
X137077000Y-103435884D01*
X136823000Y-103435884D01*
X136823000Y-102949000D01*
X136843002Y-102880879D01*
X136896658Y-102834386D01*
X136949000Y-102823000D01*
X137435884Y-102823000D01*
X137451123Y-102818525D01*
X137452328Y-102817135D01*
X137456878Y-102796217D01*
X137460326Y-102796967D01*
X137474001Y-102750395D01*
X137527657Y-102703902D01*
X137597931Y-102693798D01*
X137662511Y-102723292D01*
X137669089Y-102729415D01*
X137888673Y-102949000D01*
X138062596Y-103122923D01*
X138096621Y-103185235D01*
X138099500Y-103212018D01*
X138099500Y-103219748D01*
X138111133Y-103278231D01*
X138118026Y-103288547D01*
X138134137Y-103312658D01*
X138155448Y-103344552D01*
X138221769Y-103388867D01*
X138233938Y-103391288D01*
X138233939Y-103391288D01*
X138274184Y-103399293D01*
X138280252Y-103400500D01*
X138819748Y-103400500D01*
X138825816Y-103399293D01*
X138866061Y-103391288D01*
X138866062Y-103391288D01*
X138878231Y-103388867D01*
X138888547Y-103381974D01*
X138900017Y-103377223D01*
X138901314Y-103380355D01*
X138949597Y-103365235D01*
X139021852Y-103386450D01*
X139090572Y-103432367D01*
X139113066Y-103441684D01*
X139168915Y-103452793D01*
X139181170Y-103454000D01*
X139304885Y-103454000D01*
X139320124Y-103449525D01*
X139321329Y-103448135D01*
X139323000Y-103440452D01*
X139323000Y-103435884D01*
X139577000Y-103435884D01*
X139581475Y-103451123D01*
X139582865Y-103452328D01*
X139590548Y-103453999D01*
X139718828Y-103453999D01*
X139731088Y-103452791D01*
X139786931Y-103441685D01*
X139809427Y-103432367D01*
X139872808Y-103390017D01*
X139890017Y-103372808D01*
X139932368Y-103309425D01*
X139941684Y-103286934D01*
X139952793Y-103231085D01*
X139954000Y-103218830D01*
X139954000Y-103095115D01*
X139949525Y-103079876D01*
X139948135Y-103078671D01*
X139940452Y-103077000D01*
X139595115Y-103077000D01*
X139579876Y-103081475D01*
X139578671Y-103082865D01*
X139577000Y-103090548D01*
X139577000Y-103435884D01*
X139323000Y-103435884D01*
X139323000Y-102949000D01*
X139343002Y-102880879D01*
X139396658Y-102834386D01*
X139449000Y-102823000D01*
X139935884Y-102823000D01*
X139951123Y-102818525D01*
X139952328Y-102817135D01*
X139956878Y-102796217D01*
X139960326Y-102796967D01*
X139974001Y-102750395D01*
X140027657Y-102703902D01*
X140097931Y-102693798D01*
X140162511Y-102723292D01*
X140169089Y-102729415D01*
X140388673Y-102949000D01*
X140562596Y-103122923D01*
X140596621Y-103185235D01*
X140599500Y-103212018D01*
X140599500Y-103219748D01*
X140611133Y-103278231D01*
X140618026Y-103288547D01*
X140634137Y-103312658D01*
X140655448Y-103344552D01*
X140721769Y-103388867D01*
X140733938Y-103391288D01*
X140733939Y-103391288D01*
X140774184Y-103399293D01*
X140780252Y-103400500D01*
X141319748Y-103400500D01*
X141325816Y-103399293D01*
X141366061Y-103391288D01*
X141366062Y-103391288D01*
X141378231Y-103388867D01*
X141388547Y-103381974D01*
X141400017Y-103377223D01*
X141401314Y-103380355D01*
X141449597Y-103365235D01*
X141521852Y-103386450D01*
X141590572Y-103432367D01*
X141613066Y-103441684D01*
X141668915Y-103452793D01*
X141681170Y-103454000D01*
X141804885Y-103454000D01*
X141820124Y-103449525D01*
X141821329Y-103448135D01*
X141823000Y-103440452D01*
X141823000Y-103435884D01*
X142077000Y-103435884D01*
X142081475Y-103451123D01*
X142082865Y-103452328D01*
X142090548Y-103453999D01*
X142218828Y-103453999D01*
X142231088Y-103452791D01*
X142286931Y-103441685D01*
X142309427Y-103432367D01*
X142372808Y-103390017D01*
X142390017Y-103372808D01*
X142432368Y-103309425D01*
X142441684Y-103286934D01*
X142452793Y-103231085D01*
X142454000Y-103218830D01*
X142454000Y-103095115D01*
X142449525Y-103079876D01*
X142448135Y-103078671D01*
X142440452Y-103077000D01*
X142095115Y-103077000D01*
X142079876Y-103081475D01*
X142078671Y-103082865D01*
X142077000Y-103090548D01*
X142077000Y-103435884D01*
X141823000Y-103435884D01*
X141823000Y-102949000D01*
X141843002Y-102880879D01*
X141896658Y-102834386D01*
X141949000Y-102823000D01*
X142435884Y-102823000D01*
X142451123Y-102818525D01*
X142452328Y-102817135D01*
X142456878Y-102796217D01*
X142460326Y-102796967D01*
X142474001Y-102750395D01*
X142527657Y-102703902D01*
X142597931Y-102693798D01*
X142662511Y-102723292D01*
X142669089Y-102729415D01*
X142888673Y-102949000D01*
X143062596Y-103122923D01*
X143096621Y-103185235D01*
X143099500Y-103212018D01*
X143099500Y-103219748D01*
X143111133Y-103278231D01*
X143118026Y-103288547D01*
X143134137Y-103312658D01*
X143155448Y-103344552D01*
X143221769Y-103388867D01*
X143233938Y-103391288D01*
X143233939Y-103391288D01*
X143274184Y-103399293D01*
X143280252Y-103400500D01*
X143819748Y-103400500D01*
X143825816Y-103399293D01*
X143866061Y-103391288D01*
X143866062Y-103391288D01*
X143878231Y-103388867D01*
X143888547Y-103381974D01*
X143900017Y-103377223D01*
X143901314Y-103380355D01*
X143949597Y-103365235D01*
X144021852Y-103386450D01*
X144090572Y-103432367D01*
X144113066Y-103441684D01*
X144168915Y-103452793D01*
X144181170Y-103454000D01*
X144304885Y-103454000D01*
X144320124Y-103449525D01*
X144321329Y-103448135D01*
X144323000Y-103440452D01*
X144323000Y-103435884D01*
X144577000Y-103435884D01*
X144581475Y-103451123D01*
X144582865Y-103452328D01*
X144590548Y-103453999D01*
X144718828Y-103453999D01*
X144731088Y-103452791D01*
X144786931Y-103441685D01*
X144809427Y-103432367D01*
X144872808Y-103390017D01*
X144890017Y-103372808D01*
X144932368Y-103309425D01*
X144941684Y-103286934D01*
X144952793Y-103231085D01*
X144954000Y-103218830D01*
X144954000Y-103095115D01*
X144949525Y-103079876D01*
X144948135Y-103078671D01*
X144940452Y-103077000D01*
X144595115Y-103077000D01*
X144579876Y-103081475D01*
X144578671Y-103082865D01*
X144577000Y-103090548D01*
X144577000Y-103435884D01*
X144323000Y-103435884D01*
X144323000Y-102949000D01*
X144343002Y-102880879D01*
X144396658Y-102834386D01*
X144449000Y-102823000D01*
X144935884Y-102823000D01*
X144951123Y-102818525D01*
X144952328Y-102817135D01*
X144956878Y-102796217D01*
X144960326Y-102796967D01*
X144974001Y-102750395D01*
X145027657Y-102703902D01*
X145097931Y-102693798D01*
X145162511Y-102723292D01*
X145169089Y-102729415D01*
X145388673Y-102949000D01*
X145562596Y-103122923D01*
X145596621Y-103185235D01*
X145599500Y-103212018D01*
X145599500Y-103219748D01*
X145611133Y-103278231D01*
X145618026Y-103288547D01*
X145634137Y-103312658D01*
X145655448Y-103344552D01*
X145721769Y-103388867D01*
X145733938Y-103391288D01*
X145733939Y-103391288D01*
X145774184Y-103399293D01*
X145780252Y-103400500D01*
X146319748Y-103400500D01*
X146325816Y-103399293D01*
X146366061Y-103391288D01*
X146366062Y-103391288D01*
X146378231Y-103388867D01*
X146388547Y-103381974D01*
X146400017Y-103377223D01*
X146401314Y-103380355D01*
X146449597Y-103365235D01*
X146521852Y-103386450D01*
X146590572Y-103432367D01*
X146613066Y-103441684D01*
X146668915Y-103452793D01*
X146681170Y-103454000D01*
X146804885Y-103454000D01*
X146820124Y-103449525D01*
X146821329Y-103448135D01*
X146823000Y-103440452D01*
X146823000Y-103435884D01*
X147077000Y-103435884D01*
X147081475Y-103451123D01*
X147082865Y-103452328D01*
X147090548Y-103453999D01*
X147218828Y-103453999D01*
X147231088Y-103452791D01*
X147286931Y-103441685D01*
X147309427Y-103432367D01*
X147372808Y-103390017D01*
X147390017Y-103372808D01*
X147432368Y-103309425D01*
X147441684Y-103286934D01*
X147452793Y-103231085D01*
X147454000Y-103218830D01*
X147454000Y-103095115D01*
X147449525Y-103079876D01*
X147448135Y-103078671D01*
X147440452Y-103077000D01*
X147095115Y-103077000D01*
X147079876Y-103081475D01*
X147078671Y-103082865D01*
X147077000Y-103090548D01*
X147077000Y-103435884D01*
X146823000Y-103435884D01*
X146823000Y-102949000D01*
X146843002Y-102880879D01*
X146896658Y-102834386D01*
X146949000Y-102823000D01*
X147435884Y-102823000D01*
X147451123Y-102818525D01*
X147452328Y-102817135D01*
X147456878Y-102796217D01*
X147460326Y-102796967D01*
X147474001Y-102750395D01*
X147527657Y-102703902D01*
X147597931Y-102693798D01*
X147662511Y-102723292D01*
G37*
%TD.AperFunction*%
%TA.AperFunction,Conductor*%
G36*
X140162511Y-97623291D02*
G01*
X140169094Y-97629420D01*
X140562595Y-98022921D01*
X140596621Y-98085233D01*
X140599500Y-98112016D01*
X140599500Y-98119748D01*
X140611133Y-98178231D01*
X140618026Y-98188547D01*
X140634137Y-98212658D01*
X140655448Y-98244552D01*
X140721769Y-98288867D01*
X140733938Y-98291288D01*
X140733939Y-98291288D01*
X140774184Y-98299293D01*
X140780252Y-98300500D01*
X141319748Y-98300500D01*
X141325816Y-98299293D01*
X141366061Y-98291288D01*
X141366062Y-98291288D01*
X141378231Y-98288867D01*
X141388547Y-98281974D01*
X141400017Y-98277223D01*
X141401314Y-98280355D01*
X141449597Y-98265235D01*
X141521852Y-98286450D01*
X141590572Y-98332367D01*
X141613066Y-98341684D01*
X141668915Y-98352793D01*
X141681170Y-98354000D01*
X141804885Y-98354000D01*
X141820124Y-98349525D01*
X141821329Y-98348135D01*
X141823000Y-98340452D01*
X141823000Y-98335884D01*
X142077000Y-98335884D01*
X142081475Y-98351123D01*
X142082865Y-98352328D01*
X142090548Y-98353999D01*
X142218828Y-98353999D01*
X142231088Y-98352791D01*
X142286931Y-98341685D01*
X142309427Y-98332367D01*
X142372808Y-98290017D01*
X142390017Y-98272808D01*
X142432368Y-98209425D01*
X142441684Y-98186934D01*
X142452793Y-98131085D01*
X142454000Y-98118830D01*
X142454000Y-97995115D01*
X142449525Y-97979876D01*
X142448135Y-97978671D01*
X142440452Y-97977000D01*
X142095115Y-97977000D01*
X142079876Y-97981475D01*
X142078671Y-97982865D01*
X142077000Y-97990548D01*
X142077000Y-98335884D01*
X141823000Y-98335884D01*
X141823000Y-97849000D01*
X141843002Y-97780879D01*
X141896658Y-97734386D01*
X141949000Y-97723000D01*
X142435884Y-97723000D01*
X142451123Y-97718525D01*
X142452328Y-97717135D01*
X142456878Y-97696217D01*
X142460326Y-97696967D01*
X142474001Y-97650395D01*
X142527657Y-97603902D01*
X142597931Y-97593798D01*
X142662511Y-97623292D01*
X142669089Y-97629415D01*
X142888673Y-97849000D01*
X143062596Y-98022923D01*
X143096621Y-98085235D01*
X143099500Y-98112016D01*
X143099500Y-98119748D01*
X143111133Y-98178231D01*
X143118026Y-98188547D01*
X143134137Y-98212658D01*
X143155448Y-98244552D01*
X143221769Y-98288867D01*
X143233938Y-98291288D01*
X143233939Y-98291288D01*
X143274184Y-98299293D01*
X143280252Y-98300500D01*
X143819748Y-98300500D01*
X143825816Y-98299293D01*
X143866061Y-98291288D01*
X143866062Y-98291288D01*
X143878231Y-98288867D01*
X143888547Y-98281974D01*
X143900017Y-98277223D01*
X143901314Y-98280355D01*
X143949597Y-98265235D01*
X144021852Y-98286450D01*
X144090572Y-98332367D01*
X144113066Y-98341684D01*
X144168915Y-98352793D01*
X144181170Y-98354000D01*
X144304885Y-98354000D01*
X144320124Y-98349525D01*
X144321329Y-98348135D01*
X144323000Y-98340452D01*
X144323000Y-98335884D01*
X144577000Y-98335884D01*
X144581475Y-98351123D01*
X144582865Y-98352328D01*
X144590548Y-98353999D01*
X144718828Y-98353999D01*
X144731088Y-98352791D01*
X144786931Y-98341685D01*
X144809427Y-98332367D01*
X144872808Y-98290017D01*
X144890017Y-98272808D01*
X144932368Y-98209425D01*
X144941684Y-98186934D01*
X144952793Y-98131085D01*
X144954000Y-98118830D01*
X144954000Y-97995115D01*
X144949525Y-97979876D01*
X144948135Y-97978671D01*
X144940452Y-97977000D01*
X144595115Y-97977000D01*
X144579876Y-97981475D01*
X144578671Y-97982865D01*
X144577000Y-97990548D01*
X144577000Y-98335884D01*
X144323000Y-98335884D01*
X144323000Y-97849000D01*
X144343002Y-97780879D01*
X144396658Y-97734386D01*
X144449000Y-97723000D01*
X144935884Y-97723000D01*
X144951123Y-97718525D01*
X144952328Y-97717135D01*
X144956878Y-97696217D01*
X144960326Y-97696967D01*
X144974001Y-97650395D01*
X145027657Y-97603902D01*
X145097931Y-97593798D01*
X145162511Y-97623292D01*
X145169089Y-97629415D01*
X145388673Y-97849000D01*
X145562596Y-98022923D01*
X145596621Y-98085235D01*
X145599500Y-98112016D01*
X145599500Y-98119748D01*
X145611133Y-98178231D01*
X145618026Y-98188547D01*
X145634137Y-98212658D01*
X145655448Y-98244552D01*
X145721769Y-98288867D01*
X145733938Y-98291288D01*
X145733939Y-98291288D01*
X145774184Y-98299293D01*
X145780252Y-98300500D01*
X146319748Y-98300500D01*
X146325816Y-98299293D01*
X146366061Y-98291288D01*
X146366062Y-98291288D01*
X146378231Y-98288867D01*
X146388547Y-98281974D01*
X146400017Y-98277223D01*
X146401314Y-98280355D01*
X146449597Y-98265235D01*
X146521852Y-98286450D01*
X146590572Y-98332367D01*
X146613066Y-98341684D01*
X146668915Y-98352793D01*
X146681170Y-98354000D01*
X146804885Y-98354000D01*
X146820124Y-98349525D01*
X146821329Y-98348135D01*
X146823000Y-98340452D01*
X146823000Y-98335884D01*
X147077000Y-98335884D01*
X147081475Y-98351123D01*
X147082865Y-98352328D01*
X147090548Y-98353999D01*
X147218828Y-98353999D01*
X147231088Y-98352791D01*
X147286931Y-98341685D01*
X147309427Y-98332367D01*
X147372808Y-98290017D01*
X147390017Y-98272808D01*
X147432368Y-98209425D01*
X147441684Y-98186934D01*
X147452793Y-98131085D01*
X147454000Y-98118830D01*
X147454000Y-97995115D01*
X147449525Y-97979876D01*
X147448135Y-97978671D01*
X147440452Y-97977000D01*
X147095115Y-97977000D01*
X147079876Y-97981475D01*
X147078671Y-97982865D01*
X147077000Y-97990548D01*
X147077000Y-98335884D01*
X146823000Y-98335884D01*
X146823000Y-97849000D01*
X146843002Y-97780879D01*
X146896658Y-97734386D01*
X146949000Y-97723000D01*
X147435884Y-97723000D01*
X147451123Y-97718525D01*
X147452328Y-97717135D01*
X147456878Y-97696217D01*
X147460326Y-97696967D01*
X147474001Y-97650395D01*
X147527657Y-97603902D01*
X147597931Y-97593798D01*
X147662511Y-97623292D01*
X147669089Y-97629415D01*
X147888673Y-97849000D01*
X148062596Y-98022923D01*
X148096621Y-98085235D01*
X148099500Y-98112016D01*
X148099500Y-98119748D01*
X148111133Y-98178231D01*
X148118026Y-98188547D01*
X148134137Y-98212658D01*
X148155448Y-98244552D01*
X148221769Y-98288867D01*
X148233938Y-98291288D01*
X148233939Y-98291288D01*
X148274184Y-98299293D01*
X148280252Y-98300500D01*
X148819748Y-98300500D01*
X148825816Y-98299293D01*
X148866061Y-98291288D01*
X148866062Y-98291288D01*
X148878231Y-98288867D01*
X148888547Y-98281974D01*
X148900017Y-98277223D01*
X148901314Y-98280355D01*
X148949597Y-98265235D01*
X149021852Y-98286450D01*
X149090572Y-98332367D01*
X149113066Y-98341684D01*
X149168915Y-98352793D01*
X149181170Y-98354000D01*
X149304885Y-98354000D01*
X149320124Y-98349525D01*
X149321329Y-98348135D01*
X149323000Y-98340452D01*
X149323000Y-97849000D01*
X149343002Y-97780879D01*
X149396658Y-97734386D01*
X149449000Y-97723000D01*
X149451000Y-97723000D01*
X149519121Y-97743002D01*
X149565614Y-97796658D01*
X149577000Y-97849000D01*
X149577000Y-98335884D01*
X149581475Y-98351123D01*
X149582865Y-98352328D01*
X149590548Y-98353999D01*
X149718824Y-98353999D01*
X149733147Y-98352588D01*
X149802900Y-98365815D01*
X149854430Y-98414654D01*
X149871500Y-98477981D01*
X149871500Y-98922017D01*
X149851498Y-98990138D01*
X149797842Y-99036631D01*
X149733152Y-99047411D01*
X149718823Y-99046000D01*
X149595115Y-99046000D01*
X149579876Y-99050475D01*
X149578671Y-99051865D01*
X149577000Y-99059548D01*
X149577000Y-99551000D01*
X149556998Y-99619121D01*
X149503342Y-99665614D01*
X149451000Y-99677000D01*
X149449000Y-99677000D01*
X149380879Y-99656998D01*
X149334386Y-99603342D01*
X149323000Y-99551000D01*
X149323000Y-99064116D01*
X149318525Y-99048877D01*
X149317135Y-99047672D01*
X149309452Y-99046001D01*
X149181172Y-99046001D01*
X149168912Y-99047209D01*
X149113069Y-99058315D01*
X149090570Y-99067634D01*
X149021852Y-99113550D01*
X148954099Y-99134765D01*
X148901455Y-99119306D01*
X148900017Y-99122777D01*
X148888547Y-99118026D01*
X148878231Y-99111133D01*
X148866062Y-99108712D01*
X148866061Y-99108712D01*
X148825816Y-99100707D01*
X148819748Y-99099500D01*
X148280252Y-99099500D01*
X148274184Y-99100707D01*
X148233939Y-99108712D01*
X148233938Y-99108712D01*
X148221769Y-99111133D01*
X148155448Y-99155448D01*
X148111133Y-99221769D01*
X148099500Y-99280252D01*
X148099500Y-99287982D01*
X148099271Y-99288761D01*
X148098893Y-99292602D01*
X148098165Y-99292530D01*
X148079498Y-99356103D01*
X148062596Y-99377077D01*
X147759798Y-99679876D01*
X147669096Y-99770578D01*
X147606783Y-99804603D01*
X147535968Y-99799539D01*
X147479132Y-99756992D01*
X147462198Y-99711590D01*
X147459104Y-99712498D01*
X147449525Y-99679876D01*
X147448135Y-99678671D01*
X147440452Y-99677000D01*
X146949000Y-99677000D01*
X146880879Y-99656998D01*
X146834386Y-99603342D01*
X146823000Y-99551000D01*
X146823000Y-99404885D01*
X147077000Y-99404885D01*
X147081475Y-99420124D01*
X147082865Y-99421329D01*
X147090548Y-99423000D01*
X147435884Y-99423000D01*
X147451123Y-99418525D01*
X147452328Y-99417135D01*
X147453999Y-99409452D01*
X147453999Y-99281172D01*
X147452791Y-99268912D01*
X147441685Y-99213069D01*
X147432367Y-99190573D01*
X147390017Y-99127192D01*
X147372808Y-99109983D01*
X147309425Y-99067632D01*
X147286934Y-99058316D01*
X147231085Y-99047207D01*
X147218830Y-99046000D01*
X147095115Y-99046000D01*
X147079876Y-99050475D01*
X147078671Y-99051865D01*
X147077000Y-99059548D01*
X147077000Y-99404885D01*
X146823000Y-99404885D01*
X146823000Y-99064116D01*
X146818525Y-99048877D01*
X146817135Y-99047672D01*
X146809452Y-99046001D01*
X146681172Y-99046001D01*
X146668912Y-99047209D01*
X146613069Y-99058315D01*
X146590570Y-99067634D01*
X146521852Y-99113550D01*
X146454099Y-99134765D01*
X146401455Y-99119306D01*
X146400017Y-99122777D01*
X146388547Y-99118026D01*
X146378231Y-99111133D01*
X146366062Y-99108712D01*
X146366061Y-99108712D01*
X146325816Y-99100707D01*
X146319748Y-99099500D01*
X145780252Y-99099500D01*
X145774184Y-99100707D01*
X145733939Y-99108712D01*
X145733938Y-99108712D01*
X145721769Y-99111133D01*
X145655448Y-99155448D01*
X145611133Y-99221769D01*
X145599500Y-99280252D01*
X145599500Y-99287982D01*
X145599271Y-99288761D01*
X145598893Y-99292602D01*
X145598165Y-99292530D01*
X145579498Y-99356103D01*
X145562596Y-99377077D01*
X145259798Y-99679876D01*
X145169096Y-99770578D01*
X145106783Y-99804603D01*
X145035968Y-99799539D01*
X144979132Y-99756992D01*
X144962198Y-99711590D01*
X144959104Y-99712498D01*
X144949525Y-99679876D01*
X144948135Y-99678671D01*
X144940452Y-99677000D01*
X144449000Y-99677000D01*
X144380879Y-99656998D01*
X144334386Y-99603342D01*
X144323000Y-99551000D01*
X144323000Y-99404885D01*
X144577000Y-99404885D01*
X144581475Y-99420124D01*
X144582865Y-99421329D01*
X144590548Y-99423000D01*
X144935884Y-99423000D01*
X144951123Y-99418525D01*
X144952328Y-99417135D01*
X144953999Y-99409452D01*
X144953999Y-99281172D01*
X144952791Y-99268912D01*
X144941685Y-99213069D01*
X144932367Y-99190573D01*
X144890017Y-99127192D01*
X144872808Y-99109983D01*
X144809425Y-99067632D01*
X144786934Y-99058316D01*
X144731085Y-99047207D01*
X144718830Y-99046000D01*
X144595115Y-99046000D01*
X144579876Y-99050475D01*
X144578671Y-99051865D01*
X144577000Y-99059548D01*
X144577000Y-99404885D01*
X144323000Y-99404885D01*
X144323000Y-99064116D01*
X144318525Y-99048877D01*
X144317135Y-99047672D01*
X144309452Y-99046001D01*
X144181172Y-99046001D01*
X144168912Y-99047209D01*
X144113069Y-99058315D01*
X144090570Y-99067634D01*
X144021852Y-99113550D01*
X143954099Y-99134765D01*
X143901455Y-99119306D01*
X143900017Y-99122777D01*
X143888547Y-99118026D01*
X143878231Y-99111133D01*
X143866062Y-99108712D01*
X143866061Y-99108712D01*
X143825816Y-99100707D01*
X143819748Y-99099500D01*
X143280252Y-99099500D01*
X143274184Y-99100707D01*
X143233939Y-99108712D01*
X143233938Y-99108712D01*
X143221769Y-99111133D01*
X143155448Y-99155448D01*
X143111133Y-99221769D01*
X143099500Y-99280252D01*
X143099500Y-99287982D01*
X143099271Y-99288761D01*
X143098893Y-99292602D01*
X143098165Y-99292530D01*
X143079498Y-99356103D01*
X143062596Y-99377077D01*
X142759798Y-99679876D01*
X142669096Y-99770578D01*
X142606783Y-99804603D01*
X142535968Y-99799539D01*
X142479132Y-99756992D01*
X142462198Y-99711590D01*
X142459104Y-99712498D01*
X142449525Y-99679876D01*
X142448135Y-99678671D01*
X142440452Y-99677000D01*
X141949000Y-99677000D01*
X141880879Y-99656998D01*
X141834386Y-99603342D01*
X141823000Y-99551000D01*
X141823000Y-99404885D01*
X142077000Y-99404885D01*
X142081475Y-99420124D01*
X142082865Y-99421329D01*
X142090548Y-99423000D01*
X142435884Y-99423000D01*
X142451123Y-99418525D01*
X142452328Y-99417135D01*
X142453999Y-99409452D01*
X142453999Y-99281172D01*
X142452791Y-99268912D01*
X142441685Y-99213069D01*
X142432367Y-99190573D01*
X142390017Y-99127192D01*
X142372808Y-99109983D01*
X142309425Y-99067632D01*
X142286934Y-99058316D01*
X142231085Y-99047207D01*
X142218830Y-99046000D01*
X142095115Y-99046000D01*
X142079876Y-99050475D01*
X142078671Y-99051865D01*
X142077000Y-99059548D01*
X142077000Y-99404885D01*
X141823000Y-99404885D01*
X141823000Y-99064116D01*
X141818525Y-99048877D01*
X141817135Y-99047672D01*
X141809452Y-99046001D01*
X141681172Y-99046001D01*
X141668912Y-99047209D01*
X141613069Y-99058315D01*
X141590570Y-99067634D01*
X141521852Y-99113550D01*
X141454099Y-99134765D01*
X141401455Y-99119306D01*
X141400017Y-99122777D01*
X141388547Y-99118026D01*
X141378231Y-99111133D01*
X141366062Y-99108712D01*
X141366061Y-99108712D01*
X141325816Y-99100707D01*
X141319748Y-99099500D01*
X140780252Y-99099500D01*
X140774184Y-99100707D01*
X140733939Y-99108712D01*
X140733938Y-99108712D01*
X140721769Y-99111133D01*
X140655448Y-99155448D01*
X140611133Y-99221769D01*
X140599500Y-99280252D01*
X140599500Y-99287982D01*
X140599271Y-99288761D01*
X140598893Y-99292602D01*
X140598165Y-99292530D01*
X140579498Y-99356103D01*
X140562596Y-99377077D01*
X140259798Y-99679876D01*
X140169096Y-99770578D01*
X140106783Y-99804603D01*
X140035968Y-99799539D01*
X139979132Y-99756992D01*
X139962198Y-99711590D01*
X139959104Y-99712498D01*
X139949525Y-99679876D01*
X139948135Y-99678671D01*
X139940452Y-99677000D01*
X139449000Y-99677000D01*
X139380879Y-99656998D01*
X139334386Y-99603342D01*
X139323000Y-99551000D01*
X139323000Y-99404885D01*
X139577000Y-99404885D01*
X139581475Y-99420124D01*
X139582865Y-99421329D01*
X139590548Y-99423000D01*
X139935884Y-99423000D01*
X139951123Y-99418525D01*
X139952328Y-99417135D01*
X139953999Y-99409452D01*
X139953999Y-99281172D01*
X139952791Y-99268912D01*
X139941685Y-99213069D01*
X139932367Y-99190573D01*
X139890017Y-99127192D01*
X139872808Y-99109983D01*
X139809425Y-99067632D01*
X139786934Y-99058316D01*
X139731085Y-99047207D01*
X139718830Y-99046000D01*
X139595115Y-99046000D01*
X139579876Y-99050475D01*
X139578671Y-99051865D01*
X139577000Y-99059548D01*
X139577000Y-99404885D01*
X139323000Y-99404885D01*
X139323000Y-99064116D01*
X139318525Y-99048877D01*
X139317135Y-99047672D01*
X139309452Y-99046001D01*
X139181172Y-99046001D01*
X139168912Y-99047209D01*
X139113069Y-99058315D01*
X139090570Y-99067634D01*
X139021852Y-99113550D01*
X138954099Y-99134765D01*
X138901455Y-99119306D01*
X138900017Y-99122777D01*
X138888547Y-99118026D01*
X138878231Y-99111133D01*
X138866062Y-99108712D01*
X138866061Y-99108712D01*
X138825816Y-99100707D01*
X138819748Y-99099500D01*
X138280252Y-99099500D01*
X138274184Y-99100707D01*
X138233939Y-99108712D01*
X138233938Y-99108712D01*
X138221769Y-99111133D01*
X138155448Y-99155448D01*
X138111133Y-99221769D01*
X138099500Y-99280252D01*
X138099500Y-99287982D01*
X138099271Y-99288761D01*
X138098893Y-99292602D01*
X138098165Y-99292530D01*
X138079498Y-99356103D01*
X138062596Y-99377077D01*
X137759798Y-99679876D01*
X137669096Y-99770578D01*
X137606783Y-99804603D01*
X137535968Y-99799539D01*
X137479132Y-99756992D01*
X137462198Y-99711590D01*
X137459104Y-99712498D01*
X137449525Y-99679876D01*
X137448135Y-99678671D01*
X137440452Y-99677000D01*
X136949000Y-99677000D01*
X136880879Y-99656998D01*
X136834386Y-99603342D01*
X136823000Y-99551000D01*
X136823000Y-99404885D01*
X137077000Y-99404885D01*
X137081475Y-99420124D01*
X137082865Y-99421329D01*
X137090548Y-99423000D01*
X137435884Y-99423000D01*
X137451123Y-99418525D01*
X137452328Y-99417135D01*
X137453999Y-99409452D01*
X137453999Y-99281172D01*
X137452791Y-99268912D01*
X137441685Y-99213069D01*
X137432367Y-99190573D01*
X137390017Y-99127192D01*
X137372808Y-99109983D01*
X137309425Y-99067632D01*
X137286934Y-99058316D01*
X137231085Y-99047207D01*
X137218830Y-99046000D01*
X137095115Y-99046000D01*
X137079876Y-99050475D01*
X137078671Y-99051865D01*
X137077000Y-99059548D01*
X137077000Y-99404885D01*
X136823000Y-99404885D01*
X136823000Y-99064116D01*
X136818525Y-99048877D01*
X136817135Y-99047672D01*
X136809452Y-99046001D01*
X136681172Y-99046001D01*
X136668912Y-99047209D01*
X136613069Y-99058315D01*
X136590570Y-99067634D01*
X136521852Y-99113550D01*
X136454099Y-99134765D01*
X136401455Y-99119306D01*
X136400017Y-99122777D01*
X136388547Y-99118026D01*
X136378231Y-99111133D01*
X136366062Y-99108712D01*
X136366061Y-99108712D01*
X136325816Y-99100707D01*
X136319748Y-99099500D01*
X135780252Y-99099500D01*
X135774184Y-99100707D01*
X135733939Y-99108712D01*
X135733938Y-99108712D01*
X135721769Y-99111133D01*
X135655448Y-99155448D01*
X135611133Y-99221769D01*
X135599500Y-99280252D01*
X135599500Y-99287982D01*
X135599271Y-99288761D01*
X135598893Y-99292602D01*
X135598165Y-99292530D01*
X135579498Y-99356103D01*
X135562596Y-99377077D01*
X135259798Y-99679876D01*
X135169096Y-99770578D01*
X135106783Y-99804603D01*
X135035968Y-99799539D01*
X134979132Y-99756992D01*
X134962198Y-99711590D01*
X134959104Y-99712498D01*
X134949525Y-99679876D01*
X134948135Y-99678671D01*
X134940452Y-99677000D01*
X134449000Y-99677000D01*
X134380879Y-99656998D01*
X134334386Y-99603342D01*
X134323000Y-99551000D01*
X134323000Y-99404885D01*
X134577000Y-99404885D01*
X134581475Y-99420124D01*
X134582865Y-99421329D01*
X134590548Y-99423000D01*
X134935884Y-99423000D01*
X134951123Y-99418525D01*
X134952328Y-99417135D01*
X134953999Y-99409452D01*
X134953999Y-99281172D01*
X134952791Y-99268912D01*
X134941685Y-99213069D01*
X134932367Y-99190573D01*
X134890017Y-99127192D01*
X134872808Y-99109983D01*
X134809425Y-99067632D01*
X134786934Y-99058316D01*
X134731085Y-99047207D01*
X134718830Y-99046000D01*
X134595115Y-99046000D01*
X134579876Y-99050475D01*
X134578671Y-99051865D01*
X134577000Y-99059548D01*
X134577000Y-99404885D01*
X134323000Y-99404885D01*
X134323000Y-99064116D01*
X134318525Y-99048877D01*
X134317135Y-99047672D01*
X134309452Y-99046001D01*
X134181172Y-99046001D01*
X134168912Y-99047209D01*
X134113069Y-99058315D01*
X134090570Y-99067634D01*
X134021852Y-99113550D01*
X133954099Y-99134765D01*
X133901455Y-99119306D01*
X133900017Y-99122777D01*
X133888547Y-99118026D01*
X133878231Y-99111133D01*
X133866062Y-99108712D01*
X133866061Y-99108712D01*
X133825816Y-99100707D01*
X133819748Y-99099500D01*
X133280252Y-99099500D01*
X133274184Y-99100707D01*
X133233939Y-99108712D01*
X133233938Y-99108712D01*
X133221769Y-99111133D01*
X133155448Y-99155448D01*
X133111133Y-99221769D01*
X133099500Y-99280252D01*
X133099500Y-99287982D01*
X133099271Y-99288761D01*
X133098893Y-99292602D01*
X133098165Y-99292530D01*
X133079498Y-99356103D01*
X133062596Y-99377077D01*
X132759798Y-99679876D01*
X132669096Y-99770578D01*
X132606783Y-99804603D01*
X132535968Y-99799539D01*
X132479132Y-99756992D01*
X132462198Y-99711590D01*
X132459104Y-99712498D01*
X132449525Y-99679876D01*
X132448135Y-99678671D01*
X132440452Y-99677000D01*
X131949000Y-99677000D01*
X131880879Y-99656998D01*
X131834386Y-99603342D01*
X131823000Y-99551000D01*
X131823000Y-99404885D01*
X132077000Y-99404885D01*
X132081475Y-99420124D01*
X132082865Y-99421329D01*
X132090548Y-99423000D01*
X132435884Y-99423000D01*
X132451123Y-99418525D01*
X132452328Y-99417135D01*
X132453999Y-99409452D01*
X132453999Y-99281172D01*
X132452791Y-99268912D01*
X132441685Y-99213069D01*
X132432367Y-99190573D01*
X132390017Y-99127192D01*
X132372808Y-99109983D01*
X132309425Y-99067632D01*
X132286934Y-99058316D01*
X132231085Y-99047207D01*
X132218830Y-99046000D01*
X132095115Y-99046000D01*
X132079876Y-99050475D01*
X132078671Y-99051865D01*
X132077000Y-99059548D01*
X132077000Y-99404885D01*
X131823000Y-99404885D01*
X131823000Y-99064116D01*
X131818525Y-99048877D01*
X131817135Y-99047672D01*
X131809452Y-99046001D01*
X131681172Y-99046001D01*
X131668912Y-99047209D01*
X131613069Y-99058315D01*
X131590573Y-99067633D01*
X131571502Y-99080376D01*
X131503749Y-99101591D01*
X131435282Y-99082808D01*
X131387839Y-99029990D01*
X131375500Y-98975611D01*
X131375500Y-98424389D01*
X131395502Y-98356268D01*
X131449158Y-98309775D01*
X131519432Y-98299671D01*
X131571502Y-98319624D01*
X131590574Y-98332368D01*
X131613066Y-98341684D01*
X131668915Y-98352793D01*
X131681170Y-98354000D01*
X131804885Y-98354000D01*
X131820124Y-98349525D01*
X131821329Y-98348135D01*
X131823000Y-98340452D01*
X131823000Y-98335884D01*
X132077000Y-98335884D01*
X132081475Y-98351123D01*
X132082865Y-98352328D01*
X132090548Y-98353999D01*
X132218828Y-98353999D01*
X132231088Y-98352791D01*
X132286931Y-98341685D01*
X132309427Y-98332367D01*
X132372808Y-98290017D01*
X132390017Y-98272808D01*
X132432368Y-98209425D01*
X132441684Y-98186934D01*
X132452793Y-98131085D01*
X132454000Y-98118830D01*
X132454000Y-97995115D01*
X132449525Y-97979876D01*
X132448135Y-97978671D01*
X132440452Y-97977000D01*
X132095115Y-97977000D01*
X132079876Y-97981475D01*
X132078671Y-97982865D01*
X132077000Y-97990548D01*
X132077000Y-98335884D01*
X131823000Y-98335884D01*
X131823000Y-97849000D01*
X131843002Y-97780879D01*
X131896658Y-97734386D01*
X131949000Y-97723000D01*
X132435884Y-97723000D01*
X132451123Y-97718525D01*
X132452328Y-97717135D01*
X132456878Y-97696217D01*
X132460326Y-97696967D01*
X132474001Y-97650395D01*
X132527657Y-97603902D01*
X132597931Y-97593798D01*
X132662511Y-97623292D01*
X132669089Y-97629415D01*
X132888673Y-97849000D01*
X133062596Y-98022923D01*
X133096621Y-98085235D01*
X133099500Y-98112016D01*
X133099500Y-98119748D01*
X133111133Y-98178231D01*
X133118026Y-98188547D01*
X133134137Y-98212658D01*
X133155448Y-98244552D01*
X133221769Y-98288867D01*
X133233938Y-98291288D01*
X133233939Y-98291288D01*
X133274184Y-98299293D01*
X133280252Y-98300500D01*
X133819748Y-98300500D01*
X133825816Y-98299293D01*
X133866061Y-98291288D01*
X133866062Y-98291288D01*
X133878231Y-98288867D01*
X133888547Y-98281974D01*
X133900017Y-98277223D01*
X133901314Y-98280355D01*
X133949597Y-98265235D01*
X134021852Y-98286450D01*
X134090572Y-98332367D01*
X134113066Y-98341684D01*
X134168915Y-98352793D01*
X134181170Y-98354000D01*
X134304885Y-98354000D01*
X134320124Y-98349525D01*
X134321329Y-98348135D01*
X134323000Y-98340452D01*
X134323000Y-98335884D01*
X134577000Y-98335884D01*
X134581475Y-98351123D01*
X134582865Y-98352328D01*
X134590548Y-98353999D01*
X134718828Y-98353999D01*
X134731088Y-98352791D01*
X134786931Y-98341685D01*
X134809427Y-98332367D01*
X134872808Y-98290017D01*
X134890017Y-98272808D01*
X134932368Y-98209425D01*
X134941684Y-98186934D01*
X134952793Y-98131085D01*
X134954000Y-98118830D01*
X134954000Y-97995115D01*
X134949525Y-97979876D01*
X134948135Y-97978671D01*
X134940452Y-97977000D01*
X134595115Y-97977000D01*
X134579876Y-97981475D01*
X134578671Y-97982865D01*
X134577000Y-97990548D01*
X134577000Y-98335884D01*
X134323000Y-98335884D01*
X134323000Y-97849000D01*
X134343002Y-97780879D01*
X134396658Y-97734386D01*
X134449000Y-97723000D01*
X134935884Y-97723000D01*
X134951123Y-97718525D01*
X134952328Y-97717135D01*
X134956878Y-97696217D01*
X134960326Y-97696967D01*
X134974001Y-97650395D01*
X135027657Y-97603902D01*
X135097931Y-97593798D01*
X135162511Y-97623292D01*
X135169089Y-97629415D01*
X135388673Y-97849000D01*
X135562596Y-98022923D01*
X135596621Y-98085235D01*
X135599500Y-98112016D01*
X135599500Y-98119748D01*
X135611133Y-98178231D01*
X135618026Y-98188547D01*
X135634137Y-98212658D01*
X135655448Y-98244552D01*
X135721769Y-98288867D01*
X135733938Y-98291288D01*
X135733939Y-98291288D01*
X135774184Y-98299293D01*
X135780252Y-98300500D01*
X136319748Y-98300500D01*
X136325816Y-98299293D01*
X136366061Y-98291288D01*
X136366062Y-98291288D01*
X136378231Y-98288867D01*
X136388547Y-98281974D01*
X136400017Y-98277223D01*
X136401314Y-98280355D01*
X136449597Y-98265235D01*
X136521852Y-98286450D01*
X136590572Y-98332367D01*
X136613066Y-98341684D01*
X136668915Y-98352793D01*
X136681170Y-98354000D01*
X136804885Y-98354000D01*
X136820124Y-98349525D01*
X136821329Y-98348135D01*
X136823000Y-98340452D01*
X136823000Y-98335884D01*
X137077000Y-98335884D01*
X137081475Y-98351123D01*
X137082865Y-98352328D01*
X137090548Y-98353999D01*
X137218828Y-98353999D01*
X137231088Y-98352791D01*
X137286931Y-98341685D01*
X137309427Y-98332367D01*
X137372808Y-98290017D01*
X137390017Y-98272808D01*
X137432368Y-98209425D01*
X137441684Y-98186934D01*
X137452793Y-98131085D01*
X137454000Y-98118830D01*
X137454000Y-97995115D01*
X137449525Y-97979876D01*
X137448135Y-97978671D01*
X137440452Y-97977000D01*
X137095115Y-97977000D01*
X137079876Y-97981475D01*
X137078671Y-97982865D01*
X137077000Y-97990548D01*
X137077000Y-98335884D01*
X136823000Y-98335884D01*
X136823000Y-97849000D01*
X136843002Y-97780879D01*
X136896658Y-97734386D01*
X136949000Y-97723000D01*
X137435884Y-97723000D01*
X137451123Y-97718525D01*
X137452328Y-97717135D01*
X137456878Y-97696217D01*
X137460326Y-97696967D01*
X137474001Y-97650395D01*
X137527657Y-97603902D01*
X137597931Y-97593798D01*
X137662511Y-97623292D01*
X137669089Y-97629415D01*
X137888673Y-97849000D01*
X138062596Y-98022923D01*
X138096621Y-98085235D01*
X138099500Y-98112016D01*
X138099500Y-98119748D01*
X138111133Y-98178231D01*
X138118026Y-98188547D01*
X138134137Y-98212658D01*
X138155448Y-98244552D01*
X138221769Y-98288867D01*
X138233938Y-98291288D01*
X138233939Y-98291288D01*
X138274184Y-98299293D01*
X138280252Y-98300500D01*
X138819748Y-98300500D01*
X138825816Y-98299293D01*
X138866061Y-98291288D01*
X138866062Y-98291288D01*
X138878231Y-98288867D01*
X138888547Y-98281974D01*
X138900017Y-98277223D01*
X138901314Y-98280355D01*
X138949597Y-98265235D01*
X139021852Y-98286450D01*
X139090572Y-98332367D01*
X139113066Y-98341684D01*
X139168915Y-98352793D01*
X139181170Y-98354000D01*
X139304885Y-98354000D01*
X139320124Y-98349525D01*
X139321329Y-98348135D01*
X139323000Y-98340452D01*
X139323000Y-98335884D01*
X139577000Y-98335884D01*
X139581475Y-98351123D01*
X139582865Y-98352328D01*
X139590548Y-98353999D01*
X139718828Y-98353999D01*
X139731088Y-98352791D01*
X139786931Y-98341685D01*
X139809427Y-98332367D01*
X139872808Y-98290017D01*
X139890017Y-98272808D01*
X139932368Y-98209425D01*
X139941684Y-98186934D01*
X139952793Y-98131085D01*
X139954000Y-98118830D01*
X139954000Y-97995115D01*
X139949525Y-97979876D01*
X139948135Y-97978671D01*
X139940452Y-97977000D01*
X139595115Y-97977000D01*
X139579876Y-97981475D01*
X139578671Y-97982865D01*
X139577000Y-97990548D01*
X139577000Y-98335884D01*
X139323000Y-98335884D01*
X139323000Y-97849000D01*
X139343002Y-97780879D01*
X139396658Y-97734386D01*
X139449000Y-97723000D01*
X139935884Y-97723000D01*
X139951123Y-97718525D01*
X139952328Y-97717135D01*
X139956878Y-97696217D01*
X139960326Y-97696967D01*
X139974001Y-97650394D01*
X140027657Y-97603901D01*
X140097931Y-97593797D01*
X140162511Y-97623291D01*
G37*
%TD.AperFunction*%
%TA.AperFunction,Conductor*%
G36*
X147662511Y-92723292D02*
G01*
X147669089Y-92729415D01*
X147888673Y-92949000D01*
X148062596Y-93122923D01*
X148096621Y-93185235D01*
X148099500Y-93212018D01*
X148099500Y-93219748D01*
X148111133Y-93278231D01*
X148118026Y-93288547D01*
X148134137Y-93312658D01*
X148155448Y-93344552D01*
X148221769Y-93388867D01*
X148233938Y-93391288D01*
X148233939Y-93391288D01*
X148274184Y-93399293D01*
X148280252Y-93400500D01*
X148819748Y-93400500D01*
X148825816Y-93399293D01*
X148866061Y-93391288D01*
X148866062Y-93391288D01*
X148878231Y-93388867D01*
X148888547Y-93381974D01*
X148900017Y-93377223D01*
X148901314Y-93380355D01*
X148949597Y-93365235D01*
X149021852Y-93386450D01*
X149090572Y-93432367D01*
X149113066Y-93441684D01*
X149168915Y-93452793D01*
X149181170Y-93454000D01*
X149304885Y-93454000D01*
X149320124Y-93449525D01*
X149321329Y-93448135D01*
X149323000Y-93440452D01*
X149323000Y-92949000D01*
X149343002Y-92880879D01*
X149396658Y-92834386D01*
X149449000Y-92823000D01*
X149451000Y-92823000D01*
X149519121Y-92843002D01*
X149565614Y-92896658D01*
X149577000Y-92949000D01*
X149577000Y-93435884D01*
X149581475Y-93451123D01*
X149582865Y-93452328D01*
X149590548Y-93453999D01*
X149718824Y-93453999D01*
X149733147Y-93452588D01*
X149802900Y-93465815D01*
X149854430Y-93514654D01*
X149871500Y-93577981D01*
X149871500Y-93922017D01*
X149851498Y-93990138D01*
X149797842Y-94036631D01*
X149733152Y-94047411D01*
X149718823Y-94046000D01*
X149595115Y-94046000D01*
X149579876Y-94050475D01*
X149578671Y-94051865D01*
X149577000Y-94059548D01*
X149577000Y-94551000D01*
X149556998Y-94619121D01*
X149503342Y-94665614D01*
X149451000Y-94677000D01*
X149449000Y-94677000D01*
X149380879Y-94656998D01*
X149334386Y-94603342D01*
X149323000Y-94551000D01*
X149323000Y-94064116D01*
X149318525Y-94048877D01*
X149317135Y-94047672D01*
X149309452Y-94046001D01*
X149181172Y-94046001D01*
X149168912Y-94047209D01*
X149113069Y-94058315D01*
X149090570Y-94067634D01*
X149021852Y-94113550D01*
X148954099Y-94134765D01*
X148901455Y-94119306D01*
X148900017Y-94122777D01*
X148888547Y-94118026D01*
X148878231Y-94111133D01*
X148866062Y-94108712D01*
X148866061Y-94108712D01*
X148825816Y-94100707D01*
X148819748Y-94099500D01*
X148280252Y-94099500D01*
X148274184Y-94100707D01*
X148233939Y-94108712D01*
X148233938Y-94108712D01*
X148221769Y-94111133D01*
X148155448Y-94155448D01*
X148111133Y-94221769D01*
X148099500Y-94280252D01*
X148099500Y-94287982D01*
X148099271Y-94288761D01*
X148098893Y-94292602D01*
X148098165Y-94292530D01*
X148079498Y-94356103D01*
X148062596Y-94377077D01*
X147732681Y-94706993D01*
X147669096Y-94770578D01*
X147606783Y-94804603D01*
X147535968Y-94799539D01*
X147479132Y-94756992D01*
X147462198Y-94711590D01*
X147459104Y-94712498D01*
X147449525Y-94679876D01*
X147448135Y-94678671D01*
X147440452Y-94677000D01*
X146949000Y-94677000D01*
X146880879Y-94656998D01*
X146834386Y-94603342D01*
X146823000Y-94551000D01*
X146823000Y-94404885D01*
X147077000Y-94404885D01*
X147081475Y-94420124D01*
X147082865Y-94421329D01*
X147090548Y-94423000D01*
X147435884Y-94423000D01*
X147451123Y-94418525D01*
X147452328Y-94417135D01*
X147453999Y-94409452D01*
X147453999Y-94281172D01*
X147452791Y-94268912D01*
X147441685Y-94213069D01*
X147432367Y-94190573D01*
X147390017Y-94127192D01*
X147372808Y-94109983D01*
X147309425Y-94067632D01*
X147286934Y-94058316D01*
X147231085Y-94047207D01*
X147218830Y-94046000D01*
X147095115Y-94046000D01*
X147079876Y-94050475D01*
X147078671Y-94051865D01*
X147077000Y-94059548D01*
X147077000Y-94404885D01*
X146823000Y-94404885D01*
X146823000Y-94064116D01*
X146818525Y-94048877D01*
X146817135Y-94047672D01*
X146809452Y-94046001D01*
X146681172Y-94046001D01*
X146668912Y-94047209D01*
X146613069Y-94058315D01*
X146590570Y-94067634D01*
X146521852Y-94113550D01*
X146454099Y-94134765D01*
X146401455Y-94119306D01*
X146400017Y-94122777D01*
X146388547Y-94118026D01*
X146378231Y-94111133D01*
X146366062Y-94108712D01*
X146366061Y-94108712D01*
X146325816Y-94100707D01*
X146319748Y-94099500D01*
X145780252Y-94099500D01*
X145774184Y-94100707D01*
X145733939Y-94108712D01*
X145733938Y-94108712D01*
X145721769Y-94111133D01*
X145655448Y-94155448D01*
X145611133Y-94221769D01*
X145599500Y-94280252D01*
X145599500Y-94287982D01*
X145599271Y-94288761D01*
X145598893Y-94292602D01*
X145598165Y-94292530D01*
X145579498Y-94356103D01*
X145562596Y-94377077D01*
X145232681Y-94706993D01*
X145169096Y-94770578D01*
X145106783Y-94804603D01*
X145035968Y-94799539D01*
X144979132Y-94756992D01*
X144962198Y-94711590D01*
X144959104Y-94712498D01*
X144949525Y-94679876D01*
X144948135Y-94678671D01*
X144940452Y-94677000D01*
X144449000Y-94677000D01*
X144380879Y-94656998D01*
X144334386Y-94603342D01*
X144323000Y-94551000D01*
X144323000Y-94404885D01*
X144577000Y-94404885D01*
X144581475Y-94420124D01*
X144582865Y-94421329D01*
X144590548Y-94423000D01*
X144935884Y-94423000D01*
X144951123Y-94418525D01*
X144952328Y-94417135D01*
X144953999Y-94409452D01*
X144953999Y-94281172D01*
X144952791Y-94268912D01*
X144941685Y-94213069D01*
X144932367Y-94190573D01*
X144890017Y-94127192D01*
X144872808Y-94109983D01*
X144809425Y-94067632D01*
X144786934Y-94058316D01*
X144731085Y-94047207D01*
X144718830Y-94046000D01*
X144595115Y-94046000D01*
X144579876Y-94050475D01*
X144578671Y-94051865D01*
X144577000Y-94059548D01*
X144577000Y-94404885D01*
X144323000Y-94404885D01*
X144323000Y-94064116D01*
X144318525Y-94048877D01*
X144317135Y-94047672D01*
X144309452Y-94046001D01*
X144181172Y-94046001D01*
X144168912Y-94047209D01*
X144113069Y-94058315D01*
X144090570Y-94067634D01*
X144021852Y-94113550D01*
X143954099Y-94134765D01*
X143901455Y-94119306D01*
X143900017Y-94122777D01*
X143888547Y-94118026D01*
X143878231Y-94111133D01*
X143866062Y-94108712D01*
X143866061Y-94108712D01*
X143825816Y-94100707D01*
X143819748Y-94099500D01*
X143280252Y-94099500D01*
X143274184Y-94100707D01*
X143233939Y-94108712D01*
X143233938Y-94108712D01*
X143221769Y-94111133D01*
X143155448Y-94155448D01*
X143111133Y-94221769D01*
X143099500Y-94280252D01*
X143099500Y-94287982D01*
X143099271Y-94288761D01*
X143098893Y-94292602D01*
X143098165Y-94292530D01*
X143079498Y-94356103D01*
X143062596Y-94377077D01*
X142732681Y-94706993D01*
X142669096Y-94770578D01*
X142606783Y-94804603D01*
X142535968Y-94799539D01*
X142479132Y-94756992D01*
X142462198Y-94711590D01*
X142459104Y-94712498D01*
X142449525Y-94679876D01*
X142448135Y-94678671D01*
X142440452Y-94677000D01*
X141949000Y-94677000D01*
X141880879Y-94656998D01*
X141834386Y-94603342D01*
X141823000Y-94551000D01*
X141823000Y-94404885D01*
X142077000Y-94404885D01*
X142081475Y-94420124D01*
X142082865Y-94421329D01*
X142090548Y-94423000D01*
X142435884Y-94423000D01*
X142451123Y-94418525D01*
X142452328Y-94417135D01*
X142453999Y-94409452D01*
X142453999Y-94281172D01*
X142452791Y-94268912D01*
X142441685Y-94213069D01*
X142432367Y-94190573D01*
X142390017Y-94127192D01*
X142372808Y-94109983D01*
X142309425Y-94067632D01*
X142286934Y-94058316D01*
X142231085Y-94047207D01*
X142218830Y-94046000D01*
X142095115Y-94046000D01*
X142079876Y-94050475D01*
X142078671Y-94051865D01*
X142077000Y-94059548D01*
X142077000Y-94404885D01*
X141823000Y-94404885D01*
X141823000Y-94064116D01*
X141818525Y-94048877D01*
X141817135Y-94047672D01*
X141809452Y-94046001D01*
X141681172Y-94046001D01*
X141668912Y-94047209D01*
X141613069Y-94058315D01*
X141590570Y-94067634D01*
X141521852Y-94113550D01*
X141454099Y-94134765D01*
X141401455Y-94119306D01*
X141400017Y-94122777D01*
X141388547Y-94118026D01*
X141378231Y-94111133D01*
X141366062Y-94108712D01*
X141366061Y-94108712D01*
X141325816Y-94100707D01*
X141319748Y-94099500D01*
X140780252Y-94099500D01*
X140774184Y-94100707D01*
X140733939Y-94108712D01*
X140733938Y-94108712D01*
X140721769Y-94111133D01*
X140655448Y-94155448D01*
X140611133Y-94221769D01*
X140599500Y-94280252D01*
X140599500Y-94287982D01*
X140599271Y-94288761D01*
X140598893Y-94292602D01*
X140598165Y-94292530D01*
X140579498Y-94356103D01*
X140562596Y-94377077D01*
X140232681Y-94706993D01*
X140169096Y-94770578D01*
X140106783Y-94804603D01*
X140035968Y-94799539D01*
X139979132Y-94756992D01*
X139962198Y-94711590D01*
X139959104Y-94712498D01*
X139949525Y-94679876D01*
X139948135Y-94678671D01*
X139940452Y-94677000D01*
X139449000Y-94677000D01*
X139380879Y-94656998D01*
X139334386Y-94603342D01*
X139323000Y-94551000D01*
X139323000Y-94404885D01*
X139577000Y-94404885D01*
X139581475Y-94420124D01*
X139582865Y-94421329D01*
X139590548Y-94423000D01*
X139935884Y-94423000D01*
X139951123Y-94418525D01*
X139952328Y-94417135D01*
X139953999Y-94409452D01*
X139953999Y-94281172D01*
X139952791Y-94268912D01*
X139941685Y-94213069D01*
X139932367Y-94190573D01*
X139890017Y-94127192D01*
X139872808Y-94109983D01*
X139809425Y-94067632D01*
X139786934Y-94058316D01*
X139731085Y-94047207D01*
X139718830Y-94046000D01*
X139595115Y-94046000D01*
X139579876Y-94050475D01*
X139578671Y-94051865D01*
X139577000Y-94059548D01*
X139577000Y-94404885D01*
X139323000Y-94404885D01*
X139323000Y-94064116D01*
X139318525Y-94048877D01*
X139317135Y-94047672D01*
X139309452Y-94046001D01*
X139181172Y-94046001D01*
X139168912Y-94047209D01*
X139113069Y-94058315D01*
X139090570Y-94067634D01*
X139021852Y-94113550D01*
X138954099Y-94134765D01*
X138901455Y-94119306D01*
X138900017Y-94122777D01*
X138888547Y-94118026D01*
X138878231Y-94111133D01*
X138866062Y-94108712D01*
X138866061Y-94108712D01*
X138825816Y-94100707D01*
X138819748Y-94099500D01*
X138280252Y-94099500D01*
X138274184Y-94100707D01*
X138233939Y-94108712D01*
X138233938Y-94108712D01*
X138221769Y-94111133D01*
X138155448Y-94155448D01*
X138111133Y-94221769D01*
X138099500Y-94280252D01*
X138099500Y-94287982D01*
X138099271Y-94288761D01*
X138098893Y-94292602D01*
X138098165Y-94292530D01*
X138079498Y-94356103D01*
X138062596Y-94377077D01*
X137732681Y-94706993D01*
X137669096Y-94770578D01*
X137606783Y-94804603D01*
X137535968Y-94799539D01*
X137479132Y-94756992D01*
X137462198Y-94711590D01*
X137459104Y-94712498D01*
X137449525Y-94679876D01*
X137448135Y-94678671D01*
X137440452Y-94677000D01*
X136949000Y-94677000D01*
X136880879Y-94656998D01*
X136834386Y-94603342D01*
X136823000Y-94551000D01*
X136823000Y-94404885D01*
X137077000Y-94404885D01*
X137081475Y-94420124D01*
X137082865Y-94421329D01*
X137090548Y-94423000D01*
X137435884Y-94423000D01*
X137451123Y-94418525D01*
X137452328Y-94417135D01*
X137453999Y-94409452D01*
X137453999Y-94281172D01*
X137452791Y-94268912D01*
X137441685Y-94213069D01*
X137432367Y-94190573D01*
X137390017Y-94127192D01*
X137372808Y-94109983D01*
X137309425Y-94067632D01*
X137286934Y-94058316D01*
X137231085Y-94047207D01*
X137218830Y-94046000D01*
X137095115Y-94046000D01*
X137079876Y-94050475D01*
X137078671Y-94051865D01*
X137077000Y-94059548D01*
X137077000Y-94404885D01*
X136823000Y-94404885D01*
X136823000Y-94064116D01*
X136818525Y-94048877D01*
X136817135Y-94047672D01*
X136809452Y-94046001D01*
X136681172Y-94046001D01*
X136668912Y-94047209D01*
X136613069Y-94058315D01*
X136590570Y-94067634D01*
X136521852Y-94113550D01*
X136454099Y-94134765D01*
X136401455Y-94119306D01*
X136400017Y-94122777D01*
X136388547Y-94118026D01*
X136378231Y-94111133D01*
X136366062Y-94108712D01*
X136366061Y-94108712D01*
X136325816Y-94100707D01*
X136319748Y-94099500D01*
X135780252Y-94099500D01*
X135774184Y-94100707D01*
X135733939Y-94108712D01*
X135733938Y-94108712D01*
X135721769Y-94111133D01*
X135655448Y-94155448D01*
X135611133Y-94221769D01*
X135608712Y-94233938D01*
X135608712Y-94233939D01*
X135605199Y-94251602D01*
X135578142Y-94308012D01*
X135563316Y-94325681D01*
X135555889Y-94333785D01*
X135169095Y-94720579D01*
X135106783Y-94754605D01*
X135035968Y-94749540D01*
X134979132Y-94706993D01*
X134962197Y-94661590D01*
X134959104Y-94662498D01*
X134949525Y-94629876D01*
X134948135Y-94628671D01*
X134940452Y-94627000D01*
X134449000Y-94627000D01*
X134380879Y-94606998D01*
X134334386Y-94553342D01*
X134323000Y-94501000D01*
X134323000Y-94354885D01*
X134577000Y-94354885D01*
X134581475Y-94370124D01*
X134582865Y-94371329D01*
X134590548Y-94373000D01*
X134935884Y-94373000D01*
X134951123Y-94368525D01*
X134952328Y-94367135D01*
X134953999Y-94359452D01*
X134953999Y-94231172D01*
X134952791Y-94218912D01*
X134941685Y-94163069D01*
X134932367Y-94140573D01*
X134890017Y-94077192D01*
X134872808Y-94059983D01*
X134809425Y-94017632D01*
X134786934Y-94008316D01*
X134731085Y-93997207D01*
X134718830Y-93996000D01*
X134595115Y-93996000D01*
X134579876Y-94000475D01*
X134578671Y-94001865D01*
X134577000Y-94009548D01*
X134577000Y-94354885D01*
X134323000Y-94354885D01*
X134323000Y-94014116D01*
X134318525Y-93998877D01*
X134317135Y-93997672D01*
X134309452Y-93996001D01*
X134181172Y-93996001D01*
X134168912Y-93997209D01*
X134113069Y-94008315D01*
X134090570Y-94017634D01*
X134021852Y-94063550D01*
X133954099Y-94084765D01*
X133901455Y-94069306D01*
X133900017Y-94072777D01*
X133888547Y-94068026D01*
X133878231Y-94061133D01*
X133866062Y-94058712D01*
X133866061Y-94058712D01*
X133825816Y-94050707D01*
X133819748Y-94049500D01*
X133280252Y-94049500D01*
X133274184Y-94050707D01*
X133233939Y-94058712D01*
X133233938Y-94058712D01*
X133221769Y-94061133D01*
X133155448Y-94105448D01*
X133148557Y-94115761D01*
X133122039Y-94155448D01*
X133111133Y-94171769D01*
X133108712Y-94183938D01*
X133108712Y-94183939D01*
X133103239Y-94211453D01*
X133099500Y-94230252D01*
X133099500Y-94287984D01*
X133079498Y-94356105D01*
X133062595Y-94377079D01*
X132669095Y-94770579D01*
X132606783Y-94804605D01*
X132535968Y-94799540D01*
X132479132Y-94756993D01*
X132462197Y-94711590D01*
X132459104Y-94712498D01*
X132449525Y-94679876D01*
X132448135Y-94678671D01*
X132440452Y-94677000D01*
X131949000Y-94677000D01*
X131880879Y-94656998D01*
X131834386Y-94603342D01*
X131823000Y-94551000D01*
X131823000Y-94404885D01*
X132077000Y-94404885D01*
X132081475Y-94420124D01*
X132082865Y-94421329D01*
X132090548Y-94423000D01*
X132435884Y-94423000D01*
X132451123Y-94418525D01*
X132452328Y-94417135D01*
X132453999Y-94409452D01*
X132453999Y-94281172D01*
X132452791Y-94268912D01*
X132441685Y-94213069D01*
X132432367Y-94190573D01*
X132390017Y-94127192D01*
X132372808Y-94109983D01*
X132309425Y-94067632D01*
X132286934Y-94058316D01*
X132231085Y-94047207D01*
X132218830Y-94046000D01*
X132095115Y-94046000D01*
X132079876Y-94050475D01*
X132078671Y-94051865D01*
X132077000Y-94059548D01*
X132077000Y-94404885D01*
X131823000Y-94404885D01*
X131823000Y-94064116D01*
X131818525Y-94048877D01*
X131817135Y-94047672D01*
X131809452Y-94046001D01*
X131681172Y-94046001D01*
X131668912Y-94047209D01*
X131613069Y-94058315D01*
X131590573Y-94067633D01*
X131571502Y-94080376D01*
X131503749Y-94101591D01*
X131435282Y-94082808D01*
X131387839Y-94029990D01*
X131375500Y-93975611D01*
X131375500Y-93524389D01*
X131395502Y-93456268D01*
X131449158Y-93409775D01*
X131519432Y-93399671D01*
X131571502Y-93419624D01*
X131590574Y-93432368D01*
X131613066Y-93441684D01*
X131668915Y-93452793D01*
X131681170Y-93454000D01*
X131804885Y-93454000D01*
X131820124Y-93449525D01*
X131821329Y-93448135D01*
X131823000Y-93440452D01*
X131823000Y-93435884D01*
X132077000Y-93435884D01*
X132081475Y-93451123D01*
X132082865Y-93452328D01*
X132090548Y-93453999D01*
X132218828Y-93453999D01*
X132231088Y-93452791D01*
X132286931Y-93441685D01*
X132309427Y-93432367D01*
X132372808Y-93390017D01*
X132390017Y-93372808D01*
X132432368Y-93309425D01*
X132441684Y-93286934D01*
X132452793Y-93231085D01*
X132454000Y-93218830D01*
X132454000Y-93095115D01*
X132449525Y-93079876D01*
X132448135Y-93078671D01*
X132440452Y-93077000D01*
X132095115Y-93077000D01*
X132079876Y-93081475D01*
X132078671Y-93082865D01*
X132077000Y-93090548D01*
X132077000Y-93435884D01*
X131823000Y-93435884D01*
X131823000Y-92949000D01*
X131843002Y-92880879D01*
X131896658Y-92834386D01*
X131949000Y-92823000D01*
X132435884Y-92823000D01*
X132451123Y-92818525D01*
X132452328Y-92817135D01*
X132456878Y-92796217D01*
X132460326Y-92796967D01*
X132474001Y-92750395D01*
X132527657Y-92703902D01*
X132597931Y-92693798D01*
X132662511Y-92723292D01*
X132669089Y-92729415D01*
X132888673Y-92949000D01*
X133062596Y-93122923D01*
X133096621Y-93185235D01*
X133099500Y-93212018D01*
X133099500Y-93219748D01*
X133111133Y-93278231D01*
X133118026Y-93288547D01*
X133134137Y-93312658D01*
X133155448Y-93344552D01*
X133221769Y-93388867D01*
X133233938Y-93391288D01*
X133233939Y-93391288D01*
X133274184Y-93399293D01*
X133280252Y-93400500D01*
X133819748Y-93400500D01*
X133825816Y-93399293D01*
X133866061Y-93391288D01*
X133866062Y-93391288D01*
X133878231Y-93388867D01*
X133888547Y-93381974D01*
X133900017Y-93377223D01*
X133901314Y-93380355D01*
X133949597Y-93365235D01*
X134021852Y-93386450D01*
X134090572Y-93432367D01*
X134113066Y-93441684D01*
X134168915Y-93452793D01*
X134181170Y-93454000D01*
X134304885Y-93454000D01*
X134320124Y-93449525D01*
X134321329Y-93448135D01*
X134323000Y-93440452D01*
X134323000Y-93435884D01*
X134577000Y-93435884D01*
X134581475Y-93451123D01*
X134582865Y-93452328D01*
X134590548Y-93453999D01*
X134718828Y-93453999D01*
X134731088Y-93452791D01*
X134786931Y-93441685D01*
X134809427Y-93432367D01*
X134872808Y-93390017D01*
X134890017Y-93372808D01*
X134932368Y-93309425D01*
X134941684Y-93286934D01*
X134952793Y-93231085D01*
X134954000Y-93218830D01*
X134954000Y-93095115D01*
X134949525Y-93079876D01*
X134948135Y-93078671D01*
X134940452Y-93077000D01*
X134595115Y-93077000D01*
X134579876Y-93081475D01*
X134578671Y-93082865D01*
X134577000Y-93090548D01*
X134577000Y-93435884D01*
X134323000Y-93435884D01*
X134323000Y-92949000D01*
X134343002Y-92880879D01*
X134396658Y-92834386D01*
X134449000Y-92823000D01*
X134935884Y-92823000D01*
X134951123Y-92818525D01*
X134952328Y-92817135D01*
X134956878Y-92796217D01*
X134960326Y-92796967D01*
X134974001Y-92750395D01*
X135027657Y-92703902D01*
X135097931Y-92693798D01*
X135162511Y-92723292D01*
X135169089Y-92729415D01*
X135388673Y-92949000D01*
X135562596Y-93122923D01*
X135596621Y-93185235D01*
X135599500Y-93212018D01*
X135599500Y-93219748D01*
X135611133Y-93278231D01*
X135618026Y-93288547D01*
X135634137Y-93312658D01*
X135655448Y-93344552D01*
X135721769Y-93388867D01*
X135733938Y-93391288D01*
X135733939Y-93391288D01*
X135774184Y-93399293D01*
X135780252Y-93400500D01*
X136319748Y-93400500D01*
X136325816Y-93399293D01*
X136366061Y-93391288D01*
X136366062Y-93391288D01*
X136378231Y-93388867D01*
X136388547Y-93381974D01*
X136400017Y-93377223D01*
X136401314Y-93380355D01*
X136449597Y-93365235D01*
X136521852Y-93386450D01*
X136590572Y-93432367D01*
X136613066Y-93441684D01*
X136668915Y-93452793D01*
X136681170Y-93454000D01*
X136804885Y-93454000D01*
X136820124Y-93449525D01*
X136821329Y-93448135D01*
X136823000Y-93440452D01*
X136823000Y-93435884D01*
X137077000Y-93435884D01*
X137081475Y-93451123D01*
X137082865Y-93452328D01*
X137090548Y-93453999D01*
X137218828Y-93453999D01*
X137231088Y-93452791D01*
X137286931Y-93441685D01*
X137309427Y-93432367D01*
X137372808Y-93390017D01*
X137390017Y-93372808D01*
X137432368Y-93309425D01*
X137441684Y-93286934D01*
X137452793Y-93231085D01*
X137454000Y-93218830D01*
X137454000Y-93095115D01*
X137449525Y-93079876D01*
X137448135Y-93078671D01*
X137440452Y-93077000D01*
X137095115Y-93077000D01*
X137079876Y-93081475D01*
X137078671Y-93082865D01*
X137077000Y-93090548D01*
X137077000Y-93435884D01*
X136823000Y-93435884D01*
X136823000Y-92949000D01*
X136843002Y-92880879D01*
X136896658Y-92834386D01*
X136949000Y-92823000D01*
X137435884Y-92823000D01*
X137451123Y-92818525D01*
X137452328Y-92817135D01*
X137456878Y-92796217D01*
X137460326Y-92796967D01*
X137474001Y-92750395D01*
X137527657Y-92703902D01*
X137597931Y-92693798D01*
X137662511Y-92723292D01*
X137669089Y-92729415D01*
X137888673Y-92949000D01*
X138062596Y-93122923D01*
X138096621Y-93185235D01*
X138099500Y-93212018D01*
X138099500Y-93219748D01*
X138111133Y-93278231D01*
X138118026Y-93288547D01*
X138134137Y-93312658D01*
X138155448Y-93344552D01*
X138221769Y-93388867D01*
X138233938Y-93391288D01*
X138233939Y-93391288D01*
X138274184Y-93399293D01*
X138280252Y-93400500D01*
X138819748Y-93400500D01*
X138825816Y-93399293D01*
X138866061Y-93391288D01*
X138866062Y-93391288D01*
X138878231Y-93388867D01*
X138888547Y-93381974D01*
X138900017Y-93377223D01*
X138901314Y-93380355D01*
X138949597Y-93365235D01*
X139021852Y-93386450D01*
X139090572Y-93432367D01*
X139113066Y-93441684D01*
X139168915Y-93452793D01*
X139181170Y-93454000D01*
X139304885Y-93454000D01*
X139320124Y-93449525D01*
X139321329Y-93448135D01*
X139323000Y-93440452D01*
X139323000Y-93435884D01*
X139577000Y-93435884D01*
X139581475Y-93451123D01*
X139582865Y-93452328D01*
X139590548Y-93453999D01*
X139718828Y-93453999D01*
X139731088Y-93452791D01*
X139786931Y-93441685D01*
X139809427Y-93432367D01*
X139872808Y-93390017D01*
X139890017Y-93372808D01*
X139932368Y-93309425D01*
X139941684Y-93286934D01*
X139952793Y-93231085D01*
X139954000Y-93218830D01*
X139954000Y-93095115D01*
X139949525Y-93079876D01*
X139948135Y-93078671D01*
X139940452Y-93077000D01*
X139595115Y-93077000D01*
X139579876Y-93081475D01*
X139578671Y-93082865D01*
X139577000Y-93090548D01*
X139577000Y-93435884D01*
X139323000Y-93435884D01*
X139323000Y-92949000D01*
X139343002Y-92880879D01*
X139396658Y-92834386D01*
X139449000Y-92823000D01*
X139935884Y-92823000D01*
X139951123Y-92818525D01*
X139952328Y-92817135D01*
X139956878Y-92796217D01*
X139960326Y-92796967D01*
X139974001Y-92750395D01*
X140027657Y-92703902D01*
X140097931Y-92693798D01*
X140162511Y-92723292D01*
X140169089Y-92729415D01*
X140388673Y-92949000D01*
X140562596Y-93122923D01*
X140596621Y-93185235D01*
X140599500Y-93212018D01*
X140599500Y-93219748D01*
X140611133Y-93278231D01*
X140618026Y-93288547D01*
X140634137Y-93312658D01*
X140655448Y-93344552D01*
X140721769Y-93388867D01*
X140733938Y-93391288D01*
X140733939Y-93391288D01*
X140774184Y-93399293D01*
X140780252Y-93400500D01*
X141319748Y-93400500D01*
X141325816Y-93399293D01*
X141366061Y-93391288D01*
X141366062Y-93391288D01*
X141378231Y-93388867D01*
X141388547Y-93381974D01*
X141400017Y-93377223D01*
X141401314Y-93380355D01*
X141449597Y-93365235D01*
X141521852Y-93386450D01*
X141590572Y-93432367D01*
X141613066Y-93441684D01*
X141668915Y-93452793D01*
X141681170Y-93454000D01*
X141804885Y-93454000D01*
X141820124Y-93449525D01*
X141821329Y-93448135D01*
X141823000Y-93440452D01*
X141823000Y-93435884D01*
X142077000Y-93435884D01*
X142081475Y-93451123D01*
X142082865Y-93452328D01*
X142090548Y-93453999D01*
X142218828Y-93453999D01*
X142231088Y-93452791D01*
X142286931Y-93441685D01*
X142309427Y-93432367D01*
X142372808Y-93390017D01*
X142390017Y-93372808D01*
X142432368Y-93309425D01*
X142441684Y-93286934D01*
X142452793Y-93231085D01*
X142454000Y-93218830D01*
X142454000Y-93095115D01*
X142449525Y-93079876D01*
X142448135Y-93078671D01*
X142440452Y-93077000D01*
X142095115Y-93077000D01*
X142079876Y-93081475D01*
X142078671Y-93082865D01*
X142077000Y-93090548D01*
X142077000Y-93435884D01*
X141823000Y-93435884D01*
X141823000Y-92949000D01*
X141843002Y-92880879D01*
X141896658Y-92834386D01*
X141949000Y-92823000D01*
X142435884Y-92823000D01*
X142451123Y-92818525D01*
X142452328Y-92817135D01*
X142456878Y-92796217D01*
X142460326Y-92796967D01*
X142474001Y-92750395D01*
X142527657Y-92703902D01*
X142597931Y-92693798D01*
X142662511Y-92723292D01*
X142669089Y-92729415D01*
X142888673Y-92949000D01*
X143062596Y-93122923D01*
X143096621Y-93185235D01*
X143099500Y-93212018D01*
X143099500Y-93219748D01*
X143111133Y-93278231D01*
X143118026Y-93288547D01*
X143134137Y-93312658D01*
X143155448Y-93344552D01*
X143221769Y-93388867D01*
X143233938Y-93391288D01*
X143233939Y-93391288D01*
X143274184Y-93399293D01*
X143280252Y-93400500D01*
X143819748Y-93400500D01*
X143825816Y-93399293D01*
X143866061Y-93391288D01*
X143866062Y-93391288D01*
X143878231Y-93388867D01*
X143888547Y-93381974D01*
X143900017Y-93377223D01*
X143901314Y-93380355D01*
X143949597Y-93365235D01*
X144021852Y-93386450D01*
X144090572Y-93432367D01*
X144113066Y-93441684D01*
X144168915Y-93452793D01*
X144181170Y-93454000D01*
X144304885Y-93454000D01*
X144320124Y-93449525D01*
X144321329Y-93448135D01*
X144323000Y-93440452D01*
X144323000Y-93435884D01*
X144577000Y-93435884D01*
X144581475Y-93451123D01*
X144582865Y-93452328D01*
X144590548Y-93453999D01*
X144718828Y-93453999D01*
X144731088Y-93452791D01*
X144786931Y-93441685D01*
X144809427Y-93432367D01*
X144872808Y-93390017D01*
X144890017Y-93372808D01*
X144932368Y-93309425D01*
X144941684Y-93286934D01*
X144952793Y-93231085D01*
X144954000Y-93218830D01*
X144954000Y-93095115D01*
X144949525Y-93079876D01*
X144948135Y-93078671D01*
X144940452Y-93077000D01*
X144595115Y-93077000D01*
X144579876Y-93081475D01*
X144578671Y-93082865D01*
X144577000Y-93090548D01*
X144577000Y-93435884D01*
X144323000Y-93435884D01*
X144323000Y-92949000D01*
X144343002Y-92880879D01*
X144396658Y-92834386D01*
X144449000Y-92823000D01*
X144935884Y-92823000D01*
X144951123Y-92818525D01*
X144952328Y-92817135D01*
X144956878Y-92796217D01*
X144960326Y-92796967D01*
X144974001Y-92750395D01*
X145027657Y-92703902D01*
X145097931Y-92693798D01*
X145162511Y-92723292D01*
X145169089Y-92729415D01*
X145388673Y-92949000D01*
X145562596Y-93122923D01*
X145596621Y-93185235D01*
X145599500Y-93212018D01*
X145599500Y-93219748D01*
X145611133Y-93278231D01*
X145618026Y-93288547D01*
X145634137Y-93312658D01*
X145655448Y-93344552D01*
X145721769Y-93388867D01*
X145733938Y-93391288D01*
X145733939Y-93391288D01*
X145774184Y-93399293D01*
X145780252Y-93400500D01*
X146319748Y-93400500D01*
X146325816Y-93399293D01*
X146366061Y-93391288D01*
X146366062Y-93391288D01*
X146378231Y-93388867D01*
X146388547Y-93381974D01*
X146400017Y-93377223D01*
X146401314Y-93380355D01*
X146449597Y-93365235D01*
X146521852Y-93386450D01*
X146590572Y-93432367D01*
X146613066Y-93441684D01*
X146668915Y-93452793D01*
X146681170Y-93454000D01*
X146804885Y-93454000D01*
X146820124Y-93449525D01*
X146821329Y-93448135D01*
X146823000Y-93440452D01*
X146823000Y-93435884D01*
X147077000Y-93435884D01*
X147081475Y-93451123D01*
X147082865Y-93452328D01*
X147090548Y-93453999D01*
X147218828Y-93453999D01*
X147231088Y-93452791D01*
X147286931Y-93441685D01*
X147309427Y-93432367D01*
X147372808Y-93390017D01*
X147390017Y-93372808D01*
X147432368Y-93309425D01*
X147441684Y-93286934D01*
X147452793Y-93231085D01*
X147454000Y-93218830D01*
X147454000Y-93095115D01*
X147449525Y-93079876D01*
X147448135Y-93078671D01*
X147440452Y-93077000D01*
X147095115Y-93077000D01*
X147079876Y-93081475D01*
X147078671Y-93082865D01*
X147077000Y-93090548D01*
X147077000Y-93435884D01*
X146823000Y-93435884D01*
X146823000Y-92949000D01*
X146843002Y-92880879D01*
X146896658Y-92834386D01*
X146949000Y-92823000D01*
X147435884Y-92823000D01*
X147451123Y-92818525D01*
X147452328Y-92817135D01*
X147456878Y-92796217D01*
X147460326Y-92796967D01*
X147474001Y-92750395D01*
X147527657Y-92703902D01*
X147597931Y-92693798D01*
X147662511Y-92723292D01*
G37*
%TD.AperFunction*%
%TA.AperFunction,Conductor*%
G36*
X140544275Y-89148502D02*
G01*
X140590768Y-89202158D01*
X140598408Y-89267735D01*
X140601314Y-89268021D01*
X140600707Y-89274184D01*
X140599500Y-89280252D01*
X140599500Y-89371175D01*
X140579498Y-89439296D01*
X140562596Y-89460270D01*
X140249202Y-89773665D01*
X140169096Y-89853771D01*
X140106783Y-89887796D01*
X140035968Y-89882732D01*
X139979132Y-89840185D01*
X139954321Y-89773665D01*
X139954000Y-89764676D01*
X139954000Y-89695115D01*
X139949525Y-89679876D01*
X139948135Y-89678671D01*
X139940452Y-89677000D01*
X139449000Y-89677000D01*
X139380879Y-89656998D01*
X139334386Y-89603342D01*
X139323000Y-89551000D01*
X139323000Y-89549000D01*
X139343002Y-89480879D01*
X139396658Y-89434386D01*
X139449000Y-89423000D01*
X139935884Y-89423000D01*
X139951123Y-89418525D01*
X139952328Y-89417135D01*
X139953999Y-89409452D01*
X139953999Y-89281176D01*
X139952588Y-89266853D01*
X139965815Y-89197100D01*
X140014654Y-89145570D01*
X140077981Y-89128500D01*
X140476154Y-89128500D01*
X140544275Y-89148502D01*
G37*
%TD.AperFunction*%
%TA.AperFunction,Conductor*%
G36*
X138044275Y-89148502D02*
G01*
X138090768Y-89202158D01*
X138098408Y-89267735D01*
X138101314Y-89268021D01*
X138100707Y-89274184D01*
X138099500Y-89280252D01*
X138099500Y-89371175D01*
X138079498Y-89439296D01*
X138062596Y-89460270D01*
X137749202Y-89773665D01*
X137669096Y-89853771D01*
X137606783Y-89887796D01*
X137535968Y-89882732D01*
X137479132Y-89840185D01*
X137454321Y-89773665D01*
X137454000Y-89764676D01*
X137454000Y-89695115D01*
X137449525Y-89679876D01*
X137448135Y-89678671D01*
X137440452Y-89677000D01*
X136949000Y-89677000D01*
X136880879Y-89656998D01*
X136834386Y-89603342D01*
X136823000Y-89551000D01*
X136823000Y-89549000D01*
X136843002Y-89480879D01*
X136896658Y-89434386D01*
X136949000Y-89423000D01*
X137435884Y-89423000D01*
X137451123Y-89418525D01*
X137452328Y-89417135D01*
X137453999Y-89409452D01*
X137453999Y-89281176D01*
X137452588Y-89266853D01*
X137465815Y-89197100D01*
X137514654Y-89145570D01*
X137577981Y-89128500D01*
X137976154Y-89128500D01*
X138044275Y-89148502D01*
G37*
%TD.AperFunction*%
%TA.AperFunction,Conductor*%
G36*
X148044275Y-89148502D02*
G01*
X148090768Y-89202158D01*
X148098408Y-89267735D01*
X148101314Y-89268021D01*
X148100707Y-89274184D01*
X148099500Y-89280252D01*
X148099500Y-89371175D01*
X148079498Y-89439296D01*
X148062596Y-89460270D01*
X147749202Y-89773665D01*
X147669096Y-89853771D01*
X147606783Y-89887796D01*
X147535968Y-89882732D01*
X147479132Y-89840185D01*
X147454321Y-89773665D01*
X147454000Y-89764676D01*
X147454000Y-89695115D01*
X147449525Y-89679876D01*
X147448135Y-89678671D01*
X147440452Y-89677000D01*
X146949000Y-89677000D01*
X146880879Y-89656998D01*
X146834386Y-89603342D01*
X146823000Y-89551000D01*
X146823000Y-89549000D01*
X146843002Y-89480879D01*
X146896658Y-89434386D01*
X146949000Y-89423000D01*
X147435884Y-89423000D01*
X147451123Y-89418525D01*
X147452328Y-89417135D01*
X147453999Y-89409452D01*
X147453999Y-89281176D01*
X147452588Y-89266853D01*
X147465815Y-89197100D01*
X147514654Y-89145570D01*
X147577981Y-89128500D01*
X147976154Y-89128500D01*
X148044275Y-89148502D01*
G37*
%TD.AperFunction*%
%TA.AperFunction,Conductor*%
G36*
X135544275Y-89148502D02*
G01*
X135590768Y-89202158D01*
X135598408Y-89267735D01*
X135601314Y-89268021D01*
X135600707Y-89274184D01*
X135599500Y-89280252D01*
X135599500Y-89371175D01*
X135579498Y-89439296D01*
X135562596Y-89460270D01*
X135249202Y-89773665D01*
X135169096Y-89853771D01*
X135106783Y-89887796D01*
X135035968Y-89882732D01*
X134979132Y-89840185D01*
X134954321Y-89773665D01*
X134954000Y-89764676D01*
X134954000Y-89695115D01*
X134949525Y-89679876D01*
X134948135Y-89678671D01*
X134940452Y-89677000D01*
X134449000Y-89677000D01*
X134380879Y-89656998D01*
X134334386Y-89603342D01*
X134323000Y-89551000D01*
X134323000Y-89549000D01*
X134343002Y-89480879D01*
X134396658Y-89434386D01*
X134449000Y-89423000D01*
X134935884Y-89423000D01*
X134951123Y-89418525D01*
X134952328Y-89417135D01*
X134953999Y-89409452D01*
X134953999Y-89281176D01*
X134952588Y-89266853D01*
X134965815Y-89197100D01*
X135014654Y-89145570D01*
X135077981Y-89128500D01*
X135476154Y-89128500D01*
X135544275Y-89148502D01*
G37*
%TD.AperFunction*%
%TA.AperFunction,Conductor*%
G36*
X143044275Y-89148502D02*
G01*
X143090768Y-89202158D01*
X143098408Y-89267735D01*
X143101314Y-89268021D01*
X143100707Y-89274184D01*
X143099500Y-89280252D01*
X143099500Y-89371175D01*
X143079498Y-89439296D01*
X143062596Y-89460270D01*
X142749202Y-89773665D01*
X142669096Y-89853771D01*
X142606783Y-89887796D01*
X142535968Y-89882732D01*
X142479132Y-89840185D01*
X142454321Y-89773665D01*
X142454000Y-89764676D01*
X142454000Y-89695115D01*
X142449525Y-89679876D01*
X142448135Y-89678671D01*
X142440452Y-89677000D01*
X141949000Y-89677000D01*
X141880879Y-89656998D01*
X141834386Y-89603342D01*
X141823000Y-89551000D01*
X141823000Y-89549000D01*
X141843002Y-89480879D01*
X141896658Y-89434386D01*
X141949000Y-89423000D01*
X142435884Y-89423000D01*
X142451123Y-89418525D01*
X142452328Y-89417135D01*
X142453999Y-89409452D01*
X142453999Y-89281176D01*
X142452588Y-89266853D01*
X142465815Y-89197100D01*
X142514654Y-89145570D01*
X142577981Y-89128500D01*
X142976154Y-89128500D01*
X143044275Y-89148502D01*
G37*
%TD.AperFunction*%
%TA.AperFunction,Conductor*%
G36*
X133044275Y-89148502D02*
G01*
X133090768Y-89202158D01*
X133098408Y-89267735D01*
X133101314Y-89268021D01*
X133100707Y-89274184D01*
X133099500Y-89280252D01*
X133099500Y-89371175D01*
X133079498Y-89439296D01*
X133062596Y-89460270D01*
X132749202Y-89773665D01*
X132669096Y-89853771D01*
X132606783Y-89887796D01*
X132535968Y-89882732D01*
X132479132Y-89840185D01*
X132454321Y-89773665D01*
X132454000Y-89764676D01*
X132454000Y-89695115D01*
X132449525Y-89679876D01*
X132448135Y-89678671D01*
X132440452Y-89677000D01*
X131949000Y-89677000D01*
X131880879Y-89656998D01*
X131834386Y-89603342D01*
X131823000Y-89551000D01*
X131823000Y-89549000D01*
X131843002Y-89480879D01*
X131896658Y-89434386D01*
X131949000Y-89423000D01*
X132435884Y-89423000D01*
X132451123Y-89418525D01*
X132452328Y-89417135D01*
X132453999Y-89409452D01*
X132453999Y-89281176D01*
X132452588Y-89266853D01*
X132465815Y-89197100D01*
X132514654Y-89145570D01*
X132577981Y-89128500D01*
X132976154Y-89128500D01*
X133044275Y-89148502D01*
G37*
%TD.AperFunction*%
%TA.AperFunction,Conductor*%
G36*
X145544275Y-89148502D02*
G01*
X145590768Y-89202158D01*
X145598408Y-89267735D01*
X145601314Y-89268021D01*
X145600707Y-89274184D01*
X145599500Y-89280252D01*
X145599500Y-89371175D01*
X145579498Y-89439296D01*
X145562596Y-89460270D01*
X145249202Y-89773665D01*
X145169096Y-89853771D01*
X145106783Y-89887796D01*
X145035968Y-89882732D01*
X144979132Y-89840185D01*
X144954321Y-89773665D01*
X144954000Y-89764676D01*
X144954000Y-89695115D01*
X144949525Y-89679876D01*
X144948135Y-89678671D01*
X144940452Y-89677000D01*
X144449000Y-89677000D01*
X144380879Y-89656998D01*
X144334386Y-89603342D01*
X144323000Y-89551000D01*
X144323000Y-89549000D01*
X144343002Y-89480879D01*
X144396658Y-89434386D01*
X144449000Y-89423000D01*
X144935884Y-89423000D01*
X144951123Y-89418525D01*
X144952328Y-89417135D01*
X144953999Y-89409452D01*
X144953999Y-89281176D01*
X144952588Y-89266853D01*
X144965815Y-89197100D01*
X145014654Y-89145570D01*
X145077981Y-89128500D01*
X145476154Y-89128500D01*
X145544275Y-89148502D01*
G37*
%TD.AperFunction*%
%TD*%
%TA.AperFunction,Conductor*%
%TO.N,GND*%
G36*
X149995573Y-89004427D02*
G01*
X149999000Y-89012700D01*
X149999000Y-89500000D01*
X149000500Y-89500000D01*
X149000500Y-89280252D01*
X148988867Y-89221769D01*
X148944552Y-89155448D01*
X148878231Y-89111133D01*
X148877102Y-89110908D01*
X148877101Y-89110908D01*
X148820317Y-89099613D01*
X148820315Y-89099613D01*
X148819748Y-89099500D01*
X148280252Y-89099500D01*
X148279685Y-89099613D01*
X148279683Y-89099613D01*
X148222899Y-89110908D01*
X148222898Y-89110908D01*
X148221769Y-89111133D01*
X148155448Y-89155448D01*
X148111133Y-89221769D01*
X148099500Y-89280252D01*
X148099500Y-89418520D01*
X148096073Y-89426793D01*
X148022866Y-89500000D01*
X147500000Y-89500000D01*
X147500000Y-89001000D01*
X149987300Y-89001000D01*
X149995573Y-89004427D01*
G37*
%TD.AperFunction*%
%TD*%
%TA.AperFunction,Conductor*%
%TO.N,GND*%
G36*
X149995573Y-89004427D02*
G01*
X149999000Y-89012700D01*
X149999000Y-93500000D01*
X149500000Y-93500000D01*
X149500000Y-92500500D01*
X149719748Y-92500500D01*
X149720315Y-92500387D01*
X149720317Y-92500387D01*
X149777101Y-92489092D01*
X149777102Y-92489092D01*
X149778231Y-92488867D01*
X149844552Y-92444552D01*
X149888867Y-92378231D01*
X149900500Y-92319748D01*
X149900500Y-91780252D01*
X149888867Y-91721769D01*
X149844552Y-91655448D01*
X149780700Y-91612783D01*
X149775725Y-91605337D01*
X149775500Y-91603055D01*
X149775500Y-90896945D01*
X149778927Y-90888672D01*
X149780700Y-90887217D01*
X149843594Y-90845192D01*
X149844552Y-90844552D01*
X149888867Y-90778231D01*
X149900500Y-90719748D01*
X149900500Y-90180252D01*
X149888867Y-90121769D01*
X149844552Y-90055448D01*
X149778231Y-90011133D01*
X149777102Y-90010908D01*
X149777101Y-90010908D01*
X149720317Y-89999613D01*
X149720315Y-89999613D01*
X149719748Y-89999500D01*
X149500000Y-89999500D01*
X149500000Y-89001000D01*
X149987300Y-89001000D01*
X149995573Y-89004427D01*
G37*
%TD.AperFunction*%
%TD*%
%TA.AperFunction,Conductor*%
%TO.N,GND*%
G36*
X142838832Y-103434730D02*
G01*
X142850513Y-103448209D01*
X142936739Y-103563261D01*
X142943919Y-103568642D01*
X142943920Y-103568643D01*
X143051372Y-103649174D01*
X143093887Y-103706033D01*
X143098913Y-103776852D01*
X143064853Y-103839145D01*
X143051372Y-103850826D01*
X142936739Y-103936739D01*
X142916500Y-103963744D01*
X142850513Y-104051790D01*
X142793653Y-104094304D01*
X142722835Y-104099329D01*
X142660542Y-104065270D01*
X142648861Y-104051789D01*
X142568285Y-103944276D01*
X142555724Y-103931715D01*
X142447794Y-103850826D01*
X142405279Y-103793967D01*
X142400253Y-103723148D01*
X142434313Y-103660855D01*
X142447794Y-103649174D01*
X142555724Y-103568285D01*
X142568285Y-103555724D01*
X142648861Y-103448211D01*
X142705720Y-103405696D01*
X142776538Y-103400670D01*
X142838832Y-103434730D01*
G37*
%TD.AperFunction*%
%TA.AperFunction,Conductor*%
G36*
X140338832Y-103434730D02*
G01*
X140350513Y-103448209D01*
X140436739Y-103563261D01*
X140443919Y-103568642D01*
X140443920Y-103568643D01*
X140551372Y-103649174D01*
X140593887Y-103706033D01*
X140598913Y-103776852D01*
X140564853Y-103839145D01*
X140551372Y-103850826D01*
X140436739Y-103936739D01*
X140416500Y-103963744D01*
X140350513Y-104051790D01*
X140293653Y-104094304D01*
X140222835Y-104099329D01*
X140160542Y-104065270D01*
X140148861Y-104051789D01*
X140068285Y-103944276D01*
X140055724Y-103931715D01*
X139947794Y-103850826D01*
X139905279Y-103793967D01*
X139900253Y-103723148D01*
X139934313Y-103660855D01*
X139947794Y-103649174D01*
X140055724Y-103568285D01*
X140068285Y-103555724D01*
X140148861Y-103448211D01*
X140205720Y-103405696D01*
X140276538Y-103400670D01*
X140338832Y-103434730D01*
G37*
%TD.AperFunction*%
%TA.AperFunction,Conductor*%
G36*
X147838832Y-103434730D02*
G01*
X147850513Y-103448209D01*
X147936739Y-103563261D01*
X147943919Y-103568642D01*
X147943920Y-103568643D01*
X148051372Y-103649174D01*
X148093887Y-103706033D01*
X148098913Y-103776852D01*
X148064853Y-103839145D01*
X148051372Y-103850826D01*
X147936739Y-103936739D01*
X147916500Y-103963744D01*
X147850513Y-104051790D01*
X147793653Y-104094304D01*
X147722835Y-104099329D01*
X147660542Y-104065270D01*
X147648861Y-104051789D01*
X147568285Y-103944276D01*
X147555724Y-103931715D01*
X147447794Y-103850826D01*
X147405279Y-103793967D01*
X147400253Y-103723148D01*
X147434313Y-103660855D01*
X147447794Y-103649174D01*
X147555724Y-103568285D01*
X147568285Y-103555724D01*
X147648861Y-103448211D01*
X147705720Y-103405696D01*
X147776538Y-103400670D01*
X147838832Y-103434730D01*
G37*
%TD.AperFunction*%
%TA.AperFunction,Conductor*%
G36*
X132838832Y-103434730D02*
G01*
X132850513Y-103448209D01*
X132936739Y-103563261D01*
X132943919Y-103568642D01*
X132943920Y-103568643D01*
X133051372Y-103649174D01*
X133093887Y-103706033D01*
X133098913Y-103776852D01*
X133064853Y-103839145D01*
X133051372Y-103850826D01*
X132936739Y-103936739D01*
X132916500Y-103963744D01*
X132850513Y-104051790D01*
X132793653Y-104094304D01*
X132722835Y-104099329D01*
X132660542Y-104065270D01*
X132648861Y-104051789D01*
X132568285Y-103944276D01*
X132555724Y-103931715D01*
X132447794Y-103850826D01*
X132405279Y-103793967D01*
X132400253Y-103723148D01*
X132434313Y-103660855D01*
X132447794Y-103649174D01*
X132555724Y-103568285D01*
X132568285Y-103555724D01*
X132648861Y-103448211D01*
X132705720Y-103405696D01*
X132776538Y-103400670D01*
X132838832Y-103434730D01*
G37*
%TD.AperFunction*%
%TA.AperFunction,Conductor*%
G36*
X145338832Y-103434730D02*
G01*
X145350513Y-103448209D01*
X145436739Y-103563261D01*
X145443919Y-103568642D01*
X145443920Y-103568643D01*
X145551372Y-103649174D01*
X145593887Y-103706033D01*
X145598913Y-103776852D01*
X145564853Y-103839145D01*
X145551372Y-103850826D01*
X145436739Y-103936739D01*
X145416500Y-103963744D01*
X145350513Y-104051790D01*
X145293653Y-104094304D01*
X145222835Y-104099329D01*
X145160542Y-104065270D01*
X145148861Y-104051789D01*
X145068285Y-103944276D01*
X145055724Y-103931715D01*
X144947794Y-103850826D01*
X144905279Y-103793967D01*
X144900253Y-103723148D01*
X144934313Y-103660855D01*
X144947794Y-103649174D01*
X145055724Y-103568285D01*
X145068285Y-103555724D01*
X145148861Y-103448211D01*
X145205720Y-103405696D01*
X145276538Y-103400670D01*
X145338832Y-103434730D01*
G37*
%TD.AperFunction*%
%TA.AperFunction,Conductor*%
G36*
X137838832Y-103434730D02*
G01*
X137850513Y-103448209D01*
X137936739Y-103563261D01*
X137943919Y-103568642D01*
X137943920Y-103568643D01*
X138051372Y-103649174D01*
X138093887Y-103706033D01*
X138098913Y-103776852D01*
X138064853Y-103839145D01*
X138051372Y-103850826D01*
X137936739Y-103936739D01*
X137916500Y-103963744D01*
X137850513Y-104051790D01*
X137793653Y-104094304D01*
X137722835Y-104099329D01*
X137660542Y-104065270D01*
X137648861Y-104051789D01*
X137568285Y-103944276D01*
X137555724Y-103931715D01*
X137447794Y-103850826D01*
X137405279Y-103793967D01*
X137400253Y-103723148D01*
X137434313Y-103660855D01*
X137447794Y-103649174D01*
X137555724Y-103568285D01*
X137568285Y-103555724D01*
X137648861Y-103448211D01*
X137705720Y-103405696D01*
X137776538Y-103400670D01*
X137838832Y-103434730D01*
G37*
%TD.AperFunction*%
%TA.AperFunction,Conductor*%
G36*
X135338832Y-103434730D02*
G01*
X135350513Y-103448209D01*
X135436739Y-103563261D01*
X135443919Y-103568642D01*
X135443920Y-103568643D01*
X135551372Y-103649174D01*
X135593887Y-103706033D01*
X135598913Y-103776852D01*
X135564853Y-103839145D01*
X135551372Y-103850826D01*
X135436739Y-103936739D01*
X135416500Y-103963744D01*
X135350513Y-104051790D01*
X135293653Y-104094304D01*
X135222835Y-104099329D01*
X135160542Y-104065270D01*
X135148861Y-104051789D01*
X135068285Y-103944276D01*
X135055724Y-103931715D01*
X134947794Y-103850826D01*
X134905279Y-103793967D01*
X134900253Y-103723148D01*
X134934313Y-103660855D01*
X134947794Y-103649174D01*
X135055724Y-103568285D01*
X135068285Y-103555724D01*
X135148861Y-103448211D01*
X135205720Y-103405696D01*
X135276538Y-103400670D01*
X135338832Y-103434730D01*
G37*
%TD.AperFunction*%
%TA.AperFunction,Conductor*%
G36*
X137838832Y-98334730D02*
G01*
X137850513Y-98348209D01*
X137936739Y-98463261D01*
X138053295Y-98550615D01*
X138061703Y-98553767D01*
X138137062Y-98582018D01*
X138193826Y-98624660D01*
X138218526Y-98691221D01*
X138203319Y-98760570D01*
X138153033Y-98810688D01*
X138137062Y-98817982D01*
X138053295Y-98849385D01*
X137936739Y-98936739D01*
X137916500Y-98963744D01*
X137850513Y-99051790D01*
X137793653Y-99094304D01*
X137722835Y-99099329D01*
X137660542Y-99065270D01*
X137648861Y-99051789D01*
X137568285Y-98944276D01*
X137555724Y-98931715D01*
X137453649Y-98855214D01*
X137438054Y-98846676D01*
X137361513Y-98817982D01*
X137304749Y-98775340D01*
X137280049Y-98708779D01*
X137295256Y-98639430D01*
X137345542Y-98589312D01*
X137361513Y-98582018D01*
X137438054Y-98553324D01*
X137453649Y-98544786D01*
X137555724Y-98468285D01*
X137568285Y-98455724D01*
X137648861Y-98348211D01*
X137705720Y-98305696D01*
X137776538Y-98300670D01*
X137838832Y-98334730D01*
G37*
%TD.AperFunction*%
%TA.AperFunction,Conductor*%
G36*
X142838832Y-98334730D02*
G01*
X142850513Y-98348209D01*
X142936739Y-98463261D01*
X143053295Y-98550615D01*
X143061703Y-98553767D01*
X143137062Y-98582018D01*
X143193826Y-98624660D01*
X143218526Y-98691221D01*
X143203319Y-98760570D01*
X143153033Y-98810688D01*
X143137062Y-98817982D01*
X143053295Y-98849385D01*
X142936739Y-98936739D01*
X142916500Y-98963744D01*
X142850513Y-99051790D01*
X142793653Y-99094304D01*
X142722835Y-99099329D01*
X142660542Y-99065270D01*
X142648861Y-99051789D01*
X142568285Y-98944276D01*
X142555724Y-98931715D01*
X142453649Y-98855214D01*
X142438054Y-98846676D01*
X142361513Y-98817982D01*
X142304749Y-98775340D01*
X142280049Y-98708779D01*
X142295256Y-98639430D01*
X142345542Y-98589312D01*
X142361513Y-98582018D01*
X142438054Y-98553324D01*
X142453649Y-98544786D01*
X142555724Y-98468285D01*
X142568285Y-98455724D01*
X142648861Y-98348211D01*
X142705720Y-98305696D01*
X142776538Y-98300670D01*
X142838832Y-98334730D01*
G37*
%TD.AperFunction*%
%TA.AperFunction,Conductor*%
G36*
X147838832Y-98334730D02*
G01*
X147850513Y-98348209D01*
X147936739Y-98463261D01*
X148053295Y-98550615D01*
X148061703Y-98553767D01*
X148137062Y-98582018D01*
X148193826Y-98624660D01*
X148218526Y-98691221D01*
X148203319Y-98760570D01*
X148153033Y-98810688D01*
X148137062Y-98817982D01*
X148053295Y-98849385D01*
X147936739Y-98936739D01*
X147916500Y-98963744D01*
X147850513Y-99051790D01*
X147793653Y-99094304D01*
X147722835Y-99099329D01*
X147660542Y-99065270D01*
X147648861Y-99051789D01*
X147568285Y-98944276D01*
X147555724Y-98931715D01*
X147453649Y-98855214D01*
X147438054Y-98846676D01*
X147361513Y-98817982D01*
X147304749Y-98775340D01*
X147280049Y-98708779D01*
X147295256Y-98639430D01*
X147345542Y-98589312D01*
X147361513Y-98582018D01*
X147438054Y-98553324D01*
X147453649Y-98544786D01*
X147555724Y-98468285D01*
X147568285Y-98455724D01*
X147648861Y-98348211D01*
X147705720Y-98305696D01*
X147776538Y-98300670D01*
X147838832Y-98334730D01*
G37*
%TD.AperFunction*%
%TA.AperFunction,Conductor*%
G36*
X145338832Y-98334730D02*
G01*
X145350513Y-98348209D01*
X145436739Y-98463261D01*
X145553295Y-98550615D01*
X145561703Y-98553767D01*
X145637062Y-98582018D01*
X145693826Y-98624660D01*
X145718526Y-98691221D01*
X145703319Y-98760570D01*
X145653033Y-98810688D01*
X145637062Y-98817982D01*
X145553295Y-98849385D01*
X145436739Y-98936739D01*
X145416500Y-98963744D01*
X145350513Y-99051790D01*
X145293653Y-99094304D01*
X145222835Y-99099329D01*
X145160542Y-99065270D01*
X145148861Y-99051789D01*
X145068285Y-98944276D01*
X145055724Y-98931715D01*
X144953649Y-98855214D01*
X144938054Y-98846676D01*
X144861513Y-98817982D01*
X144804749Y-98775340D01*
X144780049Y-98708779D01*
X144795256Y-98639430D01*
X144845542Y-98589312D01*
X144861513Y-98582018D01*
X144938054Y-98553324D01*
X144953649Y-98544786D01*
X145055724Y-98468285D01*
X145068285Y-98455724D01*
X145148861Y-98348211D01*
X145205720Y-98305696D01*
X145276538Y-98300670D01*
X145338832Y-98334730D01*
G37*
%TD.AperFunction*%
%TA.AperFunction,Conductor*%
G36*
X140338832Y-98334730D02*
G01*
X140350513Y-98348209D01*
X140436739Y-98463261D01*
X140553295Y-98550615D01*
X140561703Y-98553767D01*
X140637062Y-98582018D01*
X140693826Y-98624660D01*
X140718526Y-98691221D01*
X140703319Y-98760570D01*
X140653033Y-98810688D01*
X140637062Y-98817982D01*
X140553295Y-98849385D01*
X140436739Y-98936739D01*
X140416500Y-98963744D01*
X140350513Y-99051790D01*
X140293653Y-99094304D01*
X140222835Y-99099329D01*
X140160542Y-99065270D01*
X140148861Y-99051789D01*
X140068285Y-98944276D01*
X140055724Y-98931715D01*
X139953649Y-98855214D01*
X139938054Y-98846676D01*
X139861513Y-98817982D01*
X139804749Y-98775340D01*
X139780049Y-98708779D01*
X139795256Y-98639430D01*
X139845542Y-98589312D01*
X139861513Y-98582018D01*
X139938054Y-98553324D01*
X139953649Y-98544786D01*
X140055724Y-98468285D01*
X140068285Y-98455724D01*
X140148861Y-98348211D01*
X140205720Y-98305696D01*
X140276538Y-98300670D01*
X140338832Y-98334730D01*
G37*
%TD.AperFunction*%
%TA.AperFunction,Conductor*%
G36*
X132838832Y-98334730D02*
G01*
X132850513Y-98348209D01*
X132936739Y-98463261D01*
X133053295Y-98550615D01*
X133061703Y-98553767D01*
X133137062Y-98582018D01*
X133193826Y-98624660D01*
X133218526Y-98691221D01*
X133203319Y-98760570D01*
X133153033Y-98810688D01*
X133137062Y-98817982D01*
X133053295Y-98849385D01*
X132936739Y-98936739D01*
X132916500Y-98963744D01*
X132850513Y-99051790D01*
X132793653Y-99094304D01*
X132722835Y-99099329D01*
X132660542Y-99065270D01*
X132648861Y-99051789D01*
X132568285Y-98944276D01*
X132555724Y-98931715D01*
X132453649Y-98855214D01*
X132438054Y-98846676D01*
X132361513Y-98817982D01*
X132304749Y-98775340D01*
X132280049Y-98708779D01*
X132295256Y-98639430D01*
X132345542Y-98589312D01*
X132361513Y-98582018D01*
X132438054Y-98553324D01*
X132453649Y-98544786D01*
X132555724Y-98468285D01*
X132568285Y-98455724D01*
X132648861Y-98348211D01*
X132705720Y-98305696D01*
X132776538Y-98300670D01*
X132838832Y-98334730D01*
G37*
%TD.AperFunction*%
%TA.AperFunction,Conductor*%
G36*
X135338832Y-98334730D02*
G01*
X135350513Y-98348209D01*
X135436739Y-98463261D01*
X135553295Y-98550615D01*
X135561703Y-98553767D01*
X135637062Y-98582018D01*
X135693826Y-98624660D01*
X135718526Y-98691221D01*
X135703319Y-98760570D01*
X135653033Y-98810688D01*
X135637062Y-98817982D01*
X135553295Y-98849385D01*
X135436739Y-98936739D01*
X135416500Y-98963744D01*
X135350513Y-99051790D01*
X135293653Y-99094304D01*
X135222835Y-99099329D01*
X135160542Y-99065270D01*
X135148861Y-99051789D01*
X135068285Y-98944276D01*
X135055724Y-98931715D01*
X134953649Y-98855214D01*
X134938054Y-98846676D01*
X134861513Y-98817982D01*
X134804749Y-98775340D01*
X134780049Y-98708779D01*
X134795256Y-98639430D01*
X134845542Y-98589312D01*
X134861513Y-98582018D01*
X134938054Y-98553324D01*
X134953649Y-98544786D01*
X135055724Y-98468285D01*
X135068285Y-98455724D01*
X135148861Y-98348211D01*
X135205720Y-98305696D01*
X135276538Y-98300670D01*
X135338832Y-98334730D01*
G37*
%TD.AperFunction*%
%TA.AperFunction,Conductor*%
G36*
X134642121Y-92828502D02*
G01*
X134688614Y-92882158D01*
X134700000Y-92934500D01*
X134700000Y-93707999D01*
X134699896Y-93707999D01*
X134701369Y-93749254D01*
X134700000Y-93755547D01*
X134700000Y-94515500D01*
X134679998Y-94583621D01*
X134626342Y-94630114D01*
X134574000Y-94641500D01*
X134434500Y-94641500D01*
X134366379Y-94621498D01*
X134319886Y-94567842D01*
X134308500Y-94515500D01*
X134308500Y-94201866D01*
X134301745Y-94139684D01*
X134250615Y-94003295D01*
X134225174Y-93969349D01*
X134200326Y-93902842D01*
X134200000Y-93893784D01*
X134200000Y-93742001D01*
X134200104Y-93742001D01*
X134198631Y-93700746D01*
X134200000Y-93694453D01*
X134200000Y-93556216D01*
X134220002Y-93488095D01*
X134225174Y-93480651D01*
X134245229Y-93453892D01*
X134245230Y-93453890D01*
X134250615Y-93446705D01*
X134301745Y-93310316D01*
X134308500Y-93248134D01*
X134308500Y-92934500D01*
X134328502Y-92866379D01*
X134382158Y-92819886D01*
X134434500Y-92808500D01*
X134574000Y-92808500D01*
X134642121Y-92828502D01*
G37*
%TD.AperFunction*%
%TA.AperFunction,Conductor*%
G36*
X142838832Y-93434730D02*
G01*
X142850513Y-93448209D01*
X142936739Y-93563261D01*
X142943919Y-93568642D01*
X142943920Y-93568643D01*
X143051372Y-93649174D01*
X143093887Y-93706033D01*
X143098913Y-93776852D01*
X143064853Y-93839145D01*
X143051372Y-93850826D01*
X142943920Y-93931357D01*
X142936739Y-93936739D01*
X142866508Y-94030448D01*
X142850513Y-94051790D01*
X142793653Y-94094304D01*
X142722835Y-94099329D01*
X142660542Y-94065270D01*
X142648861Y-94051789D01*
X142568285Y-93944276D01*
X142555724Y-93931715D01*
X142447794Y-93850826D01*
X142405279Y-93793967D01*
X142400253Y-93723148D01*
X142434313Y-93660855D01*
X142447794Y-93649174D01*
X142555724Y-93568285D01*
X142568285Y-93555724D01*
X142648861Y-93448211D01*
X142705720Y-93405696D01*
X142776538Y-93400670D01*
X142838832Y-93434730D01*
G37*
%TD.AperFunction*%
%TA.AperFunction,Conductor*%
G36*
X137838832Y-93434730D02*
G01*
X137850513Y-93448209D01*
X137936739Y-93563261D01*
X137943919Y-93568642D01*
X137943920Y-93568643D01*
X138051372Y-93649174D01*
X138093887Y-93706033D01*
X138098913Y-93776852D01*
X138064853Y-93839145D01*
X138051372Y-93850826D01*
X137943920Y-93931357D01*
X137936739Y-93936739D01*
X137866508Y-94030448D01*
X137850513Y-94051790D01*
X137793653Y-94094304D01*
X137722835Y-94099329D01*
X137660542Y-94065270D01*
X137648861Y-94051789D01*
X137568285Y-93944276D01*
X137555724Y-93931715D01*
X137447794Y-93850826D01*
X137405279Y-93793967D01*
X137400253Y-93723148D01*
X137434313Y-93660855D01*
X137447794Y-93649174D01*
X137555724Y-93568285D01*
X137568285Y-93555724D01*
X137648861Y-93448211D01*
X137705720Y-93405696D01*
X137776538Y-93400670D01*
X137838832Y-93434730D01*
G37*
%TD.AperFunction*%
%TA.AperFunction,Conductor*%
G36*
X140338832Y-93434730D02*
G01*
X140350513Y-93448209D01*
X140436739Y-93563261D01*
X140443919Y-93568642D01*
X140443920Y-93568643D01*
X140551372Y-93649174D01*
X140593887Y-93706033D01*
X140598913Y-93776852D01*
X140564853Y-93839145D01*
X140551372Y-93850826D01*
X140443920Y-93931357D01*
X140436739Y-93936739D01*
X140366508Y-94030448D01*
X140350513Y-94051790D01*
X140293653Y-94094304D01*
X140222835Y-94099329D01*
X140160542Y-94065270D01*
X140148861Y-94051789D01*
X140068285Y-93944276D01*
X140055724Y-93931715D01*
X139947794Y-93850826D01*
X139905279Y-93793967D01*
X139900253Y-93723148D01*
X139934313Y-93660855D01*
X139947794Y-93649174D01*
X140055724Y-93568285D01*
X140068285Y-93555724D01*
X140148861Y-93448211D01*
X140205720Y-93405696D01*
X140276538Y-93400670D01*
X140338832Y-93434730D01*
G37*
%TD.AperFunction*%
%TA.AperFunction,Conductor*%
G36*
X147838832Y-93434730D02*
G01*
X147850513Y-93448209D01*
X147936739Y-93563261D01*
X147943919Y-93568642D01*
X147943920Y-93568643D01*
X148051372Y-93649174D01*
X148093887Y-93706033D01*
X148098913Y-93776852D01*
X148064853Y-93839145D01*
X148051372Y-93850826D01*
X147943920Y-93931357D01*
X147936739Y-93936739D01*
X147866508Y-94030448D01*
X147850513Y-94051790D01*
X147793653Y-94094304D01*
X147722835Y-94099329D01*
X147660542Y-94065270D01*
X147648861Y-94051789D01*
X147568285Y-93944276D01*
X147555724Y-93931715D01*
X147447794Y-93850826D01*
X147405279Y-93793967D01*
X147400253Y-93723148D01*
X147434313Y-93660855D01*
X147447794Y-93649174D01*
X147555724Y-93568285D01*
X147568285Y-93555724D01*
X147648861Y-93448211D01*
X147705720Y-93405696D01*
X147776538Y-93400670D01*
X147838832Y-93434730D01*
G37*
%TD.AperFunction*%
%TA.AperFunction,Conductor*%
G36*
X145338832Y-93434730D02*
G01*
X145350513Y-93448209D01*
X145436739Y-93563261D01*
X145443919Y-93568642D01*
X145443920Y-93568643D01*
X145551372Y-93649174D01*
X145593887Y-93706033D01*
X145598913Y-93776852D01*
X145564853Y-93839145D01*
X145551372Y-93850826D01*
X145443920Y-93931357D01*
X145436739Y-93936739D01*
X145366508Y-94030448D01*
X145350513Y-94051790D01*
X145293653Y-94094304D01*
X145222835Y-94099329D01*
X145160542Y-94065270D01*
X145148861Y-94051789D01*
X145068285Y-93944276D01*
X145055724Y-93931715D01*
X144947794Y-93850826D01*
X144905279Y-93793967D01*
X144900253Y-93723148D01*
X144934313Y-93660855D01*
X144947794Y-93649174D01*
X145055724Y-93568285D01*
X145068285Y-93555724D01*
X145148861Y-93448211D01*
X145205720Y-93405696D01*
X145276538Y-93400670D01*
X145338832Y-93434730D01*
G37*
%TD.AperFunction*%
%TA.AperFunction,Conductor*%
G36*
X132838832Y-93434730D02*
G01*
X132850513Y-93448209D01*
X132936739Y-93563261D01*
X132943919Y-93568642D01*
X133018015Y-93624174D01*
X133060530Y-93681033D01*
X133065556Y-93751852D01*
X133031496Y-93814145D01*
X133018016Y-93825825D01*
X132936739Y-93886739D01*
X132849385Y-94003295D01*
X132846234Y-94011701D01*
X132844213Y-94015392D01*
X132793955Y-94065538D01*
X132724564Y-94080552D01*
X132658072Y-94055667D01*
X132632867Y-94030448D01*
X132568285Y-93944276D01*
X132555724Y-93931715D01*
X132447794Y-93850826D01*
X132405279Y-93793967D01*
X132400253Y-93723148D01*
X132434313Y-93660855D01*
X132447794Y-93649174D01*
X132555724Y-93568285D01*
X132568285Y-93555724D01*
X132648861Y-93448211D01*
X132705720Y-93405696D01*
X132776538Y-93400670D01*
X132838832Y-93434730D01*
G37*
%TD.AperFunction*%
%TA.AperFunction,Conductor*%
G36*
X135338832Y-93434730D02*
G01*
X135350513Y-93448209D01*
X135436739Y-93563261D01*
X135443919Y-93568642D01*
X135443920Y-93568643D01*
X135551372Y-93649174D01*
X135593887Y-93706033D01*
X135598913Y-93776852D01*
X135564853Y-93839145D01*
X135551372Y-93850826D01*
X135443920Y-93931357D01*
X135436739Y-93936739D01*
X135431358Y-93943919D01*
X135431357Y-93943920D01*
X135366536Y-94030410D01*
X135309676Y-94072925D01*
X135238858Y-94077951D01*
X135176565Y-94043891D01*
X135155190Y-94015353D01*
X135144790Y-93996356D01*
X135068285Y-93894276D01*
X135055724Y-93881715D01*
X134981151Y-93825826D01*
X134938636Y-93768967D01*
X134933610Y-93698149D01*
X134967670Y-93635855D01*
X134981151Y-93624174D01*
X135055724Y-93568285D01*
X135068285Y-93555724D01*
X135148861Y-93448211D01*
X135205720Y-93405696D01*
X135276538Y-93400670D01*
X135338832Y-93434730D01*
G37*
%TD.AperFunction*%
%TD*%
M02*
