%TF.GenerationSoftware,KiCad,Pcbnew,(6.0.4)*%
%TF.CreationDate,2022-05-26T12:18:36+02:00*%
%TF.ProjectId,SK6805EC15_Matrix,534b3638-3035-4454-9331-355f4d617472,rev?*%
%TF.SameCoordinates,Original*%
%TF.FileFunction,Paste,Top*%
%TF.FilePolarity,Positive*%
%FSLAX46Y46*%
G04 Gerber Fmt 4.6, Leading zero omitted, Abs format (unit mm)*
G04 Created by KiCad (PCBNEW (6.0.4)) date 2022-05-26 12:18:36*
%MOMM*%
%LPD*%
G01*
G04 APERTURE LIST*
%ADD10R,0.500000X0.500000*%
G04 APERTURE END LIST*
D10*
%TO.C,D59*%
X143550000Y-107950000D03*
X144450000Y-107950000D03*
X144450000Y-107050000D03*
X143550000Y-107050000D03*
%TD*%
%TO.C,D54*%
X144450000Y-105450000D03*
X144450000Y-104550000D03*
X143550000Y-104550000D03*
X143550000Y-105450000D03*
%TD*%
%TO.C,D15*%
X133550000Y-92950000D03*
X134450000Y-92950000D03*
X134450000Y-92050000D03*
X133550000Y-92050000D03*
%TD*%
%TO.C,D3*%
X136950000Y-90450000D03*
X136950000Y-89550000D03*
X136050000Y-89550000D03*
X136050000Y-90450000D03*
%TD*%
%TO.C,D47*%
X133550000Y-102950000D03*
X134450000Y-102950000D03*
X134450000Y-102050000D03*
X133550000Y-102050000D03*
%TD*%
%TO.C,D23*%
X146950000Y-95450000D03*
X146950000Y-94550000D03*
X146050000Y-94550000D03*
X146050000Y-95450000D03*
%TD*%
%TO.C,D26*%
X146050000Y-97850000D03*
X146950000Y-97850000D03*
X146950000Y-96950000D03*
X146050000Y-96950000D03*
%TD*%
%TO.C,D56*%
X149450000Y-105450000D03*
X149450000Y-104550000D03*
X148550000Y-104550000D03*
X148550000Y-105450000D03*
%TD*%
%TO.C,D55*%
X146950000Y-105450000D03*
X146950000Y-104550000D03*
X146050000Y-104550000D03*
X146050000Y-105450000D03*
%TD*%
%TO.C,D45*%
X138550000Y-102950000D03*
X139450000Y-102950000D03*
X139450000Y-102050000D03*
X138550000Y-102050000D03*
%TD*%
%TO.C,D32*%
X131050000Y-97850000D03*
X131950000Y-97850000D03*
X131950000Y-96950000D03*
X131050000Y-96950000D03*
%TD*%
%TO.C,D35*%
X136950000Y-100450000D03*
X136950000Y-99550000D03*
X136050000Y-99550000D03*
X136050000Y-100450000D03*
%TD*%
%TO.C,D44*%
X141050000Y-102950000D03*
X141950000Y-102950000D03*
X141950000Y-102050000D03*
X141050000Y-102050000D03*
%TD*%
%TO.C,D1*%
X131950000Y-90450000D03*
X131950000Y-89550000D03*
X131050000Y-89550000D03*
X131050000Y-90450000D03*
%TD*%
%TO.C,D20*%
X139450000Y-95450000D03*
X139450000Y-94550000D03*
X138550000Y-94550000D03*
X138550000Y-95450000D03*
%TD*%
%TO.C,D58*%
X146050000Y-107950000D03*
X146950000Y-107950000D03*
X146950000Y-107050000D03*
X146050000Y-107050000D03*
%TD*%
%TO.C,D63*%
X133550000Y-107950000D03*
X134450000Y-107950000D03*
X134450000Y-107050000D03*
X133550000Y-107050000D03*
%TD*%
%TO.C,D40*%
X149450000Y-100450000D03*
X149450000Y-99550000D03*
X148550000Y-99550000D03*
X148550000Y-100450000D03*
%TD*%
%TO.C,D62*%
X136050000Y-107950000D03*
X136950000Y-107950000D03*
X136950000Y-107050000D03*
X136050000Y-107050000D03*
%TD*%
%TO.C,D64*%
X131050000Y-107950000D03*
X131950000Y-107950000D03*
X131950000Y-107050000D03*
X131050000Y-107050000D03*
%TD*%
%TO.C,D43*%
X143550000Y-102950000D03*
X144450000Y-102950000D03*
X144450000Y-102050000D03*
X143550000Y-102050000D03*
%TD*%
%TO.C,D49*%
X131950000Y-105450000D03*
X131950000Y-104550000D03*
X131050000Y-104550000D03*
X131050000Y-105450000D03*
%TD*%
%TO.C,D18*%
X134450000Y-95400000D03*
X134450000Y-94500000D03*
X133550000Y-94500000D03*
X133550000Y-95400000D03*
%TD*%
%TO.C,D39*%
X146950000Y-100450000D03*
X146950000Y-99550000D03*
X146050000Y-99550000D03*
X146050000Y-100450000D03*
%TD*%
%TO.C,D37*%
X141950000Y-100450000D03*
X141950000Y-99550000D03*
X141050000Y-99550000D03*
X141050000Y-100450000D03*
%TD*%
%TO.C,D42*%
X146050000Y-102950000D03*
X146950000Y-102950000D03*
X146950000Y-102050000D03*
X146050000Y-102050000D03*
%TD*%
%TO.C,D61*%
X138550000Y-107950000D03*
X139450000Y-107950000D03*
X139450000Y-107050000D03*
X138550000Y-107050000D03*
%TD*%
%TO.C,D5*%
X141950000Y-90450000D03*
X141950000Y-89550000D03*
X141050000Y-89550000D03*
X141050000Y-90450000D03*
%TD*%
%TO.C,D28*%
X141050000Y-97850000D03*
X141950000Y-97850000D03*
X141950000Y-96950000D03*
X141050000Y-96950000D03*
%TD*%
%TO.C,D27*%
X143550000Y-97850000D03*
X144450000Y-97850000D03*
X144450000Y-96950000D03*
X143550000Y-96950000D03*
%TD*%
%TO.C,D19*%
X136950000Y-95450000D03*
X136950000Y-94550000D03*
X136050000Y-94550000D03*
X136050000Y-95450000D03*
%TD*%
%TO.C,D57*%
X148550000Y-107950000D03*
X149450000Y-107950000D03*
X149450000Y-107050000D03*
X148550000Y-107050000D03*
%TD*%
%TO.C,D30*%
X136050000Y-97850000D03*
X136950000Y-97850000D03*
X136950000Y-96950000D03*
X136050000Y-96950000D03*
%TD*%
%TO.C,D2*%
X134450000Y-90450000D03*
X134450000Y-89550000D03*
X133550000Y-89550000D03*
X133550000Y-90450000D03*
%TD*%
%TO.C,D16*%
X131050000Y-92950000D03*
X131950000Y-92950000D03*
X131950000Y-92050000D03*
X131050000Y-92050000D03*
%TD*%
%TO.C,D53*%
X141950000Y-105450000D03*
X141950000Y-104550000D03*
X141050000Y-104550000D03*
X141050000Y-105450000D03*
%TD*%
%TO.C,D11*%
X143550000Y-92950000D03*
X144450000Y-92950000D03*
X144450000Y-92050000D03*
X143550000Y-92050000D03*
%TD*%
%TO.C,D60*%
X141050000Y-107950000D03*
X141950000Y-107950000D03*
X141950000Y-107050000D03*
X141050000Y-107050000D03*
%TD*%
%TO.C,D34*%
X134450000Y-100450000D03*
X134450000Y-99550000D03*
X133550000Y-99550000D03*
X133550000Y-100450000D03*
%TD*%
%TO.C,D31*%
X133550000Y-97850000D03*
X134450000Y-97850000D03*
X134450000Y-96950000D03*
X133550000Y-96950000D03*
%TD*%
%TO.C,D29*%
X138550000Y-97850000D03*
X139450000Y-97850000D03*
X139450000Y-96950000D03*
X138550000Y-96950000D03*
%TD*%
%TO.C,D36*%
X139450000Y-100450000D03*
X139450000Y-99550000D03*
X138550000Y-99550000D03*
X138550000Y-100450000D03*
%TD*%
%TO.C,D4*%
X139450000Y-90450000D03*
X139450000Y-89550000D03*
X138550000Y-89550000D03*
X138550000Y-90450000D03*
%TD*%
%TO.C,D12*%
X141050000Y-92950000D03*
X141950000Y-92950000D03*
X141950000Y-92050000D03*
X141050000Y-92050000D03*
%TD*%
%TO.C,D7*%
X146950000Y-90450000D03*
X146950000Y-89550000D03*
X146050000Y-89550000D03*
X146050000Y-90450000D03*
%TD*%
%TO.C,D6*%
X144450000Y-90450000D03*
X144450000Y-89550000D03*
X143550000Y-89550000D03*
X143550000Y-90450000D03*
%TD*%
%TO.C,D21*%
X141950000Y-95450000D03*
X141950000Y-94550000D03*
X141050000Y-94550000D03*
X141050000Y-95450000D03*
%TD*%
%TO.C,D51*%
X136950000Y-105450000D03*
X136950000Y-104550000D03*
X136050000Y-104550000D03*
X136050000Y-105450000D03*
%TD*%
%TO.C,D14*%
X136050000Y-92950000D03*
X136950000Y-92950000D03*
X136950000Y-92050000D03*
X136050000Y-92050000D03*
%TD*%
%TO.C,D24*%
X149450000Y-95450000D03*
X149450000Y-94550000D03*
X148550000Y-94550000D03*
X148550000Y-95450000D03*
%TD*%
%TO.C,D13*%
X138550000Y-92950000D03*
X139450000Y-92950000D03*
X139450000Y-92050000D03*
X138550000Y-92050000D03*
%TD*%
%TO.C,D8*%
X149450000Y-90450000D03*
X149450000Y-89550000D03*
X148550000Y-89550000D03*
X148550000Y-90450000D03*
%TD*%
%TO.C,D10*%
X146050000Y-92950000D03*
X146950000Y-92950000D03*
X146950000Y-92050000D03*
X146050000Y-92050000D03*
%TD*%
%TO.C,D48*%
X131050000Y-102950000D03*
X131950000Y-102950000D03*
X131950000Y-102050000D03*
X131050000Y-102050000D03*
%TD*%
%TO.C,D25*%
X148550000Y-97850000D03*
X149450000Y-97850000D03*
X149450000Y-96950000D03*
X148550000Y-96950000D03*
%TD*%
%TO.C,D33*%
X131950000Y-100450000D03*
X131950000Y-99550000D03*
X131050000Y-99550000D03*
X131050000Y-100450000D03*
%TD*%
%TO.C,D50*%
X134450000Y-105450000D03*
X134450000Y-104550000D03*
X133550000Y-104550000D03*
X133550000Y-105450000D03*
%TD*%
%TO.C,D9*%
X148550000Y-92950000D03*
X149450000Y-92950000D03*
X149450000Y-92050000D03*
X148550000Y-92050000D03*
%TD*%
%TO.C,D17*%
X131950000Y-95450000D03*
X131950000Y-94550000D03*
X131050000Y-94550000D03*
X131050000Y-95450000D03*
%TD*%
%TO.C,D38*%
X144450000Y-100450000D03*
X144450000Y-99550000D03*
X143550000Y-99550000D03*
X143550000Y-100450000D03*
%TD*%
%TO.C,D46*%
X136050000Y-102950000D03*
X136950000Y-102950000D03*
X136950000Y-102050000D03*
X136050000Y-102050000D03*
%TD*%
%TO.C,D22*%
X144450000Y-95450000D03*
X144450000Y-94550000D03*
X143550000Y-94550000D03*
X143550000Y-95450000D03*
%TD*%
%TO.C,D52*%
X139450000Y-105450000D03*
X139450000Y-104550000D03*
X138550000Y-104550000D03*
X138550000Y-105450000D03*
%TD*%
%TO.C,D41*%
X148550000Y-102950000D03*
X149450000Y-102950000D03*
X149450000Y-102050000D03*
X148550000Y-102050000D03*
%TD*%
M02*
