M48
; DRILL file {KiCad (6.0.4)} date Thu May 26 12:18:32 2022
; FORMAT={-:-/ absolute / inch / decimal}
; #@! TF.CreationDate,2022-05-26T12:18:32+02:00
; #@! TF.GenerationSoftware,Kicad,Pcbnew,(6.0.4)
; #@! TF.FileFunction,Plated,1,2,PTH
FMAT,2
INCH
; #@! TA.AperFunction,Plated,PTH,ViaDrill
T1C0.0118
%
G90
G05
T1
X5.1309Y-3.8346
X5.1339Y-4.25
X5.1929Y-3.689
X5.2205Y-3.5236
X5.2264Y-4.2717
X5.2579Y-3.5906
X5.2933Y-3.689
X5.3189Y-3.5236
X5.3248Y-4.2717
X5.3406Y-4.0846
X5.3563Y-3.5906
X5.3563Y-3.7874
X5.3917Y-3.6909
X5.3917Y-4.0846
X5.3937Y-3.8858
X5.4173Y-3.5236
X5.4232Y-4.2717
X5.4547Y-3.5906
X5.4547Y-3.9843
X5.4547Y-4.1811
X5.4902Y-3.6909
X5.4902Y-3.8858
X5.4902Y-4.0846
X5.5157Y-3.5236
X5.5217Y-4.2717
X5.5886Y-3.6909
X5.5886Y-3.8858
X5.5886Y-4.0827
X5.6142Y-3.5236
X5.6201Y-4.2717
X5.6516Y-3.5906
X5.6516Y-3.7874
X5.6516Y-4.0846
X5.687Y-3.689
X5.687Y-3.8858
X5.687Y-4.0846
X5.7126Y-3.5236
X5.7185Y-4.2717
X5.75Y-3.5906
X5.7618Y-3.689
X5.811Y-3.5236
X5.8169Y-4.2717
X5.8839Y-3.689
X5.8937Y-3.5157
T0
M30
